M48
;Layer_Color=9474304
;FILE_FORMAT=4:3
METRIC,LZ
;TYPE=PLATED
T1F00S00C0.300
T2F00S00C0.700
T3F00S00C0.900
T4F00S00C0.920
T5F00S00C1.000
T6F00S00C1.200
T7F00S00C2.300
T8F00S00C3.000
%
T01
X0059Y0001
Y00065
X004895Y000735
X00485Y0001
X0030375Y000525
X0025675Y0002175
X0015575Y0002225
X00045Y00065
X0006925Y00081
X000645Y0012125
X00045Y00135
X0001Y0014
Y0008
Y002
X00045Y00185
X0005Y00255
X0001
X0009075Y00266
X00117
X0011725Y00241
X0010575Y0023083
X00111Y0021925
X0011925Y0014925
X00126Y0010525
X001295Y002895
X0016Y0029
X0022
X0021575Y002575
Y0024675
X002385Y0022475
X00246Y0020875
X0024525Y001995
X00265Y0019025
X002705Y0018375
X0026189Y0017511
X0026173Y0016754
X0028025Y00171
X0026725Y001475
X0026958Y001155
X00277Y00118
X0029075Y0011675
X0029625Y0010625
X0026433Y00105
X0021925Y0010425
X002255Y0007975
X0016975Y0010475
X0016625Y00168
X0017Y001845
X0015Y0020825
X001865Y0022025
X0018101Y0022576
X0018551Y0023201
X0026625Y0023825
X002755Y00219
X0030025Y00222
X0029975Y002055
X0028575Y0024825
X0027913Y00261
X0028Y0029
X0023479Y0017071
X0022725Y0016975
X0021875Y0016875
X0021Y00168
X00237Y0015375
X0033075Y000925
X0032925Y0007825
X004375Y0007425
X00445Y00142
X0042075Y00141
X00487Y00156
X00535Y0018
X005315Y002335
X00588Y00237
X0059Y0029
X00545
X00566Y00145
X0059
T02
X0056875Y00021
Y00041
Y00061
X00516
Y00041
Y00021
X00463
Y00041
Y00061
X0041075
Y00041
Y00021
X00101Y0027775
X00081
X00061
X00041
X00021
X003435Y00279
Y00259
Y00239
Y00219
Y00199
Y00179
X0039675Y0017925
Y0019925
Y0021925
Y0023925
Y0025925
Y0027925
X0044975
Y0025925
Y0023925
Y0021925
Y0019925
Y0017925
X0050275Y00179
Y00199
Y00219
Y00239
Y00259
Y00279
X00516Y00121
Y00101
Y00081
X00463
Y00101
Y00121
X0041075
Y00101
Y00081
X0056875
Y00101
Y00121
T03
X001678Y0001275
Y0003815
X001932
Y0001275
X002186
Y0003815
X00244
Y0001275
X002694
Y0003815
X002948
Y0001275
X003202
Y0003815
X003456
Y0001275
X00371
Y0003815
X001424
X00117
Y0001275
X001424
X005555Y001811
Y002065
X005809
Y001811
T04
X0007075Y0014775
X0009075
Y0017275
X0007075
T05
X000936Y00074
X00119
X001444
X001698
X001952
X0035035Y0007735
Y0010275
Y0012815
X0037575
Y0010275
Y0007735
T06
X0014775Y0010525
Y0017025
T07
X0004365Y0010005
Y0022045
T08
X0003Y0003
M30
