G04*
G04 #@! TF.GenerationSoftware,Altium Limited,Altium Designer,20.1.14 (287)*
G04*
G04 Layer_Color=8388736*
%FSLAX43Y43*%
%MOMM*%
G71*
G04*
G04 #@! TF.SameCoordinates,AEFB124F-17DC-4B78-9156-2B8A2562A570*
G04*
G04*
G04 #@! TF.FilePolarity,Negative*
G04*
G01*
G75*
%ADD15C,0.200*%
%ADD17R,1.100X0.700*%
%ADD18R,1.000X0.800*%
%ADD19R,0.800X1.000*%
%ADD20O,0.400X1.550*%
%ADD21O,1.550X0.400*%
%ADD22R,1.200X1.400*%
G04:AMPARAMS|DCode=23|XSize=1.4mm|YSize=1.2mm|CornerRadius=0.325mm|HoleSize=0mm|Usage=FLASHONLY|Rotation=270.000|XOffset=0mm|YOffset=0mm|HoleType=Round|Shape=RoundedRectangle|*
%AMROUNDEDRECTD23*
21,1,1.400,0.550,0,0,270.0*
21,1,0.750,1.200,0,0,270.0*
1,1,0.650,-0.275,-0.375*
1,1,0.650,-0.275,0.375*
1,1,0.650,0.275,0.375*
1,1,0.650,0.275,-0.375*
%
%ADD23ROUNDEDRECTD23*%
%ADD24R,1.090X0.400*%
G04:AMPARAMS|DCode=25|XSize=3.1mm|YSize=1.7mm|CornerRadius=0.45mm|HoleSize=0mm|Usage=FLASHONLY|Rotation=270.000|XOffset=0mm|YOffset=0mm|HoleType=Round|Shape=RoundedRectangle|*
%AMROUNDEDRECTD25*
21,1,3.100,0.800,0,0,270.0*
21,1,2.200,1.700,0,0,270.0*
1,1,0.900,-0.400,-1.100*
1,1,0.900,-0.400,1.100*
1,1,0.900,0.400,1.100*
1,1,0.900,0.400,-1.100*
%
%ADD25ROUNDEDRECTD25*%
%ADD26R,0.800X1.100*%
%ADD27C,1.500*%
%ADD28C,1.600*%
G04:AMPARAMS|DCode=29|XSize=1.6mm|YSize=1.6mm|CornerRadius=0.425mm|HoleSize=0mm|Usage=FLASHONLY|Rotation=270.000|XOffset=0mm|YOffset=0mm|HoleType=Round|Shape=RoundedRectangle|*
%AMROUNDEDRECTD29*
21,1,1.600,0.750,0,0,270.0*
21,1,0.750,1.600,0,0,270.0*
1,1,0.850,-0.375,-0.375*
1,1,0.850,-0.375,0.375*
1,1,0.850,0.375,0.375*
1,1,0.850,0.375,-0.375*
%
%ADD29ROUNDEDRECTD29*%
%ADD30R,1.600X1.600*%
%ADD31C,3.600*%
D15*
X0Y0D02*
Y36000D01*
Y0D02*
X53000D01*
Y36000D01*
X0D02*
X53000D01*
D17*
X11750Y28125D02*
D03*
Y29075D02*
D03*
Y30025D02*
D03*
X9000D02*
D03*
Y28125D02*
D03*
D18*
X35100Y32950D02*
D03*
Y31450D02*
D03*
X13300Y28550D02*
D03*
Y30000D02*
D03*
X14575Y28550D02*
D03*
Y30000D02*
D03*
D19*
X3300Y2675D02*
D03*
X1800D02*
D03*
X48625Y26150D02*
D03*
X47125D02*
D03*
X48625Y24900D02*
D03*
X47125D02*
D03*
Y23625D02*
D03*
X48625D02*
D03*
X18425Y29600D02*
D03*
X16975D02*
D03*
X17000Y34800D02*
D03*
X18450D02*
D03*
X4050Y28200D02*
D03*
X2550D02*
D03*
Y29875D02*
D03*
X4000D02*
D03*
X11550Y26550D02*
D03*
X10100D02*
D03*
X16975Y25650D02*
D03*
X18425D02*
D03*
X49350Y9700D02*
D03*
X47900D02*
D03*
X31325Y26050D02*
D03*
X29875D02*
D03*
X33075Y33350D02*
D03*
X31625D02*
D03*
X20225Y34800D02*
D03*
X21675D02*
D03*
X18425Y28150D02*
D03*
X16975D02*
D03*
X18425Y26900D02*
D03*
X16925D02*
D03*
X32425Y31550D02*
D03*
X33925D02*
D03*
X32425Y30300D02*
D03*
X33925D02*
D03*
X1800Y8200D02*
D03*
X3300D02*
D03*
X1800Y1425D02*
D03*
X3300D02*
D03*
X11550Y25275D02*
D03*
X10100D02*
D03*
X11550Y24000D02*
D03*
X10100D02*
D03*
D20*
X22900Y34525D02*
D03*
X23400D02*
D03*
X23900D02*
D03*
X24400D02*
D03*
X24900D02*
D03*
X25400D02*
D03*
X25900D02*
D03*
X26400D02*
D03*
X26900D02*
D03*
X27400D02*
D03*
X27900D02*
D03*
X28400D02*
D03*
Y26075D02*
D03*
X27900D02*
D03*
X27400D02*
D03*
X26900D02*
D03*
X26400D02*
D03*
X25900D02*
D03*
X25400D02*
D03*
X24900D02*
D03*
X24400D02*
D03*
X23900D02*
D03*
X23400D02*
D03*
X22900D02*
D03*
D21*
X29875Y33050D02*
D03*
Y32550D02*
D03*
Y32050D02*
D03*
Y31550D02*
D03*
Y31050D02*
D03*
Y30550D02*
D03*
Y30050D02*
D03*
Y29550D02*
D03*
Y29050D02*
D03*
Y28550D02*
D03*
Y28050D02*
D03*
Y27550D02*
D03*
X21425D02*
D03*
Y28050D02*
D03*
Y28550D02*
D03*
Y29050D02*
D03*
Y29550D02*
D03*
Y30050D02*
D03*
Y30550D02*
D03*
Y31050D02*
D03*
Y31550D02*
D03*
Y32050D02*
D03*
Y32550D02*
D03*
Y33050D02*
D03*
D22*
X16825Y33350D02*
D03*
D23*
Y31050D02*
D03*
X18625D02*
D03*
Y33350D02*
D03*
D24*
X14605Y32800D02*
D03*
Y32300D02*
D03*
Y31800D02*
D03*
X12995D02*
D03*
Y32300D02*
D03*
Y32800D02*
D03*
D25*
X47850Y11975D02*
D03*
Y20775D02*
D03*
D26*
X3250Y6500D02*
D03*
X1750D02*
D03*
Y4500D02*
D03*
X3250D02*
D03*
D27*
X24475Y3150D02*
D03*
X22475D02*
D03*
X20475D02*
D03*
X18475D02*
D03*
X16475D02*
D03*
X14475D02*
D03*
X14450Y8175D02*
D03*
X16450D02*
D03*
X18450D02*
D03*
X20450D02*
D03*
X22450D02*
D03*
X24450D02*
D03*
Y13200D02*
D03*
X22450D02*
D03*
X20450D02*
D03*
X18450D02*
D03*
X16450D02*
D03*
X14450D02*
D03*
X28700Y3150D02*
D03*
X30700D02*
D03*
X32700D02*
D03*
X34700D02*
D03*
X36700D02*
D03*
X38700D02*
D03*
X38675Y13200D02*
D03*
X36675D02*
D03*
X34675D02*
D03*
X32675D02*
D03*
X30675D02*
D03*
X28675D02*
D03*
Y18225D02*
D03*
X30675D02*
D03*
X32675D02*
D03*
X34675D02*
D03*
X36675D02*
D03*
X38675D02*
D03*
Y23250D02*
D03*
X36675D02*
D03*
X34675D02*
D03*
X32675D02*
D03*
X30675D02*
D03*
X28675D02*
D03*
Y8175D02*
D03*
X30675D02*
D03*
X32675D02*
D03*
X34675D02*
D03*
X36675D02*
D03*
X38675D02*
D03*
X10075Y32800D02*
D03*
X8075D02*
D03*
X6075D02*
D03*
X4075D02*
D03*
X2075D02*
D03*
X13000Y18000D02*
D03*
X49000Y32000D02*
D03*
Y4000D02*
D03*
D28*
X7500Y5160D02*
D03*
Y2620D02*
D03*
X10040D02*
D03*
Y5160D02*
D03*
Y7700D02*
D03*
X44700Y1485D02*
D03*
X42160D02*
D03*
X44700Y4025D02*
D03*
X42160D02*
D03*
X44700Y6565D02*
D03*
X42160D02*
D03*
X44700Y9105D02*
D03*
X42160D02*
D03*
X44700Y11645D02*
D03*
X42160D02*
D03*
X44700Y14185D02*
D03*
X42160D02*
D03*
X44700Y16725D02*
D03*
X42160D02*
D03*
X44700Y19265D02*
D03*
X42160D02*
D03*
X44700Y21805D02*
D03*
X42160D02*
D03*
X44700Y24345D02*
D03*
X42160D02*
D03*
X44700Y26885D02*
D03*
X42160D02*
D03*
X44700Y29425D02*
D03*
X42160D02*
D03*
X44700Y31965D02*
D03*
X42160D02*
D03*
X44700Y34505D02*
D03*
X5750Y19250D02*
D03*
X7750Y16750D02*
D03*
X5750D02*
D03*
X7750Y19250D02*
D03*
X51400Y20380D02*
D03*
Y17840D02*
D03*
Y15300D02*
D03*
Y12760D02*
D03*
D29*
X7500Y7700D02*
D03*
X51400Y22920D02*
D03*
D30*
X42160Y34505D02*
D03*
D31*
X3040Y24020D02*
D03*
Y11980D02*
D03*
M02*
