M48
;Layer_Color=9474304
;FILE_FORMAT=4:3
METRIC,LZ
;TYPE=PLATED
T1F00S00C0.300
T2F00S00C0.700
T3F00S00C0.900
T4F00S00C0.920
T5F00S00C1.000
T6F00S00C1.200
T7F00S00C2.300
T8F00S00C3.000
%
T01
X00586Y00013
X00442Y000105
X0033675Y0006725
X0032534Y0006225
X0031449Y0005199
X002805Y0002325
X0015575Y0002225
X00126Y0010525
X0011925Y0014925
X00111Y0021925
X0009925Y0021875
X0010625Y00231
X0011725Y0024675
X00117Y0026425
X001295Y002895
X0007525Y001035
X0016975Y0010475
X0021925Y0010425
X002255Y0007975
X00262Y001085
X0026951Y0011076
X0026973Y0011809
X0027714Y001181
X0028925Y0010575
X003025Y001085
X0031025Y000985
X0031775
X0026725Y001475
X00265Y0016967
X00271Y0017375
X0028025Y00171
X0025416Y0017109
X0025975Y0017725
X0023479Y0017071
X0022725Y0016975
X0021875Y0016875
X0021Y00168
X00237Y0015375
X0024525Y001995
X00246Y0020875
X002385Y0022475
X0026625Y0023825
X002755Y00219
X0030025Y00222
X0029975Y002055
X0028575Y0024825
X0027913Y00261
X0021575Y002575
Y0024675
X0018551Y0023201
X0018101Y0022576
X001865Y0022025
X0015Y0020825
X0017Y001845
X0016625Y00168
X0016125Y002885
X0022675Y0028825
X005315Y002335
X00487Y00156
X00445Y00142
X00566Y00145
X00588Y00237
T02
X0056875Y00021
Y00041
Y00061
X00516
Y00041
Y00021
X00463
Y00041
Y00061
X0041075
Y00041
Y00021
X00101Y0027775
X00081
X00061
X00041
X00021
X003435Y00279
Y00259
Y00239
Y00219
Y00199
Y00179
X0039675Y0017925
Y0019925
Y0021925
Y0023925
Y0025925
Y0027925
X0044975
Y0025925
Y0023925
Y0021925
Y0019925
Y0017925
X0050275Y00179
Y00199
Y00219
Y00239
Y00259
Y00279
X00516Y00121
Y00101
Y00081
X00463
Y00101
Y00121
X0041075
Y00101
Y00081
X0056875
Y00101
Y00121
T03
X001678Y0001275
Y0003815
X001932
Y0001275
X002186
Y0003815
X00244
Y0001275
X002694
Y0003815
X002948
Y0001275
X003202
Y0003815
X003456
Y0001275
X00371
Y0003815
X001424
X00117
Y0001275
X001424
X005555Y001811
Y002065
X005809
Y001811
T04
X0007075Y0014775
X0009075
Y0017275
X0007075
T05
X000936Y00074
X00119
X001444
X001698
X001952
X0035035Y0007735
Y0010275
Y0012815
X0037575
Y0010275
Y0007735
T06
X0014775Y0010525
Y0017025
T07
X0004365Y0010005
Y0022045
T08
X0003Y0003
M30
