G04*
G04 #@! TF.GenerationSoftware,Altium Limited,Altium Designer,20.1.14 (287)*
G04*
G04 Layer_Color=65535*
%FSLAX43Y43*%
%MOMM*%
G71*
G04*
G04 #@! TF.SameCoordinates,57FBA87C-952B-4BE3-A4A2-45651AB0BD6E*
G04*
G04*
G04 #@! TF.FilePolarity,Positive*
G04*
G01*
G75*
%ADD10C,0.200*%
%ADD11C,0.600*%
%ADD12C,0.250*%
%ADD13C,0.150*%
%ADD14C,0.100*%
G36*
X8650Y3475D02*
X8650Y3475D01*
Y2775D01*
X9000Y3125D01*
X8650Y3475D01*
D02*
G37*
G36*
X29575Y26450D02*
X29575Y26450D01*
Y25750D01*
X29925Y26100D01*
X29575Y26450D01*
D02*
G37*
G36*
X14886Y20593D02*
X14895Y20592D01*
X14906Y20589D01*
X14918Y20587D01*
X14932Y20584D01*
X14946Y20581D01*
X14961Y20576D01*
X14976Y20570D01*
X14992Y20563D01*
X15008Y20554D01*
X15023Y20545D01*
X15039Y20533D01*
X15054Y20521D01*
X15055Y20520D01*
X15057Y20518D01*
X15061Y20513D01*
X15065Y20508D01*
X15071Y20501D01*
X15077Y20493D01*
X15085Y20483D01*
X15092Y20472D01*
X15098Y20459D01*
X15106Y20447D01*
X15118Y20417D01*
X15122Y20401D01*
X15126Y20384D01*
X15128Y20367D01*
X15130Y20348D01*
Y20347D01*
Y20346D01*
Y20343D01*
Y20337D01*
X15128Y20326D01*
X15125Y20311D01*
X15122Y20294D01*
X15117Y20275D01*
X15110Y20254D01*
X15099Y20232D01*
X14796Y19750D01*
X15090D01*
X15094Y19749D01*
X15098Y19748D01*
X15110Y19744D01*
X15115Y19741D01*
X15120Y19736D01*
X15121Y19734D01*
X15122Y19733D01*
X15124Y19730D01*
X15127Y19726D01*
X15132Y19716D01*
X15133Y19709D01*
X15134Y19703D01*
Y19702D01*
Y19700D01*
X15133Y19697D01*
Y19693D01*
X15128Y19682D01*
X15126Y19677D01*
X15122Y19671D01*
Y19670D01*
X15120Y19669D01*
X15117Y19667D01*
X15114Y19664D01*
X15109Y19661D01*
X15102Y19658D01*
X15095Y19657D01*
X15087Y19656D01*
X14710D01*
X14705Y19657D01*
X14696Y19658D01*
X14687Y19662D01*
X14678Y19666D01*
X14670Y19672D01*
X14664Y19681D01*
X14663Y19688D01*
X14662Y19694D01*
Y19695D01*
Y19697D01*
X14663Y19699D01*
Y19703D01*
X14667Y19715D01*
X14669Y19721D01*
X14673Y19728D01*
X15018Y20280D01*
X15019Y20282D01*
X15021Y20286D01*
X15023Y20294D01*
X15027Y20303D01*
X15031Y20313D01*
X15033Y20325D01*
X15035Y20337D01*
X15036Y20350D01*
Y20351D01*
Y20353D01*
Y20356D01*
X15035Y20360D01*
X15034Y20372D01*
X15030Y20385D01*
X15024Y20402D01*
X15016Y20420D01*
X15005Y20437D01*
X14997Y20446D01*
X14989Y20454D01*
X14988Y20455D01*
X14985Y20457D01*
X14981Y20461D01*
X14974Y20467D01*
X14966Y20472D01*
X14958Y20477D01*
X14937Y20487D01*
X14936Y20488D01*
X14932Y20489D01*
X14925Y20492D01*
X14918Y20494D01*
X14909Y20496D01*
X14897Y20498D01*
X14886Y20500D01*
X14867D01*
X14861Y20499D01*
X14851Y20498D01*
X14841Y20496D01*
X14830Y20492D01*
X14818Y20487D01*
X14806Y20481D01*
X14805Y20480D01*
X14800Y20477D01*
X14794Y20473D01*
X14787Y20467D01*
X14779Y20459D01*
X14769Y20450D01*
X14760Y20438D01*
X14752Y20427D01*
X14750Y20426D01*
X14747Y20422D01*
X14742Y20417D01*
X14734Y20410D01*
X14713Y20406D01*
X14710D01*
X14707Y20407D01*
X14703Y20408D01*
X14691Y20411D01*
X14686Y20415D01*
X14680Y20419D01*
X14679Y20420D01*
X14678Y20421D01*
X14675Y20424D01*
X14672Y20428D01*
X14667Y20438D01*
X14666Y20445D01*
X14665Y20451D01*
Y20453D01*
X14666Y20458D01*
X14668Y20467D01*
X14673Y20478D01*
Y20479D01*
X14674Y20480D01*
X14680Y20486D01*
X14686Y20496D01*
X14696Y20507D01*
X14708Y20520D01*
X14723Y20534D01*
X14740Y20548D01*
X14760Y20560D01*
X14761Y20561D01*
X14765Y20563D01*
X14770Y20566D01*
X14776Y20570D01*
X14785Y20573D01*
X14794Y20577D01*
X14814Y20584D01*
X14815D01*
X14818Y20585D01*
X14824Y20587D01*
X14831Y20589D01*
X14839Y20590D01*
X14848Y20593D01*
X14867Y20594D01*
X14878D01*
X14886Y20593D01*
D02*
G37*
G36*
X14305D02*
X14311Y20592D01*
X14319Y20590D01*
X14337Y20586D01*
X14358Y20580D01*
X14380Y20571D01*
X14391Y20564D01*
X14403Y20557D01*
X14413Y20548D01*
X14423Y20538D01*
X14425Y20537D01*
X14426Y20536D01*
X14429Y20533D01*
X14432Y20529D01*
X14436Y20523D01*
X14441Y20517D01*
X14452Y20501D01*
X14461Y20482D01*
X14470Y20459D01*
X14477Y20434D01*
X14478Y20421D01*
X14479Y20406D01*
Y20219D01*
Y20218D01*
Y20216D01*
Y20211D01*
X14478Y20206D01*
X14477Y20199D01*
X14476Y20192D01*
X14471Y20173D01*
X14465Y20153D01*
X14456Y20130D01*
X14450Y20119D01*
X14442Y20108D01*
X14433Y20097D01*
X14423Y20086D01*
X14422Y20085D01*
X14421Y20084D01*
X14418Y20081D01*
X14414Y20078D01*
X14408Y20074D01*
X14402Y20069D01*
X14386Y20059D01*
X14366Y20049D01*
X14344Y20040D01*
X14318Y20033D01*
X14305Y20032D01*
X14290Y20031D01*
X14281D01*
X14470Y19728D01*
X14474Y19718D01*
X14479Y19702D01*
Y19701D01*
Y19699D01*
X14478Y19696D01*
X14477Y19692D01*
X14474Y19687D01*
X14472Y19680D01*
X14468Y19675D01*
X14463Y19669D01*
X14462D01*
X14461Y19667D01*
X14458Y19665D01*
X14454Y19663D01*
X14443Y19658D01*
X14437Y19657D01*
X14430Y19656D01*
X14423D01*
X14416Y19657D01*
X14410Y19659D01*
X14409Y19661D01*
X14405Y19664D01*
X14398Y19669D01*
X14392Y19677D01*
X14170Y20031D01*
X14010D01*
Y19703D01*
Y19702D01*
Y19699D01*
X14009Y19695D01*
X14008Y19690D01*
X14005Y19678D01*
X14001Y19672D01*
X13996Y19667D01*
X13995D01*
X13994Y19665D01*
X13991Y19664D01*
X13987Y19662D01*
X13977Y19658D01*
X13963Y19656D01*
X13960D01*
X13957Y19657D01*
X13952D01*
X13941Y19662D01*
X13935Y19664D01*
X13930Y19668D01*
X13929Y19669D01*
X13928Y19670D01*
X13926Y19673D01*
X13924Y19676D01*
X13920Y19681D01*
X13918Y19688D01*
X13917Y19695D01*
X13916Y19703D01*
Y20547D01*
Y20548D01*
Y20549D01*
X13917Y20554D01*
X13918Y20561D01*
X13923Y20571D01*
X13928Y20579D01*
X13936Y20586D01*
X13948Y20592D01*
X13955Y20594D01*
X14299D01*
X14305Y20593D01*
D02*
G37*
G36*
X33026Y6739D02*
X33033Y6738D01*
X33042Y6737D01*
X33061Y6733D01*
X33084Y6726D01*
X33097Y6721D01*
X33108Y6716D01*
X33121Y6708D01*
X33133Y6700D01*
X33146Y6691D01*
X33157Y6680D01*
X33158Y6679D01*
X33160Y6677D01*
X33162Y6674D01*
X33166Y6670D01*
X33172Y6663D01*
X33177Y6656D01*
X33182Y6649D01*
X33188Y6639D01*
X33199Y6618D01*
X33209Y6594D01*
X33213Y6579D01*
X33215Y6566D01*
X33217Y6550D01*
X33219Y6534D01*
Y6009D01*
Y6008D01*
Y6005D01*
Y6001D01*
X33217Y5995D01*
X33216Y5988D01*
X33215Y5979D01*
X33211Y5959D01*
X33204Y5937D01*
X33199Y5925D01*
X33194Y5913D01*
X33186Y5900D01*
X33178Y5888D01*
X33169Y5875D01*
X33158Y5864D01*
X33157Y5863D01*
X33155Y5862D01*
X33152Y5858D01*
X33148Y5854D01*
X33141Y5850D01*
X33134Y5845D01*
X33127Y5839D01*
X33118Y5833D01*
X33096Y5822D01*
X33072Y5813D01*
X33057Y5808D01*
X33044Y5806D01*
X33028Y5804D01*
X33012Y5803D01*
X32948D01*
X32942Y5804D01*
X32934Y5805D01*
X32926Y5806D01*
X32906Y5811D01*
X32883Y5818D01*
X32872Y5823D01*
X32859Y5828D01*
X32847Y5836D01*
X32834Y5843D01*
X32822Y5852D01*
X32810Y5863D01*
X32809Y5864D01*
X32808Y5866D01*
X32805Y5869D01*
X32801Y5873D01*
X32797Y5879D01*
X32792Y5886D01*
X32785Y5894D01*
X32780Y5903D01*
X32769Y5925D01*
X32759Y5950D01*
X32755Y5964D01*
X32753Y5978D01*
X32751Y5994D01*
X32750Y6009D01*
Y6534D01*
Y6535D01*
Y6538D01*
Y6543D01*
X32751Y6548D01*
X32752Y6555D01*
X32753Y6563D01*
X32757Y6583D01*
X32764Y6605D01*
X32770Y6618D01*
X32775Y6630D01*
X32782Y6642D01*
X32789Y6654D01*
X32799Y6667D01*
X32809Y6678D01*
X32810Y6679D01*
X32812Y6681D01*
X32816Y6684D01*
X32820Y6687D01*
X32826Y6693D01*
X32833Y6698D01*
X32842Y6703D01*
X32850Y6709D01*
X32872Y6721D01*
X32897Y6731D01*
X32910Y6734D01*
X32925Y6737D01*
X32940Y6739D01*
X32956Y6740D01*
X33021D01*
X33026Y6739D01*
D02*
G37*
G36*
X32531Y6745D02*
X32541Y6740D01*
X32546Y6737D01*
X32551Y6732D01*
X32552Y6731D01*
X32553Y6729D01*
X32555Y6726D01*
X32557Y6722D01*
X32559Y6717D01*
X32560Y6709D01*
X32562Y6702D01*
Y6693D01*
Y5849D01*
Y5848D01*
Y5846D01*
X32561Y5842D01*
X32560Y5837D01*
X32557Y5825D01*
X32553Y5819D01*
X32549Y5814D01*
X32548D01*
X32547Y5812D01*
X32544Y5811D01*
X32540Y5808D01*
X32529Y5805D01*
X32516Y5803D01*
X32512D01*
X32509Y5804D01*
X32504D01*
X32494Y5808D01*
X32487Y5811D01*
X32482Y5815D01*
X32481Y5816D01*
X32480Y5817D01*
X32478Y5820D01*
X32476Y5823D01*
X32473Y5828D01*
X32471Y5834D01*
X32470Y5841D01*
X32469Y5849D01*
Y6580D01*
X32360Y6473D01*
X32359Y6472D01*
X32358Y6471D01*
X32355Y6469D01*
X32351Y6466D01*
X32341Y6460D01*
X32334Y6459D01*
X32328Y6458D01*
X32325D01*
X32322Y6459D01*
X32318Y6460D01*
X32307Y6465D01*
X32302Y6468D01*
X32296Y6473D01*
X32295Y6474D01*
X32294Y6476D01*
X32291Y6478D01*
X32289Y6482D01*
X32282Y6493D01*
X32281Y6499D01*
X32280Y6506D01*
Y6507D01*
Y6509D01*
X32281Y6512D01*
X32282Y6517D01*
X32286Y6526D01*
X32290Y6532D01*
X32295Y6538D01*
X32482Y6726D01*
X32484Y6728D01*
X32489Y6731D01*
X32494Y6736D01*
X32501Y6740D01*
X32503Y6742D01*
X32508Y6744D01*
X32516Y6746D01*
X32524Y6747D01*
X32526D01*
X32531Y6745D01*
D02*
G37*
G36*
X31920Y6739D02*
X31926Y6738D01*
X31934Y6737D01*
X31952Y6733D01*
X31973Y6727D01*
X31995Y6718D01*
X32006Y6711D01*
X32018Y6704D01*
X32028Y6695D01*
X32039Y6685D01*
X32040Y6684D01*
X32041Y6683D01*
X32044Y6680D01*
X32047Y6676D01*
X32051Y6670D01*
X32056Y6663D01*
X32067Y6648D01*
X32076Y6629D01*
X32085Y6606D01*
X32092Y6581D01*
X32093Y6568D01*
X32094Y6553D01*
Y6366D01*
Y6365D01*
Y6362D01*
Y6358D01*
X32093Y6353D01*
X32092Y6346D01*
X32091Y6339D01*
X32087Y6320D01*
X32080Y6300D01*
X32071Y6277D01*
X32065Y6266D01*
X32057Y6255D01*
X32048Y6244D01*
X32039Y6233D01*
X32038Y6232D01*
X32037Y6231D01*
X32033Y6228D01*
X32029Y6225D01*
X32023Y6221D01*
X32017Y6216D01*
X32001Y6206D01*
X31981Y6196D01*
X31959Y6186D01*
X31933Y6180D01*
X31920Y6179D01*
X31905Y6178D01*
X31896D01*
X32085Y5875D01*
X32090Y5865D01*
X32094Y5849D01*
Y5848D01*
Y5846D01*
X32093Y5843D01*
X32092Y5839D01*
X32090Y5833D01*
X32088Y5827D01*
X32083Y5822D01*
X32078Y5816D01*
X32077D01*
X32076Y5814D01*
X32073Y5812D01*
X32069Y5809D01*
X32058Y5805D01*
X32052Y5804D01*
X32045Y5803D01*
X32039D01*
X32031Y5804D01*
X32025Y5806D01*
X32024Y5807D01*
X32020Y5811D01*
X32014Y5816D01*
X32007Y5824D01*
X31786Y6178D01*
X31625D01*
Y5850D01*
Y5849D01*
Y5846D01*
X31624Y5842D01*
X31623Y5837D01*
X31620Y5825D01*
X31616Y5819D01*
X31612Y5814D01*
X31611D01*
X31610Y5812D01*
X31606Y5811D01*
X31602Y5808D01*
X31592Y5805D01*
X31578Y5803D01*
X31575D01*
X31572Y5804D01*
X31567D01*
X31556Y5808D01*
X31550Y5811D01*
X31545Y5815D01*
X31544Y5816D01*
X31543Y5817D01*
X31541Y5820D01*
X31539Y5823D01*
X31536Y5828D01*
X31534Y5834D01*
X31533Y5842D01*
X31531Y5850D01*
Y6694D01*
Y6695D01*
Y6696D01*
X31533Y6701D01*
X31534Y6708D01*
X31538Y6718D01*
X31543Y6726D01*
X31551Y6733D01*
X31563Y6738D01*
X31570Y6740D01*
X31914D01*
X31920Y6739D01*
D02*
G37*
G36*
X12659Y25120D02*
X12669Y25115D01*
X12674Y25112D01*
X12679Y25107D01*
X12680Y25106D01*
X12681Y25104D01*
X12683Y25101D01*
X12685Y25097D01*
X12687Y25092D01*
X12688Y25084D01*
X12690Y25077D01*
Y25068D01*
Y24224D01*
Y24223D01*
Y24221D01*
X12689Y24217D01*
X12688Y24212D01*
X12685Y24200D01*
X12681Y24194D01*
X12677Y24189D01*
X12676D01*
X12675Y24187D01*
X12672Y24186D01*
X12668Y24183D01*
X12657Y24180D01*
X12644Y24178D01*
X12641D01*
X12637Y24179D01*
X12632D01*
X12622Y24183D01*
X12616Y24186D01*
X12610Y24190D01*
X12609Y24191D01*
X12608Y24192D01*
X12606Y24195D01*
X12604Y24198D01*
X12601Y24203D01*
X12599Y24209D01*
X12598Y24216D01*
X12597Y24224D01*
Y24955D01*
X12488Y24848D01*
X12487Y24847D01*
X12486Y24846D01*
X12483Y24844D01*
X12479Y24841D01*
X12469Y24835D01*
X12462Y24834D01*
X12456Y24833D01*
X12453D01*
X12450Y24834D01*
X12446Y24835D01*
X12435Y24840D01*
X12430Y24843D01*
X12424Y24848D01*
X12423Y24849D01*
X12422Y24851D01*
X12419Y24853D01*
X12417Y24857D01*
X12410Y24868D01*
X12409Y24874D01*
X12408Y24881D01*
Y24882D01*
Y24884D01*
X12409Y24887D01*
X12410Y24892D01*
X12415Y24901D01*
X12418Y24907D01*
X12423Y24913D01*
X12610Y25101D01*
X12612Y25103D01*
X12617Y25106D01*
X12622Y25111D01*
X12629Y25115D01*
X12631Y25117D01*
X12636Y25119D01*
X12644Y25121D01*
X12652Y25122D01*
X12654D01*
X12659Y25120D01*
D02*
G37*
G36*
X12048Y25114D02*
X12054Y25113D01*
X12063Y25112D01*
X12080Y25108D01*
X12101Y25102D01*
X12123Y25093D01*
X12134Y25086D01*
X12146Y25079D01*
X12156Y25070D01*
X12167Y25060D01*
X12168Y25059D01*
X12169Y25058D01*
X12172Y25055D01*
X12175Y25051D01*
X12179Y25045D01*
X12184Y25038D01*
X12195Y25023D01*
X12204Y25004D01*
X12214Y24981D01*
X12220Y24956D01*
X12221Y24943D01*
X12222Y24928D01*
Y24741D01*
Y24740D01*
Y24737D01*
Y24733D01*
X12221Y24728D01*
X12220Y24721D01*
X12219Y24714D01*
X12215Y24695D01*
X12208Y24675D01*
X12199Y24652D01*
X12193Y24641D01*
X12185Y24630D01*
X12176Y24619D01*
X12167Y24608D01*
X12166Y24607D01*
X12165Y24606D01*
X12161Y24603D01*
X12157Y24600D01*
X12151Y24596D01*
X12145Y24591D01*
X12129Y24581D01*
X12109Y24571D01*
X12088Y24561D01*
X12061Y24555D01*
X12048Y24554D01*
X12033Y24553D01*
X12024D01*
X12214Y24250D01*
X12218Y24240D01*
X12222Y24224D01*
Y24223D01*
Y24221D01*
X12221Y24218D01*
X12220Y24214D01*
X12218Y24208D01*
X12216Y24202D01*
X12211Y24197D01*
X12206Y24191D01*
X12205D01*
X12204Y24189D01*
X12201Y24187D01*
X12197Y24184D01*
X12186Y24180D01*
X12180Y24179D01*
X12173Y24178D01*
X12167D01*
X12159Y24179D01*
X12153Y24181D01*
X12152Y24182D01*
X12148Y24186D01*
X12142Y24191D01*
X12135Y24199D01*
X11914Y24553D01*
X11753D01*
Y24225D01*
Y24224D01*
Y24221D01*
X11752Y24217D01*
X11751Y24212D01*
X11748Y24200D01*
X11744Y24194D01*
X11740Y24189D01*
X11739D01*
X11738Y24187D01*
X11734Y24186D01*
X11730Y24183D01*
X11720Y24180D01*
X11706Y24178D01*
X11703D01*
X11700Y24179D01*
X11695D01*
X11684Y24183D01*
X11678Y24186D01*
X11673Y24190D01*
X11672Y24191D01*
X11671Y24192D01*
X11669Y24195D01*
X11667Y24198D01*
X11664Y24203D01*
X11662Y24209D01*
X11661Y24217D01*
X11660Y24225D01*
Y25069D01*
Y25070D01*
Y25071D01*
X11661Y25076D01*
X11662Y25083D01*
X11666Y25093D01*
X11671Y25101D01*
X11679Y25108D01*
X11691Y25113D01*
X11698Y25115D01*
X12042D01*
X12048Y25114D01*
D02*
G37*
G36*
X12437Y26820D02*
X12447Y26816D01*
X12452Y26812D01*
X12457Y26807D01*
X12458Y26806D01*
X12459Y26804D01*
X12461Y26801D01*
X12463Y26797D01*
X12465Y26792D01*
X12467Y26784D01*
X12469Y26777D01*
Y26768D01*
Y25924D01*
Y25923D01*
Y25921D01*
X12468Y25917D01*
X12467Y25912D01*
X12463Y25900D01*
X12459Y25894D01*
X12455Y25889D01*
X12454D01*
X12453Y25887D01*
X12450Y25886D01*
X12446Y25883D01*
X12435Y25880D01*
X12422Y25878D01*
X12419D01*
X12416Y25879D01*
X12410D01*
X12400Y25883D01*
X12394Y25886D01*
X12388Y25890D01*
X12387Y25891D01*
X12386Y25892D01*
X12384Y25895D01*
X12382Y25898D01*
X12379Y25903D01*
X12377Y25909D01*
X12376Y25916D01*
X12375Y25924D01*
Y26655D01*
X12267Y26548D01*
X12266Y26547D01*
X12265Y26546D01*
X12261Y26544D01*
X12257Y26541D01*
X12247Y26535D01*
X12241Y26534D01*
X12234Y26533D01*
X12231D01*
X12228Y26534D01*
X12224Y26535D01*
X12213Y26540D01*
X12208Y26543D01*
X12202Y26548D01*
X12201Y26549D01*
X12200Y26551D01*
X12197Y26553D01*
X12195Y26557D01*
X12188Y26568D01*
X12187Y26574D01*
X12186Y26581D01*
Y26582D01*
Y26584D01*
X12187Y26587D01*
X12188Y26592D01*
X12193Y26601D01*
X12196Y26607D01*
X12201Y26613D01*
X12388Y26801D01*
X12391Y26803D01*
X12395Y26806D01*
X12400Y26811D01*
X12407Y26816D01*
X12409Y26817D01*
X12414Y26819D01*
X12422Y26821D01*
X12430Y26822D01*
X12432D01*
X12437Y26820D01*
D02*
G37*
G36*
X11959Y26814D02*
X11964Y26813D01*
X11975Y26809D01*
X11980Y26806D01*
X11985Y26801D01*
X11986Y26800D01*
X11988Y26799D01*
X11990Y26796D01*
X11993Y26792D01*
X11997Y26781D01*
X11998Y26775D01*
X11999Y26769D01*
Y26768D01*
Y26766D01*
X11998Y26762D01*
Y26758D01*
X11994Y26748D01*
X11992Y26743D01*
X11988Y26736D01*
Y26735D01*
X11985Y26734D01*
X11982Y26732D01*
X11979Y26729D01*
X11974Y26726D01*
X11968Y26724D01*
X11960Y26723D01*
X11952Y26722D01*
X11712D01*
X11704Y26721D01*
X11695Y26719D01*
X11684Y26716D01*
X11673Y26710D01*
X11663Y26704D01*
X11651Y26695D01*
X11650Y26694D01*
X11649Y26693D01*
X11647Y26690D01*
X11644Y26685D01*
X11638Y26676D01*
X11631Y26663D01*
Y26662D01*
X11630Y26660D01*
X11629Y26657D01*
X11628Y26653D01*
X11626Y26642D01*
X11625Y26628D01*
Y26066D01*
Y26064D01*
Y26059D01*
X11626Y26052D01*
X11628Y26043D01*
X11631Y26031D01*
X11637Y26021D01*
X11643Y26009D01*
X11651Y25998D01*
X11652D01*
X11653Y25996D01*
X11656Y25994D01*
X11660Y25992D01*
X11670Y25984D01*
X11681Y25978D01*
X11682D01*
X11684Y25977D01*
X11689Y25976D01*
X11694Y25975D01*
X11705Y25973D01*
X11718Y25972D01*
X11955D01*
X11959Y25971D01*
X11964Y25970D01*
X11975Y25966D01*
X11980Y25963D01*
X11985Y25957D01*
X11986Y25956D01*
X11988Y25955D01*
X11990Y25952D01*
X11993Y25948D01*
X11997Y25938D01*
X11998Y25931D01*
X11999Y25925D01*
Y25924D01*
Y25922D01*
X11998Y25919D01*
Y25915D01*
X11994Y25904D01*
X11992Y25899D01*
X11988Y25893D01*
Y25892D01*
X11985Y25891D01*
X11982Y25889D01*
X11979Y25886D01*
X11974Y25882D01*
X11968Y25880D01*
X11960Y25879D01*
X11952Y25878D01*
X11710D01*
X11705Y25879D01*
X11698Y25880D01*
X11691Y25881D01*
X11673Y25886D01*
X11652Y25892D01*
X11630Y25901D01*
X11619Y25907D01*
X11608Y25915D01*
X11597Y25923D01*
X11587Y25932D01*
X11586Y25933D01*
X11584Y25934D01*
X11581Y25938D01*
X11578Y25942D01*
X11574Y25947D01*
X11569Y25953D01*
X11559Y25970D01*
X11549Y25989D01*
X11540Y26012D01*
X11533Y26038D01*
X11532Y26051D01*
X11531Y26066D01*
Y26628D01*
Y26629D01*
Y26631D01*
Y26635D01*
X11532Y26642D01*
X11533Y26648D01*
X11534Y26656D01*
X11539Y26674D01*
X11545Y26695D01*
X11554Y26717D01*
X11561Y26728D01*
X11568Y26739D01*
X11576Y26750D01*
X11586Y26760D01*
X11587Y26761D01*
X11588Y26762D01*
X11591Y26766D01*
X11595Y26769D01*
X11600Y26773D01*
X11606Y26778D01*
X11622Y26788D01*
X11642Y26798D01*
X11665Y26807D01*
X11690Y26813D01*
X11703Y26814D01*
X11718Y26816D01*
X11955D01*
X11959Y26814D01*
D02*
G37*
G36*
X27553Y6870D02*
X27563Y6866D01*
X27568Y6862D01*
X27573Y6857D01*
X27574Y6856D01*
X27575Y6854D01*
X27577Y6851D01*
X27579Y6847D01*
X27582Y6842D01*
X27583Y6834D01*
X27585Y6827D01*
Y6818D01*
Y5974D01*
Y5973D01*
Y5971D01*
X27584Y5967D01*
X27583Y5962D01*
X27579Y5950D01*
X27575Y5944D01*
X27571Y5939D01*
X27570D01*
X27569Y5937D01*
X27566Y5936D01*
X27562Y5933D01*
X27551Y5930D01*
X27538Y5928D01*
X27535D01*
X27532Y5929D01*
X27526D01*
X27516Y5933D01*
X27510Y5936D01*
X27504Y5940D01*
X27503Y5941D01*
X27502Y5942D01*
X27500Y5945D01*
X27498Y5948D01*
X27495Y5953D01*
X27493Y5959D01*
X27492Y5966D01*
X27491Y5974D01*
Y6705D01*
X27383Y6598D01*
X27382Y6597D01*
X27381Y6596D01*
X27377Y6594D01*
X27373Y6591D01*
X27363Y6585D01*
X27357Y6584D01*
X27350Y6583D01*
X27347D01*
X27344Y6584D01*
X27340Y6585D01*
X27330Y6590D01*
X27324Y6593D01*
X27318Y6598D01*
X27317Y6599D01*
X27316Y6601D01*
X27313Y6603D01*
X27311Y6607D01*
X27305Y6618D01*
X27303Y6624D01*
X27302Y6631D01*
Y6632D01*
Y6634D01*
X27303Y6637D01*
X27305Y6642D01*
X27309Y6651D01*
X27312Y6657D01*
X27317Y6663D01*
X27504Y6851D01*
X27507Y6853D01*
X27511Y6856D01*
X27516Y6861D01*
X27523Y6866D01*
X27525Y6867D01*
X27530Y6869D01*
X27538Y6871D01*
X27546Y6872D01*
X27548D01*
X27553Y6870D01*
D02*
G37*
G36*
X26848Y6864D02*
X26855Y6863D01*
X26863Y6862D01*
X26881Y6858D01*
X26901Y6852D01*
X26923Y6843D01*
X26935Y6836D01*
X26946Y6829D01*
X26957Y6820D01*
X26967Y6810D01*
X26968Y6809D01*
X26969Y6808D01*
X26972Y6805D01*
X26975Y6801D01*
X26980Y6795D01*
X26985Y6788D01*
X26995Y6773D01*
X27005Y6754D01*
X27014Y6731D01*
X27020Y6706D01*
X27021Y6693D01*
X27022Y6678D01*
Y6116D01*
Y6102D01*
Y6101D01*
Y6097D01*
Y6093D01*
Y6089D01*
X27016Y6067D01*
X27094Y6013D01*
X27095Y6012D01*
X27097Y6011D01*
X27101Y6007D01*
X27106Y6003D01*
X27109Y5998D01*
X27113Y5991D01*
X27115Y5983D01*
X27116Y5975D01*
Y5974D01*
Y5972D01*
X27115Y5969D01*
Y5965D01*
X27111Y5954D01*
X27108Y5948D01*
X27104Y5943D01*
X27102Y5942D01*
X27101Y5941D01*
X27098Y5939D01*
X27094Y5936D01*
X27083Y5930D01*
X27076Y5929D01*
X27069Y5928D01*
X27067D01*
X27061Y5929D01*
X27052Y5931D01*
X27042Y5937D01*
X26971Y5984D01*
X26970Y5983D01*
X26969Y5982D01*
X26966Y5979D01*
X26962Y5976D01*
X26957Y5972D01*
X26950Y5967D01*
X26943Y5962D01*
X26935Y5956D01*
X26915Y5946D01*
X26892Y5937D01*
X26865Y5930D01*
X26850Y5929D01*
X26835Y5928D01*
X26640D01*
X26635Y5929D01*
X26628Y5930D01*
X26620Y5931D01*
X26602Y5936D01*
X26582Y5942D01*
X26559Y5951D01*
X26547Y5957D01*
X26537Y5965D01*
X26526Y5973D01*
X26515Y5982D01*
X26514Y5983D01*
X26513Y5984D01*
X26510Y5988D01*
X26507Y5992D01*
X26503Y5997D01*
X26497Y6003D01*
X26488Y6020D01*
X26478Y6039D01*
X26468Y6062D01*
X26462Y6088D01*
X26461Y6101D01*
X26460Y6116D01*
Y6678D01*
Y6679D01*
Y6681D01*
Y6685D01*
X26461Y6692D01*
X26462Y6698D01*
X26463Y6706D01*
X26467Y6724D01*
X26473Y6745D01*
X26483Y6767D01*
X26489Y6778D01*
X26496Y6789D01*
X26505Y6800D01*
X26514Y6810D01*
X26515Y6811D01*
X26516Y6812D01*
X26519Y6816D01*
X26523Y6819D01*
X26529Y6823D01*
X26535Y6828D01*
X26552Y6838D01*
X26570Y6848D01*
X26593Y6857D01*
X26619Y6863D01*
X26633Y6864D01*
X26647Y6866D01*
X26842D01*
X26848Y6864D01*
D02*
G37*
G36*
X26238D02*
X26246Y6863D01*
X26256Y6861D01*
X26265Y6856D01*
X26274Y6850D01*
X26280Y6841D01*
X26281Y6834D01*
X26282Y6828D01*
Y6827D01*
Y6826D01*
X26281Y6822D01*
Y6818D01*
X26277Y6806D01*
X26274Y6800D01*
X26269Y6792D01*
X25756Y6022D01*
X26234D01*
X26237Y6021D01*
X26242Y6020D01*
X26247Y6018D01*
X26254Y6016D01*
X26259Y6012D01*
X26264Y6006D01*
X26265Y6005D01*
X26266Y6004D01*
X26268Y6001D01*
X26270Y5997D01*
X26275Y5987D01*
X26277Y5981D01*
Y5975D01*
Y5974D01*
Y5972D01*
X26276Y5969D01*
Y5965D01*
X26271Y5954D01*
X26268Y5949D01*
X26264Y5943D01*
Y5942D01*
X26262Y5941D01*
X26259Y5939D01*
X26256Y5936D01*
X26251Y5932D01*
X26244Y5930D01*
X26238Y5929D01*
X26230Y5928D01*
X25665D01*
X25659Y5929D01*
X25651Y5930D01*
X25641Y5933D01*
X25632Y5938D01*
X25624Y5944D01*
X25617Y5953D01*
X25616Y5959D01*
X25615Y5966D01*
Y5967D01*
Y5968D01*
X25616Y5971D01*
X25617Y5975D01*
X25621Y5987D01*
X25624Y5994D01*
X25628Y6001D01*
X26141Y6772D01*
X25664D01*
X25660Y6773D01*
X25655Y6774D01*
X25643Y6777D01*
X25638Y6780D01*
X25633Y6784D01*
Y6785D01*
X25631Y6787D01*
X25629Y6791D01*
X25627Y6795D01*
X25623Y6805D01*
X25622Y6811D01*
X25621Y6819D01*
Y6820D01*
Y6822D01*
X25622Y6825D01*
Y6828D01*
X25626Y6838D01*
X25628Y6844D01*
X25632Y6850D01*
X25633Y6851D01*
X25634Y6852D01*
X25637Y6855D01*
X25640Y6858D01*
X25646Y6860D01*
X25652Y6863D01*
X25659Y6864D01*
X25667Y6866D01*
X26232D01*
X26238Y6864D01*
D02*
G37*
G36*
X34310Y9418D02*
X34317Y9417D01*
X34325Y9416D01*
X34343Y9411D01*
X34363Y9405D01*
X34385Y9396D01*
X34397Y9389D01*
X34408Y9382D01*
X34419Y9373D01*
X34429Y9363D01*
X34430Y9362D01*
X34431Y9361D01*
X34434Y9358D01*
X34437Y9354D01*
X34442Y9348D01*
X34447Y9342D01*
X34457Y9326D01*
X34467Y9307D01*
X34476Y9284D01*
X34482Y9259D01*
X34483Y9246D01*
X34484Y9231D01*
Y8997D01*
Y8996D01*
Y8991D01*
Y8983D01*
X34483Y8974D01*
Y8961D01*
X34481Y8948D01*
X34480Y8932D01*
X34478Y8915D01*
X34475Y8896D01*
X34472Y8876D01*
X34462Y8833D01*
X34457Y8810D01*
X34450Y8789D01*
X34443Y8766D01*
X34433Y8744D01*
Y8743D01*
X34431Y8740D01*
X34429Y8735D01*
X34426Y8729D01*
X34423Y8722D01*
X34418Y8713D01*
X34412Y8702D01*
X34406Y8692D01*
X34392Y8668D01*
X34374Y8642D01*
X34353Y8615D01*
X34329Y8589D01*
X34328Y8588D01*
X34326Y8586D01*
X34323Y8582D01*
X34318Y8577D01*
X34311Y8572D01*
X34303Y8566D01*
X34295Y8558D01*
X34284Y8550D01*
X34262Y8533D01*
X34235Y8516D01*
X34206Y8499D01*
X34174Y8484D01*
X34154Y8481D01*
X34151D01*
X34148Y8482D01*
X34144Y8483D01*
X34134Y8488D01*
X34128Y8491D01*
X34123Y8496D01*
X34122Y8497D01*
X34121Y8499D01*
X34119Y8501D01*
X34116Y8505D01*
X34110Y8516D01*
X34109Y8522D01*
X34108Y8529D01*
Y8530D01*
Y8531D01*
X34109Y8537D01*
X34111Y8544D01*
X34115Y8551D01*
Y8552D01*
X34116Y8553D01*
X34120Y8558D01*
X34127Y8565D01*
X34137Y8571D01*
X34140Y8572D01*
X34144Y8573D01*
X34150Y8576D01*
X34159Y8580D01*
X34169Y8586D01*
X34180Y8591D01*
X34203Y8604D01*
X34204Y8605D01*
X34208Y8608D01*
X34215Y8613D01*
X34222Y8619D01*
X34231Y8626D01*
X34242Y8634D01*
X34252Y8644D01*
X34262Y8654D01*
X34263Y8655D01*
X34264Y8656D01*
X34268Y8659D01*
X34271Y8664D01*
X34276Y8669D01*
X34280Y8675D01*
X34293Y8690D01*
X34306Y8708D01*
X34320Y8730D01*
X34334Y8754D01*
X34347Y8781D01*
X34359Y8817D01*
X34372Y8856D01*
X34195D01*
X34189Y8857D01*
X34183Y8858D01*
X34175Y8859D01*
X34157Y8864D01*
X34137Y8870D01*
X34116Y8879D01*
X34104Y8885D01*
X34093Y8893D01*
X34081Y8901D01*
X34071Y8910D01*
X34070Y8911D01*
X34069Y8913D01*
X34066Y8916D01*
X34062Y8920D01*
X34058Y8925D01*
X34053Y8931D01*
X34044Y8948D01*
X34033Y8967D01*
X34024Y8990D01*
X34018Y9016D01*
X34017Y9029D01*
X34016Y9044D01*
Y9231D01*
Y9232D01*
Y9234D01*
Y9238D01*
X34017Y9244D01*
X34018Y9251D01*
X34019Y9258D01*
X34023Y9277D01*
X34029Y9298D01*
X34039Y9320D01*
X34045Y9331D01*
X34052Y9342D01*
X34060Y9353D01*
X34070Y9363D01*
X34071Y9364D01*
X34072Y9366D01*
X34075Y9369D01*
X34079Y9372D01*
X34085Y9376D01*
X34092Y9381D01*
X34107Y9392D01*
X34127Y9401D01*
X34149Y9410D01*
X34175Y9417D01*
X34188Y9418D01*
X34203Y9419D01*
X34304D01*
X34310Y9418D01*
D02*
G37*
G36*
X33654D02*
X33660Y9417D01*
X33669Y9416D01*
X33687Y9411D01*
X33707Y9405D01*
X33729Y9396D01*
X33741Y9389D01*
X33752Y9382D01*
X33763Y9373D01*
X33773Y9363D01*
X33774Y9362D01*
X33775Y9361D01*
X33778Y9358D01*
X33781Y9354D01*
X33785Y9348D01*
X33791Y9342D01*
X33801Y9326D01*
X33810Y9307D01*
X33820Y9284D01*
X33826Y9259D01*
X33827Y9246D01*
X33828Y9231D01*
Y9044D01*
Y9043D01*
Y9041D01*
Y9036D01*
X33827Y9031D01*
X33826Y9024D01*
X33825Y9017D01*
X33821Y8998D01*
X33815Y8978D01*
X33805Y8955D01*
X33799Y8944D01*
X33792Y8933D01*
X33782Y8922D01*
X33773Y8911D01*
X33772Y8910D01*
X33771Y8909D01*
X33768Y8906D01*
X33764Y8903D01*
X33757Y8899D01*
X33751Y8894D01*
X33735Y8884D01*
X33716Y8874D01*
X33694Y8865D01*
X33668Y8858D01*
X33654Y8857D01*
X33640Y8856D01*
X33630D01*
X33820Y8553D01*
X33824Y8543D01*
X33828Y8527D01*
Y8526D01*
Y8524D01*
X33827Y8521D01*
X33826Y8517D01*
X33824Y8512D01*
X33822Y8505D01*
X33818Y8500D01*
X33813Y8494D01*
X33811D01*
X33810Y8492D01*
X33807Y8490D01*
X33803Y8488D01*
X33793Y8483D01*
X33786Y8482D01*
X33779Y8481D01*
X33773D01*
X33766Y8482D01*
X33759Y8484D01*
X33758Y8486D01*
X33754Y8489D01*
X33748Y8494D01*
X33742Y8502D01*
X33520Y8856D01*
X33360D01*
Y8528D01*
Y8527D01*
Y8524D01*
X33358Y8520D01*
X33357Y8515D01*
X33354Y8503D01*
X33350Y8497D01*
X33346Y8492D01*
X33345D01*
X33344Y8490D01*
X33341Y8489D01*
X33337Y8487D01*
X33326Y8483D01*
X33313Y8481D01*
X33310D01*
X33306Y8482D01*
X33301D01*
X33291Y8487D01*
X33285Y8489D01*
X33279Y8493D01*
X33278Y8494D01*
X33277Y8495D01*
X33275Y8498D01*
X33273Y8501D01*
X33270Y8506D01*
X33268Y8513D01*
X33267Y8520D01*
X33266Y8528D01*
Y9372D01*
Y9373D01*
Y9374D01*
X33267Y9379D01*
X33268Y9386D01*
X33272Y9396D01*
X33277Y9404D01*
X33286Y9411D01*
X33297Y9417D01*
X33304Y9419D01*
X33648D01*
X33654Y9418D01*
D02*
G37*
G36*
X30018Y11368D02*
X30027Y11367D01*
X30037Y11364D01*
X30050Y11362D01*
X30062Y11359D01*
X30076Y11355D01*
X30091Y11351D01*
X30105Y11345D01*
X30120Y11337D01*
X30134Y11329D01*
X30148Y11319D01*
X30162Y11308D01*
X30175Y11295D01*
X30176Y11294D01*
X30177Y11292D01*
X30180Y11288D01*
X30184Y11283D01*
X30188Y11276D01*
X30194Y11269D01*
X30199Y11259D01*
X30205Y11250D01*
X30210Y11238D01*
X30215Y11226D01*
X30225Y11199D01*
X30229Y11184D01*
X30232Y11168D01*
X30233Y11152D01*
X30234Y11134D01*
Y11133D01*
Y11132D01*
Y11129D01*
Y11125D01*
X30233Y11115D01*
X30232Y11102D01*
X30229Y11086D01*
X30226Y11069D01*
X30221Y11051D01*
X30214Y11032D01*
X30213Y11030D01*
X30210Y11024D01*
X30206Y11016D01*
X30200Y11004D01*
X30192Y10992D01*
X30181Y10978D01*
X30169Y10965D01*
X30155Y10952D01*
X30156D01*
X30158Y10950D01*
X30161Y10948D01*
X30165Y10946D01*
X30176Y10937D01*
X30189Y10926D01*
X30205Y10911D01*
X30221Y10894D01*
X30235Y10874D01*
X30249Y10851D01*
Y10850D01*
X30250Y10848D01*
X30252Y10845D01*
X30254Y10840D01*
X30256Y10833D01*
X30259Y10827D01*
X30265Y10809D01*
X30271Y10789D01*
X30276Y10766D01*
X30280Y10740D01*
X30281Y10713D01*
Y10712D01*
Y10707D01*
Y10702D01*
X30280Y10694D01*
X30279Y10684D01*
X30277Y10673D01*
X30275Y10660D01*
X30273Y10647D01*
X30263Y10617D01*
X30258Y10600D01*
X30251Y10583D01*
X30244Y10568D01*
X30233Y10551D01*
X30223Y10534D01*
X30210Y10519D01*
X30209Y10518D01*
X30207Y10515D01*
X30202Y10511D01*
X30196Y10505D01*
X30188Y10499D01*
X30179Y10491D01*
X30168Y10483D01*
X30155Y10475D01*
X30140Y10467D01*
X30125Y10459D01*
X30107Y10452D01*
X30088Y10445D01*
X30069Y10440D01*
X30047Y10436D01*
X30024Y10432D01*
X29999Y10431D01*
X29993D01*
X29986Y10432D01*
X29977D01*
X29966Y10434D01*
X29953Y10436D01*
X29938Y10439D01*
X29924Y10442D01*
X29907Y10447D01*
X29890Y10452D01*
X29873Y10459D01*
X29855Y10468D01*
X29837Y10478D01*
X29821Y10490D01*
X29804Y10502D01*
X29788Y10518D01*
X29787Y10519D01*
X29785Y10521D01*
X29782Y10526D01*
X29778Y10532D01*
X29772Y10540D01*
X29767Y10549D01*
X29760Y10559D01*
X29754Y10572D01*
X29747Y10584D01*
X29741Y10600D01*
X29735Y10616D01*
X29730Y10633D01*
X29725Y10651D01*
X29722Y10671D01*
X29720Y10691D01*
X29719Y10713D01*
Y10714D01*
Y10716D01*
Y10720D01*
X29720Y10725D01*
Y10731D01*
X29721Y10740D01*
X29723Y10757D01*
X29726Y10778D01*
X29732Y10802D01*
X29740Y10826D01*
X29750Y10850D01*
Y10851D01*
X29751Y10853D01*
X29753Y10856D01*
X29756Y10860D01*
X29764Y10873D01*
X29774Y10887D01*
X29786Y10903D01*
X29803Y10921D01*
X29823Y10937D01*
X29845Y10953D01*
X29843Y10954D01*
X29838Y10958D01*
X29832Y10966D01*
X29824Y10975D01*
X29815Y10986D01*
X29804Y11000D01*
X29795Y11016D01*
X29786Y11032D01*
Y11033D01*
X29785Y11034D01*
X29783Y11041D01*
X29780Y11051D01*
X29777Y11064D01*
X29773Y11079D01*
X29770Y11096D01*
X29768Y11115D01*
X29767Y11134D01*
Y11135D01*
Y11138D01*
Y11144D01*
X29768Y11150D01*
X29769Y11158D01*
X29770Y11168D01*
X29772Y11178D01*
X29774Y11190D01*
X29780Y11215D01*
X29791Y11242D01*
X29798Y11255D01*
X29805Y11269D01*
X29813Y11282D01*
X29824Y11295D01*
X29825Y11296D01*
X29827Y11298D01*
X29831Y11302D01*
X29836Y11306D01*
X29843Y11311D01*
X29851Y11318D01*
X29860Y11325D01*
X29871Y11332D01*
X29882Y11338D01*
X29896Y11346D01*
X29910Y11352D01*
X29926Y11357D01*
X29943Y11361D01*
X29960Y11366D01*
X29980Y11368D01*
X30000Y11369D01*
X30010D01*
X30018Y11368D01*
D02*
G37*
G36*
X29357D02*
X29364Y11367D01*
X29372Y11366D01*
X29390Y11361D01*
X29410Y11355D01*
X29432Y11346D01*
X29444Y11339D01*
X29455Y11332D01*
X29466Y11323D01*
X29476Y11313D01*
X29477Y11312D01*
X29478Y11311D01*
X29481Y11308D01*
X29484Y11304D01*
X29489Y11298D01*
X29494Y11292D01*
X29504Y11276D01*
X29514Y11257D01*
X29523Y11234D01*
X29529Y11209D01*
X29530Y11196D01*
X29531Y11181D01*
Y10994D01*
Y10993D01*
Y10991D01*
Y10986D01*
X29530Y10981D01*
X29529Y10974D01*
X29528Y10967D01*
X29524Y10948D01*
X29518Y10928D01*
X29508Y10905D01*
X29502Y10894D01*
X29495Y10883D01*
X29485Y10872D01*
X29476Y10861D01*
X29475Y10860D01*
X29474Y10859D01*
X29471Y10856D01*
X29467Y10853D01*
X29460Y10849D01*
X29454Y10844D01*
X29439Y10834D01*
X29419Y10824D01*
X29397Y10815D01*
X29371Y10808D01*
X29357Y10807D01*
X29343Y10806D01*
X29333D01*
X29523Y10503D01*
X29527Y10493D01*
X29531Y10477D01*
Y10476D01*
Y10474D01*
X29530Y10471D01*
X29529Y10467D01*
X29527Y10462D01*
X29525Y10455D01*
X29521Y10450D01*
X29516Y10444D01*
X29515D01*
X29514Y10442D01*
X29510Y10440D01*
X29506Y10438D01*
X29496Y10433D01*
X29490Y10432D01*
X29482Y10431D01*
X29476D01*
X29469Y10432D01*
X29463Y10434D01*
X29462Y10436D01*
X29457Y10439D01*
X29451Y10444D01*
X29445Y10452D01*
X29223Y10806D01*
X29063D01*
Y10478D01*
Y10477D01*
Y10474D01*
X29062Y10470D01*
X29061Y10465D01*
X29057Y10453D01*
X29053Y10447D01*
X29049Y10442D01*
X29048D01*
X29047Y10440D01*
X29044Y10439D01*
X29040Y10437D01*
X29029Y10433D01*
X29016Y10431D01*
X29013D01*
X29010Y10432D01*
X29004D01*
X28994Y10437D01*
X28988Y10439D01*
X28982Y10443D01*
X28981Y10444D01*
X28980Y10445D01*
X28978Y10448D01*
X28976Y10451D01*
X28973Y10456D01*
X28971Y10463D01*
X28970Y10470D01*
X28969Y10478D01*
Y11322D01*
Y11323D01*
Y11324D01*
X28970Y11329D01*
X28971Y11336D01*
X28975Y11346D01*
X28980Y11354D01*
X28989Y11361D01*
X29000Y11367D01*
X29007Y11369D01*
X29351D01*
X29357Y11368D01*
D02*
G37*
G36*
X7244Y1443D02*
X7252Y1442D01*
X7260Y1438D01*
X7269Y1434D01*
X7277Y1427D01*
X7282Y1418D01*
X7284Y1411D01*
Y1404D01*
X7281Y1384D01*
X7047Y541D01*
Y540D01*
Y539D01*
X7045Y532D01*
X7041Y524D01*
X7036Y520D01*
X7032Y516D01*
X7031D01*
X7030Y515D01*
X7024Y512D01*
X7015Y507D01*
X7003Y506D01*
X7000D01*
X6996Y507D01*
X6991D01*
X6980Y512D01*
X6974Y514D01*
X6969Y518D01*
X6968Y519D01*
X6967Y520D01*
X6965Y523D01*
X6962Y526D01*
X6957Y537D01*
X6956Y544D01*
X6955Y551D01*
Y553D01*
Y556D01*
X6956Y561D01*
X6957Y565D01*
X7175Y1350D01*
X6909D01*
Y1303D01*
Y1302D01*
Y1299D01*
X6908Y1295D01*
X6907Y1289D01*
X6904Y1278D01*
X6900Y1272D01*
X6896Y1267D01*
X6895D01*
X6894Y1265D01*
X6891Y1263D01*
X6886Y1261D01*
X6876Y1258D01*
X6862Y1256D01*
X6859D01*
X6856Y1257D01*
X6851D01*
X6841Y1261D01*
X6834Y1263D01*
X6829Y1268D01*
X6828Y1269D01*
X6827Y1270D01*
X6825Y1273D01*
X6823Y1276D01*
X6820Y1281D01*
X6818Y1287D01*
X6817Y1295D01*
X6816Y1303D01*
Y1397D01*
Y1398D01*
Y1399D01*
X6817Y1404D01*
X6818Y1411D01*
X6822Y1421D01*
X6827Y1429D01*
X6835Y1436D01*
X6847Y1442D01*
X6853Y1444D01*
X7238D01*
X7244Y1443D01*
D02*
G37*
G36*
X6454D02*
X6460Y1442D01*
X6469Y1441D01*
X6487Y1436D01*
X6507Y1430D01*
X6529Y1421D01*
X6541Y1414D01*
X6552Y1407D01*
X6563Y1398D01*
X6573Y1388D01*
X6574Y1387D01*
X6575Y1386D01*
X6578Y1383D01*
X6581Y1379D01*
X6585Y1373D01*
X6591Y1367D01*
X6601Y1351D01*
X6610Y1332D01*
X6620Y1309D01*
X6626Y1284D01*
X6627Y1271D01*
X6628Y1256D01*
Y1069D01*
Y1068D01*
Y1066D01*
Y1061D01*
X6627Y1056D01*
X6626Y1049D01*
X6625Y1042D01*
X6621Y1023D01*
X6615Y1003D01*
X6605Y980D01*
X6599Y969D01*
X6592Y958D01*
X6582Y947D01*
X6573Y936D01*
X6572Y935D01*
X6571Y934D01*
X6568Y931D01*
X6564Y928D01*
X6557Y924D01*
X6551Y919D01*
X6535Y909D01*
X6516Y899D01*
X6494Y890D01*
X6468Y883D01*
X6454Y882D01*
X6440Y881D01*
X6430D01*
X6620Y578D01*
X6624Y568D01*
X6628Y552D01*
Y551D01*
Y549D01*
X6627Y546D01*
X6626Y542D01*
X6624Y537D01*
X6622Y530D01*
X6618Y525D01*
X6613Y519D01*
X6611D01*
X6610Y517D01*
X6607Y515D01*
X6603Y513D01*
X6593Y508D01*
X6586Y507D01*
X6579Y506D01*
X6573D01*
X6566Y507D01*
X6559Y509D01*
X6558Y511D01*
X6554Y514D01*
X6548Y519D01*
X6542Y527D01*
X6320Y881D01*
X6160D01*
Y553D01*
Y552D01*
Y549D01*
X6158Y545D01*
X6157Y540D01*
X6154Y528D01*
X6150Y522D01*
X6146Y517D01*
X6145D01*
X6144Y515D01*
X6141Y514D01*
X6137Y512D01*
X6126Y508D01*
X6113Y506D01*
X6110D01*
X6106Y507D01*
X6101D01*
X6091Y512D01*
X6085Y514D01*
X6079Y518D01*
X6078Y519D01*
X6077Y520D01*
X6075Y523D01*
X6073Y526D01*
X6070Y531D01*
X6068Y538D01*
X6067Y545D01*
X6066Y553D01*
Y1397D01*
Y1398D01*
Y1399D01*
X6067Y1404D01*
X6068Y1411D01*
X6072Y1421D01*
X6077Y1429D01*
X6086Y1436D01*
X6097Y1442D01*
X6104Y1444D01*
X6448D01*
X6454Y1443D01*
D02*
G37*
G36*
X30301Y29343D02*
X30306Y29342D01*
X30311Y29339D01*
X30317Y29337D01*
X30323Y29333D01*
X30328Y29328D01*
X30329Y29327D01*
X30330Y29326D01*
X30332Y29323D01*
X30334Y29319D01*
X30337Y29308D01*
X30339Y29302D01*
Y29295D01*
Y29294D01*
Y29293D01*
X30338Y29286D01*
X30337Y29279D01*
X30333Y29272D01*
X30332Y29270D01*
X30329Y29266D01*
X30322Y29259D01*
X30318Y29256D01*
X30311Y29252D01*
X30310D01*
X30308Y29251D01*
X30305Y29249D01*
X30300Y29248D01*
X30289Y29243D01*
X30277Y29236D01*
X30276D01*
X30275Y29235D01*
X30272Y29233D01*
X30268Y29231D01*
X30257Y29225D01*
X30245Y29218D01*
X30244Y29217D01*
X30239Y29215D01*
X30234Y29210D01*
X30227Y29204D01*
X30218Y29197D01*
X30208Y29190D01*
X30197Y29180D01*
X30186Y29170D01*
X30185Y29169D01*
X30184Y29168D01*
X30181Y29165D01*
X30177Y29160D01*
X30173Y29155D01*
X30168Y29149D01*
X30155Y29133D01*
X30142Y29115D01*
X30128Y29094D01*
X30115Y29070D01*
X30102Y29044D01*
X30087Y29006D01*
X30077Y28969D01*
X30253D01*
X30258Y28968D01*
X30266Y28967D01*
X30273Y28966D01*
X30292Y28961D01*
X30312Y28955D01*
X30334Y28946D01*
X30346Y28940D01*
X30356Y28932D01*
X30368Y28923D01*
X30378Y28914D01*
X30379Y28912D01*
X30380Y28911D01*
X30383Y28908D01*
X30386Y28904D01*
X30392Y28899D01*
X30396Y28893D01*
X30406Y28877D01*
X30417Y28857D01*
X30426Y28835D01*
X30432Y28809D01*
X30433Y28796D01*
X30434Y28781D01*
Y28594D01*
Y28593D01*
Y28591D01*
Y28587D01*
X30433Y28581D01*
X30432Y28574D01*
X30431Y28567D01*
X30427Y28548D01*
X30421Y28528D01*
X30411Y28505D01*
X30405Y28494D01*
X30398Y28483D01*
X30388Y28472D01*
X30379Y28462D01*
X30378Y28461D01*
X30377Y28459D01*
X30374Y28456D01*
X30370Y28453D01*
X30363Y28449D01*
X30357Y28444D01*
X30342Y28434D01*
X30323Y28424D01*
X30300Y28415D01*
X30275Y28408D01*
X30261Y28407D01*
X30247Y28406D01*
X30146D01*
X30141Y28407D01*
X30133Y28408D01*
X30126Y28409D01*
X30108Y28414D01*
X30087Y28420D01*
X30066Y28429D01*
X30054Y28436D01*
X30043Y28443D01*
X30031Y28451D01*
X30021Y28461D01*
X30020Y28462D01*
X30019Y28463D01*
X30016Y28466D01*
X30012Y28470D01*
X30008Y28475D01*
X30003Y28481D01*
X29994Y28497D01*
X29983Y28517D01*
X29974Y28540D01*
X29968Y28565D01*
X29967Y28578D01*
X29966Y28593D01*
Y28827D01*
Y28828D01*
Y28833D01*
Y28841D01*
X29967Y28850D01*
Y28861D01*
X29969Y28876D01*
X29970Y28892D01*
X29972Y28908D01*
X29975Y28927D01*
X29978Y28948D01*
X29986Y28991D01*
X29999Y29035D01*
X30007Y29057D01*
X30016Y29080D01*
Y29081D01*
X30018Y29084D01*
X30020Y29088D01*
X30022Y29095D01*
X30026Y29102D01*
X30030Y29110D01*
X30035Y29120D01*
X30042Y29130D01*
X30056Y29154D01*
X30074Y29179D01*
X30095Y29205D01*
X30119Y29231D01*
X30120Y29232D01*
X30122Y29234D01*
X30126Y29237D01*
X30131Y29243D01*
X30137Y29248D01*
X30145Y29255D01*
X30154Y29262D01*
X30163Y29271D01*
X30186Y29287D01*
X30213Y29305D01*
X30243Y29323D01*
X30275Y29338D01*
X30295Y29344D01*
X30298D01*
X30301Y29343D01*
D02*
G37*
G36*
X29604D02*
X29610Y29342D01*
X29619Y29341D01*
X29637Y29336D01*
X29657Y29330D01*
X29679Y29321D01*
X29691Y29314D01*
X29702Y29307D01*
X29713Y29298D01*
X29723Y29288D01*
X29724Y29287D01*
X29725Y29286D01*
X29728Y29283D01*
X29731Y29279D01*
X29735Y29273D01*
X29741Y29267D01*
X29751Y29251D01*
X29760Y29232D01*
X29770Y29209D01*
X29776Y29184D01*
X29777Y29171D01*
X29778Y29156D01*
Y28969D01*
Y28968D01*
Y28966D01*
Y28961D01*
X29777Y28956D01*
X29776Y28949D01*
X29775Y28942D01*
X29771Y28923D01*
X29765Y28903D01*
X29755Y28880D01*
X29749Y28869D01*
X29742Y28858D01*
X29732Y28847D01*
X29723Y28836D01*
X29722Y28835D01*
X29721Y28834D01*
X29718Y28831D01*
X29714Y28828D01*
X29707Y28824D01*
X29701Y28819D01*
X29685Y28809D01*
X29666Y28799D01*
X29644Y28790D01*
X29618Y28783D01*
X29604Y28782D01*
X29590Y28781D01*
X29580D01*
X29770Y28478D01*
X29774Y28468D01*
X29778Y28452D01*
Y28451D01*
Y28449D01*
X29777Y28446D01*
X29776Y28442D01*
X29774Y28437D01*
X29772Y28430D01*
X29768Y28425D01*
X29763Y28419D01*
X29761D01*
X29760Y28417D01*
X29757Y28415D01*
X29753Y28413D01*
X29743Y28408D01*
X29736Y28407D01*
X29729Y28406D01*
X29723D01*
X29716Y28407D01*
X29709Y28409D01*
X29708Y28411D01*
X29704Y28414D01*
X29698Y28419D01*
X29692Y28427D01*
X29470Y28781D01*
X29310D01*
Y28453D01*
Y28452D01*
Y28449D01*
X29308Y28445D01*
X29307Y28440D01*
X29304Y28428D01*
X29300Y28422D01*
X29296Y28417D01*
X29295D01*
X29294Y28415D01*
X29291Y28414D01*
X29287Y28412D01*
X29276Y28408D01*
X29263Y28406D01*
X29260D01*
X29256Y28407D01*
X29251D01*
X29241Y28412D01*
X29235Y28414D01*
X29229Y28418D01*
X29228Y28419D01*
X29227Y28420D01*
X29225Y28423D01*
X29223Y28426D01*
X29220Y28431D01*
X29218Y28438D01*
X29217Y28445D01*
X29216Y28453D01*
Y29297D01*
Y29298D01*
Y29299D01*
X29217Y29304D01*
X29218Y29311D01*
X29222Y29321D01*
X29227Y29329D01*
X29236Y29336D01*
X29247Y29342D01*
X29254Y29344D01*
X29598D01*
X29604Y29343D01*
D02*
G37*
G36*
X58994Y16243D02*
X58999Y16242D01*
X59009Y16237D01*
X59014Y16234D01*
X59020Y16229D01*
X59021Y16228D01*
X59022Y16227D01*
X59024Y16224D01*
X59027Y16220D01*
X59032Y16209D01*
X59033Y16203D01*
X59034Y16197D01*
Y16196D01*
Y16194D01*
X59033Y16191D01*
Y16186D01*
X59029Y16176D01*
X59026Y16171D01*
X59022Y16164D01*
Y16163D01*
X59020Y16162D01*
X59017Y16160D01*
X59013Y16157D01*
X59008Y16154D01*
X59002Y16152D01*
X58996Y16151D01*
X58987Y16150D01*
X58659D01*
Y15869D01*
X58809D01*
X58816Y15868D01*
X58824Y15867D01*
X58833Y15866D01*
X58845Y15864D01*
X58856Y15860D01*
X58882Y15852D01*
X58896Y15847D01*
X58909Y15840D01*
X58924Y15832D01*
X58937Y15823D01*
X58951Y15812D01*
X58964Y15800D01*
X58965Y15799D01*
X58968Y15797D01*
X58971Y15793D01*
X58976Y15788D01*
X58981Y15781D01*
X58986Y15773D01*
X58993Y15764D01*
X59000Y15753D01*
X59006Y15742D01*
X59012Y15729D01*
X59024Y15701D01*
X59028Y15685D01*
X59031Y15670D01*
X59033Y15652D01*
X59034Y15634D01*
Y15541D01*
Y15540D01*
Y15537D01*
Y15531D01*
X59033Y15525D01*
X59032Y15517D01*
X59030Y15506D01*
X59028Y15496D01*
X59026Y15484D01*
X59018Y15458D01*
X59011Y15445D01*
X59005Y15430D01*
X58997Y15417D01*
X58987Y15402D01*
X58977Y15389D01*
X58964Y15375D01*
X58963Y15374D01*
X58961Y15372D01*
X58957Y15369D01*
X58952Y15365D01*
X58946Y15359D01*
X58937Y15353D01*
X58928Y15347D01*
X58919Y15341D01*
X58907Y15334D01*
X58894Y15328D01*
X58867Y15317D01*
X58851Y15313D01*
X58834Y15309D01*
X58818Y15307D01*
X58800Y15306D01*
X58609D01*
X58605Y15307D01*
X58600Y15308D01*
X58589Y15312D01*
X58582Y15315D01*
X58577Y15319D01*
Y15320D01*
X58575Y15322D01*
X58574Y15324D01*
X58572Y15328D01*
X58568Y15340D01*
X58567Y15346D01*
X58566Y15353D01*
Y15354D01*
Y15356D01*
X58567Y15359D01*
Y15364D01*
X58571Y15373D01*
X58573Y15379D01*
X58577Y15384D01*
X58578Y15386D01*
X58579Y15387D01*
X58582Y15390D01*
X58586Y15393D01*
X58592Y15395D01*
X58597Y15398D01*
X58604Y15399D01*
X58612Y15400D01*
X58805D01*
X58809Y15401D01*
X58821Y15402D01*
X58834Y15405D01*
X58849Y15409D01*
X58866Y15417D01*
X58882Y15426D01*
X58899Y15440D01*
X58901Y15442D01*
X58905Y15447D01*
X58912Y15455D01*
X58920Y15468D01*
X58927Y15482D01*
X58934Y15499D01*
X58938Y15519D01*
X58940Y15541D01*
Y15634D01*
Y15635D01*
Y15636D01*
Y15640D01*
X58939Y15644D01*
X58938Y15655D01*
X58935Y15669D01*
X58931Y15683D01*
X58924Y15700D01*
X58913Y15717D01*
X58900Y15733D01*
X58898Y15735D01*
X58893Y15740D01*
X58884Y15747D01*
X58872Y15754D01*
X58857Y15761D01*
X58841Y15769D01*
X58822Y15773D01*
X58800Y15775D01*
X58610D01*
X58605Y15776D01*
X58598Y15777D01*
X58590Y15781D01*
X58580Y15786D01*
X58573Y15795D01*
X58568Y15806D01*
X58567Y15814D01*
X58566Y15822D01*
Y16197D01*
Y16198D01*
Y16199D01*
X58567Y16204D01*
X58568Y16211D01*
X58572Y16221D01*
X58577Y16229D01*
X58585Y16236D01*
X58597Y16242D01*
X58604Y16244D01*
X58990D01*
X58994Y16243D01*
D02*
G37*
G36*
X58204D02*
X58210Y16242D01*
X58219Y16241D01*
X58237Y16236D01*
X58257Y16230D01*
X58279Y16221D01*
X58291Y16214D01*
X58302Y16207D01*
X58313Y16198D01*
X58323Y16188D01*
X58324Y16187D01*
X58325Y16186D01*
X58328Y16183D01*
X58331Y16179D01*
X58335Y16173D01*
X58341Y16167D01*
X58351Y16151D01*
X58360Y16132D01*
X58370Y16109D01*
X58376Y16084D01*
X58377Y16071D01*
X58378Y16056D01*
Y15869D01*
Y15868D01*
Y15866D01*
Y15861D01*
X58377Y15856D01*
X58376Y15849D01*
X58375Y15842D01*
X58371Y15823D01*
X58365Y15803D01*
X58355Y15780D01*
X58349Y15769D01*
X58342Y15758D01*
X58332Y15747D01*
X58323Y15736D01*
X58322Y15735D01*
X58321Y15734D01*
X58318Y15731D01*
X58314Y15728D01*
X58307Y15724D01*
X58301Y15719D01*
X58285Y15709D01*
X58266Y15699D01*
X58244Y15690D01*
X58218Y15683D01*
X58204Y15682D01*
X58190Y15681D01*
X58180D01*
X58370Y15378D01*
X58374Y15368D01*
X58378Y15352D01*
Y15351D01*
Y15349D01*
X58377Y15346D01*
X58376Y15342D01*
X58374Y15337D01*
X58372Y15330D01*
X58368Y15325D01*
X58363Y15319D01*
X58361D01*
X58360Y15317D01*
X58357Y15315D01*
X58353Y15313D01*
X58343Y15308D01*
X58336Y15307D01*
X58329Y15306D01*
X58323D01*
X58316Y15307D01*
X58309Y15309D01*
X58308Y15311D01*
X58304Y15314D01*
X58298Y15319D01*
X58292Y15327D01*
X58070Y15681D01*
X57910D01*
Y15353D01*
Y15352D01*
Y15349D01*
X57908Y15345D01*
X57907Y15340D01*
X57904Y15328D01*
X57900Y15322D01*
X57896Y15317D01*
X57895D01*
X57894Y15315D01*
X57891Y15314D01*
X57887Y15312D01*
X57876Y15308D01*
X57863Y15306D01*
X57860D01*
X57856Y15307D01*
X57851D01*
X57841Y15312D01*
X57835Y15314D01*
X57829Y15318D01*
X57828Y15319D01*
X57827Y15320D01*
X57825Y15323D01*
X57823Y15326D01*
X57820Y15331D01*
X57818Y15338D01*
X57817Y15345D01*
X57816Y15353D01*
Y16197D01*
Y16198D01*
Y16199D01*
X57817Y16204D01*
X57818Y16211D01*
X57822Y16221D01*
X57827Y16229D01*
X57836Y16236D01*
X57847Y16242D01*
X57854Y16244D01*
X58198D01*
X58204Y16243D01*
D02*
G37*
G36*
X20333Y21168D02*
X20338Y21167D01*
X20348Y21163D01*
X20355Y21159D01*
X20360Y21155D01*
X20361Y21154D01*
X20362Y21153D01*
X20364Y21150D01*
X20367Y21146D01*
X20372Y21135D01*
X20373Y21129D01*
X20374Y21122D01*
X20372Y21108D01*
X20203Y20512D01*
X20422D01*
Y20652D01*
Y20653D01*
Y20655D01*
X20423Y20659D01*
X20424Y20664D01*
X20429Y20675D01*
X20432Y20680D01*
X20436Y20686D01*
X20437Y20688D01*
X20439Y20689D01*
X20441Y20691D01*
X20445Y20693D01*
X20456Y20697D01*
X20462Y20699D01*
X20472D01*
X20475Y20698D01*
X20480D01*
X20490Y20694D01*
X20496Y20691D01*
X20501Y20686D01*
X20502D01*
X20504Y20684D01*
X20506Y20681D01*
X20509Y20678D01*
X20512Y20673D01*
X20514Y20667D01*
X20515Y20660D01*
X20516Y20652D01*
Y20512D01*
X20612D01*
X20616Y20510D01*
X20620Y20509D01*
X20632Y20505D01*
X20637Y20502D01*
X20642Y20497D01*
X20643Y20496D01*
X20644Y20495D01*
X20646Y20492D01*
X20649Y20488D01*
X20653Y20477D01*
X20655Y20471D01*
X20656Y20465D01*
Y20464D01*
Y20462D01*
X20655Y20458D01*
Y20454D01*
X20650Y20444D01*
X20648Y20439D01*
X20644Y20432D01*
Y20431D01*
X20642Y20430D01*
X20639Y20428D01*
X20636Y20425D01*
X20631Y20422D01*
X20624Y20420D01*
X20617Y20419D01*
X20609Y20418D01*
X20516D01*
Y20277D01*
Y20276D01*
Y20274D01*
X20515Y20270D01*
X20514Y20265D01*
X20511Y20253D01*
X20507Y20247D01*
X20502Y20242D01*
X20501D01*
X20500Y20240D01*
X20497Y20239D01*
X20493Y20237D01*
X20483Y20233D01*
X20469Y20231D01*
X20466D01*
X20463Y20232D01*
X20458D01*
X20447Y20237D01*
X20441Y20239D01*
X20436Y20243D01*
X20435Y20244D01*
X20434Y20245D01*
X20432Y20248D01*
X20430Y20251D01*
X20426Y20256D01*
X20424Y20263D01*
X20423Y20269D01*
X20422Y20277D01*
Y20418D01*
X20138D01*
X20133Y20419D01*
X20124Y20420D01*
X20116Y20423D01*
X20108Y20427D01*
X20099Y20433D01*
X20094Y20443D01*
X20093Y20449D01*
X20092Y20455D01*
X20093Y20467D01*
X20095Y20477D01*
X20283Y21134D01*
Y21135D01*
X20284Y21136D01*
X20287Y21143D01*
X20291Y21151D01*
X20299Y21159D01*
X20308Y21164D01*
X20309Y21166D01*
X20313Y21167D01*
X20319Y21168D01*
X20325Y21169D01*
X20329D01*
X20333Y21168D01*
D02*
G37*
G36*
X19733D02*
X19739Y21167D01*
X19747Y21166D01*
X19765Y21161D01*
X19786Y21155D01*
X19808Y21146D01*
X19819Y21139D01*
X19831Y21132D01*
X19841Y21123D01*
X19852Y21113D01*
X19853Y21112D01*
X19854Y21111D01*
X19857Y21108D01*
X19860Y21104D01*
X19864Y21098D01*
X19869Y21092D01*
X19880Y21076D01*
X19889Y21057D01*
X19898Y21034D01*
X19905Y21009D01*
X19906Y20996D01*
X19907Y20981D01*
Y20794D01*
Y20793D01*
Y20791D01*
Y20786D01*
X19906Y20781D01*
X19905Y20774D01*
X19904Y20767D01*
X19899Y20748D01*
X19893Y20728D01*
X19884Y20705D01*
X19878Y20694D01*
X19870Y20683D01*
X19861Y20672D01*
X19852Y20661D01*
X19851Y20660D01*
X19850Y20659D01*
X19846Y20656D01*
X19842Y20653D01*
X19836Y20649D01*
X19830Y20644D01*
X19814Y20634D01*
X19794Y20624D01*
X19772Y20615D01*
X19746Y20608D01*
X19733Y20607D01*
X19718Y20606D01*
X19709D01*
X19898Y20303D01*
X19903Y20293D01*
X19907Y20277D01*
Y20276D01*
Y20274D01*
X19906Y20271D01*
X19905Y20267D01*
X19903Y20262D01*
X19901Y20255D01*
X19896Y20250D01*
X19891Y20244D01*
X19890D01*
X19889Y20242D01*
X19886Y20240D01*
X19882Y20238D01*
X19871Y20233D01*
X19865Y20232D01*
X19858Y20231D01*
X19852D01*
X19844Y20232D01*
X19838Y20234D01*
X19837Y20236D01*
X19833Y20239D01*
X19827Y20244D01*
X19820Y20252D01*
X19599Y20606D01*
X19438D01*
Y20278D01*
Y20277D01*
Y20274D01*
X19437Y20270D01*
X19436Y20265D01*
X19433Y20253D01*
X19429Y20247D01*
X19425Y20242D01*
X19424D01*
X19423Y20240D01*
X19419Y20239D01*
X19415Y20237D01*
X19405Y20233D01*
X19391Y20231D01*
X19388D01*
X19385Y20232D01*
X19380D01*
X19369Y20237D01*
X19363Y20239D01*
X19358Y20243D01*
X19357Y20244D01*
X19356Y20245D01*
X19354Y20248D01*
X19352Y20251D01*
X19349Y20256D01*
X19347Y20263D01*
X19345Y20270D01*
X19344Y20278D01*
Y21122D01*
Y21123D01*
Y21124D01*
X19345Y21129D01*
X19347Y21136D01*
X19351Y21146D01*
X19356Y21154D01*
X19364Y21161D01*
X19376Y21167D01*
X19383Y21169D01*
X19727D01*
X19733Y21168D01*
D02*
G37*
G36*
X20340Y22140D02*
X20349Y22139D01*
X20361Y22137D01*
X20372Y22135D01*
X20385Y22132D01*
X20399Y22129D01*
X20413Y22124D01*
X20427Y22119D01*
X20442Y22111D01*
X20457Y22103D01*
X20471Y22094D01*
X20485Y22082D01*
X20497Y22070D01*
X20498Y22069D01*
X20499Y22067D01*
X20502Y22063D01*
X20507Y22058D01*
X20511Y22051D01*
X20516Y22044D01*
X20521Y22034D01*
X20527Y22025D01*
X20533Y22013D01*
X20538Y22001D01*
X20547Y21974D01*
X20551Y21959D01*
X20555Y21943D01*
X20556Y21927D01*
X20557Y21909D01*
Y21908D01*
Y21907D01*
Y21904D01*
Y21900D01*
X20556Y21888D01*
X20553Y21875D01*
X20550Y21858D01*
X20546Y21841D01*
X20540Y21823D01*
X20533Y21804D01*
X20532Y21802D01*
X20528Y21796D01*
X20523Y21787D01*
X20516Y21776D01*
X20507Y21762D01*
X20495Y21749D01*
X20481Y21734D01*
X20465Y21720D01*
X20467Y21719D01*
X20471Y21715D01*
X20479Y21707D01*
X20488Y21698D01*
X20497Y21686D01*
X20509Y21673D01*
X20519Y21657D01*
X20530Y21640D01*
Y21639D01*
X20531Y21638D01*
X20534Y21631D01*
X20538Y21621D01*
X20543Y21608D01*
X20547Y21593D01*
X20552Y21575D01*
X20556Y21555D01*
X20557Y21534D01*
Y21441D01*
Y21440D01*
Y21437D01*
Y21431D01*
X20556Y21425D01*
X20555Y21417D01*
X20552Y21406D01*
X20550Y21396D01*
X20548Y21384D01*
X20540Y21358D01*
X20534Y21345D01*
X20527Y21330D01*
X20519Y21317D01*
X20510Y21302D01*
X20499Y21289D01*
X20487Y21275D01*
X20486Y21274D01*
X20484Y21272D01*
X20480Y21269D01*
X20474Y21265D01*
X20468Y21259D01*
X20460Y21253D01*
X20450Y21247D01*
X20441Y21241D01*
X20430Y21234D01*
X20416Y21228D01*
X20389Y21217D01*
X20373Y21213D01*
X20357Y21209D01*
X20340Y21207D01*
X20322Y21206D01*
X20132D01*
X20128Y21207D01*
X20122Y21208D01*
X20111Y21212D01*
X20105Y21215D01*
X20099Y21219D01*
Y21220D01*
X20097Y21222D01*
X20096Y21225D01*
X20094Y21229D01*
X20090Y21240D01*
X20089Y21246D01*
X20088Y21253D01*
Y21254D01*
Y21256D01*
X20089Y21259D01*
Y21263D01*
X20093Y21273D01*
X20095Y21278D01*
X20099Y21284D01*
X20100Y21286D01*
X20102Y21287D01*
X20105Y21290D01*
X20108Y21293D01*
X20113Y21295D01*
X20119Y21298D01*
X20127Y21299D01*
X20135Y21300D01*
X20328D01*
X20332Y21301D01*
X20343Y21302D01*
X20357Y21305D01*
X20371Y21311D01*
X20388Y21317D01*
X20405Y21327D01*
X20421Y21341D01*
X20423Y21343D01*
X20427Y21348D01*
X20435Y21357D01*
X20442Y21369D01*
X20449Y21383D01*
X20457Y21400D01*
X20461Y21420D01*
X20463Y21441D01*
Y21534D01*
Y21535D01*
Y21536D01*
Y21540D01*
X20462Y21544D01*
X20461Y21555D01*
X20458Y21569D01*
X20454Y21583D01*
X20446Y21600D01*
X20436Y21617D01*
X20422Y21633D01*
X20420Y21635D01*
X20415Y21640D01*
X20407Y21647D01*
X20394Y21654D01*
X20380Y21661D01*
X20363Y21669D01*
X20343Y21673D01*
X20321Y21675D01*
X20224D01*
X20220Y21676D01*
X20215Y21677D01*
X20205Y21680D01*
X20198Y21683D01*
X20193Y21688D01*
Y21689D01*
X20191Y21691D01*
X20189Y21694D01*
X20187Y21698D01*
X20183Y21708D01*
X20182Y21715D01*
X20181Y21722D01*
Y21723D01*
Y21725D01*
X20182Y21728D01*
Y21731D01*
X20186Y21742D01*
X20188Y21747D01*
X20192Y21753D01*
X20193Y21754D01*
X20194Y21755D01*
X20197Y21758D01*
X20201Y21761D01*
X20207Y21764D01*
X20212Y21767D01*
X20219Y21768D01*
X20228Y21769D01*
X20328D01*
X20332Y21770D01*
X20343Y21771D01*
X20358Y21774D01*
X20374Y21779D01*
X20391Y21787D01*
X20409Y21798D01*
X20424Y21812D01*
X20425Y21815D01*
X20430Y21820D01*
X20435Y21828D01*
X20442Y21840D01*
X20448Y21854D01*
X20454Y21871D01*
X20458Y21890D01*
X20459Y21910D01*
Y21911D01*
Y21912D01*
Y21916D01*
Y21920D01*
X20457Y21930D01*
X20455Y21944D01*
X20450Y21958D01*
X20445Y21975D01*
X20437Y21991D01*
X20425Y22005D01*
X20423Y22007D01*
X20418Y22011D01*
X20410Y22019D01*
X20398Y22027D01*
X20384Y22034D01*
X20366Y22042D01*
X20345Y22046D01*
X20321Y22048D01*
X20131D01*
X20127Y22049D01*
X20121Y22050D01*
X20111Y22053D01*
X20105Y22056D01*
X20099Y22060D01*
Y22061D01*
X20097Y22063D01*
X20096Y22066D01*
X20094Y22070D01*
X20090Y22081D01*
X20089Y22087D01*
X20088Y22095D01*
Y22096D01*
Y22098D01*
X20089Y22101D01*
Y22105D01*
X20093Y22114D01*
X20095Y22121D01*
X20099Y22126D01*
X20100Y22127D01*
X20102Y22128D01*
X20105Y22131D01*
X20109Y22134D01*
X20114Y22136D01*
X20119Y22139D01*
X20127Y22140D01*
X20135Y22142D01*
X20333D01*
X20340Y22140D01*
D02*
G37*
G36*
X19732Y22143D02*
X19738Y22142D01*
X19746Y22140D01*
X19764Y22136D01*
X19785Y22130D01*
X19807Y22121D01*
X19818Y22114D01*
X19830Y22107D01*
X19840Y22098D01*
X19851Y22088D01*
X19852Y22087D01*
X19853Y22086D01*
X19856Y22083D01*
X19859Y22079D01*
X19863Y22073D01*
X19868Y22067D01*
X19879Y22051D01*
X19888Y22032D01*
X19897Y22009D01*
X19904Y21984D01*
X19905Y21971D01*
X19906Y21956D01*
Y21769D01*
Y21768D01*
Y21766D01*
Y21761D01*
X19905Y21756D01*
X19904Y21749D01*
X19903Y21742D01*
X19898Y21723D01*
X19892Y21703D01*
X19883Y21680D01*
X19877Y21669D01*
X19869Y21658D01*
X19860Y21647D01*
X19851Y21636D01*
X19850Y21635D01*
X19848Y21634D01*
X19845Y21631D01*
X19841Y21628D01*
X19835Y21624D01*
X19829Y21619D01*
X19813Y21609D01*
X19793Y21599D01*
X19771Y21590D01*
X19745Y21583D01*
X19732Y21582D01*
X19717Y21581D01*
X19708D01*
X19897Y21278D01*
X19902Y21268D01*
X19906Y21252D01*
Y21251D01*
Y21249D01*
X19905Y21246D01*
X19904Y21242D01*
X19902Y21237D01*
X19899Y21230D01*
X19895Y21225D01*
X19890Y21219D01*
X19889D01*
X19888Y21217D01*
X19885Y21215D01*
X19881Y21213D01*
X19870Y21208D01*
X19864Y21207D01*
X19857Y21206D01*
X19851D01*
X19843Y21207D01*
X19837Y21209D01*
X19836Y21211D01*
X19832Y21214D01*
X19826Y21219D01*
X19819Y21227D01*
X19597Y21581D01*
X19437D01*
Y21253D01*
Y21252D01*
Y21249D01*
X19436Y21245D01*
X19435Y21240D01*
X19432Y21228D01*
X19428Y21222D01*
X19424Y21217D01*
X19423D01*
X19421Y21215D01*
X19418Y21214D01*
X19414Y21212D01*
X19404Y21208D01*
X19390Y21206D01*
X19387D01*
X19384Y21207D01*
X19379D01*
X19368Y21212D01*
X19362Y21214D01*
X19357Y21218D01*
X19356Y21219D01*
X19355Y21220D01*
X19353Y21223D01*
X19351Y21226D01*
X19348Y21231D01*
X19345Y21238D01*
X19344Y21245D01*
X19343Y21253D01*
Y22097D01*
Y22098D01*
Y22099D01*
X19344Y22104D01*
X19345Y22111D01*
X19350Y22121D01*
X19355Y22129D01*
X19363Y22136D01*
X19375Y22142D01*
X19382Y22144D01*
X19726D01*
X19732Y22143D01*
D02*
G37*
G36*
X31662Y15545D02*
X31672Y15540D01*
X31677Y15537D01*
X31682Y15532D01*
X31683Y15531D01*
X31684Y15529D01*
X31686Y15526D01*
X31688Y15522D01*
X31691Y15517D01*
X31692Y15509D01*
X31694Y15502D01*
Y15493D01*
Y14649D01*
Y14648D01*
Y14646D01*
X31693Y14642D01*
X31692Y14637D01*
X31688Y14625D01*
X31684Y14619D01*
X31680Y14614D01*
X31679D01*
X31678Y14612D01*
X31675Y14611D01*
X31671Y14608D01*
X31660Y14605D01*
X31647Y14603D01*
X31644D01*
X31641Y14604D01*
X31635D01*
X31625Y14608D01*
X31619Y14611D01*
X31613Y14615D01*
X31612Y14616D01*
X31611Y14617D01*
X31609Y14620D01*
X31607Y14623D01*
X31604Y14628D01*
X31602Y14634D01*
X31601Y14641D01*
X31600Y14649D01*
Y15380D01*
X31492Y15273D01*
X31491Y15272D01*
X31490Y15271D01*
X31486Y15269D01*
X31482Y15266D01*
X31472Y15260D01*
X31466Y15259D01*
X31459Y15258D01*
X31456D01*
X31453Y15259D01*
X31449Y15260D01*
X31438Y15265D01*
X31433Y15268D01*
X31427Y15273D01*
X31426Y15274D01*
X31425Y15276D01*
X31422Y15278D01*
X31420Y15282D01*
X31413Y15293D01*
X31412Y15299D01*
X31411Y15306D01*
Y15307D01*
Y15309D01*
X31412Y15312D01*
X31413Y15317D01*
X31418Y15326D01*
X31421Y15332D01*
X31426Y15338D01*
X31613Y15526D01*
X31616Y15528D01*
X31620Y15531D01*
X31625Y15536D01*
X31632Y15540D01*
X31634Y15542D01*
X31639Y15544D01*
X31647Y15546D01*
X31655Y15547D01*
X31657D01*
X31662Y15545D01*
D02*
G37*
G36*
X30809Y15539D02*
X30814D01*
X30824Y15535D01*
X30830Y15532D01*
X30836Y15528D01*
X30837D01*
X30838Y15526D01*
X30840Y15523D01*
X30843Y15520D01*
X30846Y15514D01*
X30848Y15508D01*
X30849Y15502D01*
X30850Y15494D01*
Y14697D01*
X31180D01*
X31184Y14696D01*
X31189Y14695D01*
X31200Y14691D01*
X31205Y14688D01*
X31210Y14682D01*
X31211Y14681D01*
X31212Y14680D01*
X31215Y14677D01*
X31218Y14673D01*
X31222Y14663D01*
X31223Y14656D01*
X31224Y14650D01*
Y14649D01*
Y14647D01*
X31223Y14644D01*
Y14640D01*
X31219Y14629D01*
X31217Y14624D01*
X31212Y14618D01*
Y14617D01*
X31210Y14616D01*
X31207Y14614D01*
X31204Y14611D01*
X31199Y14607D01*
X31193Y14605D01*
X31185Y14604D01*
X31177Y14603D01*
X30800D01*
X30795Y14604D01*
X30788Y14605D01*
X30779Y14609D01*
X30771Y14615D01*
X30764Y14623D01*
X30758Y14634D01*
X30757Y14642D01*
X30756Y14650D01*
Y15494D01*
Y15495D01*
Y15497D01*
X30757Y15501D01*
X30758Y15505D01*
X30763Y15517D01*
X30766Y15522D01*
X30770Y15528D01*
X30771Y15529D01*
X30773Y15530D01*
X30775Y15532D01*
X30779Y15534D01*
X30790Y15538D01*
X30796Y15540D01*
X30806D01*
X30809Y15539D01*
D02*
G37*
G36*
X7179Y4111D02*
X7183D01*
X7194Y4107D01*
X7199Y4104D01*
X7205Y4100D01*
X7206D01*
X7207Y4098D01*
X7209Y4095D01*
X7212Y4092D01*
X7215Y4087D01*
X7218Y4080D01*
X7219Y4073D01*
X7220Y4065D01*
Y3688D01*
X7219Y3683D01*
X7218Y3674D01*
X7214Y3665D01*
X7210Y3656D01*
X7204Y3648D01*
X7195Y3642D01*
X7188Y3641D01*
X7182Y3640D01*
X7181D01*
X7179D01*
X7177Y3641D01*
X7173D01*
X7161Y3645D01*
X7155Y3647D01*
X7148Y3651D01*
X6596Y3996D01*
X6594Y3997D01*
X6590Y3999D01*
X6582Y4001D01*
X6573Y4006D01*
X6563Y4009D01*
X6551Y4011D01*
X6539Y4013D01*
X6526Y4014D01*
X6525D01*
X6523D01*
X6520D01*
X6516Y4013D01*
X6504Y4012D01*
X6491Y4008D01*
X6474Y4002D01*
X6456Y3994D01*
X6439Y3983D01*
X6430Y3975D01*
X6422Y3967D01*
X6421Y3966D01*
X6419Y3963D01*
X6415Y3959D01*
X6409Y3952D01*
X6404Y3944D01*
X6399Y3936D01*
X6389Y3915D01*
X6388Y3914D01*
X6387Y3910D01*
X6384Y3903D01*
X6382Y3896D01*
X6380Y3887D01*
X6378Y3875D01*
X6376Y3864D01*
Y3845D01*
X6377Y3839D01*
X6378Y3830D01*
X6380Y3819D01*
X6384Y3808D01*
X6389Y3796D01*
X6395Y3784D01*
X6396Y3783D01*
X6399Y3778D01*
X6403Y3772D01*
X6409Y3765D01*
X6417Y3757D01*
X6426Y3747D01*
X6438Y3738D01*
X6449Y3730D01*
X6450Y3728D01*
X6454Y3725D01*
X6459Y3720D01*
X6466Y3712D01*
X6470Y3691D01*
Y3688D01*
X6469Y3685D01*
X6468Y3681D01*
X6465Y3669D01*
X6462Y3664D01*
X6457Y3658D01*
X6456Y3657D01*
X6455Y3656D01*
X6452Y3654D01*
X6448Y3650D01*
X6438Y3645D01*
X6431Y3644D01*
X6425Y3643D01*
X6423D01*
X6418Y3644D01*
X6409Y3646D01*
X6398Y3651D01*
X6397D01*
X6396Y3652D01*
X6390Y3658D01*
X6380Y3664D01*
X6369Y3674D01*
X6356Y3686D01*
X6342Y3701D01*
X6328Y3718D01*
X6316Y3738D01*
X6315Y3739D01*
X6313Y3743D01*
X6311Y3748D01*
X6306Y3755D01*
X6303Y3763D01*
X6299Y3772D01*
X6292Y3792D01*
Y3793D01*
X6291Y3796D01*
X6289Y3802D01*
X6287Y3809D01*
X6286Y3817D01*
X6283Y3826D01*
X6282Y3845D01*
Y3856D01*
X6283Y3864D01*
X6284Y3873D01*
X6287Y3884D01*
X6289Y3896D01*
X6292Y3910D01*
X6295Y3924D01*
X6300Y3939D01*
X6306Y3954D01*
X6313Y3970D01*
X6322Y3986D01*
X6331Y4001D01*
X6343Y4017D01*
X6355Y4032D01*
X6356Y4033D01*
X6358Y4035D01*
X6363Y4039D01*
X6368Y4043D01*
X6375Y4049D01*
X6383Y4056D01*
X6393Y4063D01*
X6404Y4070D01*
X6417Y4076D01*
X6429Y4084D01*
X6459Y4096D01*
X6475Y4100D01*
X6492Y4104D01*
X6509Y4107D01*
X6528Y4108D01*
X6529D01*
X6530D01*
X6533D01*
X6539D01*
X6550Y4107D01*
X6565Y4103D01*
X6582Y4100D01*
X6601Y4095D01*
X6622Y4088D01*
X6644Y4077D01*
X7126Y3774D01*
Y4068D01*
X7127Y4072D01*
X7128Y4076D01*
X7132Y4088D01*
X7135Y4093D01*
X7141Y4098D01*
X7142Y4099D01*
X7143Y4100D01*
X7146Y4102D01*
X7150Y4105D01*
X7160Y4110D01*
X7167Y4111D01*
X7173Y4112D01*
X7174D01*
X7176D01*
X7179Y4111D01*
D02*
G37*
G36*
Y3455D02*
X7183D01*
X7194Y3450D01*
X7199Y3448D01*
X7205Y3444D01*
X7206D01*
X7207Y3442D01*
X7209Y3439D01*
X7212Y3436D01*
X7215Y3431D01*
X7218Y3424D01*
X7219Y3417D01*
X7220Y3409D01*
Y3032D01*
X7219Y3027D01*
X7218Y3019D01*
X7213Y3011D01*
X7208Y3003D01*
X7200Y2995D01*
X7188Y2990D01*
X7181Y2989D01*
X7173Y2988D01*
X6329D01*
X6328D01*
X6326D01*
X6322Y2989D01*
X6318Y2990D01*
X6306Y2994D01*
X6301Y2997D01*
X6295Y3002D01*
X6294Y3003D01*
X6293Y3005D01*
X6291Y3007D01*
X6289Y3011D01*
X6284Y3021D01*
X6282Y3028D01*
Y3038D01*
X6283Y3041D01*
Y3045D01*
X6288Y3056D01*
X6291Y3062D01*
X6295Y3067D01*
Y3068D01*
X6297Y3069D01*
X6300Y3071D01*
X6303Y3075D01*
X6308Y3078D01*
X6315Y3080D01*
X6321Y3081D01*
X6329Y3082D01*
X7126D01*
Y3412D01*
X7127Y3416D01*
X7128Y3420D01*
X7132Y3432D01*
X7135Y3437D01*
X7141Y3442D01*
X7142Y3443D01*
X7143Y3444D01*
X7146Y3446D01*
X7150Y3449D01*
X7160Y3454D01*
X7167Y3455D01*
X7173Y3456D01*
X7174D01*
X7176D01*
X7179Y3455D01*
D02*
G37*
G36*
Y2800D02*
X7183Y2799D01*
X7189Y2796D01*
X7195Y2794D01*
X7201Y2790D01*
X7207Y2785D01*
Y2784D01*
X7209Y2782D01*
X7211Y2779D01*
X7213Y2775D01*
X7218Y2764D01*
X7219Y2759D01*
X7220Y2753D01*
Y2750D01*
X7219Y2746D01*
Y2742D01*
X7215Y2731D01*
X7209Y2719D01*
X7208D01*
X7207Y2717D01*
X7204Y2715D01*
X7201Y2713D01*
X7196Y2711D01*
X7189Y2709D01*
X7182Y2708D01*
X7174Y2707D01*
X6751D01*
Y2332D01*
X7173D01*
X7174D01*
X7177D01*
X7181Y2331D01*
X7186Y2330D01*
X7198Y2327D01*
X7204Y2323D01*
X7209Y2318D01*
Y2317D01*
X7211Y2316D01*
X7212Y2313D01*
X7214Y2309D01*
X7218Y2299D01*
X7220Y2285D01*
Y2282D01*
X7219Y2279D01*
Y2274D01*
X7214Y2263D01*
X7212Y2257D01*
X7208Y2252D01*
X7207Y2251D01*
X7206Y2250D01*
X7203Y2248D01*
X7200Y2246D01*
X7195Y2242D01*
X7188Y2240D01*
X7182Y2239D01*
X7174Y2238D01*
X6330D01*
X6329D01*
X6327D01*
X6323Y2239D01*
X6319Y2240D01*
X6307Y2245D01*
X6301Y2248D01*
X6295Y2252D01*
X6294Y2253D01*
X6293Y2255D01*
X6291Y2257D01*
X6289Y2261D01*
X6286Y2272D01*
X6283Y2278D01*
Y2288D01*
X6284Y2291D01*
Y2296D01*
X6289Y2306D01*
X6291Y2312D01*
X6295Y2317D01*
Y2318D01*
X6297Y2319D01*
X6300Y2322D01*
X6303Y2325D01*
X6308Y2328D01*
X6315Y2330D01*
X6322Y2331D01*
X6330Y2332D01*
X6657D01*
Y2707D01*
X6328D01*
X6327D01*
X6325D01*
X6321Y2708D01*
X6317Y2709D01*
X6305Y2713D01*
X6300Y2716D01*
X6295Y2720D01*
X6294Y2721D01*
X6293Y2724D01*
X6291Y2726D01*
X6288Y2730D01*
X6282Y2740D01*
X6281Y2746D01*
X6280Y2754D01*
Y2757D01*
X6281Y2760D01*
Y2764D01*
X6286Y2775D01*
X6289Y2781D01*
X6293Y2786D01*
Y2787D01*
X6295Y2788D01*
X6298Y2790D01*
X6301Y2793D01*
X6306Y2796D01*
X6313Y2799D01*
X6320Y2800D01*
X6328Y2801D01*
X7172D01*
X7173D01*
X7175D01*
X7179Y2800D01*
D02*
G37*
G36*
X29453Y25267D02*
X29457D01*
X29468Y25262D01*
X29474Y25259D01*
X29479Y25255D01*
X29480D01*
X29481Y25253D01*
X29483Y25250D01*
X29487Y25247D01*
X29490Y25242D01*
X29492Y25235D01*
X29493Y25228D01*
X29494Y25220D01*
Y24376D01*
Y24375D01*
Y24373D01*
X29493Y24369D01*
X29492Y24365D01*
X29490Y24358D01*
X29488Y24353D01*
X29483Y24347D01*
X29478Y24341D01*
X29477D01*
X29475Y24339D01*
X29472Y24337D01*
X29468Y24334D01*
X29457Y24330D01*
X29452Y24329D01*
X29446Y24328D01*
X29443D01*
X29440Y24329D01*
X29435D01*
X29424Y24332D01*
X29413Y24339D01*
Y24340D01*
X29411Y24341D01*
X29408Y24344D01*
X29406Y24347D01*
X29404Y24352D01*
X29402Y24358D01*
X29401Y24366D01*
X29400Y24374D01*
Y24797D01*
X29025D01*
Y24375D01*
Y24374D01*
Y24371D01*
X29024Y24367D01*
X29023Y24362D01*
X29020Y24350D01*
X29016Y24344D01*
X29012Y24339D01*
X29011D01*
X29010Y24337D01*
X29006Y24336D01*
X29002Y24333D01*
X28992Y24330D01*
X28978Y24328D01*
X28975D01*
X28972Y24329D01*
X28967D01*
X28956Y24333D01*
X28950Y24336D01*
X28945Y24340D01*
X28944Y24341D01*
X28943Y24342D01*
X28941Y24345D01*
X28939Y24348D01*
X28936Y24353D01*
X28934Y24359D01*
X28933Y24366D01*
X28931Y24374D01*
Y25218D01*
Y25219D01*
Y25221D01*
X28933Y25225D01*
X28934Y25229D01*
X28938Y25241D01*
X28941Y25247D01*
X28945Y25253D01*
X28946Y25254D01*
X28948Y25255D01*
X28950Y25257D01*
X28954Y25259D01*
X28965Y25262D01*
X28971Y25264D01*
X28981D01*
X28985Y25263D01*
X28989D01*
X28999Y25259D01*
X29005Y25257D01*
X29011Y25253D01*
X29012D01*
X29013Y25251D01*
X29015Y25248D01*
X29018Y25245D01*
X29021Y25239D01*
X29023Y25233D01*
X29024Y25226D01*
X29025Y25218D01*
Y24891D01*
X29400D01*
Y25220D01*
Y25221D01*
Y25223D01*
X29401Y25227D01*
X29402Y25231D01*
X29406Y25243D01*
X29409Y25248D01*
X29414Y25253D01*
X29415Y25254D01*
X29417Y25255D01*
X29419Y25257D01*
X29423Y25260D01*
X29433Y25266D01*
X29440Y25267D01*
X29447Y25268D01*
X29450D01*
X29453Y25267D01*
D02*
G37*
G36*
X30587Y25270D02*
X30597Y25266D01*
X30602Y25262D01*
X30607Y25257D01*
X30608Y25256D01*
X30609Y25254D01*
X30611Y25251D01*
X30613Y25247D01*
X30615Y25242D01*
X30616Y25234D01*
X30619Y25227D01*
Y25218D01*
Y24374D01*
Y24373D01*
Y24371D01*
X30617Y24367D01*
X30616Y24362D01*
X30613Y24350D01*
X30609Y24344D01*
X30605Y24339D01*
X30604D01*
X30603Y24337D01*
X30600Y24336D01*
X30596Y24333D01*
X30585Y24330D01*
X30572Y24328D01*
X30569D01*
X30565Y24329D01*
X30560D01*
X30550Y24333D01*
X30544Y24336D01*
X30538Y24340D01*
X30537Y24341D01*
X30536Y24342D01*
X30534Y24345D01*
X30532Y24348D01*
X30529Y24353D01*
X30527Y24359D01*
X30526Y24366D01*
X30525Y24374D01*
Y25105D01*
X30417Y24998D01*
X30415Y24997D01*
X30414Y24996D01*
X30411Y24994D01*
X30407Y24991D01*
X30397Y24985D01*
X30390Y24984D01*
X30384Y24983D01*
X30381D01*
X30378Y24984D01*
X30374Y24985D01*
X30363Y24990D01*
X30358Y24993D01*
X30352Y24998D01*
X30351Y24999D01*
X30350Y25001D01*
X30347Y25003D01*
X30345Y25007D01*
X30338Y25018D01*
X30337Y25024D01*
X30336Y25031D01*
Y25032D01*
Y25034D01*
X30337Y25037D01*
X30338Y25042D01*
X30343Y25051D01*
X30346Y25057D01*
X30351Y25063D01*
X30538Y25251D01*
X30540Y25253D01*
X30545Y25256D01*
X30550Y25261D01*
X30557Y25266D01*
X30559Y25267D01*
X30564Y25269D01*
X30572Y25271D01*
X30580Y25272D01*
X30582D01*
X30587Y25270D01*
D02*
G37*
G36*
X29734Y25264D02*
X29739D01*
X29749Y25260D01*
X29755Y25257D01*
X29760Y25253D01*
X29761D01*
X29763Y25251D01*
X29765Y25248D01*
X29768Y25245D01*
X29771Y25239D01*
X29773Y25233D01*
X29774Y25227D01*
X29775Y25219D01*
Y24422D01*
X30105D01*
X30109Y24421D01*
X30113Y24420D01*
X30125Y24416D01*
X30130Y24413D01*
X30135Y24407D01*
X30136Y24406D01*
X30137Y24405D01*
X30139Y24402D01*
X30143Y24398D01*
X30147Y24388D01*
X30148Y24381D01*
X30149Y24375D01*
Y24374D01*
Y24372D01*
X30148Y24369D01*
Y24365D01*
X30144Y24354D01*
X30142Y24349D01*
X30137Y24343D01*
Y24342D01*
X30135Y24341D01*
X30132Y24339D01*
X30129Y24336D01*
X30124Y24332D01*
X30118Y24330D01*
X30110Y24329D01*
X30102Y24328D01*
X29725D01*
X29720Y24329D01*
X29713Y24330D01*
X29704Y24334D01*
X29696Y24340D01*
X29689Y24348D01*
X29683Y24359D01*
X29682Y24367D01*
X29681Y24375D01*
Y25219D01*
Y25220D01*
Y25222D01*
X29682Y25226D01*
X29683Y25230D01*
X29688Y25242D01*
X29691Y25247D01*
X29695Y25253D01*
X29696Y25254D01*
X29698Y25255D01*
X29700Y25257D01*
X29704Y25259D01*
X29715Y25263D01*
X29721Y25266D01*
X29731D01*
X29734Y25264D01*
D02*
G37*
G36*
X28459Y22895D02*
X28469Y22891D01*
X28474Y22887D01*
X28479Y22882D01*
X28480Y22881D01*
X28481Y22879D01*
X28483Y22876D01*
X28485Y22872D01*
X28487Y22867D01*
X28488Y22859D01*
X28490Y22852D01*
Y22843D01*
Y21999D01*
Y21998D01*
Y21996D01*
X28489Y21992D01*
X28488Y21987D01*
X28485Y21975D01*
X28481Y21969D01*
X28477Y21964D01*
X28476D01*
X28475Y21962D01*
X28472Y21961D01*
X28467Y21958D01*
X28457Y21955D01*
X28444Y21953D01*
X28440D01*
X28437Y21954D01*
X28432D01*
X28422Y21958D01*
X28415Y21961D01*
X28410Y21965D01*
X28409Y21966D01*
X28408Y21967D01*
X28406Y21970D01*
X28404Y21973D01*
X28401Y21978D01*
X28399Y21984D01*
X28398Y21991D01*
X28397Y21999D01*
Y22730D01*
X28288Y22623D01*
X28287Y22622D01*
X28286Y22621D01*
X28283Y22619D01*
X28279Y22616D01*
X28269Y22610D01*
X28262Y22609D01*
X28256Y22608D01*
X28253D01*
X28250Y22609D01*
X28246Y22610D01*
X28235Y22615D01*
X28230Y22618D01*
X28224Y22623D01*
X28223Y22624D01*
X28222Y22626D01*
X28219Y22628D01*
X28217Y22632D01*
X28210Y22643D01*
X28209Y22649D01*
X28208Y22656D01*
Y22657D01*
Y22659D01*
X28209Y22662D01*
X28210Y22667D01*
X28214Y22676D01*
X28218Y22682D01*
X28223Y22688D01*
X28410Y22876D01*
X28412Y22878D01*
X28416Y22881D01*
X28422Y22886D01*
X28429Y22891D01*
X28431Y22892D01*
X28436Y22894D01*
X28444Y22896D01*
X28452Y22897D01*
X28454D01*
X28459Y22895D01*
D02*
G37*
G36*
X27848Y22889D02*
X27854Y22888D01*
X27862Y22887D01*
X27880Y22883D01*
X27901Y22877D01*
X27923Y22868D01*
X27934Y22861D01*
X27946Y22854D01*
X27956Y22845D01*
X27967Y22835D01*
X27968Y22834D01*
X27969Y22833D01*
X27972Y22830D01*
X27975Y22826D01*
X27979Y22820D01*
X27984Y22813D01*
X27995Y22798D01*
X28004Y22779D01*
X28013Y22756D01*
X28020Y22731D01*
X28021Y22718D01*
X28022Y22703D01*
Y22141D01*
Y22140D01*
Y22138D01*
Y22133D01*
X28021Y22128D01*
X28020Y22121D01*
X28019Y22114D01*
X28014Y22095D01*
X28008Y22075D01*
X27999Y22052D01*
X27993Y22041D01*
X27985Y22030D01*
X27976Y22019D01*
X27967Y22008D01*
X27966Y22007D01*
X27964Y22006D01*
X27961Y22003D01*
X27957Y22000D01*
X27951Y21996D01*
X27945Y21991D01*
X27929Y21981D01*
X27910Y21971D01*
X27887Y21962D01*
X27862Y21955D01*
X27849Y21954D01*
X27834Y21953D01*
X27504D01*
X27499Y21954D01*
X27492Y21955D01*
X27483Y21959D01*
X27474Y21965D01*
X27467Y21973D01*
X27461Y21984D01*
X27460Y21992D01*
X27459Y22000D01*
Y22844D01*
Y22845D01*
Y22846D01*
X27460Y22851D01*
X27461Y22858D01*
X27466Y22868D01*
X27471Y22876D01*
X27479Y22883D01*
X27491Y22888D01*
X27498Y22891D01*
X27842D01*
X27848Y22889D01*
D02*
G37*
G36*
X27098D02*
X27104Y22888D01*
X27113Y22887D01*
X27130Y22883D01*
X27151Y22877D01*
X27173Y22868D01*
X27184Y22861D01*
X27196Y22854D01*
X27206Y22845D01*
X27217Y22835D01*
X27218Y22834D01*
X27219Y22833D01*
X27222Y22830D01*
X27225Y22826D01*
X27229Y22820D01*
X27234Y22813D01*
X27245Y22798D01*
X27254Y22779D01*
X27264Y22756D01*
X27270Y22731D01*
X27271Y22718D01*
X27272Y22703D01*
Y22141D01*
Y22140D01*
Y22138D01*
Y22133D01*
X27271Y22128D01*
X27270Y22121D01*
X27269Y22114D01*
X27265Y22095D01*
X27258Y22075D01*
X27249Y22052D01*
X27243Y22041D01*
X27236Y22030D01*
X27226Y22019D01*
X27217Y22008D01*
X27216Y22007D01*
X27215Y22006D01*
X27212Y22003D01*
X27207Y22000D01*
X27201Y21996D01*
X27195Y21991D01*
X27179Y21981D01*
X27161Y21971D01*
X27138Y21962D01*
X27113Y21955D01*
X27099Y21954D01*
X27085Y21953D01*
X26754D01*
X26749Y21954D01*
X26742Y21955D01*
X26734Y21959D01*
X26724Y21965D01*
X26717Y21973D01*
X26712Y21984D01*
X26711Y21992D01*
X26710Y22000D01*
Y22844D01*
Y22845D01*
Y22846D01*
X26711Y22851D01*
X26712Y22858D01*
X26716Y22868D01*
X26721Y22876D01*
X26729Y22883D01*
X26741Y22888D01*
X26748Y22891D01*
X27092D01*
X27098Y22889D01*
D02*
G37*
G36*
X22533Y28138D02*
X22542Y28137D01*
X22552Y28135D01*
X22565Y28133D01*
X22578Y28130D01*
X22593Y28126D01*
X22608Y28121D01*
X22623Y28115D01*
X22639Y28109D01*
X22654Y28099D01*
X22670Y28090D01*
X22686Y28079D01*
X22700Y28066D01*
X22701Y28065D01*
X22703Y28063D01*
X22708Y28059D01*
X22712Y28054D01*
X22718Y28046D01*
X22724Y28038D01*
X22732Y28029D01*
X22739Y28017D01*
X22745Y28005D01*
X22752Y27992D01*
X22765Y27962D01*
X22769Y27946D01*
X22773Y27930D01*
X22775Y27912D01*
X22776Y27893D01*
Y27892D01*
Y27891D01*
Y27888D01*
Y27883D01*
X22775Y27871D01*
X22772Y27857D01*
X22769Y27839D01*
X22764Y27820D01*
X22757Y27799D01*
X22746Y27778D01*
X22443Y27295D01*
X22737D01*
X22741Y27294D01*
X22745Y27293D01*
X22757Y27289D01*
X22762Y27286D01*
X22767Y27281D01*
X22768Y27280D01*
X22769Y27279D01*
X22771Y27276D01*
X22774Y27271D01*
X22778Y27261D01*
X22779Y27255D01*
X22780Y27249D01*
Y27247D01*
Y27245D01*
X22779Y27242D01*
Y27238D01*
X22775Y27228D01*
X22773Y27223D01*
X22769Y27216D01*
Y27215D01*
X22767Y27214D01*
X22764Y27212D01*
X22761Y27209D01*
X22755Y27206D01*
X22749Y27204D01*
X22742Y27203D01*
X22734Y27202D01*
X22357D01*
X22351Y27203D01*
X22343Y27204D01*
X22334Y27207D01*
X22324Y27211D01*
X22317Y27217D01*
X22311Y27227D01*
X22310Y27233D01*
X22309Y27239D01*
Y27240D01*
Y27242D01*
X22310Y27244D01*
Y27249D01*
X22314Y27260D01*
X22316Y27266D01*
X22320Y27274D01*
X22665Y27825D01*
X22666Y27828D01*
X22668Y27832D01*
X22670Y27839D01*
X22674Y27848D01*
X22677Y27859D01*
X22679Y27870D01*
X22682Y27883D01*
X22683Y27895D01*
Y27896D01*
Y27898D01*
Y27902D01*
X22682Y27906D01*
X22680Y27917D01*
X22676Y27931D01*
X22671Y27947D01*
X22663Y27965D01*
X22651Y27983D01*
X22644Y27991D01*
X22636Y27999D01*
X22635Y28000D01*
X22632Y28003D01*
X22627Y28007D01*
X22621Y28012D01*
X22613Y28017D01*
X22604Y28022D01*
X22584Y28033D01*
X22583Y28034D01*
X22578Y28035D01*
X22572Y28037D01*
X22565Y28039D01*
X22556Y28041D01*
X22544Y28043D01*
X22533Y28045D01*
X22514D01*
X22508Y28044D01*
X22498Y28043D01*
X22488Y28041D01*
X22476Y28037D01*
X22465Y28033D01*
X22452Y28026D01*
X22451Y28025D01*
X22447Y28022D01*
X22441Y28018D01*
X22434Y28012D01*
X22425Y28005D01*
X22416Y27995D01*
X22407Y27984D01*
X22398Y27972D01*
X22397Y27971D01*
X22394Y27967D01*
X22389Y27962D01*
X22381Y27956D01*
X22360Y27951D01*
X22357D01*
X22353Y27953D01*
X22349Y27954D01*
X22338Y27957D01*
X22333Y27960D01*
X22326Y27964D01*
X22325Y27965D01*
X22324Y27966D01*
X22322Y27969D01*
X22319Y27973D01*
X22314Y27984D01*
X22313Y27990D01*
X22312Y27996D01*
Y27998D01*
X22313Y28004D01*
X22315Y28012D01*
X22320Y28023D01*
Y28024D01*
X22321Y28025D01*
X22326Y28032D01*
X22333Y28041D01*
X22343Y28052D01*
X22355Y28065D01*
X22370Y28080D01*
X22387Y28093D01*
X22407Y28106D01*
X22408Y28107D01*
X22412Y28109D01*
X22417Y28111D01*
X22423Y28115D01*
X22432Y28118D01*
X22441Y28122D01*
X22461Y28130D01*
X22462D01*
X22465Y28131D01*
X22471Y28133D01*
X22477Y28135D01*
X22486Y28136D01*
X22495Y28138D01*
X22514Y28139D01*
X22524D01*
X22533Y28138D01*
D02*
G37*
G36*
X21809Y28147D02*
X21814Y28146D01*
X21820Y28143D01*
X21828Y28139D01*
X21835Y28132D01*
X21841Y28121D01*
X21847Y28108D01*
X22128Y27263D01*
X22132Y27246D01*
Y27245D01*
Y27243D01*
X22131Y27240D01*
X22130Y27236D01*
X22128Y27231D01*
X22125Y27226D01*
X22121Y27219D01*
X22116Y27214D01*
X22115D01*
X22114Y27212D01*
X22111Y27210D01*
X22107Y27208D01*
X22096Y27204D01*
X22090Y27203D01*
X22083Y27202D01*
X22081D01*
X22076Y27203D01*
X22070Y27204D01*
X22062Y27206D01*
X22060Y27207D01*
X22058Y27209D01*
X22055Y27211D01*
X22051Y27215D01*
X22048Y27220D01*
X22044Y27227D01*
X22040Y27234D01*
X21972Y27437D01*
X21633D01*
X21565Y27234D01*
Y27233D01*
X21564Y27232D01*
X21561Y27225D01*
X21556Y27217D01*
X21547Y27209D01*
X21545Y27208D01*
X21541Y27206D01*
X21533Y27204D01*
X21522Y27202D01*
X21519D01*
X21516Y27203D01*
X21511Y27204D01*
X21501Y27207D01*
X21494Y27210D01*
X21489Y27214D01*
X21488Y27215D01*
X21487Y27216D01*
X21485Y27219D01*
X21482Y27223D01*
X21477Y27233D01*
X21476Y27239D01*
X21475Y27246D01*
X21478Y27263D01*
X21759Y28108D01*
X21760Y28110D01*
X21762Y28114D01*
X21765Y28120D01*
X21770Y28129D01*
X21777Y28136D01*
X21784Y28142D01*
X21793Y28146D01*
X21804Y28148D01*
X21805D01*
X21809Y28147D01*
D02*
G37*
G36*
X21108Y28138D02*
X21114Y28137D01*
X21123Y28136D01*
X21140Y28132D01*
X21161Y28125D01*
X21183Y28116D01*
X21194Y28110D01*
X21206Y28102D01*
X21216Y28093D01*
X21227Y28084D01*
X21228Y28083D01*
X21229Y28082D01*
X21232Y28079D01*
X21235Y28074D01*
X21239Y28068D01*
X21244Y28062D01*
X21255Y28046D01*
X21264Y28028D01*
X21274Y28005D01*
X21280Y27980D01*
X21281Y27966D01*
X21282Y27951D01*
Y27389D01*
Y27388D01*
Y27386D01*
Y27382D01*
X21281Y27377D01*
X21280Y27369D01*
X21279Y27362D01*
X21275Y27343D01*
X21268Y27324D01*
X21259Y27301D01*
X21253Y27289D01*
X21245Y27279D01*
X21236Y27267D01*
X21227Y27257D01*
X21226Y27256D01*
X21225Y27255D01*
X21221Y27252D01*
X21217Y27249D01*
X21211Y27244D01*
X21205Y27239D01*
X21189Y27230D01*
X21170Y27219D01*
X21148Y27210D01*
X21123Y27204D01*
X21109Y27203D01*
X21094Y27202D01*
X20764D01*
X20759Y27203D01*
X20752Y27204D01*
X20743Y27208D01*
X20734Y27213D01*
X20727Y27221D01*
X20722Y27233D01*
X20721Y27240D01*
X20720Y27249D01*
Y28092D01*
Y28093D01*
Y28094D01*
X20721Y28099D01*
X20722Y28107D01*
X20726Y28116D01*
X20731Y28124D01*
X20739Y28132D01*
X20751Y28137D01*
X20758Y28139D01*
X21102D01*
X21108Y28138D01*
D02*
G37*
G36*
X12706Y22993D02*
X12715Y22989D01*
X12721Y22986D01*
X12726Y22981D01*
X12727Y22980D01*
X12728Y22977D01*
X12730Y22974D01*
X12732Y22970D01*
X12734Y22965D01*
X12735Y22958D01*
X12737Y22950D01*
Y22941D01*
Y22097D01*
Y22096D01*
Y22094D01*
X12736Y22090D01*
X12735Y22085D01*
X12732Y22074D01*
X12728Y22067D01*
X12724Y22062D01*
X12723D01*
X12722Y22060D01*
X12719Y22059D01*
X12714Y22057D01*
X12704Y22054D01*
X12690Y22052D01*
X12687D01*
X12684Y22053D01*
X12679D01*
X12669Y22057D01*
X12662Y22059D01*
X12657Y22063D01*
X12656Y22064D01*
X12655Y22065D01*
X12653Y22068D01*
X12651Y22071D01*
X12648Y22077D01*
X12646Y22083D01*
X12645Y22089D01*
X12644Y22097D01*
Y22829D01*
X12535Y22721D01*
X12534Y22720D01*
X12533Y22719D01*
X12530Y22717D01*
X12526Y22714D01*
X12515Y22709D01*
X12509Y22708D01*
X12503Y22707D01*
X12500D01*
X12497Y22708D01*
X12493Y22709D01*
X12482Y22713D01*
X12477Y22716D01*
X12471Y22721D01*
X12470Y22722D01*
X12469Y22724D01*
X12465Y22727D01*
X12463Y22731D01*
X12457Y22741D01*
X12456Y22747D01*
X12455Y22755D01*
Y22756D01*
Y22758D01*
X12456Y22761D01*
X12457Y22765D01*
X12461Y22774D01*
X12464Y22781D01*
X12470Y22787D01*
X12657Y22974D01*
X12659Y22976D01*
X12663Y22980D01*
X12669Y22985D01*
X12676Y22989D01*
X12678Y22990D01*
X12683Y22992D01*
X12690Y22994D01*
X12699Y22995D01*
X12701D01*
X12706Y22993D01*
D02*
G37*
G36*
X11952Y22997D02*
X11957Y22996D01*
X11964Y22993D01*
X11971Y22989D01*
X11978Y22982D01*
X11984Y22971D01*
X11991Y22958D01*
X12271Y22113D01*
X12275Y22096D01*
Y22095D01*
Y22093D01*
X12274Y22090D01*
X12273Y22086D01*
X12271Y22081D01*
X12269Y22076D01*
X12264Y22069D01*
X12259Y22064D01*
X12258D01*
X12257Y22062D01*
X12254Y22060D01*
X12250Y22058D01*
X12239Y22054D01*
X12233Y22053D01*
X12226Y22052D01*
X12224D01*
X12220Y22053D01*
X12213Y22054D01*
X12205Y22056D01*
X12203Y22057D01*
X12201Y22059D01*
X12198Y22061D01*
X12195Y22065D01*
X12192Y22070D01*
X12187Y22077D01*
X12183Y22084D01*
X12116Y22287D01*
X11776D01*
X11708Y22084D01*
Y22083D01*
X11707Y22082D01*
X11704Y22075D01*
X11699Y22067D01*
X11691Y22059D01*
X11689Y22058D01*
X11684Y22056D01*
X11676Y22054D01*
X11666Y22052D01*
X11663D01*
X11659Y22053D01*
X11654Y22054D01*
X11644Y22057D01*
X11638Y22060D01*
X11632Y22064D01*
X11631Y22065D01*
X11630Y22066D01*
X11628Y22069D01*
X11625Y22073D01*
X11620Y22083D01*
X11619Y22089D01*
X11618Y22096D01*
X11621Y22113D01*
X11902Y22958D01*
X11903Y22960D01*
X11905Y22964D01*
X11908Y22970D01*
X11914Y22979D01*
X11920Y22986D01*
X11927Y22992D01*
X11936Y22996D01*
X11947Y22998D01*
X11948D01*
X11952Y22997D01*
D02*
G37*
G36*
X11251Y22988D02*
X11257Y22987D01*
X11266Y22986D01*
X11283Y22982D01*
X11304Y22975D01*
X11326Y22966D01*
X11338Y22960D01*
X11349Y22952D01*
X11359Y22943D01*
X11370Y22934D01*
X11371Y22933D01*
X11372Y22932D01*
X11375Y22929D01*
X11378Y22924D01*
X11382Y22918D01*
X11388Y22912D01*
X11398Y22896D01*
X11407Y22878D01*
X11417Y22855D01*
X11423Y22830D01*
X11424Y22816D01*
X11425Y22801D01*
Y22239D01*
Y22238D01*
Y22236D01*
Y22232D01*
X11424Y22227D01*
X11423Y22219D01*
X11422Y22212D01*
X11418Y22193D01*
X11412Y22174D01*
X11402Y22151D01*
X11396Y22139D01*
X11389Y22129D01*
X11379Y22117D01*
X11370Y22107D01*
X11369Y22106D01*
X11368Y22105D01*
X11365Y22102D01*
X11361Y22099D01*
X11354Y22094D01*
X11348Y22089D01*
X11332Y22080D01*
X11314Y22069D01*
X11291Y22060D01*
X11266Y22054D01*
X11252Y22053D01*
X11238Y22052D01*
X10908D01*
X10902Y22053D01*
X10895Y22054D01*
X10887Y22058D01*
X10877Y22063D01*
X10870Y22071D01*
X10865Y22083D01*
X10864Y22090D01*
X10863Y22099D01*
Y22942D01*
Y22943D01*
Y22944D01*
X10864Y22949D01*
X10865Y22957D01*
X10869Y22966D01*
X10874Y22974D01*
X10883Y22982D01*
X10894Y22987D01*
X10901Y22989D01*
X11245D01*
X11251Y22988D01*
D02*
G37*
G36*
X7406Y5614D02*
X7411Y5613D01*
X7422Y5609D01*
X7427Y5606D01*
X7432Y5601D01*
X7433Y5600D01*
X7434Y5599D01*
X7436Y5596D01*
X7439Y5592D01*
X7445Y5581D01*
X7446Y5575D01*
X7447Y5569D01*
Y5568D01*
Y5566D01*
X7446Y5562D01*
Y5558D01*
X7441Y5548D01*
X7438Y5543D01*
X7434Y5536D01*
Y5535D01*
X7432Y5534D01*
X7429Y5532D01*
X7426Y5529D01*
X7421Y5526D01*
X7414Y5524D01*
X7408Y5523D01*
X7400Y5522D01*
X7072D01*
Y5241D01*
X7222D01*
X7228Y5240D01*
X7236Y5239D01*
X7246Y5237D01*
X7257Y5235D01*
X7269Y5232D01*
X7295Y5224D01*
X7308Y5219D01*
X7322Y5211D01*
X7336Y5204D01*
X7350Y5195D01*
X7363Y5184D01*
X7377Y5172D01*
X7378Y5171D01*
X7380Y5169D01*
X7383Y5165D01*
X7388Y5159D01*
X7394Y5153D01*
X7399Y5145D01*
X7405Y5135D01*
X7412Y5125D01*
X7419Y5114D01*
X7425Y5101D01*
X7436Y5073D01*
X7440Y5057D01*
X7444Y5042D01*
X7446Y5024D01*
X7447Y5006D01*
Y4913D01*
Y4912D01*
Y4908D01*
Y4903D01*
X7446Y4897D01*
X7445Y4889D01*
X7443Y4878D01*
X7440Y4868D01*
X7438Y4856D01*
X7430Y4830D01*
X7424Y4817D01*
X7418Y4802D01*
X7409Y4789D01*
X7400Y4774D01*
X7389Y4761D01*
X7377Y4747D01*
X7376Y4746D01*
X7374Y4744D01*
X7370Y4741D01*
X7364Y4737D01*
X7358Y4731D01*
X7350Y4725D01*
X7340Y4719D01*
X7331Y4713D01*
X7320Y4706D01*
X7306Y4700D01*
X7279Y4689D01*
X7263Y4684D01*
X7247Y4681D01*
X7230Y4679D01*
X7212Y4678D01*
X7022D01*
X7018Y4679D01*
X7012Y4680D01*
X7001Y4683D01*
X6995Y4687D01*
X6990Y4691D01*
Y4692D01*
X6987Y4694D01*
X6986Y4696D01*
X6984Y4700D01*
X6980Y4712D01*
X6979Y4718D01*
X6978Y4725D01*
Y4726D01*
Y4728D01*
X6979Y4731D01*
Y4736D01*
X6983Y4745D01*
X6985Y4751D01*
X6990Y4756D01*
X6991Y4757D01*
X6992Y4758D01*
X6995Y4762D01*
X6999Y4765D01*
X7004Y4767D01*
X7009Y4770D01*
X7017Y4771D01*
X7025Y4772D01*
X7218D01*
X7222Y4773D01*
X7233Y4774D01*
X7247Y4777D01*
X7261Y4781D01*
X7278Y4789D01*
X7295Y4798D01*
X7311Y4812D01*
X7313Y4814D01*
X7318Y4819D01*
X7325Y4827D01*
X7332Y4840D01*
X7339Y4854D01*
X7347Y4871D01*
X7351Y4891D01*
X7353Y4913D01*
Y5006D01*
Y5007D01*
Y5008D01*
Y5011D01*
X7352Y5016D01*
X7351Y5027D01*
X7348Y5041D01*
X7344Y5055D01*
X7336Y5072D01*
X7326Y5089D01*
X7312Y5105D01*
X7310Y5107D01*
X7305Y5111D01*
X7297Y5119D01*
X7284Y5126D01*
X7270Y5133D01*
X7253Y5141D01*
X7234Y5145D01*
X7212Y5147D01*
X7023D01*
X7018Y5148D01*
X7010Y5149D01*
X7002Y5153D01*
X6993Y5158D01*
X6985Y5167D01*
X6980Y5178D01*
X6979Y5185D01*
X6978Y5194D01*
Y5569D01*
Y5570D01*
Y5571D01*
X6979Y5576D01*
X6980Y5583D01*
X6984Y5593D01*
X6990Y5601D01*
X6998Y5608D01*
X7009Y5613D01*
X7017Y5616D01*
X7403D01*
X7406Y5614D01*
D02*
G37*
G36*
X6759Y5620D02*
X6769Y5616D01*
X6774Y5612D01*
X6779Y5607D01*
X6780Y5606D01*
X6781Y5604D01*
X6783Y5601D01*
X6785Y5597D01*
X6787Y5592D01*
X6789Y5584D01*
X6791Y5577D01*
Y5568D01*
Y4724D01*
Y4723D01*
Y4721D01*
X6790Y4717D01*
X6789Y4712D01*
X6785Y4700D01*
X6781Y4694D01*
X6777Y4689D01*
X6776D01*
X6775Y4687D01*
X6772Y4686D01*
X6768Y4683D01*
X6757Y4680D01*
X6744Y4678D01*
X6741D01*
X6737Y4679D01*
X6732D01*
X6722Y4683D01*
X6716Y4686D01*
X6710Y4690D01*
X6709Y4691D01*
X6708Y4692D01*
X6706Y4695D01*
X6704Y4698D01*
X6701Y4703D01*
X6699Y4709D01*
X6698Y4716D01*
X6697Y4724D01*
Y5455D01*
X6589Y5348D01*
X6588Y5347D01*
X6586Y5346D01*
X6583Y5344D01*
X6579Y5341D01*
X6569Y5335D01*
X6563Y5334D01*
X6556Y5333D01*
X6553D01*
X6550Y5334D01*
X6546Y5335D01*
X6535Y5340D01*
X6530Y5343D01*
X6524Y5348D01*
X6523Y5349D01*
X6522Y5351D01*
X6519Y5353D01*
X6517Y5357D01*
X6510Y5368D01*
X6509Y5374D01*
X6508Y5381D01*
Y5382D01*
Y5384D01*
X6509Y5387D01*
X6510Y5392D01*
X6515Y5401D01*
X6518Y5407D01*
X6523Y5413D01*
X6710Y5601D01*
X6712Y5603D01*
X6717Y5606D01*
X6722Y5611D01*
X6729Y5616D01*
X6731Y5617D01*
X6736Y5619D01*
X6744Y5621D01*
X6752Y5622D01*
X6754D01*
X6759Y5620D01*
D02*
G37*
G36*
X6281Y5614D02*
X6286Y5613D01*
X6297Y5609D01*
X6302Y5606D01*
X6307Y5601D01*
X6308Y5600D01*
X6309Y5599D01*
X6312Y5596D01*
X6315Y5592D01*
X6319Y5581D01*
X6320Y5575D01*
X6321Y5569D01*
Y5568D01*
Y5566D01*
X6320Y5562D01*
Y5558D01*
X6316Y5548D01*
X6314Y5543D01*
X6309Y5536D01*
Y5535D01*
X6307Y5534D01*
X6304Y5532D01*
X6301Y5529D01*
X6296Y5526D01*
X6290Y5524D01*
X6282Y5523D01*
X6274Y5522D01*
X6033D01*
X6026Y5521D01*
X6017Y5519D01*
X6006Y5516D01*
X5995Y5510D01*
X5985Y5504D01*
X5973Y5495D01*
X5972Y5494D01*
X5971Y5493D01*
X5969Y5490D01*
X5966Y5485D01*
X5960Y5476D01*
X5953Y5463D01*
Y5462D01*
X5952Y5460D01*
X5951Y5457D01*
X5950Y5453D01*
X5948Y5442D01*
X5947Y5428D01*
Y4866D01*
Y4864D01*
Y4859D01*
X5948Y4852D01*
X5950Y4843D01*
X5953Y4831D01*
X5959Y4821D01*
X5965Y4809D01*
X5973Y4798D01*
X5974D01*
X5975Y4796D01*
X5978Y4794D01*
X5982Y4792D01*
X5992Y4784D01*
X6003Y4778D01*
X6004D01*
X6006Y4777D01*
X6011Y4776D01*
X6016Y4775D01*
X6027Y4773D01*
X6040Y4772D01*
X6277D01*
X6281Y4771D01*
X6286Y4770D01*
X6297Y4766D01*
X6302Y4763D01*
X6307Y4757D01*
X6308Y4756D01*
X6309Y4755D01*
X6312Y4752D01*
X6315Y4748D01*
X6319Y4738D01*
X6320Y4731D01*
X6321Y4725D01*
Y4724D01*
Y4722D01*
X6320Y4719D01*
Y4715D01*
X6316Y4704D01*
X6314Y4699D01*
X6309Y4693D01*
Y4692D01*
X6307Y4691D01*
X6304Y4689D01*
X6301Y4686D01*
X6296Y4682D01*
X6290Y4680D01*
X6282Y4679D01*
X6274Y4678D01*
X6032D01*
X6027Y4679D01*
X6020Y4680D01*
X6013Y4681D01*
X5995Y4686D01*
X5974Y4692D01*
X5952Y4701D01*
X5941Y4707D01*
X5930Y4715D01*
X5919Y4723D01*
X5909Y4732D01*
X5907Y4733D01*
X5906Y4734D01*
X5903Y4738D01*
X5900Y4742D01*
X5896Y4747D01*
X5891Y4753D01*
X5881Y4770D01*
X5871Y4789D01*
X5862Y4812D01*
X5855Y4838D01*
X5854Y4851D01*
X5853Y4866D01*
Y5428D01*
Y5429D01*
Y5431D01*
Y5435D01*
X5854Y5442D01*
X5855Y5448D01*
X5856Y5456D01*
X5861Y5474D01*
X5867Y5495D01*
X5876Y5517D01*
X5882Y5528D01*
X5890Y5539D01*
X5898Y5550D01*
X5907Y5560D01*
X5909Y5561D01*
X5910Y5562D01*
X5913Y5566D01*
X5917Y5569D01*
X5922Y5573D01*
X5928Y5578D01*
X5944Y5588D01*
X5964Y5598D01*
X5987Y5607D01*
X6012Y5613D01*
X6025Y5614D01*
X6040Y5616D01*
X6277D01*
X6281Y5614D01*
D02*
G37*
G36*
X29545Y7267D02*
X29549D01*
X29559Y7263D01*
X29565Y7261D01*
X29571Y7257D01*
X29572D01*
X29573Y7254D01*
X29575Y7251D01*
X29578Y7248D01*
X29581Y7243D01*
X29583Y7237D01*
X29584Y7229D01*
X29585Y7221D01*
Y7128D01*
X29726D01*
X29727D01*
X29729D01*
X29733Y7127D01*
X29738Y7126D01*
X29750Y7123D01*
X29756Y7119D01*
X29761Y7115D01*
Y7114D01*
X29763Y7113D01*
X29764Y7110D01*
X29767Y7106D01*
X29770Y7095D01*
X29772Y7082D01*
Y7078D01*
X29771Y7075D01*
Y7070D01*
X29767Y7060D01*
X29764Y7053D01*
X29760Y7048D01*
X29759Y7047D01*
X29758Y7046D01*
X29755Y7044D01*
X29752Y7042D01*
X29747Y7039D01*
X29741Y7037D01*
X29734Y7036D01*
X29726Y7035D01*
X29585D01*
Y6750D01*
X29584Y6745D01*
X29583Y6737D01*
X29580Y6729D01*
X29576Y6720D01*
X29570Y6712D01*
X29560Y6707D01*
X29554Y6706D01*
X29548Y6705D01*
X29536Y6706D01*
X29526Y6708D01*
X28869Y6895D01*
X28868D01*
X28867Y6896D01*
X28861Y6899D01*
X28852Y6904D01*
X28844Y6912D01*
X28839Y6920D01*
X28838Y6921D01*
X28837Y6925D01*
X28836Y6932D01*
X28834Y6938D01*
Y6941D01*
X28836Y6945D01*
X28837Y6950D01*
X28840Y6961D01*
X28844Y6967D01*
X28848Y6972D01*
X28849Y6973D01*
X28850Y6974D01*
X28853Y6976D01*
X28857Y6980D01*
X28868Y6985D01*
X28874Y6986D01*
X28881Y6987D01*
X28895Y6985D01*
X29492Y6815D01*
Y7035D01*
X29351D01*
X29350D01*
X29348D01*
X29344Y7036D01*
X29340Y7037D01*
X29328Y7041D01*
X29323Y7044D01*
X29317Y7048D01*
X29316Y7049D01*
X29315Y7051D01*
X29312Y7053D01*
X29310Y7058D01*
X29306Y7068D01*
X29304Y7074D01*
Y7085D01*
X29305Y7088D01*
Y7092D01*
X29309Y7102D01*
X29312Y7109D01*
X29317Y7114D01*
Y7115D01*
X29319Y7116D01*
X29322Y7118D01*
X29325Y7121D01*
X29330Y7124D01*
X29336Y7126D01*
X29343Y7127D01*
X29351Y7128D01*
X29492D01*
Y7224D01*
X29493Y7228D01*
X29494Y7233D01*
X29498Y7244D01*
X29501Y7249D01*
X29506Y7254D01*
X29507Y7256D01*
X29508Y7257D01*
X29511Y7259D01*
X29516Y7262D01*
X29526Y7266D01*
X29532Y7267D01*
X29538Y7268D01*
X29540D01*
X29542D01*
X29545Y7267D01*
D02*
G37*
G36*
X29733Y6518D02*
X29738Y6517D01*
X29750Y6514D01*
X29756Y6510D01*
X29761Y6506D01*
Y6505D01*
X29763Y6504D01*
X29764Y6501D01*
X29767Y6496D01*
X29770Y6486D01*
X29772Y6472D01*
Y6469D01*
X29771Y6466D01*
Y6461D01*
X29767Y6451D01*
X29764Y6444D01*
X29760Y6439D01*
X29759Y6438D01*
X29758Y6437D01*
X29755Y6435D01*
X29752Y6433D01*
X29747Y6430D01*
X29741Y6428D01*
X29734Y6427D01*
X29726Y6426D01*
X28995D01*
X29102Y6317D01*
X29103Y6316D01*
X29104Y6315D01*
X29106Y6312D01*
X29109Y6308D01*
X29115Y6297D01*
X29116Y6291D01*
X29117Y6285D01*
Y6282D01*
X29116Y6279D01*
X29115Y6275D01*
X29110Y6264D01*
X29107Y6259D01*
X29102Y6253D01*
X29101Y6252D01*
X29099Y6251D01*
X29097Y6247D01*
X29093Y6245D01*
X29082Y6239D01*
X29076Y6238D01*
X29069Y6237D01*
X29068D01*
X29066D01*
X29063Y6238D01*
X29058Y6239D01*
X29049Y6243D01*
X29043Y6246D01*
X29037Y6252D01*
X28849Y6439D01*
X28847Y6441D01*
X28844Y6445D01*
X28839Y6451D01*
X28834Y6458D01*
X28833Y6460D01*
X28831Y6465D01*
X28829Y6472D01*
X28828Y6481D01*
Y6483D01*
X28830Y6488D01*
X28834Y6497D01*
X28838Y6503D01*
X28843Y6508D01*
X28844Y6509D01*
X28846Y6510D01*
X28849Y6512D01*
X28853Y6514D01*
X28858Y6516D01*
X28866Y6517D01*
X28873Y6519D01*
X28882D01*
X29726D01*
X29727D01*
X29729D01*
X29733Y6518D01*
D02*
G37*
G36*
X29731Y6049D02*
X29735D01*
X29746Y6044D01*
X29751Y6042D01*
X29757Y6038D01*
X29758D01*
X29759Y6036D01*
X29761Y6033D01*
X29764Y6030D01*
X29768Y6025D01*
X29770Y6018D01*
X29771Y6011D01*
X29772Y6003D01*
Y5761D01*
X29771Y5756D01*
X29770Y5749D01*
X29769Y5741D01*
X29764Y5724D01*
X29758Y5703D01*
X29749Y5681D01*
X29743Y5669D01*
X29735Y5659D01*
X29727Y5648D01*
X29718Y5637D01*
X29717Y5636D01*
X29716Y5635D01*
X29712Y5632D01*
X29708Y5629D01*
X29703Y5625D01*
X29697Y5619D01*
X29680Y5610D01*
X29661Y5600D01*
X29638Y5590D01*
X29612Y5584D01*
X29599Y5583D01*
X29584Y5582D01*
X29022D01*
X29021D01*
X29019D01*
X29015D01*
X29008Y5583D01*
X29002Y5584D01*
X28994Y5585D01*
X28976Y5589D01*
X28955Y5596D01*
X28933Y5605D01*
X28922Y5611D01*
X28911Y5618D01*
X28900Y5627D01*
X28890Y5636D01*
X28889Y5637D01*
X28888Y5638D01*
X28884Y5641D01*
X28881Y5646D01*
X28877Y5651D01*
X28872Y5657D01*
X28862Y5673D01*
X28852Y5692D01*
X28843Y5715D01*
X28837Y5740D01*
X28836Y5754D01*
X28834Y5768D01*
Y6006D01*
X28836Y6010D01*
X28837Y6014D01*
X28841Y6026D01*
X28844Y6031D01*
X28849Y6036D01*
X28850Y6037D01*
X28851Y6038D01*
X28854Y6040D01*
X28858Y6043D01*
X28869Y6047D01*
X28875Y6049D01*
X28881Y6050D01*
X28882D01*
X28884D01*
X28888Y6049D01*
X28892D01*
X28902Y6044D01*
X28907Y6042D01*
X28914Y6038D01*
X28915D01*
X28916Y6036D01*
X28918Y6033D01*
X28921Y6030D01*
X28924Y6025D01*
X28926Y6018D01*
X28927Y6011D01*
X28928Y6003D01*
Y5762D01*
X28929Y5755D01*
X28931Y5745D01*
X28934Y5735D01*
X28940Y5724D01*
X28946Y5713D01*
X28955Y5702D01*
X28956Y5701D01*
X28957Y5700D01*
X28961Y5698D01*
X28965Y5694D01*
X28974Y5688D01*
X28987Y5682D01*
X28988D01*
X28990Y5681D01*
X28993Y5680D01*
X28997Y5679D01*
X29008Y5677D01*
X29022Y5676D01*
X29584D01*
X29586D01*
X29591D01*
X29598Y5677D01*
X29607Y5679D01*
X29619Y5682D01*
X29629Y5687D01*
X29641Y5693D01*
X29652Y5702D01*
Y5703D01*
X29654Y5704D01*
X29656Y5707D01*
X29658Y5711D01*
X29666Y5720D01*
X29672Y5732D01*
Y5733D01*
X29673Y5735D01*
X29674Y5739D01*
X29675Y5744D01*
X29677Y5756D01*
X29678Y5768D01*
Y6006D01*
X29679Y6010D01*
X29680Y6014D01*
X29684Y6026D01*
X29687Y6031D01*
X29693Y6036D01*
X29694Y6037D01*
X29695Y6038D01*
X29698Y6040D01*
X29702Y6043D01*
X29712Y6047D01*
X29719Y6049D01*
X29725Y6050D01*
X29726D01*
X29728D01*
X29731Y6049D01*
D02*
G37*
G36*
X28027Y29162D02*
X28037Y29161D01*
X28048Y29159D01*
X28060Y29157D01*
X28072Y29154D01*
X28087Y29151D01*
X28100Y29146D01*
X28115Y29141D01*
X28130Y29133D01*
X28144Y29125D01*
X28159Y29116D01*
X28172Y29104D01*
X28185Y29092D01*
X28186Y29091D01*
X28187Y29088D01*
X28190Y29085D01*
X28194Y29080D01*
X28198Y29073D01*
X28203Y29066D01*
X28209Y29056D01*
X28215Y29047D01*
X28220Y29035D01*
X28225Y29023D01*
X28235Y28996D01*
X28239Y28981D01*
X28242Y28965D01*
X28243Y28949D01*
X28244Y28931D01*
Y28930D01*
Y28929D01*
Y28926D01*
Y28922D01*
X28243Y28910D01*
X28241Y28897D01*
X28238Y28880D01*
X28234Y28862D01*
X28227Y28845D01*
X28220Y28826D01*
X28219Y28824D01*
X28216Y28818D01*
X28211Y28809D01*
X28203Y28798D01*
X28194Y28784D01*
X28183Y28771D01*
X28168Y28756D01*
X28152Y28742D01*
X28155Y28741D01*
X28159Y28736D01*
X28166Y28729D01*
X28175Y28720D01*
X28185Y28708D01*
X28196Y28695D01*
X28207Y28679D01*
X28217Y28661D01*
Y28660D01*
X28218Y28659D01*
X28221Y28653D01*
X28225Y28643D01*
X28231Y28630D01*
X28235Y28615D01*
X28240Y28597D01*
X28243Y28577D01*
X28244Y28556D01*
Y28463D01*
Y28462D01*
Y28458D01*
Y28453D01*
X28243Y28447D01*
X28242Y28439D01*
X28240Y28428D01*
X28238Y28418D01*
X28236Y28406D01*
X28227Y28380D01*
X28221Y28367D01*
X28215Y28352D01*
X28207Y28339D01*
X28197Y28324D01*
X28187Y28311D01*
X28174Y28297D01*
X28173Y28296D01*
X28171Y28294D01*
X28167Y28291D01*
X28162Y28287D01*
X28156Y28281D01*
X28147Y28275D01*
X28138Y28269D01*
X28128Y28263D01*
X28117Y28256D01*
X28103Y28250D01*
X28076Y28239D01*
X28061Y28234D01*
X28044Y28231D01*
X28027Y28229D01*
X28010Y28228D01*
X27819D01*
X27815Y28229D01*
X27810Y28230D01*
X27798Y28233D01*
X27792Y28237D01*
X27787Y28241D01*
Y28242D01*
X27785Y28244D01*
X27784Y28247D01*
X27782Y28251D01*
X27778Y28262D01*
X27776Y28268D01*
X27775Y28275D01*
Y28276D01*
Y28278D01*
X27776Y28281D01*
Y28284D01*
X27781Y28295D01*
X27783Y28300D01*
X27787Y28306D01*
X27788Y28307D01*
X27789Y28308D01*
X27792Y28312D01*
X27795Y28315D01*
X27800Y28317D01*
X27807Y28320D01*
X27814Y28321D01*
X27822Y28322D01*
X28015D01*
X28019Y28323D01*
X28031Y28324D01*
X28044Y28327D01*
X28059Y28332D01*
X28075Y28339D01*
X28092Y28349D01*
X28109Y28363D01*
X28111Y28365D01*
X28115Y28370D01*
X28122Y28379D01*
X28130Y28391D01*
X28137Y28405D01*
X28144Y28422D01*
X28148Y28442D01*
X28150Y28463D01*
Y28556D01*
Y28557D01*
Y28558D01*
Y28561D01*
X28149Y28566D01*
X28148Y28577D01*
X28145Y28591D01*
X28141Y28605D01*
X28134Y28622D01*
X28123Y28639D01*
X28110Y28655D01*
X28108Y28657D01*
X28102Y28661D01*
X28094Y28669D01*
X28082Y28676D01*
X28067Y28683D01*
X28050Y28691D01*
X28031Y28695D01*
X28009Y28697D01*
X27912D01*
X27908Y28698D01*
X27902Y28699D01*
X27892Y28702D01*
X27886Y28705D01*
X27881Y28709D01*
Y28710D01*
X27879Y28712D01*
X27876Y28716D01*
X27874Y28720D01*
X27870Y28730D01*
X27869Y28736D01*
X27868Y28744D01*
Y28745D01*
Y28747D01*
X27869Y28750D01*
Y28753D01*
X27873Y28764D01*
X27875Y28769D01*
X27880Y28775D01*
X27881Y28776D01*
X27882Y28777D01*
X27885Y28780D01*
X27889Y28783D01*
X27894Y28785D01*
X27899Y28789D01*
X27907Y28790D01*
X27915Y28791D01*
X28015D01*
X28019Y28792D01*
X28031Y28793D01*
X28045Y28796D01*
X28062Y28801D01*
X28078Y28809D01*
X28096Y28820D01*
X28112Y28834D01*
X28113Y28836D01*
X28117Y28842D01*
X28122Y28850D01*
X28130Y28861D01*
X28136Y28876D01*
X28141Y28893D01*
X28145Y28911D01*
X28146Y28932D01*
Y28933D01*
Y28934D01*
Y28937D01*
Y28942D01*
X28144Y28952D01*
X28142Y28966D01*
X28138Y28980D01*
X28133Y28997D01*
X28124Y29012D01*
X28113Y29027D01*
X28111Y29029D01*
X28106Y29033D01*
X28097Y29041D01*
X28086Y29049D01*
X28071Y29056D01*
X28053Y29063D01*
X28033Y29068D01*
X28009Y29070D01*
X27818D01*
X27814Y29071D01*
X27809Y29072D01*
X27798Y29075D01*
X27792Y29078D01*
X27787Y29082D01*
Y29083D01*
X27785Y29085D01*
X27784Y29087D01*
X27782Y29092D01*
X27778Y29103D01*
X27776Y29109D01*
X27775Y29117D01*
Y29118D01*
Y29120D01*
X27776Y29123D01*
Y29127D01*
X27781Y29136D01*
X27783Y29143D01*
X27787Y29148D01*
X27788Y29149D01*
X27789Y29150D01*
X27792Y29153D01*
X27796Y29156D01*
X27801Y29158D01*
X27807Y29161D01*
X27814Y29162D01*
X27822Y29163D01*
X28020D01*
X28027Y29162D01*
D02*
G37*
G36*
X27562Y29170D02*
X27571Y29166D01*
X27577Y29162D01*
X27582Y29157D01*
X27583Y29156D01*
X27584Y29154D01*
X27586Y29151D01*
X27588Y29147D01*
X27590Y29142D01*
X27591Y29134D01*
X27593Y29127D01*
Y29118D01*
Y28274D01*
Y28273D01*
Y28271D01*
X27592Y28267D01*
X27591Y28262D01*
X27588Y28250D01*
X27584Y28244D01*
X27580Y28239D01*
X27579D01*
X27578Y28237D01*
X27574Y28236D01*
X27570Y28233D01*
X27560Y28230D01*
X27546Y28228D01*
X27543D01*
X27540Y28229D01*
X27535D01*
X27524Y28233D01*
X27518Y28236D01*
X27513Y28240D01*
X27512Y28241D01*
X27511Y28242D01*
X27509Y28245D01*
X27507Y28248D01*
X27504Y28253D01*
X27502Y28259D01*
X27501Y28266D01*
X27499Y28274D01*
Y29005D01*
X27391Y28898D01*
X27390Y28897D01*
X27389Y28896D01*
X27386Y28894D01*
X27382Y28891D01*
X27371Y28885D01*
X27365Y28884D01*
X27359Y28883D01*
X27356D01*
X27353Y28884D01*
X27348Y28885D01*
X27338Y28890D01*
X27333Y28893D01*
X27327Y28898D01*
X27326Y28899D01*
X27325Y28901D01*
X27321Y28903D01*
X27319Y28907D01*
X27313Y28918D01*
X27312Y28924D01*
X27311Y28931D01*
Y28932D01*
Y28934D01*
X27312Y28937D01*
X27313Y28942D01*
X27317Y28951D01*
X27320Y28957D01*
X27326Y28963D01*
X27513Y29151D01*
X27515Y29153D01*
X27519Y29156D01*
X27524Y29161D01*
X27532Y29166D01*
X27534Y29167D01*
X27539Y29169D01*
X27546Y29171D01*
X27555Y29172D01*
X27557D01*
X27562Y29170D01*
D02*
G37*
G36*
X27084Y29164D02*
X27088Y29163D01*
X27100Y29159D01*
X27105Y29156D01*
X27110Y29151D01*
X27111Y29150D01*
X27112Y29149D01*
X27114Y29146D01*
X27117Y29142D01*
X27121Y29131D01*
X27122Y29125D01*
X27124Y29119D01*
Y29118D01*
Y29116D01*
X27122Y29112D01*
Y29108D01*
X27118Y29098D01*
X27116Y29093D01*
X27112Y29086D01*
Y29085D01*
X27110Y29084D01*
X27107Y29082D01*
X27104Y29079D01*
X27099Y29076D01*
X27092Y29074D01*
X27085Y29073D01*
X27077Y29072D01*
X26836D01*
X26829Y29071D01*
X26819Y29069D01*
X26809Y29066D01*
X26798Y29060D01*
X26787Y29054D01*
X26776Y29045D01*
X26775Y29044D01*
X26774Y29043D01*
X26772Y29039D01*
X26768Y29035D01*
X26762Y29026D01*
X26756Y29013D01*
Y29012D01*
X26755Y29010D01*
X26754Y29007D01*
X26753Y29003D01*
X26751Y28992D01*
X26750Y28978D01*
Y28416D01*
Y28414D01*
Y28409D01*
X26751Y28402D01*
X26753Y28393D01*
X26756Y28381D01*
X26761Y28371D01*
X26767Y28359D01*
X26776Y28348D01*
X26777D01*
X26778Y28346D01*
X26781Y28344D01*
X26785Y28342D01*
X26794Y28334D01*
X26806Y28328D01*
X26807D01*
X26809Y28327D01*
X26813Y28326D01*
X26818Y28325D01*
X26830Y28323D01*
X26842Y28322D01*
X27080D01*
X27084Y28321D01*
X27088Y28320D01*
X27100Y28316D01*
X27105Y28313D01*
X27110Y28307D01*
X27111Y28306D01*
X27112Y28305D01*
X27114Y28302D01*
X27117Y28298D01*
X27121Y28288D01*
X27122Y28281D01*
X27124Y28275D01*
Y28274D01*
Y28272D01*
X27122Y28269D01*
Y28265D01*
X27118Y28254D01*
X27116Y28249D01*
X27112Y28243D01*
Y28242D01*
X27110Y28241D01*
X27107Y28239D01*
X27104Y28236D01*
X27099Y28232D01*
X27092Y28230D01*
X27085Y28229D01*
X27077Y28228D01*
X26835D01*
X26830Y28229D01*
X26823Y28230D01*
X26815Y28231D01*
X26798Y28236D01*
X26777Y28242D01*
X26755Y28251D01*
X26743Y28257D01*
X26733Y28265D01*
X26722Y28273D01*
X26711Y28282D01*
X26710Y28283D01*
X26709Y28284D01*
X26706Y28288D01*
X26703Y28292D01*
X26699Y28297D01*
X26693Y28303D01*
X26684Y28320D01*
X26674Y28339D01*
X26664Y28362D01*
X26658Y28388D01*
X26657Y28401D01*
X26656Y28416D01*
Y28978D01*
Y28979D01*
Y28981D01*
Y28985D01*
X26657Y28992D01*
X26658Y28998D01*
X26659Y29006D01*
X26663Y29024D01*
X26669Y29045D01*
X26679Y29067D01*
X26685Y29078D01*
X26692Y29089D01*
X26701Y29100D01*
X26710Y29110D01*
X26711Y29111D01*
X26712Y29112D01*
X26715Y29116D01*
X26719Y29119D01*
X26725Y29123D01*
X26731Y29128D01*
X26747Y29138D01*
X26766Y29148D01*
X26789Y29157D01*
X26814Y29163D01*
X26828Y29164D01*
X26842Y29166D01*
X27080D01*
X27084Y29164D01*
D02*
G37*
G36*
X26198Y29189D02*
X26208Y29188D01*
X26218Y29186D01*
X26231Y29184D01*
X26244Y29181D01*
X26259Y29178D01*
X26273Y29173D01*
X26289Y29167D01*
X26305Y29160D01*
X26320Y29151D01*
X26336Y29142D01*
X26351Y29130D01*
X26366Y29118D01*
X26367Y29117D01*
X26369Y29114D01*
X26373Y29110D01*
X26377Y29105D01*
X26384Y29098D01*
X26390Y29089D01*
X26397Y29080D01*
X26404Y29069D01*
X26411Y29056D01*
X26418Y29044D01*
X26431Y29013D01*
X26435Y28998D01*
X26439Y28981D01*
X26441Y28963D01*
X26442Y28945D01*
Y28944D01*
Y28943D01*
Y28940D01*
Y28934D01*
X26441Y28923D01*
X26438Y28908D01*
X26435Y28891D01*
X26429Y28872D01*
X26422Y28851D01*
X26412Y28829D01*
X26109Y28347D01*
X26402D01*
X26407Y28346D01*
X26411Y28345D01*
X26422Y28341D01*
X26427Y28338D01*
X26433Y28332D01*
X26434Y28331D01*
X26435Y28330D01*
X26437Y28327D01*
X26440Y28323D01*
X26444Y28313D01*
X26445Y28306D01*
X26446Y28300D01*
Y28299D01*
Y28297D01*
X26445Y28294D01*
Y28290D01*
X26441Y28279D01*
X26439Y28274D01*
X26435Y28268D01*
Y28267D01*
X26433Y28266D01*
X26429Y28264D01*
X26426Y28261D01*
X26421Y28257D01*
X26415Y28255D01*
X26408Y28254D01*
X26399Y28253D01*
X26022D01*
X26017Y28254D01*
X26009Y28255D01*
X25999Y28258D01*
X25990Y28263D01*
X25983Y28269D01*
X25976Y28278D01*
X25975Y28284D01*
X25974Y28291D01*
Y28292D01*
Y28294D01*
X25975Y28296D01*
Y28300D01*
X25980Y28312D01*
X25982Y28318D01*
X25986Y28325D01*
X26331Y28877D01*
X26332Y28879D01*
X26334Y28883D01*
X26336Y28891D01*
X26340Y28900D01*
X26343Y28910D01*
X26345Y28922D01*
X26347Y28934D01*
X26348Y28947D01*
Y28948D01*
Y28950D01*
Y28953D01*
X26347Y28957D01*
X26346Y28969D01*
X26342Y28982D01*
X26337Y28999D01*
X26328Y29017D01*
X26317Y29034D01*
X26310Y29043D01*
X26301Y29051D01*
X26300Y29052D01*
X26297Y29054D01*
X26293Y29058D01*
X26287Y29063D01*
X26278Y29069D01*
X26270Y29074D01*
X26249Y29084D01*
X26248Y29085D01*
X26244Y29086D01*
X26238Y29088D01*
X26231Y29091D01*
X26221Y29093D01*
X26210Y29095D01*
X26198Y29097D01*
X26180D01*
X26173Y29096D01*
X26164Y29095D01*
X26154Y29093D01*
X26142Y29088D01*
X26131Y29084D01*
X26118Y29078D01*
X26117Y29077D01*
X26113Y29074D01*
X26107Y29070D01*
X26099Y29063D01*
X26091Y29056D01*
X26082Y29047D01*
X26072Y29035D01*
X26064Y29024D01*
X26063Y29023D01*
X26060Y29019D01*
X26055Y29013D01*
X26046Y29007D01*
X26025Y29003D01*
X26022D01*
X26019Y29004D01*
X26015Y29005D01*
X26004Y29008D01*
X25998Y29011D01*
X25992Y29016D01*
X25991Y29017D01*
X25990Y29018D01*
X25988Y29021D01*
X25985Y29025D01*
X25980Y29035D01*
X25979Y29042D01*
X25978Y29048D01*
Y29050D01*
X25979Y29055D01*
X25981Y29063D01*
X25986Y29075D01*
Y29076D01*
X25987Y29077D01*
X25992Y29083D01*
X25998Y29093D01*
X26009Y29104D01*
X26020Y29117D01*
X26036Y29131D01*
X26052Y29145D01*
X26072Y29157D01*
X26073Y29158D01*
X26077Y29160D01*
X26083Y29162D01*
X26089Y29167D01*
X26097Y29170D01*
X26107Y29174D01*
X26126Y29181D01*
X26127D01*
X26131Y29182D01*
X26137Y29184D01*
X26143Y29186D01*
X26151Y29187D01*
X26161Y29189D01*
X26180Y29191D01*
X26190D01*
X26198Y29189D01*
D02*
G37*
G36*
X25760Y29195D02*
X25769Y29191D01*
X25774Y29187D01*
X25780Y29182D01*
X25781Y29181D01*
X25782Y29179D01*
X25784Y29176D01*
X25786Y29172D01*
X25788Y29167D01*
X25789Y29159D01*
X25791Y29152D01*
Y29143D01*
Y28299D01*
Y28298D01*
Y28296D01*
X25790Y28292D01*
X25789Y28287D01*
X25786Y28275D01*
X25782Y28269D01*
X25778Y28264D01*
X25777D01*
X25775Y28262D01*
X25772Y28261D01*
X25768Y28258D01*
X25758Y28255D01*
X25744Y28253D01*
X25741D01*
X25738Y28254D01*
X25733D01*
X25722Y28258D01*
X25716Y28261D01*
X25711Y28265D01*
X25710Y28266D01*
X25709Y28267D01*
X25707Y28270D01*
X25705Y28273D01*
X25702Y28278D01*
X25699Y28284D01*
X25698Y28291D01*
X25697Y28299D01*
Y29030D01*
X25589Y28923D01*
X25588Y28922D01*
X25587Y28921D01*
X25584Y28919D01*
X25580Y28916D01*
X25569Y28910D01*
X25563Y28909D01*
X25557Y28908D01*
X25554D01*
X25551Y28909D01*
X25546Y28910D01*
X25536Y28915D01*
X25531Y28918D01*
X25525Y28923D01*
X25523Y28924D01*
X25522Y28926D01*
X25519Y28928D01*
X25517Y28932D01*
X25511Y28943D01*
X25510Y28949D01*
X25509Y28956D01*
Y28957D01*
Y28959D01*
X25510Y28962D01*
X25511Y28967D01*
X25515Y28976D01*
X25518Y28982D01*
X25523Y28988D01*
X25711Y29176D01*
X25713Y29178D01*
X25717Y29181D01*
X25722Y29186D01*
X25730Y29191D01*
X25732Y29192D01*
X25737Y29194D01*
X25744Y29196D01*
X25753Y29197D01*
X25755D01*
X25760Y29195D01*
D02*
G37*
G36*
X25282Y29189D02*
X25286Y29188D01*
X25297Y29184D01*
X25303Y29181D01*
X25308Y29176D01*
X25309Y29175D01*
X25310Y29174D01*
X25312Y29171D01*
X25315Y29167D01*
X25319Y29156D01*
X25320Y29150D01*
X25321Y29144D01*
Y29143D01*
Y29141D01*
X25320Y29137D01*
Y29133D01*
X25316Y29123D01*
X25314Y29118D01*
X25310Y29111D01*
Y29110D01*
X25308Y29109D01*
X25305Y29107D01*
X25302Y29104D01*
X25296Y29101D01*
X25290Y29099D01*
X25283Y29098D01*
X25275Y29097D01*
X25034D01*
X25027Y29096D01*
X25017Y29094D01*
X25007Y29091D01*
X24995Y29085D01*
X24985Y29079D01*
X24974Y29070D01*
X24973Y29069D01*
X24972Y29068D01*
X24969Y29065D01*
X24966Y29060D01*
X24960Y29051D01*
X24954Y29038D01*
Y29037D01*
X24953Y29035D01*
X24952Y29032D01*
X24951Y29028D01*
X24949Y29017D01*
X24948Y29003D01*
Y28441D01*
Y28439D01*
Y28434D01*
X24949Y28427D01*
X24951Y28418D01*
X24954Y28406D01*
X24959Y28396D01*
X24965Y28384D01*
X24974Y28373D01*
X24975D01*
X24976Y28371D01*
X24979Y28369D01*
X24983Y28367D01*
X24992Y28359D01*
X25004Y28353D01*
X25005D01*
X25007Y28352D01*
X25011Y28351D01*
X25016Y28350D01*
X25028Y28348D01*
X25040Y28347D01*
X25278D01*
X25282Y28346D01*
X25286Y28345D01*
X25297Y28341D01*
X25303Y28338D01*
X25308Y28332D01*
X25309Y28331D01*
X25310Y28330D01*
X25312Y28327D01*
X25315Y28323D01*
X25319Y28313D01*
X25320Y28306D01*
X25321Y28300D01*
Y28299D01*
Y28297D01*
X25320Y28294D01*
Y28290D01*
X25316Y28279D01*
X25314Y28274D01*
X25310Y28268D01*
Y28267D01*
X25308Y28266D01*
X25305Y28264D01*
X25302Y28261D01*
X25296Y28257D01*
X25290Y28255D01*
X25283Y28254D01*
X25275Y28253D01*
X25033D01*
X25028Y28254D01*
X25020Y28255D01*
X25013Y28256D01*
X24995Y28261D01*
X24975Y28267D01*
X24953Y28276D01*
X24941Y28282D01*
X24931Y28290D01*
X24919Y28298D01*
X24909Y28307D01*
X24908Y28308D01*
X24907Y28309D01*
X24904Y28313D01*
X24901Y28317D01*
X24897Y28322D01*
X24891Y28328D01*
X24882Y28345D01*
X24872Y28364D01*
X24862Y28387D01*
X24856Y28413D01*
X24855Y28426D01*
X24854Y28441D01*
Y29003D01*
Y29004D01*
Y29006D01*
Y29010D01*
X24855Y29017D01*
X24856Y29023D01*
X24857Y29031D01*
X24861Y29049D01*
X24867Y29070D01*
X24877Y29092D01*
X24883Y29103D01*
X24890Y29114D01*
X24899Y29125D01*
X24908Y29135D01*
X24909Y29136D01*
X24910Y29137D01*
X24913Y29141D01*
X24917Y29144D01*
X24923Y29148D01*
X24929Y29153D01*
X24944Y29163D01*
X24964Y29173D01*
X24987Y29182D01*
X25012Y29188D01*
X25026Y29189D01*
X25040Y29191D01*
X25278D01*
X25282Y29189D01*
D02*
G37*
G36*
X24597Y29170D02*
X24606Y29166D01*
X24611Y29162D01*
X24616Y29157D01*
X24618Y29156D01*
X24619Y29154D01*
X24621Y29151D01*
X24623Y29147D01*
X24625Y29142D01*
X24626Y29134D01*
X24628Y29127D01*
Y29118D01*
Y28274D01*
Y28273D01*
Y28271D01*
X24627Y28267D01*
X24626Y28262D01*
X24623Y28250D01*
X24619Y28244D01*
X24614Y28239D01*
X24613D01*
X24612Y28237D01*
X24609Y28236D01*
X24605Y28233D01*
X24595Y28230D01*
X24581Y28228D01*
X24578D01*
X24575Y28229D01*
X24570D01*
X24559Y28233D01*
X24553Y28236D01*
X24548Y28240D01*
X24547Y28241D01*
X24546Y28242D01*
X24544Y28245D01*
X24542Y28248D01*
X24538Y28253D01*
X24536Y28259D01*
X24535Y28266D01*
X24534Y28274D01*
Y29005D01*
X24426Y28898D01*
X24425Y28897D01*
X24424Y28896D01*
X24421Y28894D01*
X24417Y28891D01*
X24406Y28885D01*
X24400Y28884D01*
X24394Y28883D01*
X24390D01*
X24387Y28884D01*
X24383Y28885D01*
X24373Y28890D01*
X24368Y28893D01*
X24361Y28898D01*
X24360Y28899D01*
X24359Y28901D01*
X24356Y28903D01*
X24354Y28907D01*
X24348Y28918D01*
X24347Y28924D01*
X24346Y28931D01*
Y28932D01*
Y28934D01*
X24347Y28937D01*
X24348Y28942D01*
X24352Y28951D01*
X24355Y28957D01*
X24360Y28963D01*
X24548Y29151D01*
X24550Y29153D01*
X24554Y29156D01*
X24559Y29161D01*
X24566Y29166D01*
X24569Y29167D01*
X24574Y29169D01*
X24581Y29171D01*
X24589Y29172D01*
X24591D01*
X24597Y29170D01*
D02*
G37*
G36*
X24128D02*
X24137Y29166D01*
X24143Y29162D01*
X24148Y29157D01*
X24149Y29156D01*
X24150Y29154D01*
X24152Y29151D01*
X24154Y29147D01*
X24156Y29142D01*
X24157Y29134D01*
X24159Y29127D01*
Y29118D01*
Y28274D01*
Y28273D01*
Y28271D01*
X24158Y28267D01*
X24157Y28262D01*
X24154Y28250D01*
X24150Y28244D01*
X24146Y28239D01*
X24145D01*
X24144Y28237D01*
X24141Y28236D01*
X24136Y28233D01*
X24126Y28230D01*
X24112Y28228D01*
X24109D01*
X24106Y28229D01*
X24101D01*
X24091Y28233D01*
X24084Y28236D01*
X24079Y28240D01*
X24078Y28241D01*
X24077Y28242D01*
X24075Y28245D01*
X24073Y28248D01*
X24070Y28253D01*
X24068Y28259D01*
X24067Y28266D01*
X24066Y28274D01*
Y29005D01*
X23957Y28898D01*
X23956Y28897D01*
X23955Y28896D01*
X23952Y28894D01*
X23948Y28891D01*
X23938Y28885D01*
X23931Y28884D01*
X23925Y28883D01*
X23922D01*
X23919Y28884D01*
X23915Y28885D01*
X23904Y28890D01*
X23899Y28893D01*
X23893Y28898D01*
X23892Y28899D01*
X23891Y28901D01*
X23888Y28903D01*
X23885Y28907D01*
X23879Y28918D01*
X23878Y28924D01*
X23877Y28931D01*
Y28932D01*
Y28934D01*
X23878Y28937D01*
X23879Y28942D01*
X23883Y28951D01*
X23886Y28957D01*
X23892Y28963D01*
X24079Y29151D01*
X24081Y29153D01*
X24085Y29156D01*
X24091Y29161D01*
X24098Y29166D01*
X24100Y29167D01*
X24105Y29169D01*
X24112Y29171D01*
X24121Y29172D01*
X24123D01*
X24128Y29170D01*
D02*
G37*
G36*
X23650Y29164D02*
X23654Y29163D01*
X23666Y29159D01*
X23671Y29156D01*
X23676Y29151D01*
X23677Y29150D01*
X23678Y29149D01*
X23680Y29146D01*
X23683Y29142D01*
X23688Y29131D01*
X23689Y29125D01*
X23690Y29119D01*
Y29118D01*
Y29116D01*
X23689Y29112D01*
Y29108D01*
X23684Y29098D01*
X23682Y29093D01*
X23678Y29086D01*
Y29085D01*
X23676Y29084D01*
X23673Y29082D01*
X23670Y29079D01*
X23665Y29076D01*
X23658Y29074D01*
X23651Y29073D01*
X23643Y29072D01*
X23402D01*
X23395Y29071D01*
X23386Y29069D01*
X23375Y29066D01*
X23364Y29060D01*
X23353Y29054D01*
X23342Y29045D01*
X23341Y29044D01*
X23340Y29043D01*
X23338Y29039D01*
X23335Y29035D01*
X23328Y29026D01*
X23322Y29013D01*
Y29012D01*
X23321Y29010D01*
X23320Y29007D01*
X23319Y29003D01*
X23317Y28992D01*
X23316Y28978D01*
Y28416D01*
Y28414D01*
Y28409D01*
X23317Y28402D01*
X23319Y28393D01*
X23322Y28381D01*
X23327Y28371D01*
X23333Y28359D01*
X23342Y28348D01*
X23343D01*
X23344Y28346D01*
X23347Y28344D01*
X23351Y28342D01*
X23361Y28334D01*
X23372Y28328D01*
X23373D01*
X23375Y28327D01*
X23379Y28326D01*
X23385Y28325D01*
X23396Y28323D01*
X23408Y28322D01*
X23646D01*
X23650Y28321D01*
X23654Y28320D01*
X23666Y28316D01*
X23671Y28313D01*
X23676Y28307D01*
X23677Y28306D01*
X23678Y28305D01*
X23680Y28302D01*
X23683Y28298D01*
X23688Y28288D01*
X23689Y28281D01*
X23690Y28275D01*
Y28274D01*
Y28272D01*
X23689Y28269D01*
Y28265D01*
X23684Y28254D01*
X23682Y28249D01*
X23678Y28243D01*
Y28242D01*
X23676Y28241D01*
X23673Y28239D01*
X23670Y28236D01*
X23665Y28232D01*
X23658Y28230D01*
X23651Y28229D01*
X23643Y28228D01*
X23401D01*
X23396Y28229D01*
X23389Y28230D01*
X23381Y28231D01*
X23364Y28236D01*
X23343Y28242D01*
X23321Y28251D01*
X23310Y28257D01*
X23299Y28265D01*
X23288Y28273D01*
X23277Y28282D01*
X23276Y28283D01*
X23275Y28284D01*
X23272Y28288D01*
X23269Y28292D01*
X23265Y28297D01*
X23260Y28303D01*
X23250Y28320D01*
X23240Y28339D01*
X23230Y28362D01*
X23224Y28388D01*
X23223Y28401D01*
X23222Y28416D01*
Y28978D01*
Y28979D01*
Y28981D01*
Y28985D01*
X23223Y28992D01*
X23224Y28998D01*
X23225Y29006D01*
X23229Y29024D01*
X23236Y29045D01*
X23245Y29067D01*
X23251Y29078D01*
X23258Y29089D01*
X23267Y29100D01*
X23276Y29110D01*
X23277Y29111D01*
X23278Y29112D01*
X23281Y29116D01*
X23286Y29119D01*
X23291Y29123D01*
X23297Y29128D01*
X23313Y29138D01*
X23332Y29148D01*
X23355Y29157D01*
X23380Y29163D01*
X23394Y29164D01*
X23408Y29166D01*
X23646D01*
X23650Y29164D01*
D02*
G37*
G36*
X24355Y6896D02*
X24362Y6895D01*
X24371Y6894D01*
X24391Y6889D01*
X24413Y6882D01*
X24425Y6877D01*
X24437Y6872D01*
X24450Y6864D01*
X24462Y6856D01*
X24475Y6847D01*
X24486Y6836D01*
X24487Y6835D01*
X24488Y6833D01*
X24492Y6830D01*
X24496Y6826D01*
X24500Y6820D01*
X24505Y6812D01*
X24511Y6805D01*
X24517Y6796D01*
X24528Y6774D01*
X24537Y6750D01*
X24542Y6735D01*
X24544Y6722D01*
X24546Y6706D01*
X24547Y6690D01*
Y6626D01*
X24546Y6620D01*
X24545Y6612D01*
X24544Y6604D01*
X24539Y6584D01*
X24532Y6561D01*
X24527Y6550D01*
X24522Y6537D01*
X24514Y6525D01*
X24507Y6512D01*
X24498Y6500D01*
X24487Y6488D01*
X24486Y6487D01*
X24484Y6486D01*
X24481Y6483D01*
X24477Y6479D01*
X24471Y6475D01*
X24464Y6470D01*
X24456Y6463D01*
X24447Y6458D01*
X24425Y6447D01*
X24400Y6437D01*
X24386Y6433D01*
X24372Y6431D01*
X24356Y6429D01*
X24341Y6428D01*
X23816D01*
X23815D01*
X23812D01*
X23807D01*
X23802Y6429D01*
X23795Y6430D01*
X23787Y6431D01*
X23767Y6435D01*
X23745Y6443D01*
X23732Y6448D01*
X23720Y6453D01*
X23708Y6460D01*
X23696Y6468D01*
X23683Y6477D01*
X23672Y6487D01*
X23671Y6488D01*
X23669Y6491D01*
X23666Y6494D01*
X23663Y6498D01*
X23657Y6504D01*
X23652Y6511D01*
X23647Y6520D01*
X23641Y6528D01*
X23629Y6550D01*
X23619Y6575D01*
X23616Y6588D01*
X23613Y6603D01*
X23611Y6619D01*
X23609Y6634D01*
Y6699D01*
X23611Y6704D01*
X23612Y6711D01*
X23613Y6720D01*
X23617Y6739D01*
X23624Y6762D01*
X23629Y6775D01*
X23634Y6786D01*
X23642Y6799D01*
X23650Y6811D01*
X23659Y6824D01*
X23670Y6835D01*
X23671Y6836D01*
X23673Y6838D01*
X23676Y6840D01*
X23680Y6845D01*
X23687Y6850D01*
X23694Y6855D01*
X23701Y6860D01*
X23711Y6866D01*
X23732Y6877D01*
X23756Y6887D01*
X23771Y6891D01*
X23784Y6894D01*
X23800Y6896D01*
X23816Y6897D01*
X24341D01*
X24342D01*
X24345D01*
X24349D01*
X24355Y6896D01*
D02*
G37*
G36*
X24508Y6240D02*
X24513Y6239D01*
X24525Y6235D01*
X24531Y6231D01*
X24536Y6227D01*
Y6226D01*
X24538Y6225D01*
X24539Y6222D01*
X24542Y6218D01*
X24545Y6207D01*
X24547Y6194D01*
Y6191D01*
X24546Y6187D01*
Y6182D01*
X24542Y6172D01*
X24539Y6166D01*
X24535Y6160D01*
X24534Y6159D01*
X24533Y6158D01*
X24530Y6156D01*
X24527Y6154D01*
X24522Y6151D01*
X24516Y6149D01*
X24509Y6148D01*
X24501Y6147D01*
X23770D01*
X23877Y6039D01*
X23878Y6038D01*
X23879Y6036D01*
X23881Y6033D01*
X23884Y6029D01*
X23890Y6019D01*
X23891Y6013D01*
X23892Y6006D01*
Y6003D01*
X23891Y6000D01*
X23890Y5996D01*
X23885Y5985D01*
X23882Y5980D01*
X23877Y5974D01*
X23876Y5973D01*
X23874Y5972D01*
X23872Y5969D01*
X23868Y5967D01*
X23857Y5960D01*
X23851Y5959D01*
X23844Y5958D01*
X23843D01*
X23841D01*
X23838Y5959D01*
X23833Y5960D01*
X23824Y5965D01*
X23818Y5968D01*
X23812Y5973D01*
X23624Y6160D01*
X23622Y6162D01*
X23619Y6167D01*
X23614Y6172D01*
X23609Y6179D01*
X23608Y6181D01*
X23606Y6186D01*
X23604Y6194D01*
X23603Y6202D01*
Y6204D01*
X23605Y6209D01*
X23609Y6219D01*
X23613Y6224D01*
X23618Y6229D01*
X23619Y6230D01*
X23621Y6231D01*
X23624Y6233D01*
X23628Y6235D01*
X23633Y6237D01*
X23641Y6239D01*
X23648Y6241D01*
X23657D01*
X24501D01*
X24502D01*
X24504D01*
X24508Y6240D01*
D02*
G37*
G36*
X24506Y5770D02*
X24510D01*
X24521Y5766D01*
X24526Y5764D01*
X24532Y5759D01*
X24533D01*
X24534Y5757D01*
X24536Y5754D01*
X24539Y5751D01*
X24543Y5746D01*
X24545Y5740D01*
X24546Y5732D01*
X24547Y5724D01*
Y5482D01*
X24546Y5477D01*
X24545Y5470D01*
X24544Y5463D01*
X24539Y5445D01*
X24533Y5424D01*
X24524Y5402D01*
X24518Y5391D01*
X24510Y5380D01*
X24502Y5369D01*
X24493Y5359D01*
X24492Y5357D01*
X24491Y5356D01*
X24487Y5353D01*
X24483Y5350D01*
X24478Y5346D01*
X24472Y5341D01*
X24455Y5331D01*
X24436Y5321D01*
X24413Y5312D01*
X24387Y5305D01*
X24374Y5304D01*
X24359Y5303D01*
X23797D01*
X23796D01*
X23794D01*
X23790D01*
X23783Y5304D01*
X23777Y5305D01*
X23769Y5306D01*
X23751Y5311D01*
X23730Y5317D01*
X23708Y5326D01*
X23697Y5332D01*
X23686Y5340D01*
X23675Y5348D01*
X23665Y5357D01*
X23664Y5359D01*
X23663Y5360D01*
X23659Y5363D01*
X23656Y5367D01*
X23652Y5372D01*
X23647Y5378D01*
X23637Y5394D01*
X23627Y5414D01*
X23618Y5437D01*
X23612Y5462D01*
X23611Y5475D01*
X23609Y5490D01*
Y5727D01*
X23611Y5731D01*
X23612Y5736D01*
X23616Y5747D01*
X23619Y5752D01*
X23624Y5757D01*
X23625Y5758D01*
X23626Y5759D01*
X23629Y5762D01*
X23633Y5765D01*
X23644Y5769D01*
X23650Y5770D01*
X23656Y5771D01*
X23657D01*
X23659D01*
X23663Y5770D01*
X23667D01*
X23677Y5766D01*
X23682Y5764D01*
X23689Y5759D01*
X23690D01*
X23691Y5757D01*
X23693Y5754D01*
X23696Y5751D01*
X23699Y5746D01*
X23701Y5740D01*
X23702Y5732D01*
X23703Y5724D01*
Y5483D01*
X23704Y5476D01*
X23706Y5467D01*
X23709Y5456D01*
X23715Y5445D01*
X23721Y5435D01*
X23730Y5423D01*
X23731Y5422D01*
X23732Y5421D01*
X23736Y5419D01*
X23740Y5416D01*
X23749Y5410D01*
X23762Y5403D01*
X23763D01*
X23765Y5402D01*
X23768Y5401D01*
X23772Y5400D01*
X23783Y5398D01*
X23797Y5397D01*
X24359D01*
X24361D01*
X24366D01*
X24373Y5398D01*
X24382Y5400D01*
X24394Y5403D01*
X24404Y5409D01*
X24416Y5415D01*
X24427Y5423D01*
Y5424D01*
X24429Y5425D01*
X24431Y5428D01*
X24433Y5432D01*
X24441Y5442D01*
X24447Y5453D01*
Y5454D01*
X24448Y5456D01*
X24449Y5461D01*
X24450Y5466D01*
X24452Y5477D01*
X24453Y5490D01*
Y5727D01*
X24454Y5731D01*
X24455Y5736D01*
X24459Y5747D01*
X24462Y5752D01*
X24468Y5757D01*
X24469Y5758D01*
X24470Y5759D01*
X24473Y5762D01*
X24477Y5765D01*
X24487Y5769D01*
X24494Y5770D01*
X24500Y5771D01*
X24501D01*
X24503D01*
X24506Y5770D01*
D02*
G37*
G36*
X28881Y13083D02*
X28891Y13082D01*
X28902Y13080D01*
X28915Y13078D01*
X28928Y13076D01*
X28958Y13067D01*
X28975Y13061D01*
X28992Y13054D01*
X29007Y13047D01*
X29024Y13036D01*
X29041Y13026D01*
X29056Y13013D01*
X29057Y13012D01*
X29060Y13010D01*
X29064Y13005D01*
X29070Y12999D01*
X29076Y12992D01*
X29084Y12982D01*
X29092Y12971D01*
X29100Y12958D01*
X29108Y12944D01*
X29116Y12928D01*
X29123Y12910D01*
X29130Y12892D01*
X29135Y12872D01*
X29139Y12850D01*
X29143Y12827D01*
X29144Y12802D01*
Y12796D01*
X29143Y12790D01*
Y12780D01*
X29140Y12769D01*
X29139Y12756D01*
X29136Y12742D01*
X29133Y12727D01*
X29128Y12710D01*
X29123Y12693D01*
X29116Y12676D01*
X29107Y12658D01*
X29097Y12641D01*
X29085Y12624D01*
X29073Y12607D01*
X29057Y12592D01*
X29056Y12591D01*
X29054Y12589D01*
X29049Y12585D01*
X29043Y12581D01*
X29035Y12575D01*
X29026Y12570D01*
X29016Y12564D01*
X29003Y12557D01*
X28991Y12550D01*
X28975Y12544D01*
X28959Y12539D01*
X28942Y12533D01*
X28924Y12528D01*
X28904Y12525D01*
X28884Y12523D01*
X28862Y12522D01*
X28861D01*
X28859D01*
X28855D01*
X28850Y12523D01*
X28844D01*
X28835Y12524D01*
X28818Y12526D01*
X28797Y12529D01*
X28773Y12535D01*
X28749Y12543D01*
X28725Y12553D01*
X28724D01*
X28722Y12554D01*
X28719Y12556D01*
X28715Y12559D01*
X28702Y12567D01*
X28687Y12577D01*
X28672Y12590D01*
X28654Y12606D01*
X28638Y12626D01*
X28622Y12648D01*
X28621Y12646D01*
X28617Y12642D01*
X28609Y12635D01*
X28600Y12627D01*
X28589Y12618D01*
X28575Y12607D01*
X28559Y12598D01*
X28543Y12590D01*
X28542D01*
X28541Y12589D01*
X28534Y12586D01*
X28524Y12583D01*
X28511Y12580D01*
X28496Y12576D01*
X28479Y12573D01*
X28460Y12571D01*
X28441Y12570D01*
X28440D01*
X28437D01*
X28431D01*
X28425Y12571D01*
X28417Y12572D01*
X28407Y12573D01*
X28397Y12575D01*
X28385Y12577D01*
X28360Y12583D01*
X28333Y12594D01*
X28320Y12601D01*
X28306Y12608D01*
X28293Y12617D01*
X28280Y12627D01*
X28279Y12628D01*
X28277Y12630D01*
X28273Y12634D01*
X28269Y12640D01*
X28264Y12646D01*
X28257Y12654D01*
X28250Y12663D01*
X28243Y12674D01*
X28237Y12685D01*
X28229Y12699D01*
X28223Y12713D01*
X28218Y12729D01*
X28214Y12746D01*
X28209Y12763D01*
X28207Y12783D01*
X28206Y12803D01*
Y12813D01*
X28207Y12821D01*
X28208Y12830D01*
X28211Y12841D01*
X28213Y12853D01*
X28216Y12866D01*
X28220Y12879D01*
X28224Y12894D01*
X28230Y12908D01*
X28238Y12923D01*
X28246Y12937D01*
X28256Y12951D01*
X28267Y12965D01*
X28280Y12978D01*
X28281Y12979D01*
X28283Y12980D01*
X28287Y12983D01*
X28292Y12987D01*
X28299Y12992D01*
X28306Y12997D01*
X28316Y13002D01*
X28325Y13008D01*
X28337Y13013D01*
X28349Y13019D01*
X28376Y13028D01*
X28391Y13032D01*
X28407Y13035D01*
X28423Y13036D01*
X28441Y13037D01*
X28442D01*
X28443D01*
X28446D01*
X28450D01*
X28460Y13036D01*
X28473Y13035D01*
X28489Y13032D01*
X28506Y13029D01*
X28524Y13024D01*
X28543Y13018D01*
X28545Y13017D01*
X28551Y13013D01*
X28559Y13009D01*
X28571Y13003D01*
X28583Y12995D01*
X28597Y12984D01*
X28610Y12972D01*
X28623Y12958D01*
Y12959D01*
X28625Y12961D01*
X28627Y12964D01*
X28629Y12969D01*
X28638Y12979D01*
X28649Y12993D01*
X28664Y13008D01*
X28681Y13024D01*
X28701Y13038D01*
X28724Y13052D01*
X28725D01*
X28727Y13053D01*
X28730Y13055D01*
X28735Y13057D01*
X28742Y13059D01*
X28748Y13062D01*
X28766Y13069D01*
X28786Y13074D01*
X28809Y13079D01*
X28835Y13083D01*
X28862Y13084D01*
X28863D01*
X28868D01*
X28873D01*
X28881Y13083D01*
D02*
G37*
G36*
X29103Y12332D02*
X29107D01*
X29118Y12328D01*
X29123Y12326D01*
X29129Y12322D01*
X29130D01*
X29131Y12320D01*
X29133Y12317D01*
X29136Y12314D01*
X29139Y12308D01*
X29142Y12302D01*
X29143Y12295D01*
X29144Y12286D01*
Y12045D01*
X29143Y12040D01*
X29142Y12032D01*
X29140Y12025D01*
X29136Y12007D01*
X29130Y11987D01*
X29121Y11965D01*
X29114Y11953D01*
X29107Y11943D01*
X29099Y11931D01*
X29089Y11921D01*
X29088Y11920D01*
X29087Y11919D01*
X29084Y11916D01*
X29080Y11913D01*
X29075Y11908D01*
X29069Y11903D01*
X29052Y11894D01*
X29033Y11883D01*
X29010Y11874D01*
X28984Y11868D01*
X28971Y11867D01*
X28956Y11866D01*
X28394D01*
X28393D01*
X28391D01*
X28387D01*
X28380Y11867D01*
X28374Y11868D01*
X28366Y11869D01*
X28348Y11873D01*
X28327Y11879D01*
X28305Y11889D01*
X28294Y11895D01*
X28282Y11902D01*
X28272Y11911D01*
X28262Y11920D01*
X28261Y11921D01*
X28259Y11922D01*
X28256Y11925D01*
X28253Y11929D01*
X28249Y11935D01*
X28244Y11941D01*
X28233Y11956D01*
X28224Y11976D01*
X28215Y11999D01*
X28208Y12024D01*
X28207Y12038D01*
X28206Y12052D01*
Y12290D01*
X28207Y12294D01*
X28208Y12298D01*
X28213Y12309D01*
X28216Y12315D01*
X28221Y12320D01*
X28222Y12321D01*
X28223Y12322D01*
X28226Y12324D01*
X28230Y12327D01*
X28241Y12331D01*
X28247Y12332D01*
X28253Y12333D01*
X28254D01*
X28256D01*
X28259Y12332D01*
X28264D01*
X28274Y12328D01*
X28279Y12326D01*
X28286Y12322D01*
X28287D01*
X28288Y12320D01*
X28290Y12317D01*
X28293Y12314D01*
X28296Y12308D01*
X28298Y12302D01*
X28299Y12295D01*
X28300Y12286D01*
Y12046D01*
X28301Y12039D01*
X28303Y12029D01*
X28306Y12019D01*
X28312Y12007D01*
X28318Y11997D01*
X28327Y11986D01*
X28328Y11984D01*
X28329Y11983D01*
X28332Y11981D01*
X28337Y11978D01*
X28346Y11972D01*
X28358Y11966D01*
X28359D01*
X28362Y11965D01*
X28365Y11964D01*
X28369Y11963D01*
X28380Y11961D01*
X28394Y11960D01*
X28956D01*
X28958D01*
X28962D01*
X28970Y11961D01*
X28979Y11963D01*
X28991Y11966D01*
X29001Y11971D01*
X29012Y11977D01*
X29024Y11986D01*
Y11987D01*
X29026Y11988D01*
X29028Y11991D01*
X29030Y11995D01*
X29037Y12004D01*
X29044Y12016D01*
Y12017D01*
X29045Y12019D01*
X29046Y12023D01*
X29047Y12028D01*
X29049Y12040D01*
X29050Y12052D01*
Y12290D01*
X29051Y12294D01*
X29052Y12298D01*
X29056Y12309D01*
X29059Y12315D01*
X29064Y12320D01*
X29066Y12321D01*
X29067Y12322D01*
X29070Y12324D01*
X29074Y12327D01*
X29084Y12331D01*
X29091Y12332D01*
X29097Y12333D01*
X29098D01*
X29100D01*
X29103Y12332D01*
D02*
G37*
G36*
X17197Y17193D02*
X17205Y17192D01*
X17213Y17188D01*
X17222Y17184D01*
X17230Y17177D01*
X17235Y17168D01*
X17237Y17161D01*
Y17154D01*
X17234Y17134D01*
X17000Y16291D01*
Y16290D01*
Y16289D01*
X16998Y16282D01*
X16994Y16274D01*
X16990Y16270D01*
X16985Y16266D01*
X16984D01*
X16983Y16265D01*
X16977Y16262D01*
X16968Y16257D01*
X16956Y16256D01*
X16953D01*
X16949Y16257D01*
X16944D01*
X16933Y16262D01*
X16927Y16264D01*
X16922Y16268D01*
X16921Y16269D01*
X16920Y16270D01*
X16918Y16273D01*
X16916Y16276D01*
X16910Y16287D01*
X16909Y16294D01*
X16908Y16301D01*
Y16303D01*
Y16306D01*
X16909Y16311D01*
X16910Y16315D01*
X17128Y17100D01*
X16862D01*
Y17053D01*
Y17052D01*
Y17049D01*
X16861Y17045D01*
X16860Y17039D01*
X16857Y17028D01*
X16853Y17022D01*
X16849Y17017D01*
X16848D01*
X16847Y17015D01*
X16844Y17013D01*
X16840Y17011D01*
X16829Y17008D01*
X16816Y17006D01*
X16812D01*
X16809Y17007D01*
X16804D01*
X16794Y17011D01*
X16787Y17013D01*
X16782Y17018D01*
X16781Y17019D01*
X16780Y17020D01*
X16778Y17023D01*
X16776Y17026D01*
X16773Y17031D01*
X16771Y17037D01*
X16770Y17045D01*
X16769Y17053D01*
Y17147D01*
Y17148D01*
Y17149D01*
X16770Y17154D01*
X16771Y17161D01*
X16775Y17171D01*
X16780Y17179D01*
X16789Y17186D01*
X16800Y17192D01*
X16806Y17194D01*
X17192D01*
X17197Y17193D01*
D02*
G37*
G36*
X16541D02*
X16545Y17192D01*
X16556Y17187D01*
X16561Y17184D01*
X16567Y17179D01*
X16568Y17178D01*
X16569Y17177D01*
X16571Y17174D01*
X16574Y17170D01*
X16578Y17159D01*
X16579Y17153D01*
X16580Y17147D01*
Y17146D01*
Y17144D01*
X16579Y17141D01*
Y17136D01*
X16575Y17126D01*
X16573Y17121D01*
X16569Y17114D01*
Y17113D01*
X16567Y17112D01*
X16564Y17110D01*
X16560Y17107D01*
X16555Y17104D01*
X16549Y17102D01*
X16542Y17101D01*
X16533Y17100D01*
X16293D01*
X16286Y17099D01*
X16276Y17097D01*
X16266Y17094D01*
X16254Y17088D01*
X16244Y17082D01*
X16232Y17073D01*
X16231Y17072D01*
X16230Y17071D01*
X16228Y17068D01*
X16225Y17063D01*
X16219Y17054D01*
X16213Y17042D01*
Y17041D01*
X16212Y17038D01*
X16211Y17035D01*
X16209Y17031D01*
X16207Y17020D01*
X16206Y17006D01*
Y16444D01*
Y16442D01*
Y16438D01*
X16207Y16430D01*
X16209Y16421D01*
X16213Y16409D01*
X16218Y16399D01*
X16224Y16388D01*
X16232Y16376D01*
X16233D01*
X16234Y16374D01*
X16238Y16372D01*
X16242Y16370D01*
X16251Y16363D01*
X16263Y16356D01*
X16264D01*
X16266Y16355D01*
X16270Y16354D01*
X16275Y16353D01*
X16287Y16351D01*
X16299Y16350D01*
X16536D01*
X16541Y16349D01*
X16545Y16348D01*
X16556Y16344D01*
X16561Y16341D01*
X16567Y16336D01*
X16568Y16334D01*
X16569Y16333D01*
X16571Y16330D01*
X16574Y16326D01*
X16578Y16316D01*
X16579Y16309D01*
X16580Y16303D01*
Y16302D01*
Y16300D01*
X16579Y16297D01*
Y16293D01*
X16575Y16282D01*
X16573Y16277D01*
X16569Y16271D01*
Y16270D01*
X16567Y16269D01*
X16564Y16267D01*
X16560Y16264D01*
X16555Y16261D01*
X16549Y16258D01*
X16542Y16257D01*
X16533Y16256D01*
X16292D01*
X16287Y16257D01*
X16279Y16258D01*
X16272Y16260D01*
X16254Y16264D01*
X16233Y16270D01*
X16212Y16279D01*
X16200Y16286D01*
X16190Y16293D01*
X16178Y16301D01*
X16168Y16311D01*
X16167Y16312D01*
X16166Y16313D01*
X16163Y16316D01*
X16160Y16320D01*
X16155Y16325D01*
X16150Y16331D01*
X16141Y16348D01*
X16130Y16367D01*
X16121Y16390D01*
X16115Y16416D01*
X16114Y16429D01*
X16113Y16444D01*
Y17006D01*
Y17007D01*
Y17009D01*
Y17013D01*
X16114Y17020D01*
X16115Y17026D01*
X16116Y17034D01*
X16120Y17052D01*
X16126Y17073D01*
X16136Y17095D01*
X16142Y17106D01*
X16149Y17118D01*
X16157Y17128D01*
X16167Y17138D01*
X16168Y17139D01*
X16169Y17141D01*
X16172Y17144D01*
X16176Y17147D01*
X16181Y17151D01*
X16188Y17156D01*
X16203Y17167D01*
X16223Y17176D01*
X16246Y17185D01*
X16271Y17192D01*
X16284Y17193D01*
X16299Y17194D01*
X16536D01*
X16541Y17193D01*
D02*
G37*
G36*
X27404Y24368D02*
X27409Y24367D01*
X27414Y24364D01*
X27420Y24362D01*
X27426Y24358D01*
X27431Y24353D01*
X27432Y24352D01*
X27433Y24351D01*
X27435Y24348D01*
X27437Y24344D01*
X27441Y24333D01*
X27443Y24327D01*
Y24320D01*
Y24319D01*
Y24318D01*
X27442Y24311D01*
X27441Y24304D01*
X27436Y24297D01*
X27435Y24295D01*
X27432Y24291D01*
X27425Y24284D01*
X27421Y24281D01*
X27414Y24277D01*
X27413D01*
X27411Y24276D01*
X27408Y24274D01*
X27403Y24273D01*
X27393Y24268D01*
X27380Y24261D01*
X27379D01*
X27378Y24260D01*
X27375Y24258D01*
X27371Y24256D01*
X27360Y24250D01*
X27348Y24243D01*
X27347Y24242D01*
X27343Y24240D01*
X27337Y24235D01*
X27330Y24229D01*
X27321Y24222D01*
X27311Y24215D01*
X27300Y24205D01*
X27289Y24195D01*
X27288Y24194D01*
X27287Y24193D01*
X27284Y24190D01*
X27280Y24185D01*
X27276Y24180D01*
X27271Y24174D01*
X27258Y24158D01*
X27245Y24140D01*
X27231Y24119D01*
X27218Y24095D01*
X27205Y24069D01*
X27191Y24031D01*
X27180Y23994D01*
X27356D01*
X27361Y23993D01*
X27369Y23992D01*
X27376Y23991D01*
X27395Y23986D01*
X27416Y23980D01*
X27437Y23971D01*
X27449Y23965D01*
X27459Y23957D01*
X27471Y23948D01*
X27481Y23939D01*
X27482Y23937D01*
X27483Y23936D01*
X27486Y23933D01*
X27489Y23929D01*
X27495Y23924D01*
X27499Y23918D01*
X27509Y23902D01*
X27520Y23882D01*
X27529Y23860D01*
X27535Y23834D01*
X27536Y23821D01*
X27537Y23806D01*
Y23619D01*
Y23618D01*
Y23616D01*
Y23612D01*
X27536Y23606D01*
X27535Y23599D01*
X27534Y23592D01*
X27530Y23573D01*
X27524Y23553D01*
X27514Y23530D01*
X27508Y23519D01*
X27501Y23508D01*
X27492Y23497D01*
X27482Y23487D01*
X27481Y23486D01*
X27480Y23484D01*
X27477Y23481D01*
X27473Y23478D01*
X27467Y23474D01*
X27460Y23469D01*
X27445Y23459D01*
X27426Y23449D01*
X27403Y23440D01*
X27378Y23433D01*
X27364Y23432D01*
X27350Y23431D01*
X27249D01*
X27244Y23432D01*
X27236Y23433D01*
X27229Y23434D01*
X27211Y23439D01*
X27191Y23445D01*
X27169Y23454D01*
X27157Y23461D01*
X27146Y23468D01*
X27134Y23476D01*
X27124Y23486D01*
X27123Y23487D01*
X27122Y23488D01*
X27119Y23491D01*
X27116Y23495D01*
X27111Y23500D01*
X27106Y23506D01*
X27097Y23522D01*
X27086Y23542D01*
X27077Y23565D01*
X27071Y23590D01*
X27070Y23603D01*
X27069Y23618D01*
Y23852D01*
Y23853D01*
Y23858D01*
Y23866D01*
X27070Y23875D01*
Y23886D01*
X27072Y23901D01*
X27073Y23917D01*
X27075Y23933D01*
X27078Y23952D01*
X27081Y23973D01*
X27090Y24016D01*
X27102Y24060D01*
X27110Y24082D01*
X27119Y24105D01*
Y24106D01*
X27121Y24109D01*
X27123Y24113D01*
X27125Y24120D01*
X27129Y24127D01*
X27133Y24135D01*
X27139Y24145D01*
X27145Y24155D01*
X27159Y24179D01*
X27177Y24204D01*
X27198Y24230D01*
X27222Y24256D01*
X27223Y24257D01*
X27225Y24259D01*
X27229Y24262D01*
X27234Y24268D01*
X27241Y24273D01*
X27248Y24280D01*
X27257Y24287D01*
X27267Y24296D01*
X27289Y24312D01*
X27317Y24330D01*
X27346Y24348D01*
X27378Y24363D01*
X27398Y24369D01*
X27401D01*
X27404Y24368D01*
D02*
G37*
G36*
X26841D02*
X26845Y24367D01*
X26856Y24362D01*
X26861Y24359D01*
X26867Y24354D01*
X26868Y24353D01*
X26869Y24352D01*
X26871Y24349D01*
X26874Y24345D01*
X26878Y24334D01*
X26879Y24328D01*
X26880Y24322D01*
Y24321D01*
Y24319D01*
X26879Y24316D01*
Y24311D01*
X26875Y24301D01*
X26873Y24296D01*
X26869Y24289D01*
Y24288D01*
X26867Y24287D01*
X26864Y24285D01*
X26860Y24282D01*
X26855Y24279D01*
X26849Y24277D01*
X26842Y24276D01*
X26833Y24275D01*
X26593D01*
X26586Y24274D01*
X26576Y24272D01*
X26566Y24269D01*
X26554Y24263D01*
X26544Y24257D01*
X26532Y24248D01*
X26531Y24247D01*
X26530Y24246D01*
X26528Y24243D01*
X26525Y24238D01*
X26519Y24229D01*
X26513Y24217D01*
Y24216D01*
X26512Y24213D01*
X26511Y24210D01*
X26509Y24206D01*
X26507Y24195D01*
X26506Y24181D01*
Y23619D01*
Y23617D01*
Y23613D01*
X26507Y23605D01*
X26509Y23596D01*
X26513Y23584D01*
X26518Y23574D01*
X26524Y23563D01*
X26532Y23551D01*
X26533D01*
X26534Y23549D01*
X26538Y23547D01*
X26542Y23545D01*
X26551Y23538D01*
X26563Y23531D01*
X26564D01*
X26566Y23530D01*
X26570Y23529D01*
X26575Y23528D01*
X26587Y23526D01*
X26599Y23525D01*
X26836D01*
X26841Y23524D01*
X26845Y23523D01*
X26856Y23519D01*
X26861Y23516D01*
X26867Y23511D01*
X26868Y23509D01*
X26869Y23508D01*
X26871Y23505D01*
X26874Y23501D01*
X26878Y23491D01*
X26879Y23484D01*
X26880Y23478D01*
Y23477D01*
Y23475D01*
X26879Y23472D01*
Y23468D01*
X26875Y23457D01*
X26873Y23452D01*
X26869Y23446D01*
Y23445D01*
X26867Y23444D01*
X26864Y23442D01*
X26860Y23439D01*
X26855Y23436D01*
X26849Y23433D01*
X26842Y23432D01*
X26833Y23431D01*
X26592D01*
X26587Y23432D01*
X26579Y23433D01*
X26572Y23434D01*
X26554Y23439D01*
X26533Y23445D01*
X26512Y23454D01*
X26500Y23461D01*
X26490Y23468D01*
X26478Y23476D01*
X26468Y23486D01*
X26467Y23487D01*
X26466Y23488D01*
X26463Y23491D01*
X26460Y23495D01*
X26455Y23500D01*
X26450Y23506D01*
X26441Y23523D01*
X26430Y23542D01*
X26421Y23565D01*
X26415Y23591D01*
X26414Y23604D01*
X26413Y23619D01*
Y24181D01*
Y24182D01*
Y24184D01*
Y24188D01*
X26414Y24195D01*
X26415Y24201D01*
X26416Y24209D01*
X26420Y24227D01*
X26426Y24248D01*
X26436Y24270D01*
X26442Y24281D01*
X26449Y24293D01*
X26457Y24303D01*
X26467Y24313D01*
X26468Y24314D01*
X26469Y24316D01*
X26472Y24319D01*
X26476Y24322D01*
X26481Y24326D01*
X26488Y24331D01*
X26503Y24342D01*
X26523Y24351D01*
X26546Y24360D01*
X26571Y24367D01*
X26584Y24368D01*
X26599Y24369D01*
X26836D01*
X26841Y24368D01*
D02*
G37*
G36*
X19347Y24243D02*
X19352Y24242D01*
X19362Y24237D01*
X19368Y24234D01*
X19373Y24229D01*
X19374Y24228D01*
X19375Y24227D01*
X19377Y24224D01*
X19380Y24220D01*
X19385Y24209D01*
X19386Y24203D01*
X19387Y24197D01*
Y24196D01*
Y24194D01*
X19386Y24191D01*
Y24186D01*
X19382Y24176D01*
X19379Y24171D01*
X19375Y24164D01*
Y24163D01*
X19373Y24162D01*
X19370Y24160D01*
X19367Y24157D01*
X19361Y24154D01*
X19355Y24152D01*
X19349Y24151D01*
X19340Y24150D01*
X19012D01*
Y23869D01*
X19162D01*
X19169Y23868D01*
X19177Y23867D01*
X19186Y23866D01*
X19198Y23864D01*
X19209Y23860D01*
X19235Y23852D01*
X19249Y23847D01*
X19262Y23840D01*
X19277Y23832D01*
X19291Y23823D01*
X19304Y23812D01*
X19318Y23800D01*
X19319Y23799D01*
X19321Y23797D01*
X19324Y23793D01*
X19329Y23787D01*
X19334Y23781D01*
X19339Y23773D01*
X19346Y23764D01*
X19353Y23753D01*
X19359Y23742D01*
X19365Y23729D01*
X19377Y23701D01*
X19381Y23685D01*
X19384Y23670D01*
X19386Y23652D01*
X19387Y23634D01*
Y23541D01*
Y23540D01*
Y23537D01*
Y23531D01*
X19386Y23525D01*
X19385Y23517D01*
X19383Y23506D01*
X19381Y23496D01*
X19379Y23484D01*
X19371Y23458D01*
X19364Y23445D01*
X19358Y23430D01*
X19350Y23417D01*
X19340Y23402D01*
X19330Y23389D01*
X19318Y23375D01*
X19317Y23374D01*
X19314Y23372D01*
X19310Y23369D01*
X19305Y23365D01*
X19299Y23359D01*
X19291Y23353D01*
X19281Y23347D01*
X19272Y23341D01*
X19260Y23334D01*
X19247Y23328D01*
X19220Y23317D01*
X19204Y23313D01*
X19187Y23309D01*
X19171Y23307D01*
X19153Y23306D01*
X18962D01*
X18958Y23307D01*
X18953Y23308D01*
X18942Y23312D01*
X18935Y23315D01*
X18930Y23319D01*
Y23320D01*
X18928Y23322D01*
X18927Y23324D01*
X18925Y23328D01*
X18921Y23340D01*
X18920Y23346D01*
X18919Y23353D01*
Y23354D01*
Y23356D01*
X18920Y23359D01*
Y23364D01*
X18924Y23373D01*
X18926Y23379D01*
X18930Y23384D01*
X18931Y23386D01*
X18932Y23387D01*
X18935Y23390D01*
X18940Y23393D01*
X18945Y23395D01*
X18950Y23398D01*
X18957Y23399D01*
X18966Y23400D01*
X19158D01*
X19162Y23401D01*
X19174Y23402D01*
X19187Y23405D01*
X19202Y23409D01*
X19219Y23417D01*
X19235Y23426D01*
X19252Y23440D01*
X19254Y23442D01*
X19258Y23447D01*
X19266Y23455D01*
X19273Y23468D01*
X19280Y23482D01*
X19287Y23499D01*
X19292Y23519D01*
X19294Y23541D01*
Y23634D01*
Y23635D01*
Y23636D01*
Y23640D01*
X19293Y23644D01*
X19292Y23655D01*
X19288Y23669D01*
X19284Y23683D01*
X19277Y23700D01*
X19267Y23717D01*
X19253Y23733D01*
X19251Y23735D01*
X19246Y23740D01*
X19237Y23747D01*
X19225Y23754D01*
X19210Y23761D01*
X19194Y23769D01*
X19175Y23773D01*
X19153Y23775D01*
X18964D01*
X18958Y23776D01*
X18951Y23777D01*
X18943Y23781D01*
X18933Y23786D01*
X18926Y23795D01*
X18921Y23806D01*
X18920Y23814D01*
X18919Y23822D01*
Y24197D01*
Y24198D01*
Y24199D01*
X18920Y24204D01*
X18921Y24211D01*
X18925Y24221D01*
X18930Y24229D01*
X18939Y24236D01*
X18950Y24242D01*
X18957Y24244D01*
X19344D01*
X19347Y24243D01*
D02*
G37*
G36*
X18691D02*
X18695Y24242D01*
X18706Y24237D01*
X18711Y24234D01*
X18717Y24229D01*
X18718Y24228D01*
X18719Y24227D01*
X18721Y24224D01*
X18724Y24220D01*
X18728Y24209D01*
X18729Y24203D01*
X18730Y24197D01*
Y24196D01*
Y24194D01*
X18729Y24191D01*
Y24186D01*
X18725Y24176D01*
X18723Y24171D01*
X18719Y24164D01*
Y24163D01*
X18717Y24162D01*
X18714Y24160D01*
X18710Y24157D01*
X18705Y24154D01*
X18699Y24152D01*
X18692Y24151D01*
X18683Y24150D01*
X18443D01*
X18436Y24149D01*
X18426Y24147D01*
X18416Y24144D01*
X18404Y24138D01*
X18394Y24132D01*
X18382Y24123D01*
X18381Y24122D01*
X18380Y24121D01*
X18378Y24118D01*
X18375Y24113D01*
X18369Y24104D01*
X18363Y24092D01*
Y24091D01*
X18362Y24088D01*
X18361Y24085D01*
X18359Y24081D01*
X18357Y24070D01*
X18356Y24056D01*
Y23494D01*
Y23492D01*
Y23488D01*
X18357Y23480D01*
X18359Y23471D01*
X18363Y23459D01*
X18368Y23449D01*
X18374Y23438D01*
X18382Y23426D01*
X18383D01*
X18384Y23424D01*
X18388Y23422D01*
X18392Y23420D01*
X18401Y23413D01*
X18413Y23406D01*
X18414D01*
X18416Y23405D01*
X18420Y23404D01*
X18425Y23403D01*
X18437Y23401D01*
X18449Y23400D01*
X18686D01*
X18691Y23399D01*
X18695Y23398D01*
X18706Y23394D01*
X18711Y23391D01*
X18717Y23386D01*
X18718Y23384D01*
X18719Y23383D01*
X18721Y23380D01*
X18724Y23376D01*
X18728Y23366D01*
X18729Y23359D01*
X18730Y23353D01*
Y23352D01*
Y23350D01*
X18729Y23347D01*
Y23343D01*
X18725Y23332D01*
X18723Y23327D01*
X18719Y23321D01*
Y23320D01*
X18717Y23319D01*
X18714Y23317D01*
X18710Y23314D01*
X18705Y23311D01*
X18699Y23308D01*
X18692Y23307D01*
X18683Y23306D01*
X18442D01*
X18437Y23307D01*
X18429Y23308D01*
X18422Y23309D01*
X18404Y23314D01*
X18383Y23320D01*
X18362Y23329D01*
X18350Y23336D01*
X18340Y23343D01*
X18328Y23351D01*
X18318Y23361D01*
X18317Y23362D01*
X18316Y23363D01*
X18313Y23366D01*
X18310Y23370D01*
X18305Y23375D01*
X18300Y23381D01*
X18291Y23398D01*
X18280Y23417D01*
X18271Y23440D01*
X18265Y23466D01*
X18264Y23479D01*
X18263Y23494D01*
Y24056D01*
Y24057D01*
Y24059D01*
Y24063D01*
X18264Y24070D01*
X18265Y24076D01*
X18266Y24084D01*
X18270Y24102D01*
X18276Y24123D01*
X18286Y24145D01*
X18292Y24156D01*
X18299Y24168D01*
X18307Y24178D01*
X18317Y24188D01*
X18318Y24189D01*
X18319Y24191D01*
X18322Y24194D01*
X18326Y24197D01*
X18331Y24201D01*
X18338Y24206D01*
X18353Y24217D01*
X18373Y24226D01*
X18396Y24235D01*
X18421Y24242D01*
X18434Y24243D01*
X18449Y24244D01*
X18686D01*
X18691Y24243D01*
D02*
G37*
G36*
X21411Y10868D02*
X21416Y10867D01*
X21426Y10863D01*
X21433Y10859D01*
X21438Y10855D01*
X21439Y10854D01*
X21440Y10853D01*
X21442Y10850D01*
X21445Y10846D01*
X21450Y10835D01*
X21451Y10829D01*
X21453Y10822D01*
X21450Y10808D01*
X21281Y10212D01*
X21500D01*
Y10352D01*
Y10353D01*
Y10355D01*
X21501Y10359D01*
X21503Y10364D01*
X21507Y10375D01*
X21510Y10380D01*
X21514Y10386D01*
X21515Y10387D01*
X21517Y10389D01*
X21519Y10391D01*
X21523Y10393D01*
X21534Y10397D01*
X21540Y10399D01*
X21550D01*
X21554Y10398D01*
X21558D01*
X21568Y10394D01*
X21574Y10391D01*
X21580Y10386D01*
X21581D01*
X21582Y10384D01*
X21584Y10381D01*
X21587Y10378D01*
X21590Y10373D01*
X21592Y10367D01*
X21593Y10360D01*
X21594Y10352D01*
Y10212D01*
X21690D01*
X21694Y10210D01*
X21698Y10209D01*
X21710Y10205D01*
X21715Y10202D01*
X21720Y10197D01*
X21721Y10196D01*
X21722Y10195D01*
X21724Y10192D01*
X21727Y10188D01*
X21732Y10177D01*
X21733Y10171D01*
X21734Y10165D01*
Y10164D01*
Y10162D01*
X21733Y10158D01*
Y10154D01*
X21728Y10144D01*
X21726Y10139D01*
X21722Y10132D01*
Y10131D01*
X21720Y10130D01*
X21717Y10128D01*
X21714Y10125D01*
X21709Y10122D01*
X21702Y10120D01*
X21695Y10119D01*
X21687Y10118D01*
X21594D01*
Y9977D01*
Y9976D01*
Y9974D01*
X21593Y9970D01*
X21592Y9965D01*
X21589Y9953D01*
X21585Y9947D01*
X21581Y9942D01*
X21580D01*
X21579Y9940D01*
X21575Y9939D01*
X21571Y9937D01*
X21561Y9933D01*
X21547Y9931D01*
X21544D01*
X21541Y9932D01*
X21536D01*
X21525Y9937D01*
X21519Y9939D01*
X21514Y9943D01*
X21513Y9944D01*
X21512Y9945D01*
X21510Y9948D01*
X21508Y9951D01*
X21505Y9956D01*
X21503Y9963D01*
X21501Y9969D01*
X21500Y9977D01*
Y10118D01*
X21216D01*
X21211Y10119D01*
X21203Y10120D01*
X21194Y10123D01*
X21186Y10127D01*
X21178Y10133D01*
X21172Y10143D01*
X21171Y10149D01*
X21170Y10155D01*
X21171Y10167D01*
X21173Y10177D01*
X21361Y10834D01*
Y10835D01*
X21362Y10836D01*
X21365Y10843D01*
X21369Y10851D01*
X21378Y10859D01*
X21386Y10864D01*
X21387Y10866D01*
X21391Y10867D01*
X21397Y10868D01*
X21404Y10869D01*
X21407D01*
X21411Y10868D01*
D02*
G37*
G36*
X20944D02*
X20948Y10867D01*
X20960Y10862D01*
X20965Y10859D01*
X20970Y10854D01*
X20971Y10853D01*
X20972Y10852D01*
X20975Y10849D01*
X20978Y10845D01*
X20982Y10834D01*
X20983Y10828D01*
X20984Y10822D01*
Y10821D01*
Y10819D01*
X20983Y10816D01*
Y10811D01*
X20979Y10801D01*
X20977Y10796D01*
X20972Y10789D01*
Y10788D01*
X20970Y10787D01*
X20967Y10785D01*
X20964Y10782D01*
X20959Y10779D01*
X20953Y10777D01*
X20945Y10776D01*
X20937Y10775D01*
X20696D01*
X20689Y10774D01*
X20680Y10772D01*
X20669Y10769D01*
X20658Y10763D01*
X20648Y10757D01*
X20636Y10748D01*
X20635Y10747D01*
X20634Y10746D01*
X20632Y10743D01*
X20629Y10738D01*
X20623Y10729D01*
X20616Y10717D01*
Y10716D01*
X20615Y10713D01*
X20614Y10710D01*
X20613Y10706D01*
X20611Y10695D01*
X20610Y10681D01*
Y10119D01*
Y10117D01*
Y10113D01*
X20611Y10105D01*
X20613Y10096D01*
X20616Y10084D01*
X20621Y10074D01*
X20628Y10063D01*
X20636Y10051D01*
X20637D01*
X20638Y10049D01*
X20641Y10047D01*
X20645Y10045D01*
X20655Y10038D01*
X20666Y10031D01*
X20667D01*
X20669Y10030D01*
X20674Y10029D01*
X20679Y10028D01*
X20690Y10026D01*
X20703Y10025D01*
X20940D01*
X20944Y10024D01*
X20948Y10023D01*
X20960Y10019D01*
X20965Y10016D01*
X20970Y10011D01*
X20971Y10009D01*
X20972Y10008D01*
X20975Y10005D01*
X20978Y10001D01*
X20982Y9991D01*
X20983Y9984D01*
X20984Y9978D01*
Y9977D01*
Y9975D01*
X20983Y9972D01*
Y9968D01*
X20979Y9957D01*
X20977Y9952D01*
X20972Y9946D01*
Y9945D01*
X20970Y9944D01*
X20967Y9942D01*
X20964Y9939D01*
X20959Y9936D01*
X20953Y9933D01*
X20945Y9932D01*
X20937Y9931D01*
X20695D01*
X20690Y9932D01*
X20683Y9933D01*
X20676Y9934D01*
X20658Y9939D01*
X20637Y9945D01*
X20615Y9954D01*
X20604Y9961D01*
X20593Y9968D01*
X20582Y9976D01*
X20572Y9986D01*
X20570Y9987D01*
X20569Y9988D01*
X20566Y9991D01*
X20563Y9995D01*
X20559Y10000D01*
X20554Y10006D01*
X20544Y10023D01*
X20534Y10042D01*
X20525Y10065D01*
X20518Y10091D01*
X20517Y10104D01*
X20516Y10119D01*
Y10681D01*
Y10682D01*
Y10684D01*
Y10688D01*
X20517Y10695D01*
X20518Y10701D01*
X20519Y10709D01*
X20524Y10727D01*
X20530Y10748D01*
X20539Y10770D01*
X20545Y10781D01*
X20553Y10793D01*
X20561Y10803D01*
X20570Y10813D01*
X20572Y10814D01*
X20573Y10816D01*
X20576Y10819D01*
X20580Y10822D01*
X20585Y10826D01*
X20591Y10831D01*
X20607Y10842D01*
X20627Y10851D01*
X20650Y10860D01*
X20675Y10867D01*
X20688Y10868D01*
X20703Y10869D01*
X20940D01*
X20944Y10868D01*
D02*
G37*
G36*
X32993Y15466D02*
X33003Y15464D01*
X33014Y15462D01*
X33025Y15460D01*
X33038Y15457D01*
X33053Y15454D01*
X33066Y15449D01*
X33081Y15444D01*
X33095Y15436D01*
X33110Y15428D01*
X33124Y15419D01*
X33138Y15407D01*
X33150Y15395D01*
X33151Y15394D01*
X33152Y15392D01*
X33156Y15388D01*
X33160Y15383D01*
X33164Y15376D01*
X33169Y15369D01*
X33174Y15359D01*
X33181Y15350D01*
X33186Y15338D01*
X33191Y15326D01*
X33200Y15299D01*
X33205Y15284D01*
X33208Y15268D01*
X33209Y15252D01*
X33210Y15234D01*
Y15233D01*
Y15232D01*
Y15229D01*
Y15225D01*
X33209Y15213D01*
X33207Y15200D01*
X33203Y15183D01*
X33199Y15166D01*
X33193Y15148D01*
X33186Y15129D01*
X33185Y15127D01*
X33182Y15121D01*
X33176Y15112D01*
X33169Y15101D01*
X33160Y15087D01*
X33148Y15074D01*
X33134Y15059D01*
X33118Y15045D01*
X33120Y15044D01*
X33124Y15040D01*
X33132Y15032D01*
X33141Y15023D01*
X33150Y15011D01*
X33162Y14998D01*
X33172Y14982D01*
X33183Y14965D01*
Y14964D01*
X33184Y14963D01*
X33187Y14956D01*
X33191Y14946D01*
X33196Y14933D01*
X33200Y14918D01*
X33206Y14900D01*
X33209Y14880D01*
X33210Y14859D01*
Y14766D01*
Y14765D01*
Y14762D01*
Y14756D01*
X33209Y14750D01*
X33208Y14742D01*
X33206Y14731D01*
X33203Y14721D01*
X33201Y14709D01*
X33193Y14683D01*
X33187Y14670D01*
X33181Y14655D01*
X33172Y14642D01*
X33163Y14627D01*
X33152Y14614D01*
X33140Y14600D01*
X33139Y14599D01*
X33137Y14597D01*
X33133Y14594D01*
X33127Y14590D01*
X33121Y14584D01*
X33113Y14578D01*
X33104Y14572D01*
X33094Y14566D01*
X33083Y14559D01*
X33069Y14553D01*
X33042Y14542D01*
X33026Y14538D01*
X33010Y14534D01*
X32993Y14532D01*
X32975Y14531D01*
X32785D01*
X32781Y14532D01*
X32775Y14533D01*
X32764Y14537D01*
X32758Y14540D01*
X32753Y14544D01*
Y14545D01*
X32750Y14547D01*
X32749Y14550D01*
X32747Y14554D01*
X32743Y14565D01*
X32742Y14571D01*
X32741Y14578D01*
Y14579D01*
Y14581D01*
X32742Y14584D01*
Y14588D01*
X32746Y14598D01*
X32748Y14603D01*
X32753Y14609D01*
X32754Y14611D01*
X32755Y14612D01*
X32758Y14615D01*
X32761Y14618D01*
X32766Y14620D01*
X32772Y14623D01*
X32780Y14624D01*
X32788Y14625D01*
X32981D01*
X32985Y14626D01*
X32996Y14627D01*
X33010Y14630D01*
X33024Y14636D01*
X33041Y14642D01*
X33058Y14652D01*
X33074Y14666D01*
X33076Y14668D01*
X33081Y14673D01*
X33088Y14682D01*
X33095Y14694D01*
X33102Y14708D01*
X33110Y14725D01*
X33114Y14745D01*
X33116Y14766D01*
Y14859D01*
Y14860D01*
Y14861D01*
Y14865D01*
X33115Y14869D01*
X33114Y14880D01*
X33111Y14894D01*
X33107Y14908D01*
X33099Y14925D01*
X33089Y14942D01*
X33075Y14958D01*
X33073Y14960D01*
X33068Y14965D01*
X33060Y14972D01*
X33047Y14979D01*
X33033Y14986D01*
X33016Y14994D01*
X32996Y14998D01*
X32974Y15000D01*
X32878D01*
X32873Y15001D01*
X32868Y15002D01*
X32858Y15005D01*
X32852Y15008D01*
X32846Y15012D01*
Y15014D01*
X32844Y15016D01*
X32842Y15019D01*
X32840Y15023D01*
X32836Y15033D01*
X32835Y15040D01*
X32834Y15047D01*
Y15048D01*
Y15050D01*
X32835Y15053D01*
Y15056D01*
X32839Y15067D01*
X32841Y15072D01*
X32845Y15078D01*
X32846Y15079D01*
X32847Y15080D01*
X32850Y15083D01*
X32855Y15086D01*
X32860Y15089D01*
X32865Y15092D01*
X32872Y15093D01*
X32881Y15094D01*
X32981D01*
X32985Y15095D01*
X32996Y15096D01*
X33011Y15099D01*
X33028Y15104D01*
X33044Y15112D01*
X33062Y15123D01*
X33077Y15137D01*
X33079Y15140D01*
X33083Y15145D01*
X33088Y15153D01*
X33095Y15165D01*
X33101Y15179D01*
X33107Y15196D01*
X33111Y15215D01*
X33112Y15235D01*
Y15236D01*
Y15237D01*
Y15241D01*
Y15245D01*
X33110Y15255D01*
X33108Y15269D01*
X33104Y15283D01*
X33098Y15300D01*
X33090Y15316D01*
X33079Y15330D01*
X33076Y15332D01*
X33071Y15336D01*
X33063Y15344D01*
X33051Y15352D01*
X33037Y15359D01*
X33019Y15367D01*
X32998Y15371D01*
X32974Y15373D01*
X32784D01*
X32780Y15374D01*
X32774Y15375D01*
X32764Y15378D01*
X32758Y15381D01*
X32753Y15385D01*
Y15386D01*
X32750Y15388D01*
X32749Y15391D01*
X32747Y15395D01*
X32743Y15406D01*
X32742Y15412D01*
X32741Y15420D01*
Y15421D01*
Y15423D01*
X32742Y15426D01*
Y15430D01*
X32746Y15439D01*
X32748Y15446D01*
X32753Y15451D01*
X32754Y15452D01*
X32755Y15453D01*
X32758Y15456D01*
X32762Y15459D01*
X32767Y15461D01*
X32772Y15464D01*
X32780Y15466D01*
X32788Y15467D01*
X32986D01*
X32993Y15466D01*
D02*
G37*
G36*
X32518Y15468D02*
X32522Y15467D01*
X32534Y15462D01*
X32539Y15459D01*
X32544Y15454D01*
X32545Y15453D01*
X32546Y15452D01*
X32548Y15449D01*
X32552Y15445D01*
X32556Y15434D01*
X32557Y15428D01*
X32558Y15422D01*
Y15421D01*
Y15419D01*
X32557Y15416D01*
Y15411D01*
X32553Y15401D01*
X32551Y15396D01*
X32546Y15389D01*
Y15388D01*
X32544Y15387D01*
X32541Y15385D01*
X32538Y15382D01*
X32533Y15379D01*
X32527Y15377D01*
X32519Y15376D01*
X32511Y15375D01*
X32270D01*
X32263Y15374D01*
X32254Y15372D01*
X32243Y15369D01*
X32232Y15363D01*
X32221Y15357D01*
X32210Y15348D01*
X32209Y15347D01*
X32208Y15346D01*
X32206Y15343D01*
X32203Y15338D01*
X32196Y15329D01*
X32190Y15317D01*
Y15316D01*
X32189Y15313D01*
X32188Y15310D01*
X32187Y15306D01*
X32185Y15295D01*
X32184Y15281D01*
Y14719D01*
Y14717D01*
Y14713D01*
X32185Y14705D01*
X32187Y14696D01*
X32190Y14684D01*
X32195Y14674D01*
X32202Y14663D01*
X32210Y14651D01*
X32211D01*
X32212Y14649D01*
X32215Y14647D01*
X32219Y14645D01*
X32229Y14638D01*
X32240Y14631D01*
X32241D01*
X32243Y14630D01*
X32248Y14629D01*
X32253Y14628D01*
X32264Y14626D01*
X32277Y14625D01*
X32514D01*
X32518Y14624D01*
X32522Y14623D01*
X32534Y14619D01*
X32539Y14616D01*
X32544Y14611D01*
X32545Y14609D01*
X32546Y14608D01*
X32548Y14605D01*
X32552Y14601D01*
X32556Y14591D01*
X32557Y14584D01*
X32558Y14578D01*
Y14577D01*
Y14575D01*
X32557Y14572D01*
Y14568D01*
X32553Y14557D01*
X32551Y14552D01*
X32546Y14546D01*
Y14545D01*
X32544Y14544D01*
X32541Y14542D01*
X32538Y14539D01*
X32533Y14536D01*
X32527Y14533D01*
X32519Y14532D01*
X32511Y14531D01*
X32269D01*
X32264Y14532D01*
X32257Y14533D01*
X32250Y14534D01*
X32232Y14539D01*
X32211Y14545D01*
X32189Y14554D01*
X32178Y14561D01*
X32167Y14568D01*
X32156Y14576D01*
X32145Y14586D01*
X32144Y14587D01*
X32143Y14588D01*
X32140Y14591D01*
X32137Y14595D01*
X32133Y14600D01*
X32128Y14606D01*
X32118Y14623D01*
X32108Y14642D01*
X32099Y14665D01*
X32092Y14691D01*
X32091Y14704D01*
X32090Y14719D01*
Y15281D01*
Y15282D01*
Y15284D01*
Y15288D01*
X32091Y15295D01*
X32092Y15301D01*
X32093Y15309D01*
X32098Y15327D01*
X32104Y15348D01*
X32113Y15370D01*
X32119Y15381D01*
X32127Y15393D01*
X32135Y15403D01*
X32144Y15413D01*
X32145Y15414D01*
X32146Y15416D01*
X32150Y15419D01*
X32154Y15422D01*
X32159Y15426D01*
X32165Y15431D01*
X32181Y15442D01*
X32201Y15451D01*
X32224Y15460D01*
X32249Y15467D01*
X32262Y15468D01*
X32277Y15469D01*
X32514D01*
X32518Y15468D01*
D02*
G37*
G36*
X19139Y27993D02*
X19148Y27992D01*
X19159Y27989D01*
X19171Y27987D01*
X19185Y27984D01*
X19199Y27981D01*
X19214Y27976D01*
X19230Y27970D01*
X19245Y27963D01*
X19261Y27954D01*
X19276Y27945D01*
X19292Y27933D01*
X19307Y27921D01*
X19308Y27920D01*
X19310Y27918D01*
X19314Y27913D01*
X19318Y27908D01*
X19324Y27901D01*
X19331Y27893D01*
X19338Y27883D01*
X19345Y27872D01*
X19351Y27859D01*
X19359Y27847D01*
X19371Y27817D01*
X19375Y27801D01*
X19380Y27784D01*
X19382Y27767D01*
X19383Y27748D01*
Y27747D01*
Y27746D01*
Y27743D01*
Y27737D01*
X19382Y27726D01*
X19378Y27711D01*
X19375Y27694D01*
X19370Y27675D01*
X19363Y27654D01*
X19352Y27632D01*
X19049Y27150D01*
X19343D01*
X19347Y27149D01*
X19351Y27148D01*
X19363Y27144D01*
X19368Y27141D01*
X19373Y27136D01*
X19374Y27134D01*
X19375Y27133D01*
X19377Y27130D01*
X19381Y27126D01*
X19385Y27116D01*
X19386Y27109D01*
X19387Y27103D01*
Y27102D01*
Y27100D01*
X19386Y27097D01*
Y27093D01*
X19382Y27082D01*
X19380Y27077D01*
X19375Y27071D01*
Y27070D01*
X19373Y27069D01*
X19370Y27067D01*
X19367Y27064D01*
X19362Y27061D01*
X19356Y27058D01*
X19348Y27057D01*
X19340Y27056D01*
X18963D01*
X18958Y27057D01*
X18949Y27058D01*
X18940Y27062D01*
X18931Y27066D01*
X18923Y27072D01*
X18917Y27081D01*
X18916Y27088D01*
X18915Y27094D01*
Y27095D01*
Y27097D01*
X18916Y27099D01*
Y27103D01*
X18920Y27115D01*
X18922Y27121D01*
X18927Y27128D01*
X19271Y27680D01*
X19272Y27682D01*
X19274Y27686D01*
X19276Y27694D01*
X19281Y27703D01*
X19284Y27713D01*
X19286Y27725D01*
X19288Y27737D01*
X19289Y27750D01*
Y27751D01*
Y27753D01*
Y27756D01*
X19288Y27760D01*
X19287Y27772D01*
X19283Y27785D01*
X19277Y27802D01*
X19269Y27820D01*
X19258Y27837D01*
X19250Y27846D01*
X19242Y27854D01*
X19241Y27855D01*
X19238Y27857D01*
X19234Y27861D01*
X19228Y27867D01*
X19219Y27872D01*
X19211Y27877D01*
X19190Y27887D01*
X19189Y27888D01*
X19185Y27889D01*
X19179Y27892D01*
X19171Y27894D01*
X19162Y27896D01*
X19150Y27898D01*
X19139Y27900D01*
X19120D01*
X19114Y27899D01*
X19105Y27898D01*
X19094Y27896D01*
X19083Y27892D01*
X19071Y27887D01*
X19059Y27881D01*
X19058Y27880D01*
X19054Y27877D01*
X19047Y27873D01*
X19040Y27867D01*
X19032Y27859D01*
X19022Y27850D01*
X19013Y27838D01*
X19005Y27827D01*
X19004Y27826D01*
X19000Y27822D01*
X18995Y27817D01*
X18987Y27810D01*
X18966Y27806D01*
X18963D01*
X18960Y27807D01*
X18956Y27808D01*
X18944Y27811D01*
X18939Y27815D01*
X18933Y27819D01*
X18932Y27820D01*
X18931Y27821D01*
X18929Y27824D01*
X18925Y27828D01*
X18920Y27838D01*
X18919Y27845D01*
X18918Y27851D01*
Y27853D01*
X18919Y27858D01*
X18921Y27867D01*
X18927Y27878D01*
Y27879D01*
X18928Y27880D01*
X18933Y27886D01*
X18939Y27896D01*
X18949Y27907D01*
X18961Y27920D01*
X18977Y27934D01*
X18993Y27948D01*
X19013Y27960D01*
X19014Y27961D01*
X19018Y27963D01*
X19023Y27966D01*
X19030Y27970D01*
X19038Y27973D01*
X19047Y27977D01*
X19067Y27984D01*
X19068D01*
X19071Y27985D01*
X19078Y27987D01*
X19084Y27989D01*
X19092Y27990D01*
X19101Y27993D01*
X19120Y27994D01*
X19131D01*
X19139Y27993D01*
D02*
G37*
G36*
X18691D02*
X18695Y27992D01*
X18707Y27987D01*
X18712Y27984D01*
X18717Y27979D01*
X18718Y27978D01*
X18719Y27977D01*
X18721Y27974D01*
X18725Y27970D01*
X18729Y27959D01*
X18730Y27953D01*
X18731Y27947D01*
Y27946D01*
Y27944D01*
X18730Y27941D01*
Y27936D01*
X18726Y27926D01*
X18723Y27921D01*
X18719Y27914D01*
Y27913D01*
X18717Y27912D01*
X18714Y27910D01*
X18711Y27907D01*
X18706Y27904D01*
X18700Y27902D01*
X18692Y27901D01*
X18684Y27900D01*
X18443D01*
X18436Y27899D01*
X18427Y27897D01*
X18416Y27894D01*
X18405Y27888D01*
X18394Y27882D01*
X18383Y27873D01*
X18382Y27872D01*
X18381Y27871D01*
X18379Y27868D01*
X18376Y27863D01*
X18369Y27854D01*
X18363Y27842D01*
Y27841D01*
X18362Y27838D01*
X18361Y27835D01*
X18360Y27831D01*
X18358Y27820D01*
X18357Y27806D01*
Y27244D01*
Y27242D01*
Y27238D01*
X18358Y27230D01*
X18360Y27221D01*
X18363Y27209D01*
X18368Y27199D01*
X18375Y27188D01*
X18383Y27176D01*
X18384D01*
X18385Y27174D01*
X18388Y27172D01*
X18392Y27170D01*
X18402Y27163D01*
X18413Y27156D01*
X18414D01*
X18416Y27155D01*
X18420Y27154D01*
X18426Y27153D01*
X18437Y27151D01*
X18450Y27150D01*
X18687D01*
X18691Y27149D01*
X18695Y27148D01*
X18707Y27144D01*
X18712Y27141D01*
X18717Y27136D01*
X18718Y27134D01*
X18719Y27133D01*
X18721Y27130D01*
X18725Y27126D01*
X18729Y27116D01*
X18730Y27109D01*
X18731Y27103D01*
Y27102D01*
Y27100D01*
X18730Y27097D01*
Y27093D01*
X18726Y27082D01*
X18723Y27077D01*
X18719Y27071D01*
Y27070D01*
X18717Y27069D01*
X18714Y27067D01*
X18711Y27064D01*
X18706Y27061D01*
X18700Y27058D01*
X18692Y27057D01*
X18684Y27056D01*
X18442D01*
X18437Y27057D01*
X18430Y27058D01*
X18423Y27059D01*
X18405Y27064D01*
X18384Y27070D01*
X18362Y27079D01*
X18351Y27086D01*
X18340Y27093D01*
X18329Y27101D01*
X18318Y27111D01*
X18317Y27112D01*
X18316Y27113D01*
X18313Y27116D01*
X18310Y27120D01*
X18306Y27125D01*
X18301Y27131D01*
X18291Y27148D01*
X18281Y27167D01*
X18271Y27190D01*
X18265Y27216D01*
X18264Y27229D01*
X18263Y27244D01*
Y27806D01*
Y27807D01*
Y27809D01*
Y27813D01*
X18264Y27820D01*
X18265Y27826D01*
X18266Y27834D01*
X18270Y27852D01*
X18277Y27873D01*
X18286Y27895D01*
X18292Y27906D01*
X18300Y27918D01*
X18308Y27928D01*
X18317Y27938D01*
X18318Y27939D01*
X18319Y27941D01*
X18323Y27944D01*
X18327Y27947D01*
X18332Y27951D01*
X18338Y27956D01*
X18354Y27967D01*
X18374Y27976D01*
X18396Y27985D01*
X18421Y27992D01*
X18435Y27993D01*
X18450Y27994D01*
X18687D01*
X18691Y27993D01*
D02*
G37*
%LPC*%
G36*
X14291Y20500D02*
X14010D01*
Y20125D01*
X14297D01*
X14305Y20126D01*
X14314Y20128D01*
X14325Y20131D01*
X14335Y20136D01*
X14346Y20143D01*
X14357Y20151D01*
X14358Y20152D01*
X14361Y20156D01*
X14366Y20161D01*
X14371Y20170D01*
X14376Y20179D01*
X14381Y20191D01*
X14384Y20204D01*
X14385Y20219D01*
Y20406D01*
Y20408D01*
Y20412D01*
X14384Y20420D01*
X14382Y20429D01*
X14379Y20440D01*
X14373Y20450D01*
X14367Y20461D01*
X14358Y20472D01*
X14357Y20473D01*
X14354Y20476D01*
X14347Y20481D01*
X14340Y20486D01*
X14330Y20491D01*
X14318Y20496D01*
X14306Y20499D01*
X14291Y20500D01*
D02*
G37*
G36*
X33012Y6647D02*
X32949D01*
X32939Y6645D01*
X32929Y6643D01*
X32915Y6638D01*
X32903Y6633D01*
X32889Y6625D01*
X32876Y6613D01*
X32875Y6612D01*
X32871Y6607D01*
X32866Y6601D01*
X32860Y6592D01*
X32854Y6580D01*
X32849Y6567D01*
X32845Y6551D01*
X32844Y6534D01*
Y6009D01*
Y6007D01*
X32845Y6002D01*
X32846Y5993D01*
X32848Y5982D01*
X32852Y5969D01*
X32857Y5956D01*
X32866Y5943D01*
X32876Y5929D01*
X32877Y5928D01*
X32882Y5924D01*
X32889Y5919D01*
X32899Y5914D01*
X32910Y5907D01*
X32924Y5902D01*
X32939Y5898D01*
X32956Y5897D01*
X33014D01*
X33020Y5898D01*
X33028Y5899D01*
X33039Y5901D01*
X33051Y5904D01*
X33064Y5911D01*
X33078Y5918D01*
X33090Y5928D01*
X33091Y5929D01*
X33096Y5934D01*
X33101Y5941D01*
X33108Y5950D01*
X33114Y5963D01*
X33120Y5976D01*
X33124Y5992D01*
X33125Y6009D01*
Y6534D01*
Y6535D01*
Y6536D01*
Y6542D01*
X33123Y6551D01*
X33121Y6561D01*
X33116Y6574D01*
X33111Y6587D01*
X33103Y6601D01*
X33091Y6613D01*
X33090Y6615D01*
X33085Y6619D01*
X33079Y6624D01*
X33070Y6630D01*
X33058Y6636D01*
X33045Y6642D01*
X33029Y6646D01*
X33012Y6647D01*
D02*
G37*
G36*
X31906D02*
X31625D01*
Y6272D01*
X31913D01*
X31920Y6273D01*
X31929Y6275D01*
X31940Y6278D01*
X31950Y6283D01*
X31962Y6290D01*
X31972Y6298D01*
X31973Y6299D01*
X31976Y6303D01*
X31981Y6308D01*
X31987Y6317D01*
X31991Y6326D01*
X31996Y6337D01*
X31999Y6351D01*
X32000Y6366D01*
Y6553D01*
Y6555D01*
Y6559D01*
X31999Y6567D01*
X31997Y6576D01*
X31994Y6586D01*
X31989Y6597D01*
X31982Y6608D01*
X31973Y6619D01*
X31972Y6620D01*
X31969Y6623D01*
X31963Y6628D01*
X31955Y6633D01*
X31945Y6637D01*
X31933Y6643D01*
X31921Y6646D01*
X31906Y6647D01*
D02*
G37*
G36*
X12034Y25022D02*
X11753D01*
Y24647D01*
X12041D01*
X12048Y24648D01*
X12057Y24650D01*
X12068Y24653D01*
X12078Y24658D01*
X12090Y24665D01*
X12100Y24673D01*
X12101Y24674D01*
X12104Y24678D01*
X12109Y24683D01*
X12115Y24692D01*
X12119Y24701D01*
X12124Y24712D01*
X12127Y24726D01*
X12128Y24741D01*
Y24928D01*
Y24930D01*
Y24934D01*
X12127Y24942D01*
X12125Y24951D01*
X12122Y24961D01*
X12117Y24972D01*
X12110Y24983D01*
X12101Y24994D01*
X12100Y24995D01*
X12097Y24998D01*
X12091Y25003D01*
X12083Y25008D01*
X12073Y25012D01*
X12061Y25018D01*
X12049Y25021D01*
X12034Y25022D01*
D02*
G37*
G36*
X26835Y6772D02*
X26641D01*
X26634Y6771D01*
X26624Y6769D01*
X26613Y6766D01*
X26603Y6760D01*
X26591Y6754D01*
X26580Y6745D01*
X26579Y6744D01*
X26578Y6743D01*
X26576Y6740D01*
X26572Y6735D01*
X26566Y6726D01*
X26560Y6713D01*
Y6712D01*
X26559Y6710D01*
X26558Y6707D01*
X26557Y6703D01*
X26555Y6692D01*
X26554Y6678D01*
Y6116D01*
Y6114D01*
Y6109D01*
X26555Y6102D01*
X26557Y6093D01*
X26560Y6081D01*
X26565Y6071D01*
X26571Y6059D01*
X26580Y6048D01*
X26581D01*
X26582Y6046D01*
X26585Y6044D01*
X26589Y6042D01*
X26598Y6034D01*
X26610Y6028D01*
X26611D01*
X26613Y6027D01*
X26617Y6026D01*
X26622Y6025D01*
X26634Y6023D01*
X26646Y6022D01*
X26843D01*
X26851Y6023D01*
X26862Y6025D01*
X26863D01*
X26864Y6026D01*
X26870Y6028D01*
X26880Y6032D01*
X26890Y6039D01*
X26761Y6125D01*
X26760Y6126D01*
X26758Y6128D01*
X26755Y6131D01*
X26750Y6135D01*
X26746Y6141D01*
X26743Y6147D01*
X26741Y6154D01*
X26740Y6163D01*
Y6164D01*
Y6165D01*
X26741Y6168D01*
X26742Y6172D01*
X26746Y6182D01*
X26749Y6189D01*
X26754Y6196D01*
X26755Y6197D01*
X26757Y6198D01*
X26759Y6200D01*
X26763Y6203D01*
X26773Y6208D01*
X26780Y6209D01*
X26787Y6210D01*
X26789D01*
X26794Y6209D01*
X26802Y6207D01*
X26813Y6202D01*
X26929Y6126D01*
Y6678D01*
Y6680D01*
Y6684D01*
X26928Y6692D01*
X26925Y6701D01*
X26922Y6711D01*
X26917Y6722D01*
X26911Y6733D01*
X26901Y6744D01*
X26900Y6745D01*
X26897Y6748D01*
X26891Y6753D01*
X26884Y6758D01*
X26873Y6762D01*
X26862Y6768D01*
X26849Y6771D01*
X26835Y6772D01*
D02*
G37*
G36*
X34297Y9325D02*
X34197D01*
X34189Y9324D01*
X34180Y9322D01*
X34169Y9319D01*
X34158Y9313D01*
X34147Y9307D01*
X34135Y9298D01*
X34134Y9297D01*
X34133Y9296D01*
X34131Y9293D01*
X34128Y9288D01*
X34122Y9279D01*
X34116Y9267D01*
Y9266D01*
X34115Y9263D01*
X34113Y9260D01*
X34112Y9256D01*
X34110Y9245D01*
X34109Y9231D01*
Y9044D01*
Y9042D01*
Y9037D01*
X34110Y9030D01*
X34112Y9021D01*
X34116Y9009D01*
X34121Y8999D01*
X34127Y8987D01*
X34135Y8976D01*
X34136D01*
X34137Y8974D01*
X34141Y8972D01*
X34145Y8970D01*
X34154Y8962D01*
X34166Y8956D01*
X34167D01*
X34169Y8955D01*
X34173Y8954D01*
X34178Y8953D01*
X34191Y8951D01*
X34203Y8950D01*
X34388D01*
X34390Y8971D01*
Y8997D01*
Y9231D01*
Y9233D01*
Y9237D01*
X34389Y9245D01*
X34387Y9254D01*
X34384Y9264D01*
X34379Y9275D01*
X34373Y9286D01*
X34363Y9297D01*
X34362Y9298D01*
X34359Y9301D01*
X34353Y9306D01*
X34346Y9311D01*
X34335Y9316D01*
X34324Y9321D01*
X34311Y9324D01*
X34297Y9325D01*
D02*
G37*
G36*
X33641D02*
X33360D01*
Y8950D01*
X33647D01*
X33654Y8951D01*
X33664Y8953D01*
X33674Y8956D01*
X33684Y8961D01*
X33696Y8968D01*
X33706Y8976D01*
X33707Y8977D01*
X33710Y8981D01*
X33716Y8986D01*
X33721Y8995D01*
X33725Y9004D01*
X33730Y9016D01*
X33733Y9029D01*
X33734Y9044D01*
Y9231D01*
Y9233D01*
Y9237D01*
X33733Y9245D01*
X33731Y9254D01*
X33728Y9264D01*
X33723Y9275D01*
X33717Y9286D01*
X33707Y9297D01*
X33706Y9298D01*
X33703Y9301D01*
X33697Y9306D01*
X33690Y9311D01*
X33679Y9316D01*
X33668Y9321D01*
X33655Y9324D01*
X33641Y9325D01*
D02*
G37*
G36*
X30012Y11275D02*
X29994D01*
X29989Y11274D01*
X29978Y11273D01*
X29963Y11270D01*
X29947Y11264D01*
X29930Y11256D01*
X29911Y11245D01*
X29903Y11238D01*
X29895Y11230D01*
X29894Y11228D01*
X29890Y11223D01*
X29884Y11215D01*
X29878Y11203D01*
X29871Y11188D01*
X29866Y11173D01*
X29861Y11154D01*
X29860Y11134D01*
Y11133D01*
Y11132D01*
Y11129D01*
X29861Y11125D01*
X29862Y11115D01*
X29865Y11101D01*
X29869Y11085D01*
X29875Y11070D01*
X29883Y11053D01*
X29895Y11037D01*
X29897Y11035D01*
X29902Y11030D01*
X29910Y11024D01*
X29923Y11016D01*
X29937Y11007D01*
X29955Y11001D01*
X29976Y10996D01*
X30000Y10994D01*
X30006D01*
X30010Y10995D01*
X30022Y10996D01*
X30037Y10999D01*
X30053Y11004D01*
X30071Y11012D01*
X30088Y11023D01*
X30105Y11037D01*
X30106Y11040D01*
X30110Y11045D01*
X30117Y11053D01*
X30123Y11065D01*
X30129Y11079D01*
X30135Y11096D01*
X30139Y11115D01*
X30140Y11134D01*
Y11135D01*
Y11136D01*
Y11140D01*
Y11144D01*
X30138Y11154D01*
X30136Y11168D01*
X30132Y11182D01*
X30126Y11199D01*
X30117Y11215D01*
X30105Y11230D01*
Y11231D01*
X30103Y11232D01*
X30098Y11237D01*
X30089Y11245D01*
X30078Y11253D01*
X30062Y11260D01*
X30045Y11268D01*
X30024Y11273D01*
X30012Y11275D01*
D02*
G37*
G36*
X30000Y10900D02*
X29992D01*
X29985Y10899D01*
X29978Y10898D01*
X29970Y10897D01*
X29949Y10893D01*
X29927Y10885D01*
X29903Y10875D01*
X29892Y10869D01*
X29880Y10861D01*
X29870Y10852D01*
X29859Y10842D01*
Y10841D01*
X29857Y10840D01*
X29855Y10836D01*
X29852Y10832D01*
X29849Y10827D01*
X29845Y10821D01*
X29836Y10805D01*
X29827Y10786D01*
X29820Y10765D01*
X29815Y10740D01*
X29813Y10726D01*
X29812Y10713D01*
Y10712D01*
Y10709D01*
Y10705D01*
X29813Y10700D01*
Y10694D01*
X29815Y10685D01*
X29819Y10668D01*
X29824Y10648D01*
X29832Y10626D01*
X29844Y10604D01*
X29851Y10594D01*
X29859Y10583D01*
X29860Y10582D01*
X29861Y10581D01*
X29865Y10578D01*
X29869Y10574D01*
X29874Y10570D01*
X29880Y10565D01*
X29887Y10559D01*
X29897Y10554D01*
X29917Y10544D01*
X29941Y10534D01*
X29969Y10527D01*
X29984Y10526D01*
X30000Y10525D01*
X30008D01*
X30014Y10526D01*
X30022Y10527D01*
X30030Y10528D01*
X30050Y10532D01*
X30073Y10539D01*
X30096Y10549D01*
X30108Y10556D01*
X30120Y10564D01*
X30130Y10572D01*
X30140Y10582D01*
X30142Y10583D01*
X30143Y10584D01*
X30145Y10588D01*
X30148Y10592D01*
X30151Y10597D01*
X30155Y10603D01*
X30164Y10619D01*
X30173Y10638D01*
X30180Y10659D01*
X30185Y10684D01*
X30187Y10698D01*
Y10713D01*
Y10714D01*
Y10716D01*
Y10720D01*
X30186Y10725D01*
Y10731D01*
X30185Y10739D01*
X30181Y10756D01*
X30176Y10776D01*
X30168Y10798D01*
X30156Y10820D01*
X30149Y10830D01*
X30140Y10841D01*
X30139Y10842D01*
X30138Y10843D01*
X30135Y10846D01*
X30131Y10850D01*
X30126Y10854D01*
X30119Y10859D01*
X30111Y10865D01*
X30103Y10871D01*
X30083Y10881D01*
X30059Y10891D01*
X30046Y10895D01*
X30031Y10898D01*
X30016Y10899D01*
X30000Y10900D01*
D02*
G37*
G36*
X29344Y11275D02*
X29063D01*
Y10900D01*
X29350D01*
X29357Y10901D01*
X29367Y10903D01*
X29377Y10906D01*
X29388Y10911D01*
X29399Y10918D01*
X29409Y10926D01*
X29410Y10927D01*
X29414Y10931D01*
X29419Y10936D01*
X29424Y10945D01*
X29428Y10954D01*
X29433Y10966D01*
X29437Y10979D01*
X29438Y10994D01*
Y11181D01*
Y11183D01*
Y11187D01*
X29437Y11195D01*
X29434Y11204D01*
X29431Y11215D01*
X29426Y11225D01*
X29420Y11236D01*
X29410Y11247D01*
X29409Y11248D01*
X29406Y11251D01*
X29400Y11256D01*
X29393Y11261D01*
X29382Y11266D01*
X29371Y11271D01*
X29358Y11274D01*
X29344Y11275D01*
D02*
G37*
G36*
X6441Y1350D02*
X6160D01*
Y975D01*
X6447D01*
X6454Y976D01*
X6464Y978D01*
X6474Y981D01*
X6484Y986D01*
X6496Y993D01*
X6506Y1001D01*
X6507Y1002D01*
X6510Y1006D01*
X6516Y1011D01*
X6521Y1020D01*
X6525Y1029D01*
X6530Y1041D01*
X6533Y1054D01*
X6534Y1069D01*
Y1256D01*
Y1258D01*
Y1262D01*
X6533Y1270D01*
X6531Y1279D01*
X6528Y1289D01*
X6523Y1300D01*
X6517Y1311D01*
X6507Y1322D01*
X6506Y1323D01*
X6503Y1326D01*
X6497Y1331D01*
X6490Y1336D01*
X6479Y1341D01*
X6468Y1346D01*
X6455Y1349D01*
X6441Y1350D01*
D02*
G37*
G36*
X30247Y28875D02*
X30060D01*
X30059Y28828D01*
Y28594D01*
Y28592D01*
Y28588D01*
X30060Y28580D01*
X30062Y28571D01*
X30066Y28559D01*
X30071Y28549D01*
X30077Y28538D01*
X30085Y28526D01*
X30086D01*
X30087Y28524D01*
X30091Y28522D01*
X30095Y28520D01*
X30104Y28513D01*
X30116Y28506D01*
X30117D01*
X30119Y28505D01*
X30123Y28504D01*
X30128Y28503D01*
X30139Y28501D01*
X30153Y28500D01*
X30253D01*
X30260Y28501D01*
X30270Y28503D01*
X30280Y28506D01*
X30291Y28512D01*
X30302Y28518D01*
X30312Y28526D01*
X30313Y28527D01*
X30317Y28531D01*
X30322Y28537D01*
X30327Y28545D01*
X30331Y28554D01*
X30336Y28566D01*
X30339Y28579D01*
X30340Y28594D01*
Y28781D01*
Y28783D01*
Y28788D01*
X30339Y28795D01*
X30337Y28804D01*
X30334Y28815D01*
X30329Y28825D01*
X30323Y28836D01*
X30313Y28847D01*
X30312Y28848D01*
X30309Y28851D01*
X30303Y28856D01*
X30296Y28861D01*
X30285Y28866D01*
X30274Y28871D01*
X30261Y28874D01*
X30247Y28875D01*
D02*
G37*
G36*
X29591Y29250D02*
X29310D01*
Y28875D01*
X29597D01*
X29604Y28876D01*
X29614Y28878D01*
X29624Y28881D01*
X29634Y28886D01*
X29646Y28893D01*
X29656Y28901D01*
X29657Y28902D01*
X29660Y28906D01*
X29666Y28911D01*
X29671Y28920D01*
X29675Y28929D01*
X29680Y28941D01*
X29683Y28954D01*
X29684Y28969D01*
Y29156D01*
Y29158D01*
Y29162D01*
X29683Y29170D01*
X29681Y29179D01*
X29678Y29190D01*
X29673Y29200D01*
X29667Y29211D01*
X29657Y29222D01*
X29656Y29223D01*
X29653Y29226D01*
X29647Y29231D01*
X29640Y29236D01*
X29629Y29241D01*
X29618Y29246D01*
X29605Y29249D01*
X29591Y29250D01*
D02*
G37*
G36*
X58191Y16150D02*
X57910D01*
Y15775D01*
X58197D01*
X58204Y15776D01*
X58214Y15778D01*
X58224Y15781D01*
X58234Y15786D01*
X58246Y15793D01*
X58256Y15801D01*
X58257Y15802D01*
X58260Y15806D01*
X58266Y15811D01*
X58271Y15820D01*
X58275Y15829D01*
X58280Y15841D01*
X58283Y15854D01*
X58284Y15869D01*
Y16056D01*
Y16058D01*
Y16062D01*
X58283Y16070D01*
X58281Y16079D01*
X58278Y16090D01*
X58273Y16100D01*
X58267Y16111D01*
X58257Y16122D01*
X58256Y16123D01*
X58253Y16126D01*
X58247Y16131D01*
X58240Y16136D01*
X58229Y16141D01*
X58218Y16146D01*
X58205Y16149D01*
X58191Y16150D01*
D02*
G37*
G36*
X19719Y21075D02*
X19438D01*
Y20700D01*
X19726D01*
X19733Y20701D01*
X19742Y20703D01*
X19753Y20706D01*
X19763Y20711D01*
X19775Y20718D01*
X19785Y20726D01*
X19786Y20727D01*
X19789Y20731D01*
X19794Y20736D01*
X19800Y20745D01*
X19804Y20754D01*
X19809Y20766D01*
X19812Y20779D01*
X19813Y20794D01*
Y20981D01*
Y20983D01*
Y20987D01*
X19812Y20995D01*
X19810Y21004D01*
X19807Y21014D01*
X19802Y21025D01*
X19795Y21036D01*
X19786Y21047D01*
X19785Y21048D01*
X19782Y21051D01*
X19776Y21056D01*
X19768Y21061D01*
X19758Y21066D01*
X19746Y21071D01*
X19734Y21074D01*
X19719Y21075D01*
D02*
G37*
G36*
X19718Y22050D02*
X19437D01*
Y21675D01*
X19725D01*
X19732Y21676D01*
X19741Y21678D01*
X19752Y21681D01*
X19762Y21686D01*
X19773Y21693D01*
X19784Y21701D01*
X19785Y21702D01*
X19788Y21706D01*
X19793Y21711D01*
X19798Y21720D01*
X19803Y21729D01*
X19808Y21741D01*
X19811Y21754D01*
X19812Y21769D01*
Y21956D01*
Y21958D01*
Y21962D01*
X19811Y21970D01*
X19809Y21979D01*
X19806Y21990D01*
X19801Y22000D01*
X19794Y22011D01*
X19785Y22022D01*
X19784Y22023D01*
X19781Y22026D01*
X19775Y22031D01*
X19767Y22036D01*
X19757Y22041D01*
X19745Y22046D01*
X19733Y22049D01*
X19718Y22050D01*
D02*
G37*
G36*
X27834Y22797D02*
X27553D01*
Y22047D01*
X27841D01*
X27848Y22048D01*
X27857Y22050D01*
X27868Y22053D01*
X27878Y22058D01*
X27890Y22065D01*
X27900Y22073D01*
X27901Y22074D01*
X27904Y22078D01*
X27909Y22083D01*
X27914Y22092D01*
X27919Y22101D01*
X27924Y22113D01*
X27927Y22126D01*
X27928Y22141D01*
Y22703D01*
Y22705D01*
Y22709D01*
X27927Y22717D01*
X27925Y22726D01*
X27922Y22736D01*
X27917Y22747D01*
X27910Y22758D01*
X27901Y22769D01*
X27900Y22770D01*
X27897Y22773D01*
X27891Y22778D01*
X27883Y22783D01*
X27873Y22787D01*
X27861Y22793D01*
X27849Y22796D01*
X27834Y22797D01*
D02*
G37*
G36*
X27085D02*
X26803D01*
Y22047D01*
X27091D01*
X27098Y22048D01*
X27107Y22050D01*
X27118Y22053D01*
X27128Y22058D01*
X27140Y22065D01*
X27150Y22073D01*
X27151Y22074D01*
X27154Y22078D01*
X27159Y22083D01*
X27165Y22092D01*
X27169Y22101D01*
X27174Y22113D01*
X27177Y22126D01*
X27178Y22141D01*
Y22703D01*
Y22705D01*
Y22709D01*
X27177Y22717D01*
X27175Y22726D01*
X27172Y22736D01*
X27167Y22747D01*
X27161Y22758D01*
X27151Y22769D01*
X27150Y22770D01*
X27147Y22773D01*
X27141Y22778D01*
X27133Y22783D01*
X27123Y22787D01*
X27112Y22793D01*
X27099Y22796D01*
X27085Y22797D01*
D02*
G37*
G36*
X21804Y27945D02*
X21665Y27533D01*
X21941D01*
X21804Y27945D01*
D02*
G37*
G36*
X21094Y28045D02*
X20813D01*
Y27295D01*
X21101D01*
X21108Y27296D01*
X21117Y27299D01*
X21128Y27302D01*
X21138Y27307D01*
X21150Y27313D01*
X21160Y27321D01*
X21161Y27322D01*
X21164Y27327D01*
X21169Y27332D01*
X21175Y27340D01*
X21179Y27350D01*
X21184Y27361D01*
X21187Y27375D01*
X21188Y27389D01*
Y27951D01*
Y27954D01*
Y27958D01*
X21187Y27965D01*
X21185Y27974D01*
X21182Y27985D01*
X21177Y27995D01*
X21170Y28007D01*
X21161Y28017D01*
X21160Y28018D01*
X21157Y28021D01*
X21151Y28026D01*
X21143Y28032D01*
X21133Y28036D01*
X21122Y28041D01*
X21109Y28044D01*
X21094Y28045D01*
D02*
G37*
G36*
X11947Y22795D02*
X11808Y22383D01*
X12084D01*
X11947Y22795D01*
D02*
G37*
G36*
X11238Y22895D02*
X10956D01*
Y22145D01*
X11244D01*
X11251Y22146D01*
X11261Y22149D01*
X11271Y22152D01*
X11281Y22157D01*
X11293Y22163D01*
X11303Y22171D01*
X11304Y22172D01*
X11307Y22177D01*
X11313Y22182D01*
X11318Y22190D01*
X11322Y22200D01*
X11327Y22211D01*
X11330Y22225D01*
X11331Y22239D01*
Y22801D01*
Y22804D01*
Y22808D01*
X11330Y22815D01*
X11328Y22824D01*
X11325Y22835D01*
X11320Y22845D01*
X11314Y22857D01*
X11304Y22867D01*
X11303Y22868D01*
X11300Y22871D01*
X11294Y22876D01*
X11287Y22882D01*
X11276Y22886D01*
X11265Y22891D01*
X11252Y22894D01*
X11238Y22895D01*
D02*
G37*
G36*
X24341Y6803D02*
X23816D01*
X23815D01*
X23814D01*
X23808D01*
X23799Y6801D01*
X23789Y6799D01*
X23776Y6795D01*
X23763Y6789D01*
X23749Y6781D01*
X23737Y6770D01*
X23736Y6769D01*
X23731Y6763D01*
X23726Y6757D01*
X23720Y6748D01*
X23714Y6736D01*
X23708Y6723D01*
X23704Y6707D01*
X23703Y6690D01*
Y6627D01*
X23705Y6618D01*
X23707Y6607D01*
X23712Y6594D01*
X23717Y6581D01*
X23725Y6568D01*
X23737Y6554D01*
X23738Y6553D01*
X23743Y6549D01*
X23749Y6544D01*
X23758Y6538D01*
X23770Y6532D01*
X23783Y6527D01*
X23799Y6523D01*
X23816Y6522D01*
X24341D01*
X24343D01*
X24348Y6523D01*
X24357Y6524D01*
X24368Y6526D01*
X24381Y6530D01*
X24394Y6535D01*
X24407Y6544D01*
X24421Y6554D01*
X24422Y6555D01*
X24426Y6560D01*
X24431Y6568D01*
X24436Y6577D01*
X24443Y6588D01*
X24448Y6602D01*
X24452Y6618D01*
X24453Y6634D01*
Y6693D01*
X24452Y6698D01*
X24451Y6706D01*
X24449Y6718D01*
X24446Y6729D01*
X24439Y6743D01*
X24432Y6756D01*
X24422Y6769D01*
X24421Y6770D01*
X24416Y6774D01*
X24409Y6779D01*
X24400Y6786D01*
X24387Y6793D01*
X24374Y6798D01*
X24358Y6802D01*
X24341Y6803D01*
D02*
G37*
G36*
X28441Y12944D02*
X28440D01*
X28439D01*
X28435D01*
X28431D01*
X28421Y12942D01*
X28407Y12939D01*
X28393Y12935D01*
X28376Y12929D01*
X28360Y12920D01*
X28345Y12908D01*
X28344D01*
X28343Y12906D01*
X28338Y12901D01*
X28330Y12893D01*
X28322Y12881D01*
X28315Y12866D01*
X28307Y12848D01*
X28302Y12827D01*
X28300Y12816D01*
Y12797D01*
X28301Y12793D01*
X28302Y12781D01*
X28305Y12767D01*
X28311Y12750D01*
X28319Y12733D01*
X28330Y12715D01*
X28337Y12706D01*
X28345Y12698D01*
X28347Y12697D01*
X28352Y12693D01*
X28360Y12687D01*
X28372Y12681D01*
X28387Y12674D01*
X28402Y12669D01*
X28421Y12665D01*
X28441Y12663D01*
X28442D01*
X28443D01*
X28446D01*
X28450Y12665D01*
X28460Y12666D01*
X28474Y12668D01*
X28490Y12672D01*
X28505Y12678D01*
X28522Y12686D01*
X28538Y12698D01*
X28540Y12700D01*
X28545Y12705D01*
X28551Y12713D01*
X28559Y12726D01*
X28568Y12741D01*
X28574Y12758D01*
X28579Y12779D01*
X28581Y12803D01*
Y12809D01*
X28580Y12813D01*
X28579Y12825D01*
X28576Y12841D01*
X28571Y12856D01*
X28563Y12874D01*
X28552Y12892D01*
X28538Y12908D01*
X28535Y12909D01*
X28530Y12913D01*
X28522Y12920D01*
X28510Y12926D01*
X28496Y12932D01*
X28479Y12938D01*
X28460Y12943D01*
X28441Y12944D01*
D02*
G37*
G36*
X28877Y12990D02*
X28862D01*
X28861D01*
X28859D01*
X28855D01*
X28850Y12989D01*
X28844D01*
X28836Y12988D01*
X28819Y12984D01*
X28799Y12979D01*
X28777Y12971D01*
X28755Y12959D01*
X28745Y12952D01*
X28734Y12944D01*
X28733Y12943D01*
X28732Y12942D01*
X28729Y12938D01*
X28725Y12934D01*
X28721Y12929D01*
X28716Y12922D01*
X28710Y12914D01*
X28704Y12906D01*
X28694Y12886D01*
X28684Y12862D01*
X28680Y12849D01*
X28677Y12834D01*
X28676Y12819D01*
X28675Y12803D01*
Y12795D01*
X28676Y12788D01*
X28677Y12781D01*
X28678Y12773D01*
X28682Y12752D01*
X28690Y12730D01*
X28700Y12706D01*
X28706Y12695D01*
X28714Y12683D01*
X28723Y12673D01*
X28733Y12662D01*
X28734D01*
X28735Y12660D01*
X28739Y12658D01*
X28743Y12655D01*
X28748Y12652D01*
X28754Y12648D01*
X28770Y12640D01*
X28789Y12630D01*
X28810Y12623D01*
X28835Y12618D01*
X28849Y12617D01*
X28862Y12616D01*
X28863D01*
X28866D01*
X28870D01*
X28875Y12617D01*
X28881D01*
X28890Y12618D01*
X28907Y12622D01*
X28927Y12627D01*
X28949Y12635D01*
X28971Y12647D01*
X28981Y12654D01*
X28992Y12662D01*
X28993Y12663D01*
X28994Y12665D01*
X28997Y12668D01*
X29001Y12672D01*
X29005Y12677D01*
X29010Y12683D01*
X29016Y12691D01*
X29021Y12700D01*
X29031Y12720D01*
X29041Y12744D01*
X29048Y12772D01*
X29049Y12787D01*
X29050Y12803D01*
Y12811D01*
X29049Y12818D01*
X29048Y12825D01*
X29047Y12833D01*
X29043Y12853D01*
X29036Y12876D01*
X29026Y12899D01*
X29019Y12911D01*
X29011Y12923D01*
X29003Y12933D01*
X28993Y12944D01*
X28992Y12945D01*
X28991Y12946D01*
X28987Y12948D01*
X28983Y12951D01*
X28978Y12954D01*
X28972Y12958D01*
X28956Y12968D01*
X28937Y12976D01*
X28916Y12983D01*
X28891Y12988D01*
X28877Y12990D01*
D02*
G37*
G36*
X27350Y23900D02*
X27163D01*
X27162Y23853D01*
Y23619D01*
Y23617D01*
Y23613D01*
X27163Y23605D01*
X27166Y23596D01*
X27169Y23584D01*
X27174Y23574D01*
X27180Y23563D01*
X27188Y23551D01*
X27190D01*
X27191Y23549D01*
X27194Y23547D01*
X27198Y23545D01*
X27207Y23538D01*
X27219Y23531D01*
X27220D01*
X27222Y23530D01*
X27226Y23529D01*
X27231Y23528D01*
X27243Y23526D01*
X27256Y23525D01*
X27356D01*
X27363Y23526D01*
X27373Y23528D01*
X27383Y23531D01*
X27394Y23537D01*
X27405Y23543D01*
X27416Y23551D01*
X27417Y23552D01*
X27420Y23556D01*
X27425Y23562D01*
X27430Y23570D01*
X27434Y23579D01*
X27439Y23591D01*
X27443Y23604D01*
X27444Y23619D01*
Y23806D01*
Y23808D01*
Y23813D01*
X27443Y23820D01*
X27441Y23829D01*
X27437Y23840D01*
X27432Y23850D01*
X27426Y23861D01*
X27417Y23872D01*
X27416Y23873D01*
X27412Y23876D01*
X27406Y23881D01*
X27399Y23886D01*
X27388Y23891D01*
X27377Y23896D01*
X27364Y23899D01*
X27350Y23900D01*
D02*
G37*
%LPD*%
D10*
X5900Y3000D02*
G03*
X5900Y3000I-2900J0D01*
G01*
X13550Y23450D02*
G03*
X13550Y23450I-50J0D01*
G01*
X59900Y27000D02*
G03*
X59900Y27000I-2900J0D01*
G01*
X14250Y23350D02*
X14350D01*
X14250Y21650D02*
X14350D01*
X14250D02*
Y23350D01*
X14350Y21650D02*
Y23350D01*
X24475Y21209D02*
X28859Y16825D01*
X20091D02*
X24475Y12441D01*
X20091Y16825D02*
X24475Y21209D01*
Y12441D02*
X28859Y16825D01*
X21100Y23750D02*
Y26475D01*
X21475Y26850D01*
X22100D01*
X21100Y23750D02*
X22100D01*
Y26850D01*
X0Y0D02*
Y30000D01*
Y0D02*
X60000D01*
Y30000D01*
X0D02*
X60000D01*
D11*
X24775Y13855D02*
G03*
X24775Y13855I-300J0D01*
G01*
D12*
X25148Y11398D02*
G03*
X25148Y11398I-125J0D01*
G01*
X1100Y7200D02*
Y7800D01*
X2375Y7500D02*
X4050D01*
X1700Y6750D02*
Y8300D01*
X2300Y6200D02*
Y8800D01*
D13*
X15450Y21400D02*
X16700D01*
X15450Y18850D02*
X16700D01*
X15450D02*
Y21400D01*
X16700Y18850D02*
Y21400D01*
X10075Y1175D02*
Y2425D01*
X7525Y1175D02*
Y2425D01*
X10075D01*
X7525Y1175D02*
X10075D01*
X30475Y11475D02*
X33025D01*
X30475Y10225D02*
X33025D01*
Y11475D01*
X30475Y10225D02*
Y11475D01*
X30500Y8275D02*
X33050D01*
X30500Y9525D02*
X33050D01*
X30500Y8275D02*
Y9525D01*
X33050Y8275D02*
Y9525D01*
X30500Y7025D02*
X33050D01*
X30500Y8275D02*
X33050D01*
X30500Y7025D02*
Y8275D01*
X33050Y7025D02*
Y8275D01*
X23725Y24475D02*
X26225D01*
X23725Y23225D02*
X26225D01*
Y24475D01*
X23725Y23225D02*
Y24475D01*
X24950Y28075D02*
X26200D01*
X24950Y25575D02*
X26200D01*
X24950D02*
Y28075D01*
X26200Y25575D02*
Y28075D01*
X28450Y26975D02*
Y28225D01*
X31000Y26975D02*
Y28225D01*
X28450Y26975D02*
X31000D01*
X28450Y28225D02*
X31000D01*
X16850Y25625D02*
X19350D01*
X16850Y24375D02*
X19350D01*
Y25625D01*
X16850Y24375D02*
Y25625D01*
X23675Y28075D02*
X24925D01*
X23675Y25575D02*
X24925D01*
X23675D02*
Y28075D01*
X24925Y25575D02*
Y28075D01*
X26225D02*
X27475D01*
X26225Y25575D02*
X27475D01*
X26225D02*
Y28075D01*
X27475Y25575D02*
Y28075D01*
X15950Y25600D02*
Y27350D01*
X12700Y25600D02*
Y27350D01*
X15950D01*
X12700Y25600D02*
X15950D01*
X31900Y11775D02*
Y14275D01*
X33150Y11775D02*
Y14275D01*
X31900D02*
X33150D01*
X31900Y11775D02*
X33150D01*
X30600D02*
Y14275D01*
X29350Y11775D02*
Y14275D01*
Y11775D02*
X30600Y11775D01*
X29350Y14275D02*
X30600Y14275D01*
X30625Y11775D02*
X31875D01*
X30625Y14325D02*
X31875D01*
Y11775D02*
Y14325D01*
X30625Y11775D02*
Y14325D01*
X28625Y7450D02*
X29875D01*
X28625Y9950D02*
X29875D01*
Y7450D02*
Y9950D01*
X28625Y7450D02*
Y9950D01*
X24700Y10400D02*
X28625D01*
Y7200D02*
Y10400D01*
X24700Y7200D02*
X28625D01*
X24700D02*
Y10400D01*
X55025Y15175D02*
Y16425D01*
X57575Y15175D02*
Y16425D01*
X55025Y15175D02*
X57575D01*
X55025Y16425D02*
X57575D01*
X24650Y7275D02*
Y9775D01*
X23400Y7275D02*
Y9775D01*
Y7275D02*
X24650D01*
X23400Y9775D02*
X24650D01*
X15575Y24125D02*
Y25375D01*
X13025Y24125D02*
Y25375D01*
X15575D01*
X13025Y24125D02*
X15575D01*
X16850Y25625D02*
Y26875D01*
X19350Y25625D02*
Y26875D01*
X16850Y25625D02*
X19350D01*
X16850Y26875D02*
X19350D01*
X10050Y3850D02*
Y5100D01*
X7550Y3850D02*
Y5100D01*
X10050D01*
X7550Y3850D02*
X10050D01*
X17400Y16225D02*
X18650D01*
X17400Y18725D02*
X18650D01*
Y16225D02*
Y18725D01*
X17400Y16225D02*
Y18725D01*
X24650Y9800D02*
Y11050D01*
X22150Y9800D02*
Y11050D01*
X24650D01*
X22150Y9800D02*
X24650D01*
X16700Y20400D02*
X19250D01*
X16700Y19150D02*
X19250D01*
Y20400D01*
X16700Y19150D02*
Y20400D01*
Y21650D02*
X19250D01*
X16700Y20400D02*
X19250D01*
Y21650D01*
X16700Y20400D02*
Y21650D01*
D14*
X29575Y25750D02*
X29925Y26100D01*
X29575Y26450D02*
X29925Y26100D01*
X29575Y26450D02*
X29575D01*
X29575Y25750D02*
Y26450D01*
X29475Y25600D02*
X29975D01*
X29475Y26600D02*
X29975D01*
X8650Y2775D02*
X9000Y3125D01*
X8650Y3475D02*
X9000Y3125D01*
X8650Y3475D02*
X8650D01*
X8650Y2775D02*
Y3475D01*
X8550Y2625D02*
X9050D01*
X8550Y3625D02*
X9050D01*
M02*
