G04*
G04 #@! TF.GenerationSoftware,Altium Limited,Altium Designer,20.1.14 (287)*
G04*
G04 Layer_Physical_Order=1*
G04 Layer_Color=255*
%FSLAX43Y43*%
%MOMM*%
G71*
G04*
G04 #@! TF.SameCoordinates,AEFB124F-17DC-4B78-9156-2B8A2562A570*
G04*
G04*
G04 #@! TF.FilePolarity,Positive*
G04*
G01*
G75*
%ADD10C,0.300*%
%ADD13C,0.250*%
%ADD15C,0.200*%
%ADD27C,1.500*%
%ADD32R,1.000X0.600*%
%ADD33R,0.900X0.700*%
%ADD34R,0.700X0.900*%
%ADD35O,0.300X1.450*%
%ADD36O,1.450X0.300*%
%ADD37R,1.100X1.300*%
G04:AMPARAMS|DCode=38|XSize=1.3mm|YSize=1.1mm|CornerRadius=0.275mm|HoleSize=0mm|Usage=FLASHONLY|Rotation=270.000|XOffset=0mm|YOffset=0mm|HoleType=Round|Shape=RoundedRectangle|*
%AMROUNDEDRECTD38*
21,1,1.300,0.550,0,0,270.0*
21,1,0.750,1.100,0,0,270.0*
1,1,0.550,-0.275,-0.375*
1,1,0.550,-0.275,0.375*
1,1,0.550,0.275,0.375*
1,1,0.550,0.275,-0.375*
%
%ADD38ROUNDEDRECTD38*%
%ADD39R,0.990X0.300*%
G04:AMPARAMS|DCode=40|XSize=3mm|YSize=1.6mm|CornerRadius=0.4mm|HoleSize=0mm|Usage=FLASHONLY|Rotation=270.000|XOffset=0mm|YOffset=0mm|HoleType=Round|Shape=RoundedRectangle|*
%AMROUNDEDRECTD40*
21,1,3.000,0.800,0,0,270.0*
21,1,2.200,1.600,0,0,270.0*
1,1,0.800,-0.400,-1.100*
1,1,0.800,-0.400,1.100*
1,1,0.800,0.400,1.100*
1,1,0.800,0.400,-1.100*
%
%ADD40ROUNDEDRECTD40*%
%ADD41R,0.700X1.000*%
%ADD42C,0.500*%
%ADD43C,0.400*%
%ADD44C,1.400*%
G04:AMPARAMS|DCode=45|XSize=1.5mm|YSize=1.5mm|CornerRadius=0.375mm|HoleSize=0mm|Usage=FLASHONLY|Rotation=270.000|XOffset=0mm|YOffset=0mm|HoleType=Round|Shape=RoundedRectangle|*
%AMROUNDEDRECTD45*
21,1,1.500,0.750,0,0,270.0*
21,1,0.750,1.500,0,0,270.0*
1,1,0.750,-0.375,-0.375*
1,1,0.750,-0.375,0.375*
1,1,0.750,0.375,0.375*
1,1,0.750,0.375,-0.375*
%
%ADD45ROUNDEDRECTD45*%
%ADD46R,1.500X1.500*%
%ADD47C,3.500*%
%ADD48C,0.600*%
G36*
X52592Y408D02*
X44855D01*
X44764Y493D01*
X44761Y535D01*
X44763Y535D01*
X44948Y559D01*
X45179Y655D01*
X45378Y807D01*
X45530Y1006D01*
X45626Y1237D01*
X45648Y1410D01*
X44700D01*
X43752D01*
X43774Y1237D01*
X43870Y1006D01*
X44022Y807D01*
X44221Y655D01*
X44452Y559D01*
X44637Y535D01*
X44639Y535D01*
X44636Y493D01*
X44545Y408D01*
X42315D01*
X42224Y493D01*
X42221Y535D01*
X42223Y535D01*
X42408Y559D01*
X42639Y655D01*
X42838Y807D01*
X42990Y1006D01*
X43086Y1237D01*
X43118Y1485D01*
X43086Y1733D01*
X42990Y1964D01*
X42838Y2163D01*
X42639Y2315D01*
X42408Y2411D01*
X42160Y2443D01*
X41912Y2411D01*
X41681Y2315D01*
X41482Y2163D01*
X41330Y1964D01*
X41234Y1733D01*
X41202Y1485D01*
X41234Y1237D01*
X41330Y1006D01*
X41482Y807D01*
X41681Y655D01*
X41912Y559D01*
X42097Y535D01*
X42099Y535D01*
X42096Y493D01*
X42005Y408D01*
X408D01*
Y9296D01*
X4300Y9296D01*
X4378Y9312D01*
X4444Y9356D01*
X5644Y10556D01*
X5688Y10622D01*
X5704Y10700D01*
X5704Y13750D01*
X5704Y13750D01*
X5688Y13828D01*
X5644Y13894D01*
X5644Y13894D01*
X4454Y15084D01*
Y20166D01*
X5644Y21356D01*
X5688Y21422D01*
X5704Y21500D01*
X5704Y24750D01*
X5688Y24828D01*
X5644Y24894D01*
X5644Y24894D01*
X3104Y27434D01*
Y27550D01*
X3100Y27570D01*
Y28830D01*
X3104Y28850D01*
Y29225D01*
X3100Y29245D01*
Y30505D01*
X3104Y30525D01*
Y32188D01*
X3103Y32195D01*
X3103Y32201D01*
X3095Y32234D01*
X3088Y32266D01*
X3085Y32272D01*
X3083Y32278D01*
X3063Y32305D01*
X3044Y32332D01*
X3039Y32336D01*
X3034Y32341D01*
X3006Y32358D01*
X2978Y32377D01*
X2920Y32487D01*
X2952Y32565D01*
X2983Y32800D01*
X2952Y33035D01*
X2920Y33113D01*
X2978Y33223D01*
X3006Y33242D01*
X3034Y33259D01*
X3039Y33264D01*
X3044Y33268D01*
X3063Y33295D01*
X3083Y33322D01*
X3085Y33328D01*
X3088Y33334D01*
X3095Y33366D01*
X3103Y33399D01*
X3103Y33405D01*
X3104Y33412D01*
Y33600D01*
X3088Y33678D01*
X3044Y33744D01*
X3044Y33744D01*
X2644Y34144D01*
X2578Y34188D01*
X2500Y34204D01*
X408D01*
Y35592D01*
X13075D01*
X13143Y35465D01*
X13079Y35370D01*
X13040Y35175D01*
X13079Y34980D01*
X13190Y34815D01*
X13355Y34704D01*
X13550Y34665D01*
X13745Y34704D01*
X13910Y34815D01*
X13947Y34869D01*
X15523D01*
X15523Y34869D01*
X15640Y34892D01*
X15740Y34959D01*
X15975Y35194D01*
X16450D01*
Y34200D01*
X16075D01*
Y33218D01*
X16006Y33183D01*
X15948Y33169D01*
X15795Y33271D01*
X15600Y33310D01*
X15405Y33271D01*
X15240Y33160D01*
X15233Y33150D01*
X14141D01*
X14131Y33202D01*
X14059Y33309D01*
X13759Y33609D01*
X13652Y33681D01*
X13525Y33706D01*
X11675D01*
X11548Y33681D01*
X11441Y33609D01*
X11024Y33193D01*
X10874Y33222D01*
X10861Y33254D01*
X10717Y33442D01*
X10529Y33586D01*
X10310Y33677D01*
X10075Y33708D01*
X9840Y33677D01*
X9621Y33586D01*
X9433Y33442D01*
X9289Y33254D01*
X9198Y33035D01*
X9167Y32800D01*
X9198Y32565D01*
X9289Y32346D01*
X9337Y32283D01*
X9275Y32156D01*
X9152D01*
X8891Y32417D01*
X8952Y32565D01*
X8983Y32800D01*
X8952Y33035D01*
X8861Y33254D01*
X8717Y33442D01*
X8529Y33586D01*
X8310Y33677D01*
X8075Y33708D01*
X7840Y33677D01*
X7621Y33586D01*
X7433Y33442D01*
X7289Y33254D01*
X7198Y33035D01*
X7167Y32800D01*
X7198Y32565D01*
X7289Y32346D01*
X7433Y32158D01*
X7621Y32014D01*
X7840Y31923D01*
X8075Y31892D01*
X8310Y31923D01*
X8458Y31984D01*
X8809Y31634D01*
X8809Y31634D01*
X8908Y31567D01*
X9025Y31544D01*
X10775D01*
X10775Y31544D01*
X10892Y31567D01*
X10991Y31634D01*
X11852Y32494D01*
X12300D01*
Y32375D01*
X12995D01*
Y32225D01*
X12300D01*
Y32041D01*
X12258Y32033D01*
X12159Y31967D01*
X12159Y31967D01*
X11548Y31356D01*
X7727D01*
X6807Y32276D01*
X6861Y32346D01*
X6952Y32565D01*
X6983Y32800D01*
X6952Y33035D01*
X6861Y33254D01*
X6717Y33442D01*
X6529Y33586D01*
X6310Y33677D01*
X6075Y33708D01*
X5840Y33677D01*
X5621Y33586D01*
X5433Y33442D01*
X5289Y33254D01*
X5198Y33035D01*
X5167Y32800D01*
X5198Y32565D01*
X5289Y32346D01*
X5433Y32158D01*
X5621Y32014D01*
X5840Y31923D01*
X6075Y31892D01*
X6296Y31921D01*
X7384Y30834D01*
X7384Y30834D01*
X7483Y30767D01*
X7600Y30744D01*
X11675D01*
X11675Y30744D01*
X11792Y30767D01*
X11891Y30834D01*
X12502Y31444D01*
X12945D01*
X12945Y31444D01*
X12973Y31450D01*
X13522D01*
X13591Y31347D01*
X13772Y31166D01*
X13828Y31128D01*
X14244Y30713D01*
Y30550D01*
X12650D01*
Y30331D01*
X12450D01*
Y30525D01*
X11050D01*
Y30356D01*
X11016D01*
X10889Y30331D01*
X10782Y30259D01*
X10591Y30068D01*
X10519Y29961D01*
X10494Y29834D01*
Y28446D01*
X10519Y28320D01*
X10591Y28212D01*
X10737Y28066D01*
X10845Y27994D01*
X10971Y27969D01*
X11050D01*
Y27625D01*
X12450D01*
Y28575D01*
Y29000D01*
X11750D01*
Y29150D01*
X12450D01*
Y29669D01*
X12650D01*
Y29450D01*
X15225D01*
Y30550D01*
X14906D01*
Y30850D01*
X14881Y30977D01*
X14809Y31084D01*
X14561Y31333D01*
X14610Y31450D01*
X15233D01*
X15240Y31440D01*
X15405Y31329D01*
X15600Y31290D01*
X15795Y31329D01*
X15939Y31425D01*
X16019Y31400D01*
X16066Y31369D01*
Y31125D01*
X16825D01*
X17584D01*
Y31425D01*
X17547Y31610D01*
X17509Y31667D01*
X17577Y31794D01*
X17873D01*
X17941Y31667D01*
X17903Y31610D01*
X17866Y31425D01*
Y30675D01*
X17903Y30490D01*
X17978Y30377D01*
X17920Y30250D01*
X17875D01*
Y28950D01*
X18975D01*
Y30206D01*
X19085Y30228D01*
X19242Y30333D01*
X19347Y30490D01*
X19384Y30675D01*
Y30744D01*
X19548D01*
X19959Y30334D01*
X20058Y30267D01*
X20175Y30244D01*
X20175Y30244D01*
X20418D01*
X20506Y30117D01*
X20493Y30050D01*
X20520Y29913D01*
X20596Y29800D01*
X20520Y29687D01*
X20508Y29625D01*
X21425D01*
Y29475D01*
X20475D01*
X20401Y29381D01*
X19825D01*
X19698Y29356D01*
X19591Y29284D01*
X19102Y28796D01*
X18975Y28800D01*
Y28800D01*
X17875D01*
Y27500D01*
Y26250D01*
Y25725D01*
X18425D01*
Y25650D01*
X18500D01*
Y25000D01*
X18944D01*
Y18477D01*
X15234Y14766D01*
X15167Y14667D01*
X15144Y14550D01*
X15144Y14550D01*
Y13962D01*
X15017Y13899D01*
X14904Y13986D01*
X14685Y14077D01*
X14525Y14098D01*
Y13200D01*
Y12302D01*
X14685Y12323D01*
X14904Y12414D01*
X15017Y12501D01*
X15144Y12438D01*
Y12125D01*
X15144Y12125D01*
X15167Y12008D01*
X15234Y11909D01*
X17069Y10073D01*
Y8978D01*
X16955Y8922D01*
X16904Y8961D01*
X16685Y9052D01*
X16450Y9083D01*
X16215Y9052D01*
X15996Y8961D01*
X15808Y8817D01*
X15664Y8629D01*
X15573Y8410D01*
X15542Y8175D01*
X15573Y7940D01*
X15664Y7721D01*
X15808Y7533D01*
X15996Y7389D01*
X16215Y7298D01*
X16450Y7267D01*
X16685Y7298D01*
X16904Y7389D01*
X16955Y7428D01*
X17069Y7372D01*
Y4250D01*
X17069Y4250D01*
X17092Y4133D01*
X17159Y4034D01*
X17659Y3533D01*
X17598Y3385D01*
X17567Y3150D01*
X17598Y2915D01*
X17689Y2696D01*
X17833Y2508D01*
X18021Y2364D01*
X18240Y2273D01*
X18475Y2242D01*
X18710Y2273D01*
X18929Y2364D01*
X19017Y2432D01*
X19144Y2369D01*
Y2127D01*
X18623Y1606D01*
X10406D01*
X10381Y1733D01*
X10519Y1790D01*
X10718Y1942D01*
X10870Y2141D01*
X10966Y2372D01*
X10988Y2545D01*
X10040D01*
X9092D01*
X9114Y2372D01*
X9210Y2141D01*
X9362Y1942D01*
X9561Y1790D01*
X9699Y1733D01*
X9674Y1606D01*
X7866D01*
X7841Y1733D01*
X7979Y1790D01*
X8178Y1942D01*
X8330Y2141D01*
X8426Y2372D01*
X8448Y2545D01*
X7500D01*
X6552D01*
X6574Y2372D01*
X6670Y2141D01*
X6822Y1942D01*
X7021Y1790D01*
X7159Y1733D01*
X7134Y1606D01*
X3850D01*
Y2369D01*
X5015D01*
X5015Y2369D01*
X5132Y2392D01*
X5231Y2459D01*
X7079Y4306D01*
X7252Y4234D01*
X7500Y4202D01*
X7748Y4234D01*
X7979Y4330D01*
X8178Y4482D01*
X8330Y4681D01*
X8426Y4912D01*
X8458Y5160D01*
X8426Y5408D01*
X8330Y5639D01*
X8178Y5838D01*
X7979Y5990D01*
X7748Y6086D01*
X7500Y6118D01*
X7252Y6086D01*
X7021Y5990D01*
X6822Y5838D01*
X6670Y5639D01*
X6574Y5408D01*
X6542Y5160D01*
X6574Y4912D01*
X6646Y4739D01*
X4888Y2981D01*
X3850D01*
Y3325D01*
X2750D01*
Y2025D01*
Y775D01*
X3850D01*
Y994D01*
X18750D01*
X18750Y994D01*
X18867Y1017D01*
X18966Y1084D01*
X19666Y1784D01*
X19733Y1883D01*
X19756Y2000D01*
Y2407D01*
X19883Y2470D01*
X20021Y2364D01*
X20240Y2273D01*
X20475Y2242D01*
X20710Y2273D01*
X20929Y2364D01*
X21117Y2508D01*
X21261Y2696D01*
X21352Y2915D01*
X21383Y3150D01*
X21352Y3385D01*
X21261Y3604D01*
X21117Y3792D01*
X20929Y3936D01*
X20710Y4027D01*
X20475Y4058D01*
X20240Y4027D01*
X20021Y3936D01*
X19883Y3830D01*
X19756Y3893D01*
Y7413D01*
X19883Y7476D01*
X19996Y7389D01*
X20215Y7298D01*
X20450Y7267D01*
X20685Y7298D01*
X20904Y7389D01*
X21092Y7533D01*
X21236Y7721D01*
X21327Y7940D01*
X21358Y8175D01*
X21327Y8410D01*
X21236Y8629D01*
X21092Y8817D01*
X20904Y8961D01*
X20685Y9052D01*
X20450Y9083D01*
X20215Y9052D01*
X19996Y8961D01*
X19883Y8874D01*
X19756Y8937D01*
Y12438D01*
X19883Y12501D01*
X19996Y12414D01*
X20215Y12323D01*
X20450Y12292D01*
X20685Y12323D01*
X20833Y12384D01*
X23144Y10073D01*
Y8937D01*
X23017Y8874D01*
X22904Y8961D01*
X22685Y9052D01*
X22450Y9083D01*
X22215Y9052D01*
X21996Y8961D01*
X21808Y8817D01*
X21664Y8629D01*
X21573Y8410D01*
X21542Y8175D01*
X21573Y7940D01*
X21664Y7721D01*
X21808Y7533D01*
X21996Y7389D01*
X22215Y7298D01*
X22252Y7293D01*
Y6633D01*
X22252Y6633D01*
X22275Y6515D01*
X22342Y6416D01*
X24587Y4171D01*
X24527Y4051D01*
X24475Y4058D01*
X24240Y4027D01*
X24021Y3936D01*
X23833Y3792D01*
X23689Y3604D01*
X23598Y3385D01*
X23567Y3150D01*
X23598Y2915D01*
X23689Y2696D01*
X23833Y2508D01*
X24021Y2364D01*
X24240Y2273D01*
X24475Y2242D01*
X24710Y2273D01*
X24858Y2334D01*
X26384Y809D01*
X26483Y742D01*
X26600Y719D01*
X26600Y719D01*
X36550D01*
X36550Y719D01*
X36667Y742D01*
X36766Y809D01*
X38299Y2342D01*
X38465Y2273D01*
X38700Y2242D01*
X38935Y2273D01*
X39154Y2364D01*
X39342Y2508D01*
X39486Y2696D01*
X39577Y2915D01*
X39608Y3150D01*
X39577Y3385D01*
X39486Y3604D01*
X39342Y3792D01*
X39154Y3936D01*
X39108Y3955D01*
Y7380D01*
X39129Y7389D01*
X39317Y7533D01*
X39461Y7721D01*
X39552Y7940D01*
X39583Y8175D01*
X39552Y8410D01*
X39461Y8629D01*
X39317Y8817D01*
X39129Y8961D01*
X38910Y9052D01*
X38675Y9083D01*
X38440Y9052D01*
X38221Y8961D01*
X38033Y8817D01*
X37889Y8629D01*
X37798Y8410D01*
X37767Y8175D01*
X37798Y7940D01*
X37889Y7721D01*
X38033Y7533D01*
X38221Y7389D01*
X38292Y7359D01*
Y3955D01*
X38246Y3936D01*
X38058Y3792D01*
X37914Y3604D01*
X37823Y3385D01*
X37792Y3150D01*
X37823Y2915D01*
X37877Y2785D01*
X36423Y1331D01*
X35479D01*
X35431Y1448D01*
X36317Y2334D01*
X36465Y2273D01*
X36700Y2242D01*
X36935Y2273D01*
X37154Y2364D01*
X37342Y2508D01*
X37486Y2696D01*
X37577Y2915D01*
X37608Y3150D01*
X37577Y3385D01*
X37486Y3604D01*
X37342Y3792D01*
X37154Y3936D01*
X37108Y3955D01*
Y7380D01*
X37129Y7389D01*
X37317Y7533D01*
X37461Y7721D01*
X37552Y7940D01*
X37583Y8175D01*
X37552Y8410D01*
X37461Y8629D01*
X37317Y8817D01*
X37129Y8961D01*
X37108Y8970D01*
Y12405D01*
X37129Y12414D01*
X37317Y12558D01*
X37461Y12746D01*
X37552Y12965D01*
X37583Y13200D01*
X37552Y13435D01*
X37461Y13654D01*
X37317Y13842D01*
X37129Y13986D01*
X37108Y13995D01*
Y17430D01*
X37129Y17439D01*
X37317Y17583D01*
X37461Y17771D01*
X37552Y17990D01*
X37583Y18225D01*
X37552Y18460D01*
X37461Y18679D01*
X37317Y18867D01*
X37129Y19011D01*
X36910Y19102D01*
X36675Y19133D01*
X36440Y19102D01*
X36221Y19011D01*
X36033Y18867D01*
X35889Y18679D01*
X35798Y18460D01*
X35767Y18225D01*
X35798Y17990D01*
X35889Y17771D01*
X36033Y17583D01*
X36221Y17439D01*
X36292Y17409D01*
Y14016D01*
X36221Y13986D01*
X36033Y13842D01*
X35889Y13654D01*
X35798Y13435D01*
X35767Y13200D01*
X35798Y12965D01*
X35889Y12746D01*
X36033Y12558D01*
X36221Y12414D01*
X36292Y12384D01*
Y8991D01*
X36221Y8961D01*
X36033Y8817D01*
X35889Y8629D01*
X35798Y8410D01*
X35767Y8175D01*
X35798Y7940D01*
X35889Y7721D01*
X36033Y7533D01*
X36221Y7389D01*
X36292Y7359D01*
Y3955D01*
X36246Y3936D01*
X36058Y3792D01*
X35914Y3604D01*
X35823Y3385D01*
X35792Y3150D01*
X35823Y2915D01*
X35884Y2767D01*
X34773Y1656D01*
X33804D01*
X33756Y1773D01*
X34317Y2334D01*
X34465Y2273D01*
X34700Y2242D01*
X34935Y2273D01*
X35154Y2364D01*
X35342Y2508D01*
X35486Y2696D01*
X35577Y2915D01*
X35608Y3150D01*
X35577Y3385D01*
X35486Y3604D01*
X35342Y3792D01*
X35154Y3936D01*
X35108Y3955D01*
Y7380D01*
X35129Y7389D01*
X35317Y7533D01*
X35461Y7721D01*
X35552Y7940D01*
X35583Y8175D01*
X35552Y8410D01*
X35461Y8629D01*
X35317Y8817D01*
X35129Y8961D01*
X35108Y8970D01*
Y12405D01*
X35129Y12414D01*
X35317Y12558D01*
X35461Y12746D01*
X35552Y12965D01*
X35583Y13200D01*
X35552Y13435D01*
X35461Y13654D01*
X35317Y13842D01*
X35129Y13986D01*
X35108Y13995D01*
Y17430D01*
X35129Y17439D01*
X35317Y17583D01*
X35461Y17771D01*
X35552Y17990D01*
X35583Y18225D01*
X35552Y18460D01*
X35461Y18679D01*
X35317Y18867D01*
X35129Y19011D01*
X34910Y19102D01*
X34675Y19133D01*
X34440Y19102D01*
X34221Y19011D01*
X34033Y18867D01*
X33889Y18679D01*
X33798Y18460D01*
X33767Y18225D01*
X33798Y17990D01*
X33889Y17771D01*
X34033Y17583D01*
X34221Y17439D01*
X34292Y17409D01*
Y14016D01*
X34221Y13986D01*
X34033Y13842D01*
X33889Y13654D01*
X33798Y13435D01*
X33767Y13200D01*
X33798Y12965D01*
X33889Y12746D01*
X34033Y12558D01*
X34221Y12414D01*
X34292Y12384D01*
Y8991D01*
X34221Y8961D01*
X34033Y8817D01*
X33889Y8629D01*
X33798Y8410D01*
X33767Y8175D01*
X33798Y7940D01*
X33889Y7721D01*
X34033Y7533D01*
X34221Y7389D01*
X34292Y7359D01*
Y3955D01*
X34246Y3936D01*
X34058Y3792D01*
X33914Y3604D01*
X33823Y3385D01*
X33792Y3150D01*
X33823Y2915D01*
X33884Y2767D01*
X33098Y1981D01*
X32129D01*
X32081Y2098D01*
X32317Y2334D01*
X32465Y2273D01*
X32700Y2242D01*
X32935Y2273D01*
X33154Y2364D01*
X33342Y2508D01*
X33486Y2696D01*
X33577Y2915D01*
X33608Y3150D01*
X33577Y3385D01*
X33486Y3604D01*
X33342Y3792D01*
X33154Y3936D01*
X32935Y4027D01*
X32700Y4058D01*
X32465Y4027D01*
X32246Y3936D01*
X32058Y3792D01*
X31914Y3604D01*
X31823Y3385D01*
X31792Y3150D01*
X31823Y2915D01*
X31884Y2767D01*
X31579Y2462D01*
X31453Y2473D01*
X31399Y2583D01*
X31486Y2696D01*
X31577Y2915D01*
X31608Y3150D01*
X31577Y3385D01*
X31486Y3604D01*
X31342Y3792D01*
X31159Y3932D01*
Y7412D01*
X31317Y7533D01*
X31461Y7721D01*
X31552Y7940D01*
X31583Y8175D01*
X31552Y8410D01*
X31461Y8629D01*
X31317Y8817D01*
X31129Y8961D01*
X30910Y9052D01*
X30675Y9083D01*
X30440Y9052D01*
X30221Y8961D01*
X30033Y8817D01*
X29889Y8629D01*
X29798Y8410D01*
X29767Y8175D01*
X29798Y7940D01*
X29889Y7721D01*
X30033Y7533D01*
X30221Y7389D01*
X30241Y7381D01*
Y3932D01*
X30058Y3792D01*
X29914Y3604D01*
X29823Y3385D01*
X29792Y3150D01*
X29823Y2915D01*
X29914Y2696D01*
X30001Y2583D01*
X29938Y2456D01*
X29462D01*
X29399Y2583D01*
X29486Y2696D01*
X29577Y2915D01*
X29598Y3075D01*
X28700D01*
X27802D01*
X27823Y2915D01*
X27914Y2696D01*
X28001Y2583D01*
X27938Y2456D01*
X27652D01*
X27031Y3077D01*
Y3900D01*
X27031Y3900D01*
X27008Y4017D01*
X26941Y4116D01*
X26181Y4877D01*
Y11896D01*
X26308Y11935D01*
X26309Y11934D01*
X27984Y10259D01*
X27984Y10259D01*
X28083Y10192D01*
X28200Y10169D01*
X28200Y10169D01*
X30248D01*
X31859Y8558D01*
X31798Y8410D01*
X31767Y8175D01*
X31798Y7940D01*
X31889Y7721D01*
X32033Y7533D01*
X32221Y7389D01*
X32440Y7298D01*
X32675Y7267D01*
X32910Y7298D01*
X33129Y7389D01*
X33317Y7533D01*
X33461Y7721D01*
X33552Y7940D01*
X33583Y8175D01*
X33552Y8410D01*
X33461Y8629D01*
X33317Y8817D01*
X33129Y8961D01*
X32910Y9052D01*
X32675Y9083D01*
X32440Y9052D01*
X32292Y8991D01*
X30591Y10691D01*
X30590Y10692D01*
X30629Y10819D01*
X30900D01*
X30900Y10819D01*
X31017Y10842D01*
X31116Y10909D01*
X32520Y12313D01*
X32675Y12292D01*
X32910Y12323D01*
X33129Y12414D01*
X33317Y12558D01*
X33461Y12746D01*
X33552Y12965D01*
X33583Y13200D01*
X33552Y13435D01*
X33461Y13654D01*
X33317Y13842D01*
X33129Y13986D01*
X32910Y14077D01*
X32675Y14108D01*
X32440Y14077D01*
X32221Y13986D01*
X32033Y13842D01*
X31889Y13654D01*
X31798Y13435D01*
X31767Y13200D01*
X31798Y12965D01*
X31889Y12746D01*
X31976Y12633D01*
X30773Y11431D01*
X28702D01*
X27456Y12677D01*
Y16475D01*
X27456Y16475D01*
X27433Y16592D01*
X27366Y16691D01*
X24206Y19852D01*
Y22071D01*
X24323Y22119D01*
X25934Y20509D01*
X25934Y20509D01*
X26033Y20442D01*
X26150Y20419D01*
X30048D01*
X31859Y18608D01*
X31798Y18460D01*
X31767Y18225D01*
X31798Y17990D01*
X31889Y17771D01*
X32033Y17583D01*
X32221Y17439D01*
X32440Y17348D01*
X32675Y17317D01*
X32910Y17348D01*
X33129Y17439D01*
X33317Y17583D01*
X33461Y17771D01*
X33552Y17990D01*
X33583Y18225D01*
X33552Y18460D01*
X33461Y18679D01*
X33317Y18867D01*
X33129Y19011D01*
X32910Y19102D01*
X32675Y19133D01*
X32440Y19102D01*
X32292Y19041D01*
X30465Y20867D01*
X30518Y20994D01*
X30725D01*
X30725Y20994D01*
X30842Y21017D01*
X30941Y21084D01*
X32292Y22434D01*
X32440Y22373D01*
X32675Y22342D01*
X32910Y22373D01*
X33129Y22464D01*
X33317Y22608D01*
X33461Y22796D01*
X33552Y23015D01*
X33583Y23250D01*
X33552Y23485D01*
X33461Y23704D01*
X33317Y23892D01*
X33129Y24036D01*
X33054Y24067D01*
X33079Y24194D01*
X33298D01*
X33859Y23633D01*
X33798Y23485D01*
X33767Y23250D01*
X33798Y23015D01*
X33889Y22796D01*
X34033Y22608D01*
X34221Y22464D01*
X34440Y22373D01*
X34675Y22342D01*
X34910Y22373D01*
X35058Y22434D01*
X35709Y21784D01*
X35709Y21784D01*
X35808Y21717D01*
X35925Y21694D01*
X39815D01*
X39815Y21694D01*
X39932Y21717D01*
X40031Y21784D01*
X41739Y23491D01*
X41912Y23419D01*
X42160Y23387D01*
X42408Y23419D01*
X42639Y23515D01*
X42838Y23667D01*
X42990Y23866D01*
X43086Y24097D01*
X43118Y24345D01*
X43086Y24593D01*
X42990Y24824D01*
X42880Y24967D01*
X42943Y25094D01*
X43518D01*
X43846Y24766D01*
X43774Y24593D01*
X43742Y24345D01*
X43774Y24097D01*
X43870Y23866D01*
X44022Y23667D01*
X44221Y23515D01*
X44299Y23483D01*
X44274Y23356D01*
X44050D01*
X43933Y23333D01*
X43834Y23266D01*
X43834Y23266D01*
X43184Y22616D01*
X43117Y22517D01*
X43094Y22400D01*
X43094Y22400D01*
Y22348D01*
X42967Y22314D01*
X42838Y22483D01*
X42639Y22635D01*
X42408Y22731D01*
X42160Y22763D01*
X41912Y22731D01*
X41681Y22635D01*
X41482Y22483D01*
X41330Y22284D01*
X41234Y22053D01*
X41202Y21805D01*
X41234Y21557D01*
X41330Y21326D01*
X41482Y21127D01*
X41681Y20975D01*
X41912Y20879D01*
X42160Y20847D01*
X42408Y20879D01*
X42639Y20975D01*
X42838Y21127D01*
X42967Y21296D01*
X43094Y21262D01*
Y20632D01*
X42581Y20119D01*
X42408Y20191D01*
X42160Y20223D01*
X41912Y20191D01*
X41681Y20095D01*
X41482Y19943D01*
X41330Y19744D01*
X41234Y19513D01*
X41202Y19265D01*
X41234Y19017D01*
X41330Y18786D01*
X41482Y18587D01*
X41681Y18435D01*
X41912Y18339D01*
X42160Y18307D01*
X42408Y18339D01*
X42639Y18435D01*
X42838Y18587D01*
X42990Y18786D01*
X43086Y19017D01*
X43118Y19265D01*
X43086Y19513D01*
X43014Y19686D01*
X43616Y20289D01*
X43616Y20289D01*
X43683Y20388D01*
X43706Y20505D01*
X43706Y20505D01*
Y21391D01*
X43833Y21416D01*
X43870Y21326D01*
X44022Y21127D01*
X44221Y20975D01*
X44452Y20879D01*
X44700Y20847D01*
X44948Y20879D01*
X45179Y20975D01*
X45378Y21127D01*
X45530Y21326D01*
X45626Y21557D01*
X45658Y21805D01*
X45626Y22053D01*
X45530Y22284D01*
X45405Y22447D01*
X45727Y22769D01*
X45844Y22721D01*
Y15752D01*
X45128Y15036D01*
X44948Y15111D01*
X44700Y15143D01*
X44452Y15111D01*
X44221Y15015D01*
X44022Y14863D01*
X43870Y14664D01*
X43774Y14433D01*
X43742Y14185D01*
X43774Y13937D01*
X43870Y13706D01*
X44022Y13507D01*
X44221Y13355D01*
X44452Y13259D01*
X44700Y13227D01*
X44948Y13259D01*
X45179Y13355D01*
X45378Y13507D01*
X45530Y13706D01*
X45626Y13937D01*
X45658Y14185D01*
X45626Y14433D01*
X45557Y14599D01*
X46366Y15409D01*
X46366Y15409D01*
X46433Y15508D01*
X46456Y15625D01*
Y22773D01*
X46658Y22975D01*
X47675D01*
Y24250D01*
Y25500D01*
Y26699D01*
X47725Y26740D01*
X47920Y26779D01*
X47938Y26791D01*
X48042D01*
X48066Y26767D01*
Y26250D01*
X48075Y26206D01*
Y25500D01*
Y24250D01*
Y22975D01*
X49175D01*
Y23091D01*
X49360D01*
X49856Y22596D01*
X50004Y22496D01*
X50180Y22461D01*
X50455D01*
X50483Y22321D01*
X50610Y22130D01*
X50801Y22003D01*
X51025Y21959D01*
X51775D01*
X51999Y22003D01*
X52190Y22130D01*
X52317Y22321D01*
X52361Y22545D01*
Y23295D01*
X52317Y23519D01*
X52190Y23710D01*
X51999Y23837D01*
X51775Y23881D01*
X51025D01*
X50801Y23837D01*
X50610Y23710D01*
X50483Y23519D01*
X50469Y23447D01*
X50333Y23416D01*
X49874Y23874D01*
X49726Y23974D01*
X49550Y24009D01*
X49175D01*
Y25500D01*
Y26800D01*
X48984D01*
Y26957D01*
X48949Y27133D01*
X48849Y27282D01*
X48557Y27574D01*
X48408Y27674D01*
X48232Y27709D01*
X47938D01*
X47920Y27721D01*
X47725Y27760D01*
X47530Y27721D01*
X47365Y27610D01*
X47254Y27445D01*
X47215Y27250D01*
X47254Y27055D01*
X47339Y26927D01*
X47287Y26800D01*
X46575D01*
Y26505D01*
X46550Y26381D01*
X46433Y26358D01*
X46334Y26291D01*
X46334Y26291D01*
X45609Y25566D01*
X45542Y25467D01*
X45519Y25350D01*
X45519Y25350D01*
Y25036D01*
X45399Y24995D01*
X45378Y25023D01*
X45179Y25175D01*
X44948Y25271D01*
X44700Y25303D01*
X44452Y25271D01*
X44279Y25199D01*
X43861Y25616D01*
X43762Y25683D01*
X43645Y25706D01*
X43645Y25706D01*
X40825D01*
X40825Y25706D01*
X40708Y25683D01*
X40609Y25616D01*
X39058Y24066D01*
X38910Y24127D01*
X38675Y24158D01*
X38440Y24127D01*
X38292Y24066D01*
X37266Y25091D01*
X37167Y25158D01*
X37050Y25181D01*
X37050Y25181D01*
X28760D01*
X28693Y25308D01*
X28730Y25363D01*
X28757Y25500D01*
Y25591D01*
X29325D01*
Y25400D01*
X30425D01*
Y25465D01*
X30523Y25546D01*
X30550Y25540D01*
X30648Y25560D01*
X30775Y25458D01*
Y25400D01*
X31250D01*
Y26050D01*
Y26700D01*
X30775D01*
Y26642D01*
X30648Y26540D01*
X30550Y26560D01*
X30523Y26554D01*
X30425Y26635D01*
Y26700D01*
X29325D01*
Y26509D01*
X28757D01*
Y26650D01*
X28730Y26787D01*
X28652Y26902D01*
X28537Y26980D01*
X28400Y27007D01*
X28263Y26980D01*
X28150Y26904D01*
X28037Y26980D01*
X27975Y26992D01*
Y26075D01*
X27825D01*
Y26992D01*
X27763Y26980D01*
X27650Y26904D01*
X27537Y26980D01*
X27400Y27007D01*
X27263Y26980D01*
X27150Y26904D01*
X27037Y26980D01*
X26900Y27007D01*
X26794Y26986D01*
X26750Y26986D01*
X26627Y27041D01*
X26598Y27084D01*
X26598Y27084D01*
X26341Y27341D01*
X26242Y27408D01*
X26125Y27431D01*
X26125Y27431D01*
X23339D01*
X23301Y27558D01*
X23310Y27565D01*
X23421Y27730D01*
X23460Y27925D01*
X23553Y28056D01*
X23670Y28079D01*
X23835Y28190D01*
X23897Y28282D01*
X24017Y28232D01*
X24015Y28225D01*
X24054Y28030D01*
X24165Y27865D01*
X24330Y27754D01*
X24525Y27715D01*
X24720Y27754D01*
X24885Y27865D01*
X24996Y28030D01*
X25035Y28225D01*
X24996Y28420D01*
X24906Y28555D01*
Y29750D01*
X24906Y29750D01*
X24883Y29867D01*
X24816Y29966D01*
X24816Y29966D01*
X23756Y31027D01*
Y31725D01*
X23733Y31842D01*
X23666Y31941D01*
X23666Y31941D01*
X22841Y32766D01*
X22742Y32833D01*
X22625Y32856D01*
X22625Y32856D01*
X22432D01*
X22344Y32983D01*
X22357Y33050D01*
X22330Y33187D01*
X22252Y33302D01*
X22137Y33380D01*
X22000Y33407D01*
X20850D01*
X20713Y33380D01*
X20678Y33356D01*
X20622D01*
X20585Y33410D01*
X20420Y33521D01*
X20225Y33560D01*
X20030Y33521D01*
X19865Y33410D01*
X19754Y33245D01*
X19715Y33050D01*
X19754Y32855D01*
X19865Y32690D01*
X20030Y32579D01*
X20225Y32540D01*
X20370Y32569D01*
X20439Y32558D01*
X20506Y32484D01*
X20520Y32413D01*
X20596Y32300D01*
X20520Y32187D01*
X20493Y32050D01*
X20520Y31913D01*
X20596Y31800D01*
X20520Y31687D01*
X20493Y31550D01*
X20493Y31550D01*
X20402Y31428D01*
X20312Y31421D01*
X19416Y32316D01*
X19317Y32383D01*
X19200Y32406D01*
X19200Y32406D01*
X19161D01*
X19092Y32524D01*
X19093Y32533D01*
X19242Y32633D01*
X19347Y32790D01*
X19384Y32975D01*
Y33275D01*
X18625D01*
Y33425D01*
X19384D01*
Y33725D01*
X19347Y33910D01*
X19242Y34067D01*
X19085Y34172D01*
X19000Y34189D01*
Y34725D01*
X18450D01*
Y34875D01*
X19000D01*
Y35194D01*
X19675D01*
Y34875D01*
X20775D01*
Y35194D01*
X21125D01*
Y34150D01*
X21125D01*
X21193Y34067D01*
X21190Y34050D01*
X21229Y33855D01*
X21340Y33690D01*
X21505Y33579D01*
X21700Y33540D01*
X21895Y33579D01*
X22060Y33690D01*
X22171Y33855D01*
X22205Y34026D01*
X22206Y34031D01*
X22206Y34031D01*
X22210Y34050D01*
X22225Y34150D01*
X22225Y34150D01*
Y34341D01*
X22543D01*
Y33950D01*
X22570Y33813D01*
X22648Y33698D01*
X22763Y33620D01*
X22900Y33593D01*
X23037Y33620D01*
X23150Y33696D01*
X23263Y33620D01*
X23325Y33608D01*
Y34525D01*
X23475D01*
Y33603D01*
X23574Y33559D01*
X23601Y33514D01*
X23617Y33433D01*
X23684Y33334D01*
X24419Y32598D01*
Y31050D01*
X24419Y31050D01*
X24442Y30933D01*
X24509Y30834D01*
X25155Y30187D01*
X25140Y30112D01*
X25179Y29917D01*
X25290Y29752D01*
X25455Y29642D01*
X25650Y29603D01*
X25845Y29642D01*
X26010Y29752D01*
X26121Y29917D01*
X26160Y30112D01*
X26121Y30308D01*
X26010Y30473D01*
X25845Y30583D01*
X25773Y30598D01*
X25746Y30733D01*
X25769Y30748D01*
X25880Y30914D01*
X25911Y31069D01*
X25971Y31057D01*
X26166Y31096D01*
X26331Y31206D01*
X26442Y31372D01*
X26480Y31567D01*
X26442Y31762D01*
X26386Y31845D01*
X26439Y31939D01*
X26574Y31971D01*
X26711Y31880D01*
X26906Y31841D01*
X27101Y31880D01*
X27266Y31990D01*
X27377Y32156D01*
X27416Y32351D01*
X27377Y32546D01*
X27266Y32711D01*
X27289Y32830D01*
X27386Y32908D01*
X27475Y32890D01*
X27670Y32929D01*
X27835Y33040D01*
X27946Y33205D01*
X28089Y33271D01*
X28100Y33269D01*
X28575D01*
X28575Y33269D01*
X28692Y33292D01*
X28791Y33359D01*
X30252Y34819D01*
X35198D01*
X36159Y33859D01*
X36258Y33792D01*
X36375Y33769D01*
X41210D01*
Y33555D01*
X43110D01*
Y35455D01*
X41210D01*
Y34381D01*
X36777D01*
X36738Y34508D01*
X36785Y34540D01*
X36896Y34705D01*
X36935Y34900D01*
X36896Y35095D01*
X36785Y35260D01*
X36620Y35371D01*
X36425Y35410D01*
X36373Y35400D01*
X36301Y35478D01*
X36349Y35592D01*
X52592D01*
Y408D01*
D02*
G37*
G36*
X2900Y33600D02*
Y33412D01*
X2773Y33369D01*
X2717Y33442D01*
X2529Y33586D01*
X2310Y33677D01*
X2150Y33698D01*
Y32800D01*
Y31902D01*
X2310Y31923D01*
X2529Y32014D01*
X2717Y32158D01*
X2773Y32231D01*
X2900Y32188D01*
Y30525D01*
X2625D01*
Y29875D01*
X2550D01*
D01*
X2625D01*
Y29225D01*
X2900D01*
Y28850D01*
X2625D01*
Y28200D01*
Y27550D01*
X2900D01*
Y27350D01*
X5500Y24750D01*
X5500Y21500D01*
X4250Y20250D01*
Y15000D01*
X5500Y13750D01*
X5500Y10700D01*
X4300Y9500D01*
X408Y9500D01*
Y34000D01*
X2500D01*
X2900Y33600D01*
D02*
G37*
G36*
X26594Y25068D02*
Y24875D01*
X26594Y24875D01*
X26617Y24758D01*
X26684Y24659D01*
X27059Y24284D01*
X27059Y24284D01*
X27158Y24217D01*
X27275Y24194D01*
X27275Y24194D01*
X28271D01*
X28296Y24067D01*
X28221Y24036D01*
X28033Y23892D01*
X27889Y23704D01*
X27798Y23485D01*
X27777Y23325D01*
X28675D01*
X29573D01*
X29552Y23485D01*
X29461Y23704D01*
X29317Y23892D01*
X29129Y24036D01*
X29054Y24067D01*
X29079Y24194D01*
X30271D01*
X30296Y24067D01*
X30221Y24036D01*
X30033Y23892D01*
X29889Y23704D01*
X29798Y23485D01*
X29767Y23250D01*
X29798Y23015D01*
X29889Y22796D01*
X30033Y22608D01*
X30221Y22464D01*
X30440Y22373D01*
X30675Y22342D01*
X30910Y22373D01*
X31129Y22464D01*
X31317Y22608D01*
X31461Y22796D01*
X31552Y23015D01*
X31583Y23250D01*
X31552Y23485D01*
X31461Y23704D01*
X31317Y23892D01*
X31129Y24036D01*
X31054Y24067D01*
X31079Y24194D01*
X32271D01*
X32296Y24067D01*
X32221Y24036D01*
X32033Y23892D01*
X31889Y23704D01*
X31798Y23485D01*
X31767Y23250D01*
X31798Y23015D01*
X31859Y22867D01*
X30598Y21606D01*
X26477D01*
X25506Y22577D01*
X25548Y22715D01*
X25620Y22729D01*
X25785Y22840D01*
X25838Y22918D01*
X25849D01*
X25849Y22918D01*
X25966Y22942D01*
X26066Y23008D01*
X26266Y23209D01*
X26266Y23209D01*
X26333Y23308D01*
X26356Y23425D01*
X26356Y23425D01*
Y24700D01*
X26356Y24700D01*
X26333Y24817D01*
X26266Y24916D01*
X26266Y24916D01*
X26249Y24934D01*
X26254Y25069D01*
X26358Y25152D01*
X26400Y25143D01*
X26467Y25156D01*
X26594Y25068D01*
D02*
G37*
%LPC*%
G36*
X20775Y34725D02*
X20300D01*
Y34150D01*
X20775D01*
Y34725D01*
D02*
G37*
G36*
X20150D02*
X19675D01*
Y34150D01*
X20150D01*
Y34725D01*
D02*
G37*
G36*
X33000Y34000D02*
X32525D01*
Y33425D01*
X33000D01*
Y34000D01*
D02*
G37*
G36*
X44700Y35463D02*
X44452Y35431D01*
X44221Y35335D01*
X44022Y35183D01*
X43870Y34984D01*
X43774Y34753D01*
X43742Y34505D01*
X43774Y34257D01*
X43870Y34026D01*
X43935Y33942D01*
X43348Y33356D01*
X41100D01*
X41100Y33356D01*
X40983Y33333D01*
X40884Y33266D01*
X40884Y33266D01*
X37498Y29881D01*
X36272D01*
X36168Y30008D01*
X36187Y30100D01*
X36148Y30295D01*
X36037Y30460D01*
X35872Y30571D01*
X35677Y30610D01*
X35577Y30590D01*
X35546Y30747D01*
X35518Y30788D01*
X35578Y30900D01*
X35750D01*
Y31919D01*
X36120D01*
X36140Y31890D01*
X36305Y31779D01*
X36500Y31740D01*
X36695Y31779D01*
X36860Y31890D01*
X36971Y32055D01*
X37010Y32250D01*
X36971Y32445D01*
X36860Y32610D01*
X36695Y32721D01*
X36500Y32760D01*
X36305Y32721D01*
X36140Y32610D01*
X36086Y32531D01*
X35750D01*
Y33500D01*
X34450D01*
Y33231D01*
X34272D01*
X34235Y33285D01*
X34070Y33396D01*
X33875Y33435D01*
X33752Y33410D01*
X33625Y33500D01*
Y34000D01*
X33150D01*
Y33350D01*
Y32700D01*
X33331D01*
X33356Y32658D01*
X33284Y32531D01*
X30975D01*
X30931Y32522D01*
X30880Y32533D01*
X30834Y32637D01*
X30906Y32744D01*
X31075D01*
Y32700D01*
X32175D01*
Y34000D01*
X31405D01*
X31375Y34006D01*
X31346Y34070D01*
X31235Y34235D01*
X31070Y34346D01*
X30875Y34385D01*
X30680Y34346D01*
X30515Y34235D01*
X30404Y34070D01*
X30365Y33875D01*
X30404Y33680D01*
X30508Y33525D01*
X30494Y33481D01*
X30450Y33407D01*
X29300D01*
X29163Y33380D01*
X29048Y33302D01*
X28970Y33187D01*
X28943Y33050D01*
X28970Y32913D01*
X29046Y32800D01*
X28970Y32687D01*
X28958Y32625D01*
X29875D01*
Y32475D01*
X28958D01*
X28970Y32413D01*
X29046Y32300D01*
X28970Y32187D01*
X28943Y32050D01*
X28970Y31913D01*
X29046Y31800D01*
X28970Y31687D01*
X28943Y31550D01*
X28970Y31413D01*
X29046Y31300D01*
X28970Y31187D01*
X28943Y31050D01*
X28970Y30913D01*
X29046Y30800D01*
X28970Y30687D01*
X28943Y30550D01*
X28970Y30413D01*
X29046Y30300D01*
X28970Y30187D01*
X28943Y30050D01*
X28970Y29913D01*
X29046Y29800D01*
X28970Y29687D01*
X28943Y29550D01*
X28970Y29413D01*
X29046Y29300D01*
X28970Y29187D01*
X28943Y29050D01*
X28970Y28913D01*
X29046Y28800D01*
X28970Y28687D01*
X28943Y28550D01*
X28970Y28413D01*
X29046Y28300D01*
X28970Y28187D01*
X28943Y28050D01*
X28970Y27913D01*
X29046Y27800D01*
X28970Y27687D01*
X28943Y27550D01*
X28970Y27413D01*
X29048Y27298D01*
X29163Y27220D01*
X29300Y27193D01*
X30450D01*
X30587Y27220D01*
X30622Y27244D01*
X39798D01*
X40409Y26634D01*
X40409Y26634D01*
X40508Y26567D01*
X40625Y26544D01*
X40625Y26544D01*
X41273D01*
X41330Y26406D01*
X41482Y26207D01*
X41681Y26055D01*
X41912Y25959D01*
X42160Y25927D01*
X42408Y25959D01*
X42639Y26055D01*
X42838Y26207D01*
X42990Y26406D01*
X43086Y26637D01*
X43118Y26885D01*
X43086Y27133D01*
X42990Y27364D01*
X42892Y27492D01*
X42954Y27619D01*
X43533D01*
X43734Y27419D01*
X43734Y27419D01*
X43846Y27306D01*
X43774Y27133D01*
X43742Y26885D01*
X43774Y26637D01*
X43870Y26406D01*
X44022Y26207D01*
X44221Y26055D01*
X44452Y25959D01*
X44700Y25927D01*
X44948Y25959D01*
X45179Y26055D01*
X45378Y26207D01*
X45530Y26406D01*
X45626Y26637D01*
X45658Y26885D01*
X45626Y27133D01*
X45530Y27364D01*
X45378Y27563D01*
X45179Y27715D01*
X44948Y27811D01*
X44700Y27843D01*
X44452Y27811D01*
X44279Y27739D01*
X44166Y27851D01*
X44166Y27851D01*
X44166Y27851D01*
X43876Y28141D01*
X43777Y28208D01*
X43660Y28231D01*
X43660Y28231D01*
X39879D01*
X39831Y28348D01*
X40602Y29119D01*
X41258D01*
X41330Y28946D01*
X41482Y28747D01*
X41681Y28595D01*
X41912Y28499D01*
X42160Y28467D01*
X42408Y28499D01*
X42639Y28595D01*
X42838Y28747D01*
X42990Y28946D01*
X43086Y29177D01*
X43118Y29425D01*
X43086Y29673D01*
X42990Y29904D01*
X42884Y30042D01*
X42947Y30169D01*
X43523D01*
X43784Y29909D01*
X43784Y29909D01*
X43846Y29846D01*
X43774Y29673D01*
X43742Y29425D01*
X43774Y29177D01*
X43870Y28946D01*
X44022Y28747D01*
X44221Y28595D01*
X44452Y28499D01*
X44700Y28467D01*
X44948Y28499D01*
X45179Y28595D01*
X45378Y28747D01*
X45530Y28946D01*
X45626Y29177D01*
X45658Y29425D01*
X45626Y29673D01*
X45530Y29904D01*
X45378Y30103D01*
X45179Y30255D01*
X44948Y30351D01*
X44700Y30383D01*
X44452Y30351D01*
X44279Y30279D01*
X44216Y30341D01*
X44216Y30341D01*
X43950Y30608D01*
X43879Y30705D01*
X43948Y30780D01*
X44279Y31111D01*
X44452Y31039D01*
X44700Y31007D01*
X44948Y31039D01*
X45179Y31135D01*
X45378Y31287D01*
X45530Y31486D01*
X45626Y31717D01*
X45658Y31965D01*
X45626Y32213D01*
X45530Y32444D01*
X45378Y32643D01*
X45179Y32795D01*
X44948Y32891D01*
X44700Y32923D01*
X44452Y32891D01*
X44221Y32795D01*
X44022Y32643D01*
X43870Y32444D01*
X43774Y32213D01*
X43742Y31965D01*
X43774Y31717D01*
X43846Y31544D01*
X43533Y31231D01*
X42954D01*
X42892Y31358D01*
X42990Y31486D01*
X43086Y31717D01*
X43118Y31965D01*
X43086Y32213D01*
X42990Y32444D01*
X42857Y32617D01*
X42896Y32744D01*
X43475D01*
X43475Y32744D01*
X43592Y32767D01*
X43691Y32834D01*
X44441Y33584D01*
X44452Y33579D01*
X44700Y33547D01*
X44948Y33579D01*
X45179Y33675D01*
X45378Y33827D01*
X45530Y34026D01*
X45626Y34257D01*
X45658Y34505D01*
X45626Y34753D01*
X45530Y34984D01*
X45378Y35183D01*
X45179Y35335D01*
X44948Y35431D01*
X44700Y35463D01*
D02*
G37*
G36*
X4150Y33698D02*
Y32875D01*
X4973D01*
X4952Y33035D01*
X4861Y33254D01*
X4717Y33442D01*
X4529Y33586D01*
X4310Y33677D01*
X4150Y33698D01*
D02*
G37*
G36*
X4000D02*
X3840Y33677D01*
X3621Y33586D01*
X3433Y33442D01*
X3289Y33254D01*
X3198Y33035D01*
X3177Y32875D01*
X4000D01*
Y33698D01*
D02*
G37*
G36*
X33000Y33275D02*
X32525D01*
Y32700D01*
X33000D01*
Y33275D01*
D02*
G37*
G36*
X4973Y32725D02*
X4150D01*
Y31902D01*
X4310Y31923D01*
X4529Y32014D01*
X4717Y32158D01*
X4861Y32346D01*
X4952Y32565D01*
X4973Y32725D01*
D02*
G37*
G36*
X4000D02*
X3177D01*
X3198Y32565D01*
X3289Y32346D01*
X3433Y32158D01*
X3621Y32014D01*
X3840Y31923D01*
X4000Y31902D01*
Y32725D01*
D02*
G37*
G36*
X49000Y33708D02*
X48667Y33675D01*
X48346Y33578D01*
X48051Y33420D01*
X47792Y33208D01*
X47580Y32949D01*
X47422Y32654D01*
X47325Y32333D01*
X47292Y32000D01*
X47325Y31667D01*
X47422Y31346D01*
X47580Y31051D01*
X47792Y30792D01*
X48051Y30580D01*
X48346Y30422D01*
X48667Y30325D01*
X49000Y30292D01*
X49333Y30325D01*
X49654Y30422D01*
X49949Y30580D01*
X50208Y30792D01*
X50420Y31051D01*
X50578Y31346D01*
X50675Y31667D01*
X50708Y32000D01*
X50675Y32333D01*
X50578Y32654D01*
X50420Y32949D01*
X50208Y33208D01*
X49949Y33420D01*
X49654Y33578D01*
X49333Y33675D01*
X49000Y33708D01*
D02*
G37*
G36*
X17584Y30975D02*
X16825D01*
X16066D01*
Y30675D01*
X16103Y30490D01*
X16208Y30333D01*
X16365Y30228D01*
X16425Y30216D01*
Y29675D01*
X17525D01*
Y30250D01*
X17525D01*
X17472Y30377D01*
X17547Y30490D01*
X17584Y30675D01*
Y30975D01*
D02*
G37*
G36*
X9700Y30525D02*
X9075D01*
Y30100D01*
X9700D01*
Y30525D01*
D02*
G37*
G36*
X8925D02*
X8300D01*
Y30100D01*
X8925D01*
Y30525D01*
D02*
G37*
G36*
X4550Y30525D02*
X4075D01*
Y29950D01*
X4550D01*
Y30525D01*
D02*
G37*
G36*
X3925D02*
X3450D01*
Y29950D01*
X3925D01*
Y30525D01*
D02*
G37*
G36*
X9700Y29950D02*
X9075D01*
Y29525D01*
X9700D01*
Y29950D01*
D02*
G37*
G36*
X8925D02*
X8300D01*
Y29525D01*
X8925D01*
Y29950D01*
D02*
G37*
G36*
X4550Y29800D02*
X4075D01*
Y29225D01*
X4550D01*
Y29800D01*
D02*
G37*
G36*
X3925D02*
X3450D01*
Y29225D01*
X3925D01*
Y29800D01*
D02*
G37*
G36*
X17525Y29525D02*
X17050D01*
Y28950D01*
X17525D01*
Y29525D01*
D02*
G37*
G36*
X16900D02*
X16425D01*
Y28950D01*
X16900D01*
Y29525D01*
D02*
G37*
G36*
X15225Y29100D02*
X14650D01*
Y28625D01*
X15225D01*
Y29100D01*
D02*
G37*
G36*
X13225D02*
X12650D01*
Y28625D01*
X13225D01*
Y29100D01*
D02*
G37*
G36*
X4600Y28850D02*
X4125D01*
Y28275D01*
X4600D01*
Y28850D01*
D02*
G37*
G36*
X3975D02*
X3500D01*
Y28275D01*
X3975D01*
Y28850D01*
D02*
G37*
G36*
X17525Y28800D02*
X17050D01*
Y28225D01*
X17525D01*
Y28800D01*
D02*
G37*
G36*
X16900D02*
X16425D01*
Y28225D01*
X16900D01*
Y28800D01*
D02*
G37*
G36*
X15225Y28475D02*
X14650D01*
Y28000D01*
X15225D01*
Y28475D01*
D02*
G37*
G36*
X14500Y29100D02*
X13375D01*
Y28550D01*
Y28000D01*
X14500D01*
Y28550D01*
Y29100D01*
D02*
G37*
G36*
X13225Y28475D02*
X12650D01*
Y28000D01*
X13225D01*
Y28475D01*
D02*
G37*
G36*
X4600Y28125D02*
X4125D01*
Y27550D01*
X4600D01*
Y28125D01*
D02*
G37*
G36*
X3975D02*
X3500D01*
Y27550D01*
X3975D01*
Y28125D01*
D02*
G37*
G36*
X12100Y27200D02*
X11625D01*
Y26625D01*
X12100D01*
Y27200D01*
D02*
G37*
G36*
X11475D02*
X11000D01*
Y26625D01*
X11475D01*
Y27200D01*
D02*
G37*
G36*
X31875Y26700D02*
X31400D01*
Y26125D01*
X31875D01*
Y26700D01*
D02*
G37*
G36*
X17525Y28075D02*
X16975D01*
X16425D01*
Y27550D01*
X16375D01*
Y26250D01*
X16425D01*
Y26067D01*
X16298Y25970D01*
X16225Y25985D01*
X16030Y25946D01*
X15865Y25835D01*
X15754Y25670D01*
X15715Y25475D01*
X15754Y25280D01*
X15865Y25115D01*
X16030Y25004D01*
X16225Y24965D01*
X16306Y24981D01*
X16425Y25000D01*
X16425Y25000D01*
X16425Y25000D01*
X17525D01*
Y26300D01*
X17475D01*
Y27500D01*
X17525D01*
Y28075D01*
D02*
G37*
G36*
X31875Y25975D02*
X31400D01*
Y25400D01*
X31875D01*
Y25975D01*
D02*
G37*
G36*
X12100Y26475D02*
X11550D01*
X11000D01*
Y25900D01*
Y25350D01*
X11550D01*
X12100D01*
Y25900D01*
Y26475D01*
D02*
G37*
G36*
X18350Y25575D02*
X17875D01*
Y25000D01*
X18350D01*
Y25575D01*
D02*
G37*
G36*
X12100Y25200D02*
X11550D01*
X11000D01*
Y24625D01*
Y24075D01*
X11550D01*
X12100D01*
Y24625D01*
Y25200D01*
D02*
G37*
G36*
Y23925D02*
X11625D01*
Y23350D01*
X12100D01*
Y23925D01*
D02*
G37*
G36*
X9700Y28625D02*
X8300D01*
Y27625D01*
X8541D01*
Y26975D01*
X8576Y26799D01*
X8676Y26651D01*
X9026Y26301D01*
X9174Y26201D01*
X9350Y26166D01*
X9550D01*
Y24625D01*
Y23350D01*
X9720D01*
Y23218D01*
X9755Y23042D01*
X9854Y22893D01*
X10197Y22551D01*
X10346Y22451D01*
X10521Y22416D01*
X10744D01*
Y22027D01*
X8784Y20066D01*
X8717Y19967D01*
X8694Y19850D01*
X8670Y19817D01*
X8515Y19814D01*
X8428Y19928D01*
X8229Y20080D01*
X7998Y20176D01*
X7750Y20208D01*
X7502Y20176D01*
X7271Y20080D01*
X7072Y19928D01*
X6920Y19729D01*
X6824Y19498D01*
X6814Y19419D01*
X6686D01*
X6676Y19498D01*
X6580Y19729D01*
X6428Y19928D01*
X6229Y20080D01*
X5998Y20176D01*
X5750Y20208D01*
X5502Y20176D01*
X5271Y20080D01*
X5072Y19928D01*
X4920Y19729D01*
X4824Y19498D01*
X4792Y19250D01*
X4824Y19002D01*
X4920Y18771D01*
X5072Y18572D01*
X5271Y18420D01*
X5502Y18324D01*
X5750Y18292D01*
X5998Y18324D01*
X6229Y18420D01*
X6428Y18572D01*
X6580Y18771D01*
X6676Y19002D01*
X6686Y19081D01*
X6814D01*
X6824Y19002D01*
X6920Y18771D01*
X7072Y18572D01*
X7271Y18420D01*
X7502Y18324D01*
X7750Y18292D01*
X7998Y18324D01*
X8229Y18420D01*
X8428Y18572D01*
X8567Y18754D01*
X8627Y18750D01*
X8694Y18719D01*
Y17281D01*
X8627Y17250D01*
X8567Y17246D01*
X8428Y17428D01*
X8229Y17580D01*
X7998Y17676D01*
X7750Y17708D01*
X7502Y17676D01*
X7271Y17580D01*
X7072Y17428D01*
X6920Y17229D01*
X6824Y16998D01*
X6814Y16919D01*
X6686D01*
X6676Y16998D01*
X6580Y17229D01*
X6428Y17428D01*
X6229Y17580D01*
X5998Y17676D01*
X5825Y17698D01*
Y16750D01*
Y15802D01*
X5998Y15824D01*
X6229Y15920D01*
X6428Y16072D01*
X6580Y16271D01*
X6676Y16502D01*
X6686Y16581D01*
X6814D01*
X6824Y16502D01*
X6920Y16271D01*
X7072Y16072D01*
X7271Y15920D01*
X7502Y15824D01*
X7750Y15792D01*
X7998Y15824D01*
X8229Y15920D01*
X8428Y16072D01*
X8567Y16254D01*
X8627Y16250D01*
X8694Y16219D01*
Y8159D01*
X8445D01*
X8417Y8299D01*
X8290Y8490D01*
X8099Y8617D01*
X7875Y8661D01*
X7125D01*
X6901Y8617D01*
X6710Y8490D01*
X6583Y8299D01*
X6539Y8075D01*
Y7325D01*
X6564Y7197D01*
X6173Y6806D01*
X3800D01*
Y7200D01*
X2700D01*
Y5800D01*
X2944D01*
Y5200D01*
X2700D01*
Y3800D01*
X3800D01*
Y5200D01*
X3556D01*
Y5800D01*
X3800D01*
Y6194D01*
X6300D01*
X6300Y6194D01*
X6417Y6217D01*
X6516Y6284D01*
X6997Y6764D01*
X7125Y6739D01*
X7875D01*
X8099Y6783D01*
X8290Y6910D01*
X8417Y7101D01*
X8445Y7241D01*
X9202D01*
X9210Y7221D01*
X9362Y7022D01*
X9561Y6870D01*
X9792Y6774D01*
X10040Y6742D01*
X10288Y6774D01*
X10519Y6870D01*
X10718Y7022D01*
X10749Y7063D01*
X10869Y7022D01*
Y6422D01*
X10461Y6014D01*
X10288Y6086D01*
X10040Y6118D01*
X9792Y6086D01*
X9561Y5990D01*
X9362Y5838D01*
X9210Y5639D01*
X9114Y5408D01*
X9082Y5160D01*
X9114Y4912D01*
X9210Y4681D01*
X9362Y4482D01*
X9561Y4330D01*
X9792Y4234D01*
X10040Y4202D01*
X10288Y4234D01*
X10519Y4330D01*
X10718Y4482D01*
X10870Y4681D01*
X10966Y4912D01*
X10998Y5160D01*
X10966Y5408D01*
X10894Y5581D01*
X11391Y6079D01*
X11391Y6079D01*
X11458Y6178D01*
X11481Y6295D01*
Y8300D01*
X11481Y8300D01*
X11458Y8417D01*
X11391Y8516D01*
X9681Y10227D01*
Y19548D01*
X11327Y21194D01*
X16725D01*
X16725Y21194D01*
X16842Y21217D01*
X16941Y21284D01*
X17661Y22003D01*
X17725Y21990D01*
X17920Y22029D01*
X18085Y22140D01*
X18196Y22305D01*
X18235Y22500D01*
X18196Y22695D01*
X18085Y22860D01*
X17920Y22971D01*
X17725Y23010D01*
X17530Y22971D01*
X17365Y22860D01*
X17254Y22695D01*
X17215Y22500D01*
X17228Y22436D01*
X16598Y21806D01*
X11433D01*
X11356Y21900D01*
Y22478D01*
X11410Y22515D01*
X11521Y22680D01*
X11560Y22875D01*
X11521Y23070D01*
X11419Y23223D01*
X11433Y23281D01*
X11468Y23350D01*
X11475D01*
Y23925D01*
X11000D01*
Y23375D01*
X10855Y23346D01*
X10837Y23334D01*
X10712D01*
X10650Y23395D01*
Y24625D01*
Y25900D01*
Y27200D01*
X9550D01*
X9459Y27286D01*
Y27625D01*
X9700D01*
Y28625D01*
D02*
G37*
G36*
X48250Y22487D02*
X47925D01*
Y20850D01*
X48862D01*
Y21875D01*
X48815Y22109D01*
X48683Y22308D01*
X48484Y22440D01*
X48250Y22487D01*
D02*
G37*
G36*
X47775D02*
X47450D01*
X47216Y22440D01*
X47017Y22308D01*
X46885Y22109D01*
X46838Y21875D01*
Y20850D01*
X47775D01*
Y22487D01*
D02*
G37*
G36*
X51400Y21338D02*
X51152Y21306D01*
X50921Y21210D01*
X50722Y21058D01*
X50570Y20859D01*
X50474Y20628D01*
X50442Y20380D01*
X50474Y20132D01*
X50570Y19901D01*
X50722Y19702D01*
X50921Y19550D01*
X51152Y19454D01*
X51400Y19422D01*
X51648Y19454D01*
X51879Y19550D01*
X52078Y19702D01*
X52230Y19901D01*
X52326Y20132D01*
X52358Y20380D01*
X52326Y20628D01*
X52230Y20859D01*
X52078Y21058D01*
X51879Y21210D01*
X51648Y21306D01*
X51400Y21338D01*
D02*
G37*
G36*
X48862Y20700D02*
X47925D01*
Y19063D01*
X48250D01*
X48484Y19110D01*
X48683Y19242D01*
X48815Y19441D01*
X48862Y19675D01*
Y20700D01*
D02*
G37*
G36*
X47775D02*
X46838D01*
Y19675D01*
X46885Y19441D01*
X47017Y19242D01*
X47216Y19110D01*
X47450Y19063D01*
X47775D01*
Y20700D01*
D02*
G37*
G36*
X44700Y20223D02*
X44452Y20191D01*
X44221Y20095D01*
X44022Y19943D01*
X43870Y19744D01*
X43774Y19513D01*
X43742Y19265D01*
X43774Y19017D01*
X43870Y18786D01*
X44022Y18587D01*
X44221Y18435D01*
X44452Y18339D01*
X44700Y18307D01*
X44948Y18339D01*
X45179Y18435D01*
X45378Y18587D01*
X45530Y18786D01*
X45626Y19017D01*
X45658Y19265D01*
X45626Y19513D01*
X45530Y19744D01*
X45378Y19943D01*
X45179Y20095D01*
X44948Y20191D01*
X44700Y20223D01*
D02*
G37*
G36*
X28750Y19123D02*
Y18300D01*
X29573D01*
X29552Y18460D01*
X29461Y18679D01*
X29317Y18867D01*
X29129Y19011D01*
X28910Y19102D01*
X28750Y19123D01*
D02*
G37*
G36*
X28600Y19123D02*
X28440Y19102D01*
X28221Y19011D01*
X28033Y18867D01*
X27889Y18679D01*
X27798Y18460D01*
X27777Y18300D01*
X28600D01*
Y19123D01*
D02*
G37*
G36*
X51475Y18788D02*
Y17915D01*
X52348D01*
X52326Y18088D01*
X52230Y18319D01*
X52078Y18518D01*
X51879Y18670D01*
X51648Y18766D01*
X51475Y18788D01*
D02*
G37*
G36*
X51325D02*
X51152Y18766D01*
X50921Y18670D01*
X50722Y18518D01*
X50570Y18319D01*
X50474Y18088D01*
X50452Y17915D01*
X51325D01*
Y18788D01*
D02*
G37*
G36*
X28600Y18150D02*
X27777D01*
X27798Y17990D01*
X27889Y17771D01*
X28033Y17583D01*
X28221Y17439D01*
X28440Y17348D01*
X28600Y17327D01*
Y18150D01*
D02*
G37*
G36*
X29573D02*
X28750D01*
Y17327D01*
X28910Y17348D01*
X29129Y17439D01*
X29317Y17583D01*
X29461Y17771D01*
X29552Y17990D01*
X29573Y18150D01*
D02*
G37*
G36*
X52348Y17765D02*
X51475D01*
Y16892D01*
X51648Y16914D01*
X51879Y17010D01*
X52078Y17162D01*
X52230Y17361D01*
X52326Y17592D01*
X52348Y17765D01*
D02*
G37*
G36*
X51325D02*
X50452D01*
X50474Y17592D01*
X50570Y17361D01*
X50722Y17162D01*
X50921Y17010D01*
X51152Y16914D01*
X51325Y16892D01*
Y17765D01*
D02*
G37*
G36*
X5675Y17698D02*
X5502Y17676D01*
X5271Y17580D01*
X5072Y17428D01*
X4920Y17229D01*
X4824Y16998D01*
X4802Y16825D01*
X5675D01*
Y17698D01*
D02*
G37*
G36*
X13000Y19708D02*
X12667Y19675D01*
X12346Y19578D01*
X12051Y19420D01*
X11792Y19208D01*
X11580Y18949D01*
X11422Y18654D01*
X11325Y18333D01*
X11292Y18000D01*
X11325Y17667D01*
X11422Y17346D01*
X11580Y17051D01*
X11792Y16792D01*
X12051Y16580D01*
X12346Y16422D01*
X12667Y16325D01*
X13000Y16292D01*
X13333Y16325D01*
X13654Y16422D01*
X13949Y16580D01*
X14208Y16792D01*
X14420Y17051D01*
X14578Y17346D01*
X14675Y17667D01*
X14708Y18000D01*
X14675Y18333D01*
X14578Y18654D01*
X14420Y18949D01*
X14208Y19208D01*
X13949Y19420D01*
X13654Y19578D01*
X13333Y19675D01*
X13000Y19708D01*
D02*
G37*
G36*
X5675Y16675D02*
X4802D01*
X4824Y16502D01*
X4920Y16271D01*
X5072Y16072D01*
X5271Y15920D01*
X5502Y15824D01*
X5675Y15802D01*
Y16675D01*
D02*
G37*
G36*
X44700Y17683D02*
X44452Y17651D01*
X44221Y17555D01*
X44022Y17403D01*
X43870Y17204D01*
X43774Y16973D01*
X43742Y16725D01*
X43774Y16477D01*
X43870Y16246D01*
X44022Y16047D01*
X44221Y15895D01*
X44452Y15799D01*
X44700Y15767D01*
X44948Y15799D01*
X45179Y15895D01*
X45378Y16047D01*
X45530Y16246D01*
X45626Y16477D01*
X45658Y16725D01*
X45626Y16973D01*
X45530Y17204D01*
X45378Y17403D01*
X45179Y17555D01*
X44948Y17651D01*
X44700Y17683D01*
D02*
G37*
G36*
X42160D02*
X41912Y17651D01*
X41681Y17555D01*
X41482Y17403D01*
X41330Y17204D01*
X41234Y16973D01*
X41202Y16725D01*
X41234Y16477D01*
X41330Y16246D01*
X41482Y16047D01*
X41681Y15895D01*
X41912Y15799D01*
X42160Y15767D01*
X42408Y15799D01*
X42639Y15895D01*
X42838Y16047D01*
X42990Y16246D01*
X43086Y16477D01*
X43118Y16725D01*
X43086Y16973D01*
X42990Y17204D01*
X42838Y17403D01*
X42639Y17555D01*
X42408Y17651D01*
X42160Y17683D01*
D02*
G37*
G36*
X51400Y16258D02*
X51152Y16226D01*
X50921Y16130D01*
X50722Y15978D01*
X50570Y15779D01*
X50474Y15548D01*
X50442Y15300D01*
X50474Y15052D01*
X50570Y14821D01*
X50722Y14622D01*
X50921Y14470D01*
X51152Y14374D01*
X51400Y14342D01*
X51648Y14374D01*
X51879Y14470D01*
X52078Y14622D01*
X52230Y14821D01*
X52326Y15052D01*
X52358Y15300D01*
X52326Y15548D01*
X52230Y15779D01*
X52078Y15978D01*
X51879Y16130D01*
X51648Y16226D01*
X51400Y16258D01*
D02*
G37*
G36*
X14375Y14098D02*
X14215Y14077D01*
X13996Y13986D01*
X13808Y13842D01*
X13664Y13654D01*
X13573Y13435D01*
X13552Y13275D01*
X14375D01*
Y14098D01*
D02*
G37*
G36*
X28750Y14098D02*
Y13275D01*
X29573D01*
X29552Y13435D01*
X29461Y13654D01*
X29317Y13842D01*
X29129Y13986D01*
X28910Y14077D01*
X28750Y14098D01*
D02*
G37*
G36*
X28600Y14098D02*
X28440Y14077D01*
X28221Y13986D01*
X28033Y13842D01*
X27889Y13654D01*
X27798Y13435D01*
X27777Y13275D01*
X28600D01*
Y14098D01*
D02*
G37*
G36*
X42160Y15143D02*
X41912Y15111D01*
X41681Y15015D01*
X41482Y14863D01*
X41330Y14664D01*
X41234Y14433D01*
X41202Y14185D01*
X41234Y13937D01*
X41330Y13706D01*
X41482Y13507D01*
X41681Y13355D01*
X41912Y13259D01*
X42160Y13227D01*
X42408Y13259D01*
X42639Y13355D01*
X42838Y13507D01*
X42990Y13706D01*
X43086Y13937D01*
X43118Y14185D01*
X43086Y14433D01*
X42990Y14664D01*
X42838Y14863D01*
X42639Y15015D01*
X42408Y15111D01*
X42160Y15143D01*
D02*
G37*
G36*
X51400Y13718D02*
X51152Y13686D01*
X50921Y13590D01*
X50722Y13438D01*
X50570Y13239D01*
X50562Y13219D01*
X48833D01*
X48815Y13309D01*
X48683Y13508D01*
X48484Y13640D01*
X48250Y13687D01*
X47450D01*
X47216Y13640D01*
X47017Y13508D01*
X46885Y13309D01*
X46838Y13075D01*
Y10875D01*
X46885Y10641D01*
X47017Y10442D01*
X47216Y10310D01*
X47350Y10283D01*
Y9050D01*
X47433D01*
X47441Y9042D01*
X47489Y8923D01*
X47404Y8795D01*
X47365Y8600D01*
X47404Y8405D01*
X47515Y8240D01*
X47680Y8129D01*
X47875Y8090D01*
X48070Y8129D01*
X48235Y8240D01*
X48346Y8405D01*
X48385Y8600D01*
X48346Y8795D01*
X48261Y8923D01*
X48309Y9042D01*
X48317Y9050D01*
X48450D01*
Y10303D01*
X48484Y10310D01*
X48683Y10442D01*
X48815Y10641D01*
X48862Y10875D01*
Y12301D01*
X50562D01*
X50570Y12281D01*
X50722Y12082D01*
X50921Y11930D01*
X51152Y11834D01*
X51400Y11802D01*
X51648Y11834D01*
X51879Y11930D01*
X52078Y12082D01*
X52230Y12281D01*
X52326Y12512D01*
X52358Y12760D01*
X52326Y13008D01*
X52230Y13239D01*
X52078Y13438D01*
X51879Y13590D01*
X51648Y13686D01*
X51400Y13718D01*
D02*
G37*
G36*
X14375Y13125D02*
X13552D01*
X13573Y12965D01*
X13664Y12746D01*
X13808Y12558D01*
X13996Y12414D01*
X14215Y12323D01*
X14375Y12302D01*
Y13125D01*
D02*
G37*
G36*
X28600Y13125D02*
X27777D01*
X27798Y12965D01*
X27889Y12746D01*
X28033Y12558D01*
X28221Y12414D01*
X28440Y12323D01*
X28600Y12302D01*
Y13125D01*
D02*
G37*
G36*
X29573D02*
X28750D01*
Y12302D01*
X28910Y12323D01*
X29129Y12414D01*
X29317Y12558D01*
X29461Y12746D01*
X29552Y12965D01*
X29573Y13125D01*
D02*
G37*
G36*
X38675Y19133D02*
X38440Y19102D01*
X38221Y19011D01*
X38033Y18867D01*
X37889Y18679D01*
X37798Y18460D01*
X37767Y18225D01*
X37798Y17990D01*
X37889Y17771D01*
X38033Y17583D01*
X38221Y17439D01*
X38267Y17420D01*
Y14005D01*
X38221Y13986D01*
X38033Y13842D01*
X37889Y13654D01*
X37798Y13435D01*
X37767Y13200D01*
X37798Y12965D01*
X37889Y12746D01*
X38033Y12558D01*
X38221Y12414D01*
X38440Y12323D01*
X38675Y12292D01*
X38910Y12323D01*
X39129Y12414D01*
X39317Y12558D01*
X39461Y12746D01*
X39552Y12965D01*
X39583Y13200D01*
X39552Y13435D01*
X39461Y13654D01*
X39317Y13842D01*
X39129Y13986D01*
X39083Y14005D01*
Y17420D01*
X39129Y17439D01*
X39317Y17583D01*
X39461Y17771D01*
X39552Y17990D01*
X39583Y18225D01*
X39552Y18460D01*
X39461Y18679D01*
X39317Y18867D01*
X39129Y19011D01*
X38910Y19102D01*
X38675Y19133D01*
D02*
G37*
G36*
X30675D02*
X30440Y19102D01*
X30221Y19011D01*
X30033Y18867D01*
X29889Y18679D01*
X29798Y18460D01*
X29767Y18225D01*
X29798Y17990D01*
X29889Y17771D01*
X30033Y17583D01*
X30216Y17443D01*
Y13982D01*
X30033Y13842D01*
X29889Y13654D01*
X29798Y13435D01*
X29767Y13200D01*
X29798Y12965D01*
X29889Y12746D01*
X30033Y12558D01*
X30221Y12414D01*
X30440Y12323D01*
X30675Y12292D01*
X30910Y12323D01*
X31129Y12414D01*
X31317Y12558D01*
X31461Y12746D01*
X31552Y12965D01*
X31583Y13200D01*
X31552Y13435D01*
X31461Y13654D01*
X31317Y13842D01*
X31134Y13982D01*
Y17443D01*
X31317Y17583D01*
X31461Y17771D01*
X31552Y17990D01*
X31583Y18225D01*
X31552Y18460D01*
X31461Y18679D01*
X31317Y18867D01*
X31129Y19011D01*
X30910Y19102D01*
X30675Y19133D01*
D02*
G37*
G36*
X44700Y12603D02*
X44452Y12571D01*
X44221Y12475D01*
X44022Y12323D01*
X43870Y12124D01*
X43774Y11893D01*
X43742Y11645D01*
X43774Y11397D01*
X43870Y11166D01*
X44022Y10967D01*
X44221Y10815D01*
X44452Y10719D01*
X44700Y10687D01*
X44948Y10719D01*
X45179Y10815D01*
X45378Y10967D01*
X45530Y11166D01*
X45626Y11397D01*
X45658Y11645D01*
X45626Y11893D01*
X45530Y12124D01*
X45378Y12323D01*
X45179Y12475D01*
X44948Y12571D01*
X44700Y12603D01*
D02*
G37*
G36*
X42160D02*
X41912Y12571D01*
X41681Y12475D01*
X41482Y12323D01*
X41330Y12124D01*
X41234Y11893D01*
X41202Y11645D01*
X41234Y11397D01*
X41330Y11166D01*
X41482Y10967D01*
X41681Y10815D01*
X41912Y10719D01*
X42160Y10687D01*
X42408Y10719D01*
X42639Y10815D01*
X42838Y10967D01*
X42990Y11166D01*
X43086Y11397D01*
X43118Y11645D01*
X43086Y11893D01*
X42990Y12124D01*
X42838Y12323D01*
X42639Y12475D01*
X42408Y12571D01*
X42160Y12603D01*
D02*
G37*
G36*
X49900Y10350D02*
X49425D01*
Y9775D01*
X49900D01*
Y10350D01*
D02*
G37*
G36*
X49275D02*
X48800D01*
Y9775D01*
X49275D01*
Y10350D01*
D02*
G37*
G36*
X49900Y9625D02*
X49425D01*
Y9050D01*
X49900D01*
Y9625D01*
D02*
G37*
G36*
X49275D02*
X48800D01*
Y9050D01*
X49275D01*
Y9625D01*
D02*
G37*
G36*
X3850Y8850D02*
X3375D01*
Y8275D01*
X3850D01*
Y8850D01*
D02*
G37*
G36*
X3225D02*
X2750D01*
Y8275D01*
X3225D01*
Y8850D01*
D02*
G37*
G36*
X28750Y9073D02*
Y8250D01*
X29573D01*
X29552Y8410D01*
X29461Y8629D01*
X29317Y8817D01*
X29129Y8961D01*
X28910Y9052D01*
X28750Y9073D01*
D02*
G37*
G36*
X28600Y9073D02*
X28440Y9052D01*
X28221Y8961D01*
X28033Y8817D01*
X27889Y8629D01*
X27798Y8410D01*
X27777Y8250D01*
X28600D01*
Y9073D01*
D02*
G37*
G36*
X14525Y9073D02*
Y8250D01*
X15348D01*
X15327Y8410D01*
X15236Y8629D01*
X15092Y8817D01*
X14904Y8961D01*
X14685Y9052D01*
X14525Y9073D01*
D02*
G37*
G36*
X14375Y9073D02*
X14215Y9052D01*
X13996Y8961D01*
X13808Y8817D01*
X13664Y8629D01*
X13573Y8410D01*
X13552Y8250D01*
X14375D01*
Y9073D01*
D02*
G37*
G36*
X44700Y10063D02*
X44452Y10031D01*
X44221Y9935D01*
X44022Y9783D01*
X43870Y9584D01*
X43774Y9353D01*
X43742Y9105D01*
X43774Y8857D01*
X43870Y8626D01*
X44022Y8427D01*
X44221Y8275D01*
X44452Y8179D01*
X44700Y8147D01*
X44948Y8179D01*
X45179Y8275D01*
X45378Y8427D01*
X45530Y8626D01*
X45626Y8857D01*
X45658Y9105D01*
X45626Y9353D01*
X45530Y9584D01*
X45378Y9783D01*
X45179Y9935D01*
X44948Y10031D01*
X44700Y10063D01*
D02*
G37*
G36*
X42160D02*
X41912Y10031D01*
X41681Y9935D01*
X41482Y9783D01*
X41330Y9584D01*
X41234Y9353D01*
X41202Y9105D01*
X41234Y8857D01*
X41330Y8626D01*
X41482Y8427D01*
X41681Y8275D01*
X41912Y8179D01*
X42160Y8147D01*
X42408Y8179D01*
X42639Y8275D01*
X42838Y8427D01*
X42990Y8626D01*
X43086Y8857D01*
X43118Y9105D01*
X43086Y9353D01*
X42990Y9584D01*
X42838Y9783D01*
X42639Y9935D01*
X42408Y10031D01*
X42160Y10063D01*
D02*
G37*
G36*
X3850Y8125D02*
X3375D01*
Y7550D01*
X3850D01*
Y8125D01*
D02*
G37*
G36*
X3225D02*
X2750D01*
Y7550D01*
X3225D01*
Y8125D01*
D02*
G37*
G36*
X15348Y8100D02*
X14525D01*
Y7277D01*
X14685Y7298D01*
X14904Y7389D01*
X15092Y7533D01*
X15236Y7721D01*
X15327Y7940D01*
X15348Y8100D01*
D02*
G37*
G36*
X14375D02*
X13552D01*
X13573Y7940D01*
X13664Y7721D01*
X13808Y7533D01*
X13996Y7389D01*
X14215Y7298D01*
X14375Y7277D01*
Y8100D01*
D02*
G37*
G36*
X28600Y8100D02*
X27777D01*
X27798Y7940D01*
X27889Y7721D01*
X28033Y7533D01*
X28221Y7389D01*
X28440Y7298D01*
X28600Y7277D01*
Y8100D01*
D02*
G37*
G36*
X29573D02*
X28750D01*
Y7277D01*
X28910Y7298D01*
X29129Y7389D01*
X29317Y7533D01*
X29461Y7721D01*
X29552Y7940D01*
X29573Y8100D01*
D02*
G37*
G36*
X44775Y7513D02*
Y6640D01*
X45648D01*
X45626Y6813D01*
X45530Y7044D01*
X45378Y7243D01*
X45179Y7395D01*
X44948Y7491D01*
X44775Y7513D01*
D02*
G37*
G36*
X44625D02*
X44452Y7491D01*
X44221Y7395D01*
X44022Y7243D01*
X43870Y7044D01*
X43774Y6813D01*
X43752Y6640D01*
X44625D01*
Y7513D01*
D02*
G37*
G36*
X2350Y8850D02*
X1250D01*
Y7550D01*
X1444D01*
Y7200D01*
X1200D01*
Y5800D01*
X2300D01*
Y7200D01*
X2056D01*
Y7550D01*
X2350D01*
Y8850D01*
D02*
G37*
G36*
X45648Y6490D02*
X44775D01*
Y5617D01*
X44948Y5639D01*
X45179Y5735D01*
X45378Y5887D01*
X45530Y6086D01*
X45626Y6317D01*
X45648Y6490D01*
D02*
G37*
G36*
X44625D02*
X43752D01*
X43774Y6317D01*
X43870Y6086D01*
X44022Y5887D01*
X44221Y5735D01*
X44452Y5639D01*
X44625Y5617D01*
Y6490D01*
D02*
G37*
G36*
X42160Y7523D02*
X41912Y7491D01*
X41681Y7395D01*
X41482Y7243D01*
X41330Y7044D01*
X41234Y6813D01*
X41202Y6565D01*
X41234Y6317D01*
X41330Y6086D01*
X41482Y5887D01*
X41681Y5735D01*
X41912Y5639D01*
X42160Y5607D01*
X42408Y5639D01*
X42639Y5735D01*
X42838Y5887D01*
X42990Y6086D01*
X43086Y6317D01*
X43118Y6565D01*
X43086Y6813D01*
X42990Y7044D01*
X42838Y7243D01*
X42639Y7395D01*
X42408Y7491D01*
X42160Y7523D01*
D02*
G37*
G36*
X44775Y4973D02*
Y4100D01*
X45648D01*
X45626Y4273D01*
X45530Y4504D01*
X45378Y4703D01*
X45179Y4855D01*
X44948Y4951D01*
X44775Y4973D01*
D02*
G37*
G36*
X44625D02*
X44452Y4951D01*
X44221Y4855D01*
X44022Y4703D01*
X43870Y4504D01*
X43774Y4273D01*
X43752Y4100D01*
X44625D01*
Y4973D01*
D02*
G37*
G36*
X28775Y4048D02*
Y3225D01*
X29598D01*
X29577Y3385D01*
X29486Y3604D01*
X29342Y3792D01*
X29154Y3936D01*
X28935Y4027D01*
X28775Y4048D01*
D02*
G37*
G36*
X14550D02*
Y3225D01*
X15373D01*
X15352Y3385D01*
X15261Y3604D01*
X15117Y3792D01*
X14929Y3936D01*
X14710Y4027D01*
X14550Y4048D01*
D02*
G37*
G36*
X28625D02*
X28465Y4027D01*
X28246Y3936D01*
X28058Y3792D01*
X27914Y3604D01*
X27823Y3385D01*
X27802Y3225D01*
X28625D01*
Y4048D01*
D02*
G37*
G36*
X14400D02*
X14240Y4027D01*
X14021Y3936D01*
X13833Y3792D01*
X13689Y3604D01*
X13598Y3385D01*
X13577Y3225D01*
X14400D01*
Y4048D01*
D02*
G37*
G36*
X45648Y3950D02*
X44775D01*
Y3077D01*
X44948Y3099D01*
X45179Y3195D01*
X45378Y3347D01*
X45530Y3546D01*
X45626Y3777D01*
X45648Y3950D01*
D02*
G37*
G36*
X44625D02*
X43752D01*
X43774Y3777D01*
X43870Y3546D01*
X44022Y3347D01*
X44221Y3195D01*
X44452Y3099D01*
X44625Y3077D01*
Y3950D01*
D02*
G37*
G36*
X42160Y4983D02*
X41912Y4951D01*
X41681Y4855D01*
X41482Y4703D01*
X41330Y4504D01*
X41234Y4273D01*
X41202Y4025D01*
X41234Y3777D01*
X41330Y3546D01*
X41482Y3347D01*
X41681Y3195D01*
X41912Y3099D01*
X42160Y3067D01*
X42408Y3099D01*
X42639Y3195D01*
X42838Y3347D01*
X42990Y3546D01*
X43086Y3777D01*
X43118Y4025D01*
X43086Y4273D01*
X42990Y4504D01*
X42838Y4703D01*
X42639Y4855D01*
X42408Y4951D01*
X42160Y4983D01*
D02*
G37*
G36*
X2350Y3325D02*
X1875D01*
Y2750D01*
X2350D01*
Y3325D01*
D02*
G37*
G36*
X10115Y3568D02*
Y2695D01*
X10988D01*
X10966Y2868D01*
X10870Y3099D01*
X10718Y3298D01*
X10519Y3450D01*
X10288Y3546D01*
X10115Y3568D01*
D02*
G37*
G36*
X7575D02*
Y2695D01*
X8448D01*
X8426Y2868D01*
X8330Y3099D01*
X8178Y3298D01*
X7979Y3450D01*
X7748Y3546D01*
X7575Y3568D01*
D02*
G37*
G36*
X9965D02*
X9792Y3546D01*
X9561Y3450D01*
X9362Y3298D01*
X9210Y3099D01*
X9114Y2868D01*
X9092Y2695D01*
X9965D01*
Y3568D01*
D02*
G37*
G36*
X7425D02*
X7252Y3546D01*
X7021Y3450D01*
X6822Y3298D01*
X6670Y3099D01*
X6574Y2868D01*
X6552Y2695D01*
X7425D01*
Y3568D01*
D02*
G37*
G36*
X49000Y5708D02*
X48667Y5675D01*
X48346Y5578D01*
X48051Y5420D01*
X47792Y5208D01*
X47580Y4949D01*
X47422Y4654D01*
X47325Y4333D01*
X47292Y4000D01*
X47325Y3667D01*
X47422Y3346D01*
X47580Y3051D01*
X47792Y2792D01*
X48051Y2580D01*
X48346Y2422D01*
X48667Y2325D01*
X49000Y2292D01*
X49333Y2325D01*
X49654Y2422D01*
X49949Y2580D01*
X50208Y2792D01*
X50420Y3051D01*
X50578Y3346D01*
X50675Y3667D01*
X50708Y4000D01*
X50675Y4333D01*
X50578Y4654D01*
X50420Y4949D01*
X50208Y5208D01*
X49949Y5420D01*
X49654Y5578D01*
X49333Y5675D01*
X49000Y5708D01*
D02*
G37*
G36*
X15373Y3075D02*
X14550D01*
Y2252D01*
X14710Y2273D01*
X14929Y2364D01*
X15117Y2508D01*
X15261Y2696D01*
X15352Y2915D01*
X15373Y3075D01*
D02*
G37*
G36*
X14400D02*
X13577D01*
X13598Y2915D01*
X13689Y2696D01*
X13833Y2508D01*
X14021Y2364D01*
X14240Y2273D01*
X14400Y2252D01*
Y3075D01*
D02*
G37*
G36*
X22475Y4058D02*
X22240Y4027D01*
X22021Y3936D01*
X21833Y3792D01*
X21689Y3604D01*
X21598Y3385D01*
X21567Y3150D01*
X21598Y2915D01*
X21689Y2696D01*
X21833Y2508D01*
X22021Y2364D01*
X22240Y2273D01*
X22475Y2242D01*
X22710Y2273D01*
X22929Y2364D01*
X23117Y2508D01*
X23261Y2696D01*
X23352Y2915D01*
X23383Y3150D01*
X23352Y3385D01*
X23261Y3604D01*
X23117Y3792D01*
X22929Y3936D01*
X22710Y4027D01*
X22475Y4058D01*
D02*
G37*
G36*
X16475D02*
X16240Y4027D01*
X16021Y3936D01*
X15833Y3792D01*
X15689Y3604D01*
X15598Y3385D01*
X15567Y3150D01*
X15598Y2915D01*
X15689Y2696D01*
X15833Y2508D01*
X16021Y2364D01*
X16240Y2273D01*
X16475Y2242D01*
X16710Y2273D01*
X16929Y2364D01*
X17117Y2508D01*
X17261Y2696D01*
X17352Y2915D01*
X17383Y3150D01*
X17352Y3385D01*
X17261Y3604D01*
X17117Y3792D01*
X16929Y3936D01*
X16710Y4027D01*
X16475Y4058D01*
D02*
G37*
G36*
X44775Y2433D02*
Y1560D01*
X45648D01*
X45626Y1733D01*
X45530Y1964D01*
X45378Y2163D01*
X45179Y2315D01*
X44948Y2411D01*
X44775Y2433D01*
D02*
G37*
G36*
X44625D02*
X44452Y2411D01*
X44221Y2315D01*
X44022Y2163D01*
X43870Y1964D01*
X43774Y1733D01*
X43752Y1560D01*
X44625D01*
Y2433D01*
D02*
G37*
G36*
X2300Y5200D02*
X1200D01*
Y4770D01*
X1100Y4750D01*
X1001Y4683D01*
X1001Y4683D01*
X784Y4466D01*
X717Y4367D01*
X694Y4250D01*
X694Y4250D01*
Y1675D01*
X694Y1675D01*
X717Y1558D01*
X784Y1459D01*
X1034Y1209D01*
X1133Y1142D01*
X1250Y1119D01*
Y775D01*
X2350D01*
Y2025D01*
Y2600D01*
X1800D01*
Y2675D01*
X1725D01*
Y3325D01*
X1306D01*
Y3800D01*
X2300D01*
Y5200D01*
D02*
G37*
G36*
X2000Y33698D02*
X1840Y33677D01*
X1621Y33586D01*
X1433Y33442D01*
X1289Y33254D01*
X1198Y33035D01*
X1177Y32875D01*
X2000D01*
Y33698D01*
D02*
G37*
G36*
Y32725D02*
X1177D01*
X1198Y32565D01*
X1289Y32346D01*
X1433Y32158D01*
X1621Y32014D01*
X1840Y31923D01*
X2000Y31902D01*
Y32725D01*
D02*
G37*
G36*
X2475Y30525D02*
X2000D01*
Y29950D01*
X2475D01*
Y30525D01*
D02*
G37*
G36*
Y29800D02*
X2000D01*
Y29225D01*
X2475D01*
Y29800D01*
D02*
G37*
G36*
Y28850D02*
X2000D01*
Y28275D01*
X2475D01*
Y28850D01*
D02*
G37*
G36*
Y28125D02*
X2000D01*
Y27550D01*
X2475D01*
Y28125D01*
D02*
G37*
G36*
X3115Y25972D02*
Y24095D01*
X4992D01*
X4962Y24402D01*
X4850Y24770D01*
X4669Y25109D01*
X4426Y25406D01*
X4129Y25649D01*
X3790Y25830D01*
X3422Y25942D01*
X3115Y25972D01*
D02*
G37*
G36*
X2965D02*
X2658Y25942D01*
X2290Y25830D01*
X1951Y25649D01*
X1654Y25406D01*
X1411Y25109D01*
X1230Y24770D01*
X1118Y24402D01*
X1088Y24095D01*
X2965D01*
Y25972D01*
D02*
G37*
G36*
X4992Y23945D02*
X3115D01*
Y22068D01*
X3422Y22098D01*
X3790Y22210D01*
X4129Y22391D01*
X4426Y22634D01*
X4669Y22931D01*
X4850Y23270D01*
X4962Y23638D01*
X4992Y23945D01*
D02*
G37*
G36*
X2965D02*
X1088D01*
X1118Y23638D01*
X1230Y23270D01*
X1411Y22931D01*
X1654Y22634D01*
X1951Y22391D01*
X2290Y22210D01*
X2658Y22098D01*
X2965Y22068D01*
Y23945D01*
D02*
G37*
G36*
X3115Y13932D02*
Y12055D01*
X4992D01*
X4962Y12362D01*
X4850Y12730D01*
X4669Y13069D01*
X4426Y13366D01*
X4129Y13609D01*
X3790Y13790D01*
X3422Y13902D01*
X3115Y13932D01*
D02*
G37*
G36*
X2965D02*
X2658Y13902D01*
X2290Y13790D01*
X1951Y13609D01*
X1654Y13366D01*
X1411Y13069D01*
X1230Y12730D01*
X1118Y12362D01*
X1088Y12055D01*
X2965D01*
Y13932D01*
D02*
G37*
G36*
X4992Y11905D02*
X3115D01*
Y10028D01*
X3422Y10058D01*
X3790Y10170D01*
X4129Y10351D01*
X4426Y10594D01*
X4669Y10891D01*
X4850Y11230D01*
X4962Y11598D01*
X4992Y11905D01*
D02*
G37*
G36*
X2965D02*
X1088D01*
X1118Y11598D01*
X1230Y11230D01*
X1411Y10891D01*
X1654Y10594D01*
X1951Y10351D01*
X2290Y10170D01*
X2658Y10058D01*
X2965Y10028D01*
Y11905D01*
D02*
G37*
G36*
X28600Y23175D02*
X27777D01*
X27798Y23015D01*
X27889Y22796D01*
X28033Y22608D01*
X28221Y22464D01*
X28440Y22373D01*
X28600Y22352D01*
Y23175D01*
D02*
G37*
G36*
X29573D02*
X28750D01*
Y22352D01*
X28910Y22373D01*
X29129Y22464D01*
X29317Y22608D01*
X29461Y22796D01*
X29552Y23015D01*
X29573Y23175D01*
D02*
G37*
%LPD*%
D10*
X48625Y24900D02*
Y26100D01*
Y23625D02*
Y24900D01*
D13*
X10825Y28446D02*
Y29834D01*
X11575Y28300D02*
X11750Y28125D01*
X10971Y28300D02*
X11575D01*
X10825Y28446D02*
X10971Y28300D01*
X18650Y28400D02*
X19175D01*
X19825Y29050D02*
X21425D01*
X19175Y28400D02*
X19825Y29050D01*
X16925Y25700D02*
Y26900D01*
Y25700D02*
X16975Y25650D01*
X18425Y28150D02*
Y28175D01*
X18650Y28400D01*
X18425Y26900D02*
Y28150D01*
X10075Y32800D02*
X11100D01*
X11675Y33375D01*
X13525D01*
X10825Y29834D02*
X11016Y30025D01*
X11750D01*
X13825Y32446D02*
Y33075D01*
Y31581D02*
Y32446D01*
X13951Y32321D01*
X11775Y30000D02*
X13300D01*
X11750Y30025D02*
X11775Y30000D01*
X13300D02*
X14575D01*
Y30850D01*
X14025Y31400D02*
X14575Y30850D01*
X13825Y31581D02*
X14006Y31400D01*
X14025D01*
X14584Y32321D02*
X14605Y32300D01*
X13951Y32321D02*
X14584D01*
X13525Y33375D02*
X13825Y33075D01*
D15*
X13550Y35175D02*
X13550Y35175D01*
X15848Y35500D02*
X24530D01*
X13550Y35175D02*
X15523D01*
X15848Y35500D01*
X6075Y32575D02*
Y32800D01*
X7600Y31050D02*
X11675D01*
X6075Y32575D02*
X7600Y31050D01*
X9375Y10100D02*
Y19675D01*
X11200Y21500D02*
X16725D01*
X9375Y19675D02*
X11200Y21500D01*
X9000Y19850D02*
X11050Y21900D01*
X9000Y7725D02*
Y19850D01*
X11050Y21900D02*
Y22875D01*
X11175Y6295D02*
Y8300D01*
X9375Y10100D02*
X11175Y8300D01*
X10040Y5160D02*
X11175Y6295D01*
X9000Y7725D02*
X9025Y7700D01*
X16725Y21500D02*
X17725Y22500D01*
X20225Y33050D02*
X21425D01*
X27419Y33456D02*
Y34506D01*
Y33456D02*
X27475Y33400D01*
X26068Y32380D02*
X26098Y32350D01*
X26400Y33425D02*
X26425Y33400D01*
X26400Y33425D02*
Y34525D01*
X26068Y32380D02*
Y32769D01*
X25933Y31567D02*
X25971D01*
X26906Y32351D02*
X26950Y32395D01*
X25400Y32100D02*
X25933Y31567D01*
X26950Y32395D02*
Y33617D01*
X11675Y31050D02*
X12375Y31750D01*
X12945D02*
X12995Y31800D01*
X12375Y31750D02*
X12945D01*
X11725Y32800D02*
X12995D01*
X10775Y31850D02*
X11725Y32800D01*
X45825Y23900D02*
Y25350D01*
X46550Y26075D02*
X47050D01*
X45825Y25350D02*
X46550Y26075D01*
X43475Y33050D02*
X44700Y34275D01*
X41100Y33050D02*
X43475D01*
X44700Y34275D02*
Y34505D01*
X37625Y29575D02*
X41100Y33050D01*
X38675Y23250D02*
X40825Y25400D01*
X43645D02*
X44700Y24345D01*
X40825Y25400D02*
X43645D01*
X30875Y33875D02*
X30983D01*
X31158Y33700D01*
X35075Y31425D02*
X35100Y31450D01*
X14605Y31800D02*
X15600D01*
X15600Y31800D01*
X34025Y31450D02*
X35100D01*
X35075Y30551D02*
Y31425D01*
X31625Y33350D02*
Y33450D01*
X31375Y33700D02*
X31625Y33450D01*
X31158Y33700D02*
X31375D01*
X35325Y35125D02*
X36375Y34075D01*
X28575Y33575D02*
X30125Y35125D01*
X35325D01*
X33875Y32925D02*
X35075D01*
X35100Y32950D01*
X20567Y27517D02*
X20747D01*
X20150Y17400D02*
Y27100D01*
X20567Y27517D01*
X18450Y15700D02*
X20150Y17400D01*
X19725Y27475D02*
X20300Y28050D01*
X17525Y15685D02*
X19725Y17885D01*
Y27475D01*
X15450Y14550D02*
X19250Y18350D01*
Y27675D02*
X20125Y28550D01*
X19250Y18350D02*
Y27675D01*
X21406Y27531D02*
X21425Y27550D01*
X20747Y27517D02*
X20760Y27531D01*
X21406D01*
X21250Y27125D02*
X26125D01*
X20775Y26650D02*
X21250Y27125D01*
X1750Y6500D02*
Y8150D01*
X1800Y8200D01*
X1250Y1425D02*
X1800D01*
X1000Y1675D02*
Y4250D01*
Y1675D02*
X1250Y1425D01*
X1717Y4467D02*
X1750Y4500D01*
X1217Y4467D02*
X1717D01*
X1000Y4250D02*
X1217Y4467D01*
X3250Y6500D02*
X6300D01*
X7500Y7700D01*
X3250Y4500D02*
Y6500D01*
X3300Y1425D02*
X3425Y1300D01*
X3300Y2675D02*
X5015D01*
X7500Y5160D01*
X18750Y1300D02*
X19450Y2000D01*
Y15200D02*
X20625Y16375D01*
X19450Y2000D02*
Y15200D01*
X20625Y16375D02*
X24575D01*
X18450Y13200D02*
Y15700D01*
X17525Y11225D02*
Y15685D01*
X20450Y13200D02*
X23450Y10200D01*
Y6200D02*
Y10200D01*
X23475Y28550D02*
Y29525D01*
X22950Y27925D02*
Y29525D01*
X24600Y28300D02*
Y29750D01*
X24525Y28225D02*
X24600Y28300D01*
X26125Y27125D02*
X26382Y26868D01*
Y26093D02*
X26400Y26075D01*
X26382Y26093D02*
Y26868D01*
X9025Y31850D02*
X10775D01*
X24900Y34525D02*
Y35127D01*
X24775Y35252D02*
X24900Y35127D01*
X24775Y35252D02*
Y35255D01*
X24530Y35500D02*
X24775Y35255D01*
X46150Y15625D02*
Y22900D01*
X46875Y23342D02*
X47125Y23592D01*
Y23625D01*
X46592Y23342D02*
X46875D01*
X46150Y22900D02*
X46592Y23342D01*
X44050Y23050D02*
X44975D01*
X45825Y23900D01*
X45075Y22532D02*
Y22550D01*
X46175Y23650D01*
Y24650D01*
X44700Y21805D02*
Y22157D01*
X45075Y22532D01*
X43400Y22400D02*
X44050Y23050D01*
X46175Y24650D02*
X46425Y24900D01*
X47125D01*
X44710Y14185D02*
X46150Y15625D01*
X47050Y26075D02*
X47125Y26150D01*
X42160Y19265D02*
X43400Y20505D01*
Y22400D01*
X41730Y34075D02*
X42160Y34505D01*
X36375Y34075D02*
X41730D01*
X37825Y29250D02*
X40638Y32062D01*
X42062D02*
X42160Y31965D01*
X40638Y32062D02*
X42062D01*
X40825Y30925D02*
X43660D01*
X44700Y31965D01*
X38800Y28900D02*
X40825Y30925D01*
X31500Y28900D02*
X38800D01*
X28418Y34543D02*
Y35318D01*
X35825Y35500D02*
X36425Y34900D01*
X28400Y34525D02*
X28418Y34543D01*
Y35318D02*
X28600Y35500D01*
X35825D01*
X27900Y34525D02*
X27919Y34506D01*
X28100Y33575D02*
X28575D01*
X27919Y33756D02*
X28100Y33575D01*
X27919Y33756D02*
Y34506D01*
X27900Y34525D02*
Y35127D01*
X31700Y29250D02*
X37825D01*
X29875Y33050D02*
X31375D01*
X31625Y33300D01*
X31850Y29575D02*
X37625D01*
X35603Y30026D02*
X35677Y30100D01*
X34175Y30026D02*
X35603D01*
X30900Y30050D02*
X31700Y29250D01*
X43660Y27925D02*
X43950Y27635D01*
Y27635D02*
Y27635D01*
X30890Y29050D02*
X31365Y28575D01*
X30971Y28050D02*
X31096Y27925D01*
X31231Y28250D02*
X39300D01*
X43950Y27635D02*
X44700Y26885D01*
X31096Y27925D02*
X43660D01*
X39300Y28250D02*
X40475Y29425D01*
X30931Y28550D02*
X31231Y28250D01*
X39075Y28575D02*
X40975Y30475D01*
X31365Y28575D02*
X39075D01*
X30850Y29550D02*
X31500Y28900D01*
X29875Y27550D02*
X39925D01*
X40625Y26850D01*
X40975Y30475D02*
X43650D01*
X44000Y30125D01*
Y30125D02*
Y30125D01*
Y30125D02*
X44700Y29425D01*
X40475D02*
X42160D01*
X42125Y26850D02*
X42160Y26885D01*
X40625Y26850D02*
X42125D01*
X35925Y22000D02*
X39815D01*
X42160Y24345D01*
X34675Y23250D02*
X35925Y22000D01*
X37050Y24875D02*
X38675Y23250D01*
X27675Y24875D02*
X37050D01*
X33425Y24500D02*
X34675Y23250D01*
X27275Y24500D02*
X33425D01*
X26900Y24875D02*
Y26075D01*
Y24875D02*
X27275Y24500D01*
X27400Y25150D02*
X27675Y24875D01*
X27400Y25150D02*
Y26075D01*
X33925Y30276D02*
X34175Y30026D01*
X33925Y30276D02*
Y30300D01*
X3425Y1300D02*
X18750D01*
X22900Y18975D02*
X25875Y16000D01*
Y4750D02*
Y16000D01*
X22900Y18975D02*
Y26075D01*
X26525Y12150D02*
Y16250D01*
X23400Y19375D02*
Y26075D01*
Y19375D02*
X26525Y16250D01*
X27150Y12550D02*
Y16475D01*
X23900Y19725D02*
Y26075D01*
Y19725D02*
X27150Y16475D01*
X36475Y32225D02*
X36500Y32250D01*
X30975Y32225D02*
X36475D01*
X25550Y30212D02*
Y30225D01*
Y30212D02*
X25650Y30112D01*
X24725Y31050D02*
X25550Y30225D01*
X24725Y31050D02*
Y32725D01*
X23450Y30900D02*
X24600Y29750D01*
X24000Y29192D02*
Y29675D01*
X24900Y22750D02*
Y26075D01*
X25425Y23200D02*
X25449Y23224D01*
X25849D01*
X24900Y22750D02*
X26350Y21300D01*
X24400Y22475D02*
Y26075D01*
X22425Y30050D02*
X22950Y29525D01*
X44700Y14185D02*
X44710D01*
X25400Y24075D02*
Y26075D01*
Y24075D02*
X25425Y24050D01*
X25849Y23224D02*
X26050Y23425D01*
X25925Y24825D02*
X26050Y24700D01*
Y23425D02*
Y24700D01*
X25925Y24825D02*
Y25404D01*
X25919Y25410D02*
Y26056D01*
Y25410D02*
X25925Y25404D01*
X25900Y26075D02*
X25919Y26056D01*
X25050Y31467D02*
X25409Y31109D01*
Y31109D02*
Y31109D01*
X33925Y31550D02*
X34025Y31450D01*
X25050Y31467D02*
Y32925D01*
X25400Y32100D02*
Y34525D01*
X24400Y33575D02*
X25050Y32925D01*
X23900Y33550D02*
Y34525D01*
Y33550D02*
X24725Y32725D01*
X24400Y33575D02*
Y34525D01*
X25900Y32936D02*
Y34525D01*
Y32936D02*
X26068Y32769D01*
X26900Y33667D02*
X26950Y33617D01*
X26900Y33667D02*
Y34525D01*
X27400D02*
X27419Y34506D01*
X47875Y9675D02*
X47900Y9700D01*
X47875Y8600D02*
Y9675D01*
X23075Y30600D02*
X24000Y29675D01*
X23075Y30600D02*
Y31475D01*
X22625Y32550D02*
X23450Y31725D01*
Y30900D02*
Y31725D01*
X22500Y32050D02*
X23075Y31475D01*
X21425Y32050D02*
X22500D01*
X22700Y30300D02*
X23475Y29525D01*
X21425Y31550D02*
X22300D01*
X22700Y30300D02*
Y31150D01*
X22300Y31550D02*
X22700Y31150D01*
X21425Y30050D02*
X22425D01*
X30800Y32050D02*
X30975Y32225D01*
X29875Y29050D02*
X30890D01*
X29875Y29550D02*
X30850D01*
X21425Y32550D02*
X22625D01*
X29875Y32050D02*
X30800D01*
X30875Y30550D02*
X31850Y29575D01*
X29875Y30550D02*
X30875D01*
X29875Y30050D02*
X30900D01*
X17000Y33525D02*
Y34800D01*
X16825Y33350D02*
X17000Y33525D01*
X18425Y29600D02*
Y30850D01*
X18625Y31050D01*
X17425Y32100D02*
X19200D01*
X16825Y33350D02*
X17008Y33167D01*
Y32517D02*
Y33167D01*
Y32517D02*
X17425Y32100D01*
X20250Y31050D02*
X21425D01*
X19200Y32100D02*
X20250Y31050D01*
X18625Y31050D02*
X18625Y31050D01*
X19675D01*
X20175Y30550D02*
X21425D01*
X19675Y31050D02*
X20175Y30550D01*
X30900Y11125D02*
X32675Y12900D01*
X28575Y11125D02*
X30900D01*
X27150Y12550D02*
X28575Y11125D01*
X30375Y10475D02*
X32675Y8175D01*
X26525Y12150D02*
X28200Y10475D01*
X30375D01*
X31700Y2150D02*
X32700Y3150D01*
X27525Y2150D02*
X31700D01*
X26725Y2950D02*
Y3900D01*
Y2950D02*
X27525Y2150D01*
X25875Y4750D02*
X26725Y3900D01*
X32675Y12900D02*
Y13200D01*
X24400Y22475D02*
X26150Y20725D01*
X30175D02*
X32675Y18225D01*
X26150Y20725D02*
X30175D01*
X26350Y21300D02*
X30725D01*
X32675Y23250D01*
X31725Y30425D02*
X32300D01*
X29875Y28550D02*
X30931D01*
X29875Y28050D02*
X30971D01*
X32300Y30425D02*
X32425Y30300D01*
X29875Y31050D02*
X31100D01*
X31725Y30425D01*
X29875Y31550D02*
X32425D01*
X36675Y18225D02*
X36700Y18200D01*
X38675Y8175D02*
X38700Y8150D01*
X34675Y18225D02*
X34700Y18200D01*
X23450Y6200D02*
X26075Y3575D01*
Y2675D02*
Y3575D01*
X25750Y2500D02*
Y3440D01*
X22558Y6633D02*
Y8067D01*
Y6633D02*
X25750Y3440D01*
X22450Y8175D02*
X22558Y8067D01*
X26075Y2675D02*
X27075Y1675D01*
X33225D02*
X34700Y3150D01*
X27075Y1675D02*
X33225D01*
X25750Y2500D02*
X26900Y1350D01*
X24475Y3150D02*
X26600Y1025D01*
X26900Y1350D02*
X34900D01*
X36700Y3150D01*
X26600Y1025D02*
X36550D01*
X38675Y3150D01*
X38700D01*
X15450Y12125D02*
Y14550D01*
X20125Y28550D02*
X21425D01*
X20300Y28050D02*
X21425D01*
X18425Y8200D02*
Y10325D01*
X17525Y11225D02*
X18425Y10325D01*
X17375Y4250D02*
Y10200D01*
X15450Y12125D02*
X17375Y10200D01*
X18425Y8200D02*
X18450Y8175D01*
X17375Y4250D02*
X18475Y3150D01*
X15600Y32800D02*
X15600Y32800D01*
X14605Y32800D02*
X15600D01*
X8075Y32800D02*
X9025Y31850D01*
X0Y0D02*
Y36000D01*
Y0D02*
X53000D01*
Y36000D01*
X0D02*
X53000D01*
D27*
X7500Y5160D02*
D03*
Y2620D02*
D03*
X10040D02*
D03*
Y5160D02*
D03*
Y7700D02*
D03*
X44700Y1485D02*
D03*
X42160D02*
D03*
X44700Y4025D02*
D03*
X42160D02*
D03*
X44700Y6565D02*
D03*
X42160D02*
D03*
X44700Y9105D02*
D03*
X42160D02*
D03*
X44700Y11645D02*
D03*
X42160D02*
D03*
X44700Y14185D02*
D03*
X42160D02*
D03*
X44700Y16725D02*
D03*
X42160D02*
D03*
X44700Y19265D02*
D03*
X42160D02*
D03*
X44700Y21805D02*
D03*
X42160D02*
D03*
X44700Y24345D02*
D03*
X42160D02*
D03*
X44700Y26885D02*
D03*
X42160D02*
D03*
X44700Y29425D02*
D03*
X42160D02*
D03*
X44700Y31965D02*
D03*
X42160D02*
D03*
X44700Y34505D02*
D03*
X5750Y19250D02*
D03*
X7750Y16750D02*
D03*
X5750D02*
D03*
X7750Y19250D02*
D03*
X51400Y20380D02*
D03*
Y17840D02*
D03*
Y15300D02*
D03*
Y12760D02*
D03*
D32*
X11750Y28125D02*
D03*
Y29075D02*
D03*
Y30025D02*
D03*
X9000D02*
D03*
Y28125D02*
D03*
D33*
X35100Y32950D02*
D03*
Y31450D02*
D03*
X13300Y28550D02*
D03*
Y30000D02*
D03*
X14575Y28550D02*
D03*
Y30000D02*
D03*
D34*
X3300Y2675D02*
D03*
X1800D02*
D03*
X48625Y26150D02*
D03*
X47125D02*
D03*
X48625Y24900D02*
D03*
X47125D02*
D03*
Y23625D02*
D03*
X48625D02*
D03*
X18425Y29600D02*
D03*
X16975D02*
D03*
X17000Y34800D02*
D03*
X18450D02*
D03*
X4050Y28200D02*
D03*
X2550D02*
D03*
Y29875D02*
D03*
X4000D02*
D03*
X11550Y26550D02*
D03*
X10100D02*
D03*
X16975Y25650D02*
D03*
X18425D02*
D03*
X49350Y9700D02*
D03*
X47900D02*
D03*
X31325Y26050D02*
D03*
X29875D02*
D03*
X33075Y33350D02*
D03*
X31625D02*
D03*
X20225Y34800D02*
D03*
X21675D02*
D03*
X18425Y28150D02*
D03*
X16975D02*
D03*
X18425Y26900D02*
D03*
X16925D02*
D03*
X32425Y31550D02*
D03*
X33925D02*
D03*
X32425Y30300D02*
D03*
X33925D02*
D03*
X1800Y8200D02*
D03*
X3300D02*
D03*
X1800Y1425D02*
D03*
X3300D02*
D03*
X11550Y25275D02*
D03*
X10100D02*
D03*
X11550Y24000D02*
D03*
X10100D02*
D03*
D35*
X22900Y34525D02*
D03*
X23400D02*
D03*
X23900D02*
D03*
X24400D02*
D03*
X24900D02*
D03*
X25400D02*
D03*
X25900D02*
D03*
X26400D02*
D03*
X26900D02*
D03*
X27400D02*
D03*
X27900D02*
D03*
X28400D02*
D03*
Y26075D02*
D03*
X27900D02*
D03*
X27400D02*
D03*
X26900D02*
D03*
X26400D02*
D03*
X25900D02*
D03*
X25400D02*
D03*
X24900D02*
D03*
X24400D02*
D03*
X23900D02*
D03*
X23400D02*
D03*
X22900D02*
D03*
D36*
X29875Y33050D02*
D03*
Y32550D02*
D03*
Y32050D02*
D03*
Y31550D02*
D03*
Y31050D02*
D03*
Y30550D02*
D03*
Y30050D02*
D03*
Y29550D02*
D03*
Y29050D02*
D03*
Y28550D02*
D03*
Y28050D02*
D03*
Y27550D02*
D03*
X21425D02*
D03*
Y28050D02*
D03*
Y28550D02*
D03*
Y29050D02*
D03*
Y29550D02*
D03*
Y30050D02*
D03*
Y30550D02*
D03*
Y31050D02*
D03*
Y31550D02*
D03*
Y32050D02*
D03*
Y32550D02*
D03*
Y33050D02*
D03*
D37*
X16825Y33350D02*
D03*
D38*
Y31050D02*
D03*
X18625D02*
D03*
Y33350D02*
D03*
D39*
X14605Y32800D02*
D03*
Y32300D02*
D03*
Y31800D02*
D03*
X12995D02*
D03*
Y32300D02*
D03*
Y32800D02*
D03*
D40*
X47850Y11975D02*
D03*
Y20775D02*
D03*
D41*
X3250Y6500D02*
D03*
X1750D02*
D03*
Y4500D02*
D03*
X3250D02*
D03*
D42*
X10150Y24050D02*
Y25275D01*
X10100D02*
Y26550D01*
X10025Y26625D02*
X10100Y26550D01*
X9350Y26625D02*
X10025D01*
X9000Y26975D02*
Y28125D01*
Y26975D02*
X9350Y26625D01*
X7500Y7700D02*
X9025D01*
X10040D01*
X21675Y34050D02*
Y34800D01*
X10179Y23218D02*
X10521Y22875D01*
X11050D01*
X10100Y24000D02*
X10179Y23921D01*
Y23218D02*
Y23921D01*
X48525Y26250D02*
Y26957D01*
X48232Y27250D02*
X48525Y26957D01*
X47725Y27250D02*
X48232D01*
X48525Y26250D02*
X48625Y26150D01*
X16300Y3075D02*
X16300Y3075D01*
X48625Y23625D02*
X48700Y23550D01*
X49550D01*
X50180Y22920D01*
X51400D01*
X28500Y26050D02*
X29875D01*
X21675Y34800D02*
X22800D01*
X47875Y9725D02*
X47900Y9700D01*
X47875Y9725D02*
Y11950D01*
X47850Y11975D02*
X47875Y11950D01*
X47850Y11975D02*
Y12221D01*
X48389Y12760D01*
X51400D01*
X29875Y26050D02*
X30550D01*
X30675Y13200D02*
Y18225D01*
X30700Y3150D02*
Y8150D01*
X30675Y8175D02*
X30700Y8150D01*
X16975Y25594D02*
Y25650D01*
X16875Y25494D02*
X16975Y25594D01*
X16244Y25494D02*
X16875D01*
X16225Y25475D02*
X16244Y25494D01*
X10100Y24000D02*
X10150Y24050D01*
X9000Y28125D02*
X9050Y28075D01*
D43*
X34700Y3150D02*
Y18200D01*
X36700Y3150D02*
Y18200D01*
X38675Y13200D02*
Y18225D01*
X38700Y3150D02*
Y8150D01*
D44*
X24475Y3150D02*
D03*
X22475D02*
D03*
X20475D02*
D03*
X18475D02*
D03*
X16475D02*
D03*
X14475D02*
D03*
X14450Y8175D02*
D03*
X16450D02*
D03*
X18450D02*
D03*
X20450D02*
D03*
X22450D02*
D03*
X24450D02*
D03*
Y13200D02*
D03*
X22450D02*
D03*
X20450D02*
D03*
X18450D02*
D03*
X16450D02*
D03*
X14450D02*
D03*
X28700Y3150D02*
D03*
X30700D02*
D03*
X32700D02*
D03*
X34700D02*
D03*
X36700D02*
D03*
X38700D02*
D03*
X38675Y13200D02*
D03*
X36675D02*
D03*
X34675D02*
D03*
X32675D02*
D03*
X30675D02*
D03*
X28675D02*
D03*
Y18225D02*
D03*
X30675D02*
D03*
X32675D02*
D03*
X34675D02*
D03*
X36675D02*
D03*
X38675D02*
D03*
Y23250D02*
D03*
X36675D02*
D03*
X34675D02*
D03*
X32675D02*
D03*
X30675D02*
D03*
X28675D02*
D03*
Y8175D02*
D03*
X30675D02*
D03*
X32675D02*
D03*
X34675D02*
D03*
X36675D02*
D03*
X38675D02*
D03*
X10075Y32800D02*
D03*
X8075D02*
D03*
X6075D02*
D03*
X4075D02*
D03*
X2075D02*
D03*
X13000Y18000D02*
D03*
X49000Y32000D02*
D03*
Y4000D02*
D03*
D45*
X7500Y7700D02*
D03*
X51400Y22920D02*
D03*
D46*
X42160Y34505D02*
D03*
D47*
X3040Y24020D02*
D03*
Y11980D02*
D03*
D48*
X13100Y23925D02*
D03*
X15825Y27400D02*
D03*
X15800Y29625D02*
D03*
X12900Y27200D02*
D03*
X11575Y34075D02*
D03*
X13550Y35175D02*
D03*
X7850Y29850D02*
D03*
X10075Y28325D02*
D03*
X4650Y5425D02*
D03*
X4625Y8175D02*
D03*
X4300Y26950D02*
D03*
X7850Y29100D02*
D03*
X10075Y29825D02*
D03*
Y29075D02*
D03*
X7950Y22250D02*
D03*
X10475Y11075D02*
D03*
X8025Y11175D02*
D03*
X12075Y22150D02*
D03*
X15175Y22850D02*
D03*
X17375Y17725D02*
D03*
X17525Y24525D02*
D03*
X19450Y29725D02*
D03*
X33875Y20825D02*
D03*
X39975Y33250D02*
D03*
X37200Y30925D02*
D03*
X38650Y25025D02*
D03*
X33850Y26875D02*
D03*
X28050Y27800D02*
D03*
X28125Y31925D02*
D03*
X22675Y33325D02*
D03*
X20225Y33050D02*
D03*
X27475Y33400D02*
D03*
X26098Y32350D02*
D03*
X26425Y33400D02*
D03*
X26906Y32351D02*
D03*
X25971Y31567D02*
D03*
X11925Y32175D02*
D03*
X35075Y30551D02*
D03*
X15600Y31800D02*
D03*
X30875Y33875D02*
D03*
X33875Y32925D02*
D03*
X21700Y34050D02*
D03*
X17725Y22500D02*
D03*
X20775Y26650D02*
D03*
X24575Y16375D02*
D03*
X22950Y27925D02*
D03*
X23475Y28550D02*
D03*
X24525Y28225D02*
D03*
X11050Y22875D02*
D03*
X47725Y27250D02*
D03*
X36425Y34900D02*
D03*
X35677Y30100D02*
D03*
X36500Y32250D02*
D03*
X25650Y30112D02*
D03*
X24000Y29192D02*
D03*
X25425Y23200D02*
D03*
Y24050D02*
D03*
X25409Y31109D02*
D03*
X47875Y8600D02*
D03*
X30550Y26050D02*
D03*
X16225Y25475D02*
D03*
X15600Y32800D02*
D03*
M02*
