G04*
G04 #@! TF.GenerationSoftware,Altium Limited,Altium Designer,20.1.14 (287)*
G04*
G04 Layer_Color=16711935*
%FSLAX43Y43*%
%MOMM*%
G71*
G04*
G04 #@! TF.SameCoordinates,AEFB124F-17DC-4B78-9156-2B8A2562A570*
G04*
G04*
G04 #@! TF.FilePolarity,Negative*
G04*
G01*
G75*
%ADD15C,0.200*%
%ADD27C,1.500*%
%ADD28C,1.600*%
G04:AMPARAMS|DCode=29|XSize=1.6mm|YSize=1.6mm|CornerRadius=0.425mm|HoleSize=0mm|Usage=FLASHONLY|Rotation=270.000|XOffset=0mm|YOffset=0mm|HoleType=Round|Shape=RoundedRectangle|*
%AMROUNDEDRECTD29*
21,1,1.600,0.750,0,0,270.0*
21,1,0.750,1.600,0,0,270.0*
1,1,0.850,-0.375,-0.375*
1,1,0.850,-0.375,0.375*
1,1,0.850,0.375,0.375*
1,1,0.850,0.375,-0.375*
%
%ADD29ROUNDEDRECTD29*%
%ADD30R,1.600X1.600*%
%ADD31C,3.600*%
D15*
X0Y0D02*
Y36000D01*
Y0D02*
X53000D01*
Y36000D01*
X0D02*
X53000D01*
D27*
X24475Y3150D02*
D03*
X22475D02*
D03*
X20475D02*
D03*
X18475D02*
D03*
X16475D02*
D03*
X14475D02*
D03*
X14450Y8175D02*
D03*
X16450D02*
D03*
X18450D02*
D03*
X20450D02*
D03*
X22450D02*
D03*
X24450D02*
D03*
Y13200D02*
D03*
X22450D02*
D03*
X20450D02*
D03*
X18450D02*
D03*
X16450D02*
D03*
X14450D02*
D03*
X28700Y3150D02*
D03*
X30700D02*
D03*
X32700D02*
D03*
X34700D02*
D03*
X36700D02*
D03*
X38700D02*
D03*
X38675Y13200D02*
D03*
X36675D02*
D03*
X34675D02*
D03*
X32675D02*
D03*
X30675D02*
D03*
X28675D02*
D03*
Y18225D02*
D03*
X30675D02*
D03*
X32675D02*
D03*
X34675D02*
D03*
X36675D02*
D03*
X38675D02*
D03*
Y23250D02*
D03*
X36675D02*
D03*
X34675D02*
D03*
X32675D02*
D03*
X30675D02*
D03*
X28675D02*
D03*
Y8175D02*
D03*
X30675D02*
D03*
X32675D02*
D03*
X34675D02*
D03*
X36675D02*
D03*
X38675D02*
D03*
X10075Y32800D02*
D03*
X8075D02*
D03*
X6075D02*
D03*
X4075D02*
D03*
X2075D02*
D03*
X13000Y18000D02*
D03*
X49000Y32000D02*
D03*
Y4000D02*
D03*
D28*
X7500Y5160D02*
D03*
Y2620D02*
D03*
X10040D02*
D03*
Y5160D02*
D03*
Y7700D02*
D03*
X44700Y1485D02*
D03*
X42160D02*
D03*
X44700Y4025D02*
D03*
X42160D02*
D03*
X44700Y6565D02*
D03*
X42160D02*
D03*
X44700Y9105D02*
D03*
X42160D02*
D03*
X44700Y11645D02*
D03*
X42160D02*
D03*
X44700Y14185D02*
D03*
X42160D02*
D03*
X44700Y16725D02*
D03*
X42160D02*
D03*
X44700Y19265D02*
D03*
X42160D02*
D03*
X44700Y21805D02*
D03*
X42160D02*
D03*
X44700Y24345D02*
D03*
X42160D02*
D03*
X44700Y26885D02*
D03*
X42160D02*
D03*
X44700Y29425D02*
D03*
X42160D02*
D03*
X44700Y31965D02*
D03*
X42160D02*
D03*
X44700Y34505D02*
D03*
X5750Y19250D02*
D03*
X7750Y16750D02*
D03*
X5750D02*
D03*
X7750Y19250D02*
D03*
X51400Y20380D02*
D03*
Y17840D02*
D03*
Y15300D02*
D03*
Y12760D02*
D03*
D29*
X7500Y7700D02*
D03*
X51400Y22920D02*
D03*
D30*
X42160Y34505D02*
D03*
D31*
X3040Y24020D02*
D03*
Y11980D02*
D03*
M02*
