G04*
G04 #@! TF.GenerationSoftware,Altium Limited,Altium Designer,20.1.14 (287)*
G04*
G04 Layer_Physical_Order=1*
G04 Layer_Color=255*
%FSLAX43Y43*%
%MOMM*%
G71*
G04*
G04 #@! TF.SameCoordinates,85BD2DBB-ACBE-4D76-AB48-93807FC358BF*
G04*
G04*
G04 #@! TF.FilePolarity,Positive*
G04*
G01*
G75*
%ADD10C,0.200*%
%ADD12C,0.250*%
%ADD25C,1.500*%
%ADD34R,0.900X0.700*%
%ADD35R,0.700X0.900*%
%ADD36R,0.990X0.300*%
G04:AMPARAMS|DCode=37|XSize=0.3mm|YSize=1.45mm|CornerRadius=0mm|HoleSize=0mm|Usage=FLASHONLY|Rotation=135.000|XOffset=0mm|YOffset=0mm|HoleType=Round|Shape=Round|*
%AMOVALD37*
21,1,1.150,0.300,0.000,0.000,225.0*
1,1,0.300,0.407,0.407*
1,1,0.300,-0.407,-0.407*
%
%ADD37OVALD37*%

G04:AMPARAMS|DCode=38|XSize=0.3mm|YSize=1.45mm|CornerRadius=0mm|HoleSize=0mm|Usage=FLASHONLY|Rotation=225.000|XOffset=0mm|YOffset=0mm|HoleType=Round|Shape=Round|*
%AMOVALD38*
21,1,1.150,0.300,0.000,0.000,315.0*
1,1,0.300,-0.407,0.407*
1,1,0.300,0.407,-0.407*
%
%ADD38OVALD38*%

%ADD39R,1.000X0.600*%
%ADD40R,0.700X1.000*%
%ADD41R,1.000X1.400*%
G04:AMPARAMS|DCode=42|XSize=1.3mm|YSize=1.1mm|CornerRadius=0.275mm|HoleSize=0mm|Usage=FLASHONLY|Rotation=0.000|XOffset=0mm|YOffset=0mm|HoleType=Round|Shape=RoundedRectangle|*
%AMROUNDEDRECTD42*
21,1,1.300,0.550,0,0,0.0*
21,1,0.750,1.100,0,0,0.0*
1,1,0.550,0.375,-0.275*
1,1,0.550,-0.375,-0.275*
1,1,0.550,-0.375,0.275*
1,1,0.550,0.375,0.275*
%
%ADD42ROUNDEDRECTD42*%
%ADD43R,1.300X1.100*%
%ADD44C,0.300*%
%ADD45C,0.500*%
%ADD46C,0.400*%
%ADD47C,1.400*%
G04:AMPARAMS|DCode=48|XSize=2mm|YSize=2.5mm|CornerRadius=0.5mm|HoleSize=0mm|Usage=FLASHONLY|Rotation=180.000|XOffset=0mm|YOffset=0mm|HoleType=Round|Shape=RoundedRectangle|*
%AMROUNDEDRECTD48*
21,1,2.000,1.500,0,0,180.0*
21,1,1.000,2.500,0,0,180.0*
1,1,1.000,-0.500,0.750*
1,1,1.000,0.500,0.750*
1,1,1.000,0.500,-0.750*
1,1,1.000,-0.500,-0.750*
%
%ADD48ROUNDEDRECTD48*%
%ADD49R,1.500X1.500*%
G04:AMPARAMS|DCode=50|XSize=1.5mm|YSize=1.5mm|CornerRadius=0.375mm|HoleSize=0mm|Usage=FLASHONLY|Rotation=90.000|XOffset=0mm|YOffset=0mm|HoleType=Round|Shape=RoundedRectangle|*
%AMROUNDEDRECTD50*
21,1,1.500,0.750,0,0,90.0*
21,1,0.750,1.500,0,0,90.0*
1,1,0.750,0.375,0.375*
1,1,0.750,0.375,-0.375*
1,1,0.750,-0.375,-0.375*
1,1,0.750,-0.375,0.375*
%
%ADD50ROUNDEDRECTD50*%
%ADD51R,1.500X1.500*%
G04:AMPARAMS|DCode=52|XSize=1.5mm|YSize=1.5mm|CornerRadius=0.375mm|HoleSize=0mm|Usage=FLASHONLY|Rotation=180.000|XOffset=0mm|YOffset=0mm|HoleType=Round|Shape=RoundedRectangle|*
%AMROUNDEDRECTD52*
21,1,1.500,0.750,0,0,180.0*
21,1,0.750,1.500,0,0,180.0*
1,1,0.750,-0.375,0.375*
1,1,0.750,0.375,0.375*
1,1,0.750,0.375,-0.375*
1,1,0.750,-0.375,-0.375*
%
%ADD52ROUNDEDRECTD52*%
%ADD53C,3.500*%
%ADD54C,5.000*%
%ADD55C,0.600*%
G36*
X59592Y408D02*
X38000D01*
Y1765D01*
X38555Y2320D01*
X38610Y2402D01*
X38630Y2500D01*
Y4825D01*
X38610Y4923D01*
X38555Y5005D01*
X37255Y6305D01*
X37173Y6360D01*
X37075Y6380D01*
X34056D01*
X33505Y6930D01*
X33423Y6985D01*
X33325Y7005D01*
X22969D01*
X22230Y7744D01*
Y9244D01*
X22211Y9342D01*
X22155Y9424D01*
X21761Y9818D01*
X21824Y9935D01*
X21925Y9915D01*
X22048Y9940D01*
X22175Y9850D01*
Y9825D01*
X23175D01*
Y11025D01*
X23175D01*
X23118Y11152D01*
X23142Y11204D01*
X23242Y11270D01*
X24055Y12083D01*
X24121Y12182D01*
X24144Y12300D01*
X24121Y12417D01*
X24055Y12516D01*
X23956Y12582D01*
X23949Y12583D01*
X23842Y12653D01*
X23815Y12790D01*
X23808Y12799D01*
X23167Y12158D01*
X22990Y12335D01*
X23631Y12976D01*
X23622Y12983D01*
X23485Y13010D01*
X23415Y13117D01*
X23414Y13124D01*
X23348Y13223D01*
X23249Y13289D01*
X23201Y13299D01*
X23115Y13344D01*
X23070Y13430D01*
X23061Y13477D01*
X22994Y13576D01*
X22895Y13643D01*
X22894Y13643D01*
X22852Y13781D01*
X23055Y13984D01*
X23110Y14067D01*
X23130Y14164D01*
Y15619D01*
X24580Y17070D01*
X24635Y17152D01*
X24655Y17250D01*
Y19466D01*
X24720Y19479D01*
X24885Y19590D01*
X24996Y19755D01*
X25035Y19950D01*
X24996Y20145D01*
X24885Y20310D01*
X24720Y20421D01*
X24525Y20460D01*
X24357Y20426D01*
X24230Y20495D01*
Y21187D01*
X24210Y21285D01*
X24155Y21367D01*
X24138Y21385D01*
X24121Y21468D01*
X24055Y21567D01*
X23242Y22380D01*
X23142Y22446D01*
X23025Y22470D01*
X22908Y22446D01*
X22809Y22380D01*
X22743Y22281D01*
X22733Y22233D01*
X22688Y22147D01*
X22602Y22102D01*
X22555Y22093D01*
X22456Y22026D01*
X22389Y21927D01*
X22380Y21880D01*
X22335Y21794D01*
X22249Y21749D01*
X22201Y21739D01*
X22102Y21673D01*
X22036Y21574D01*
X22026Y21526D01*
X21981Y21440D01*
X21895Y21395D01*
X21848Y21386D01*
X21748Y21319D01*
X21682Y21220D01*
X21682Y21219D01*
X21544Y21177D01*
X19316Y23405D01*
X19233Y23460D01*
X19136Y23480D01*
X18966D01*
X18911Y23562D01*
X18746Y23672D01*
X18551Y23711D01*
X18356Y23672D01*
X18190Y23562D01*
X18080Y23396D01*
X18041Y23201D01*
X18065Y23079D01*
X17906Y23047D01*
X17740Y22937D01*
X17630Y22771D01*
X17591Y22576D01*
X17630Y22381D01*
X17740Y22216D01*
X17906Y22105D01*
X18022Y22082D01*
X18114Y22038D01*
X18156Y21948D01*
X18179Y21830D01*
X18231Y21752D01*
X18225Y21625D01*
X18225Y21625D01*
X18225Y21625D01*
Y20425D01*
X18225D01*
Y20375D01*
X18225D01*
Y19175D01*
X19225D01*
Y19545D01*
X19627D01*
X19769Y19402D01*
X19728Y19265D01*
X19726Y19264D01*
X19627Y19198D01*
X19561Y19099D01*
X19560Y19092D01*
X19490Y18985D01*
X19353Y18958D01*
X19344Y18951D01*
X19985Y18310D01*
X19808Y18133D01*
X19167Y18774D01*
X19160Y18765D01*
X19158Y18752D01*
X19067Y18660D01*
X19022Y18669D01*
X18969Y18680D01*
X18625D01*
Y18700D01*
X17434D01*
X17360Y18810D01*
X17195Y18921D01*
X17000Y18960D01*
X16805Y18921D01*
X16780Y18904D01*
X16675Y18984D01*
Y19069D01*
X16725Y19175D01*
X17725D01*
Y20375D01*
X17725D01*
Y20425D01*
X17725D01*
Y21625D01*
X17454D01*
X17453Y21630D01*
X17397Y21713D01*
X16108Y23003D01*
X16156Y23120D01*
X16288D01*
X16385Y23140D01*
X16468Y23195D01*
X17243Y23970D01*
X19575D01*
Y23900D01*
X20875D01*
Y24800D01*
X20925D01*
Y25175D01*
X20225D01*
Y25425D01*
X20925D01*
Y25800D01*
X20875Y25800D01*
Y26700D01*
X19575D01*
Y26380D01*
X19325D01*
Y26850D01*
X18325D01*
Y25650D01*
X18325D01*
Y25600D01*
X18325D01*
Y24480D01*
X17925D01*
Y24875D01*
X16825D01*
Y24350D01*
X16825Y24350D01*
X16825D01*
X16787Y24235D01*
X16182Y23630D01*
X14800D01*
Y24100D01*
X14925D01*
Y24750D01*
Y25400D01*
X14800D01*
Y25575D01*
X15165D01*
Y26475D01*
Y27375D01*
X14800D01*
Y29550D01*
X14842Y29592D01*
X59592D01*
Y408D01*
D02*
G37*
G36*
X13700Y29300D02*
X13700Y27375D01*
X13485D01*
Y26475D01*
Y25575D01*
X13700D01*
Y25400D01*
X13675D01*
Y24750D01*
Y24100D01*
X13700D01*
Y23300D01*
X13470D01*
X13445Y23305D01*
X11028D01*
X10935Y23443D01*
X10770Y23554D01*
X10575Y23592D01*
X10380Y23554D01*
X10215Y23443D01*
X10104Y23278D01*
X10065Y23083D01*
X10104Y22887D01*
X10215Y22722D01*
X10380Y22612D01*
X10575Y22573D01*
X10770Y22612D01*
X10935Y22722D01*
X10984Y22795D01*
X12800D01*
Y22625D01*
X13495D01*
Y22375D01*
X12800D01*
Y22205D01*
X11514D01*
X11460Y22285D01*
X11295Y22396D01*
X11100Y22435D01*
X10905Y22396D01*
X10740Y22285D01*
X10629Y22120D01*
X10590Y21925D01*
X10629Y21730D01*
X10740Y21565D01*
X10905Y21454D01*
X11100Y21415D01*
X11295Y21454D01*
X11460Y21565D01*
X11548Y21695D01*
X13229D01*
X13278Y21578D01*
X11300Y19600D01*
X6575Y19600D01*
X5250Y18275D01*
X5250Y408D01*
X408D01*
Y29592D01*
X13408D01*
X13700Y29300D01*
D02*
G37*
G36*
X15863Y21502D02*
X15810Y21375D01*
X15475D01*
Y20375D01*
X16053D01*
Y20342D01*
X16072Y20245D01*
X16128Y20162D01*
X16297Y19992D01*
X16249Y19875D01*
X15475D01*
Y18875D01*
X15920D01*
X16044Y18850D01*
X16067Y18733D01*
X16134Y18634D01*
X16476Y18291D01*
X16529Y18256D01*
X16529Y18255D01*
X16640Y18090D01*
X16805Y17979D01*
X17000Y17940D01*
X17195Y17979D01*
X17298Y18048D01*
X17425Y18008D01*
Y17700D01*
X18625D01*
Y18170D01*
X18851D01*
X18854Y18158D01*
X18920Y18058D01*
X19733Y17245D01*
X19832Y17179D01*
X19859Y17174D01*
X19900Y17036D01*
X16145Y13280D01*
X16090Y13198D01*
X16070Y13100D01*
Y12000D01*
X14205Y12000D01*
X13902Y12302D01*
X13787Y12380D01*
X13650Y12407D01*
X12200D01*
Y12550D01*
X11000D01*
Y11727D01*
X7650Y8361D01*
Y8358D01*
X6987Y7695D01*
X6959Y7666D01*
X6818Y7684D01*
X6538Y7935D01*
X6538Y8513D01*
Y11362D01*
X5800Y12100D01*
Y17912D01*
X6913Y19025D01*
X9249D01*
X9297Y18908D01*
X8895Y18505D01*
X8840Y18423D01*
X8820Y18325D01*
Y18144D01*
X8621Y18061D01*
X8433Y17917D01*
X8289Y17729D01*
X8198Y17510D01*
X8167Y17275D01*
X8198Y17040D01*
X8289Y16821D01*
X8433Y16633D01*
X8621Y16489D01*
X8840Y16398D01*
X9075Y16367D01*
X9310Y16398D01*
X9529Y16489D01*
X9717Y16633D01*
X9861Y16821D01*
X9952Y17040D01*
X9983Y17275D01*
X9952Y17510D01*
X9861Y17729D01*
X9717Y17917D01*
X9529Y18061D01*
X9392Y18118D01*
X9371Y18261D01*
X9756Y18645D01*
X11600D01*
X11698Y18665D01*
X11780Y18720D01*
X14530Y21470D01*
X14585Y21552D01*
X14605Y21650D01*
Y21700D01*
X15665D01*
X15863Y21502D01*
D02*
G37*
%LPC*%
G36*
X45100Y28816D02*
Y28050D01*
X45866D01*
X45852Y28160D01*
X45761Y28379D01*
X45617Y28567D01*
X45429Y28711D01*
X45210Y28802D01*
X45100Y28816D01*
D02*
G37*
G36*
X44850D02*
X44740Y28802D01*
X44521Y28711D01*
X44333Y28567D01*
X44189Y28379D01*
X44098Y28160D01*
X44084Y28050D01*
X44850D01*
Y28816D01*
D02*
G37*
G36*
X39800D02*
Y28050D01*
X40566D01*
X40552Y28160D01*
X40461Y28379D01*
X40317Y28567D01*
X40129Y28711D01*
X39910Y28802D01*
X39800Y28816D01*
D02*
G37*
G36*
X39550D02*
X39440Y28802D01*
X39221Y28711D01*
X39033Y28567D01*
X38889Y28379D01*
X38798Y28160D01*
X38784Y28050D01*
X39550D01*
Y28816D01*
D02*
G37*
G36*
X50400Y28791D02*
Y28025D01*
X51166D01*
X51152Y28135D01*
X51061Y28354D01*
X50917Y28542D01*
X50729Y28686D01*
X50510Y28777D01*
X50400Y28791D01*
D02*
G37*
G36*
X50150D02*
X50040Y28777D01*
X49821Y28686D01*
X49633Y28542D01*
X49489Y28354D01*
X49398Y28135D01*
X49384Y28025D01*
X50150D01*
Y28791D01*
D02*
G37*
G36*
X34475D02*
Y28025D01*
X35241D01*
X35227Y28135D01*
X35136Y28354D01*
X34992Y28542D01*
X34804Y28686D01*
X34585Y28777D01*
X34475Y28791D01*
D02*
G37*
G36*
X34225D02*
X34115Y28777D01*
X33896Y28686D01*
X33708Y28542D01*
X33564Y28354D01*
X33473Y28135D01*
X33459Y28025D01*
X34225D01*
Y28791D01*
D02*
G37*
G36*
X29525Y28250D02*
X29100D01*
Y27725D01*
X29525D01*
Y28250D01*
D02*
G37*
G36*
X28850D02*
X28425D01*
Y27725D01*
X28850D01*
Y28250D01*
D02*
G37*
G36*
X24175Y28100D02*
X23650D01*
Y27675D01*
X24175D01*
Y28100D01*
D02*
G37*
G36*
X27500D02*
X26975D01*
Y27675D01*
X27500D01*
Y28100D01*
D02*
G37*
G36*
X40566Y27800D02*
X39800D01*
Y27034D01*
X39910Y27048D01*
X40129Y27139D01*
X40317Y27283D01*
X40461Y27471D01*
X40552Y27690D01*
X40566Y27800D01*
D02*
G37*
G36*
X45866Y27800D02*
X45100D01*
Y27034D01*
X45210Y27048D01*
X45429Y27139D01*
X45617Y27283D01*
X45761Y27471D01*
X45852Y27690D01*
X45866Y27800D01*
D02*
G37*
G36*
X44850D02*
X44084D01*
X44098Y27690D01*
X44189Y27471D01*
X44333Y27283D01*
X44521Y27139D01*
X44740Y27048D01*
X44850Y27034D01*
Y27800D01*
D02*
G37*
G36*
X39550Y27800D02*
X38784D01*
X38798Y27690D01*
X38889Y27471D01*
X39033Y27283D01*
X39221Y27139D01*
X39440Y27048D01*
X39550Y27034D01*
Y27800D01*
D02*
G37*
G36*
X50150Y27775D02*
X49384D01*
X49398Y27665D01*
X49489Y27446D01*
X49633Y27258D01*
X49821Y27114D01*
X50040Y27023D01*
X50150Y27009D01*
Y27775D01*
D02*
G37*
G36*
X34225Y27775D02*
X33459D01*
X33473Y27665D01*
X33564Y27446D01*
X33708Y27258D01*
X33896Y27114D01*
X34115Y27023D01*
X34225Y27009D01*
Y27775D01*
D02*
G37*
G36*
X35241D02*
X34475D01*
Y27009D01*
X34585Y27023D01*
X34804Y27114D01*
X34992Y27258D01*
X35136Y27446D01*
X35227Y27665D01*
X35241Y27775D01*
D02*
G37*
G36*
X51166Y27775D02*
X50400D01*
Y27009D01*
X50510Y27023D01*
X50729Y27114D01*
X50917Y27258D01*
X51061Y27446D01*
X51152Y27665D01*
X51166Y27775D01*
D02*
G37*
G36*
X27500Y27425D02*
X26975D01*
Y27000D01*
X27500D01*
Y27425D01*
D02*
G37*
G36*
X26725Y28100D02*
X25700D01*
Y27550D01*
Y27000D01*
X26725D01*
Y27550D01*
Y28100D01*
D02*
G37*
G36*
X25450D02*
X24425D01*
Y27550D01*
Y27000D01*
X25450D01*
Y27550D01*
Y28100D01*
D02*
G37*
G36*
X24175Y27425D02*
X23650D01*
Y27000D01*
X24175D01*
Y27425D01*
D02*
G37*
G36*
X29525Y27475D02*
X29100D01*
Y26950D01*
X29525D01*
Y27475D01*
D02*
G37*
G36*
X28850D02*
X28425D01*
Y26950D01*
X28850D01*
Y27475D01*
D02*
G37*
G36*
X15990Y27375D02*
X15415D01*
Y26600D01*
X15990D01*
Y27375D01*
D02*
G37*
G36*
X29475Y26750D02*
X28475D01*
Y26406D01*
X28309D01*
X28273Y26460D01*
X28108Y26571D01*
X27913Y26610D01*
X27717Y26571D01*
X27577Y26477D01*
X27487Y26507D01*
X27450Y26533D01*
Y26600D01*
X26250D01*
Y26600D01*
X26175D01*
Y26600D01*
X24975D01*
Y26600D01*
X24900D01*
Y26600D01*
X23700D01*
X23625Y26696D01*
Y26700D01*
X22325D01*
Y25800D01*
X23625D01*
X23700Y25704D01*
Y25600D01*
X24900D01*
Y25600D01*
X24975D01*
Y25600D01*
X26175D01*
Y25600D01*
X26250D01*
Y25600D01*
X27450D01*
Y25667D01*
X27487Y25693D01*
X27577Y25723D01*
X27717Y25629D01*
X27913Y25590D01*
X28108Y25629D01*
X28273Y25740D01*
X28309Y25794D01*
X28475D01*
Y25450D01*
X29475D01*
Y26750D01*
D02*
G37*
G36*
X17925Y26900D02*
X17500D01*
Y26375D01*
X17925D01*
Y26900D01*
D02*
G37*
G36*
X17250D02*
X16825D01*
Y26375D01*
X17250D01*
Y26900D01*
D02*
G37*
G36*
X15990Y26350D02*
X15415D01*
Y25575D01*
X15990D01*
Y26350D01*
D02*
G37*
G36*
X30975Y28200D02*
X29975D01*
Y27000D01*
X30118D01*
Y26750D01*
X29975D01*
Y25450D01*
X30975D01*
Y26750D01*
X30832D01*
Y27000D01*
X30975D01*
Y28200D01*
D02*
G37*
G36*
X57000Y28658D02*
X56677Y28626D01*
X56366Y28532D01*
X56079Y28379D01*
X55828Y28172D01*
X55621Y27921D01*
X55468Y27634D01*
X55374Y27323D01*
X55342Y27000D01*
X55374Y26677D01*
X55468Y26366D01*
X55621Y26079D01*
X55828Y25828D01*
X56079Y25621D01*
X56366Y25468D01*
X56677Y25374D01*
X57000Y25342D01*
X57323Y25374D01*
X57634Y25468D01*
X57921Y25621D01*
X58172Y25828D01*
X58379Y26079D01*
X58532Y26366D01*
X58626Y26677D01*
X58658Y27000D01*
X58626Y27323D01*
X58532Y27634D01*
X58379Y27921D01*
X58172Y28172D01*
X57921Y28379D01*
X57634Y28532D01*
X57323Y28626D01*
X57000Y28658D01*
D02*
G37*
G36*
X44975Y26782D02*
X44753Y26753D01*
X44546Y26667D01*
X44369Y26531D01*
X44233Y26354D01*
X44147Y26147D01*
X44118Y25925D01*
X44147Y25703D01*
X44233Y25496D01*
X44369Y25319D01*
X44417Y25282D01*
X44374Y25155D01*
X40276D01*
X40233Y25282D01*
X40281Y25319D01*
X40417Y25496D01*
X40503Y25703D01*
X40532Y25925D01*
X40503Y26147D01*
X40417Y26354D01*
X40281Y26531D01*
X40104Y26667D01*
X39897Y26753D01*
X39675Y26782D01*
X39453Y26753D01*
X39246Y26667D01*
X39069Y26531D01*
X38933Y26354D01*
X38847Y26147D01*
X38818Y25925D01*
X38847Y25703D01*
X38933Y25496D01*
X39069Y25319D01*
X39117Y25282D01*
X39074Y25155D01*
X34984D01*
X34941Y25282D01*
X34956Y25294D01*
X35092Y25471D01*
X35178Y25678D01*
X35207Y25900D01*
X35178Y26122D01*
X35092Y26329D01*
X34956Y26506D01*
X34779Y26642D01*
X34572Y26728D01*
X34350Y26757D01*
X34128Y26728D01*
X33921Y26642D01*
X33744Y26506D01*
X33608Y26329D01*
X33522Y26122D01*
X33493Y25900D01*
X33522Y25678D01*
X33608Y25471D01*
X33744Y25294D01*
X33759Y25282D01*
X33716Y25155D01*
X31489D01*
X31392Y25135D01*
X31309Y25080D01*
X27406Y21177D01*
X27268Y21219D01*
X27268Y21220D01*
X27202Y21319D01*
X27102Y21386D01*
X27055Y21395D01*
X26969Y21440D01*
X26924Y21526D01*
X26914Y21574D01*
X26848Y21673D01*
X26749Y21739D01*
X26742Y21740D01*
X26635Y21810D01*
X26608Y21947D01*
X26601Y21956D01*
X25960Y21315D01*
X25318Y20673D01*
X25332Y20655D01*
X25369Y20530D01*
X25365Y20522D01*
X25345Y20425D01*
Y17051D01*
X25365Y16953D01*
X25420Y16871D01*
X25695Y16596D01*
X25695Y16595D01*
X25702Y16559D01*
X25813Y16393D01*
X25978Y16283D01*
X26173Y16244D01*
X26368Y16283D01*
X26534Y16393D01*
X26644Y16559D01*
X26683Y16754D01*
X26644Y16949D01*
X26592Y17027D01*
X26549Y17151D01*
X26660Y17316D01*
X26698Y17511D01*
X26660Y17707D01*
X26549Y17872D01*
X26384Y17982D01*
X26230Y18013D01*
Y18463D01*
X26357Y18544D01*
X26500Y18515D01*
X26557Y18458D01*
X26540Y18375D01*
X26579Y18180D01*
X26690Y18015D01*
X26855Y17904D01*
X27050Y17865D01*
X27245Y17904D01*
X27410Y18015D01*
X27521Y18180D01*
X27552Y18334D01*
X27680Y18370D01*
X27724Y18306D01*
X27823Y18239D01*
X27870Y18230D01*
X27956Y18185D01*
X28001Y18099D01*
X28011Y18051D01*
X28077Y17952D01*
X28176Y17886D01*
X28224Y17876D01*
X28310Y17831D01*
X28355Y17745D01*
X28364Y17698D01*
X28431Y17599D01*
X28530Y17532D01*
X28566Y17525D01*
X28638Y17409D01*
X28637Y17392D01*
X28620Y17309D01*
Y17025D01*
X28640Y16927D01*
X28695Y16845D01*
X28930Y16610D01*
X28888Y16472D01*
X28883Y16471D01*
X28784Y16405D01*
X28718Y16306D01*
X28708Y16258D01*
X28663Y16172D01*
X28577Y16127D01*
X28530Y16118D01*
X28431Y16051D01*
X28364Y15952D01*
X28355Y15905D01*
X28310Y15819D01*
X28224Y15774D01*
X28176Y15764D01*
X28077Y15698D01*
X28011Y15599D01*
X28001Y15551D01*
X27956Y15465D01*
X27870Y15420D01*
X27823Y15411D01*
X27724Y15344D01*
X27657Y15245D01*
X27656Y15238D01*
X27586Y15131D01*
X27450Y15104D01*
X27440Y15098D01*
X28081Y14456D01*
X28726Y13812D01*
X28827Y13854D01*
X28847Y13860D01*
X29138Y13570D01*
X29220Y13515D01*
X29318Y13495D01*
X29375D01*
Y13250D01*
X30575D01*
Y13250D01*
X30650Y13300D01*
X31850D01*
X31875Y13200D01*
X32400D01*
Y13750D01*
X32525D01*
Y13875D01*
X33175D01*
Y14220D01*
X40694D01*
X42370Y12544D01*
Y9431D01*
X41661Y8722D01*
X41504Y8842D01*
X41297Y8928D01*
X41075Y8957D01*
X40853Y8928D01*
X40646Y8842D01*
X40469Y8706D01*
X40333Y8529D01*
X40247Y8322D01*
X40218Y8100D01*
X40247Y7878D01*
X40333Y7671D01*
X40469Y7494D01*
X40646Y7358D01*
X40853Y7272D01*
X41075Y7243D01*
X41297Y7272D01*
X41504Y7358D01*
X41681Y7494D01*
X41817Y7671D01*
X41903Y7878D01*
X41932Y8100D01*
X41912Y8252D01*
X41924Y8264D01*
X41925Y8264D01*
X42805Y9145D01*
X42860Y9227D01*
X42880Y9325D01*
Y12650D01*
X42860Y12748D01*
X42805Y12830D01*
X41208Y14428D01*
X41256Y14545D01*
X42369D01*
X44670Y12244D01*
Y9450D01*
X44690Y9352D01*
X44745Y9270D01*
X45537Y8478D01*
X45472Y8322D01*
X45443Y8100D01*
X45472Y7878D01*
X45558Y7671D01*
X45694Y7494D01*
X45871Y7358D01*
X46078Y7272D01*
X46300Y7243D01*
X46522Y7272D01*
X46729Y7358D01*
X46906Y7494D01*
X47042Y7671D01*
X47128Y7878D01*
X47157Y8100D01*
X47128Y8322D01*
X47042Y8529D01*
X46906Y8706D01*
X46729Y8842D01*
X46522Y8928D01*
X46300Y8957D01*
X46078Y8928D01*
X45887Y8849D01*
X45180Y9556D01*
Y12350D01*
X45160Y12448D01*
X45105Y12530D01*
X42833Y14803D01*
X42881Y14920D01*
X45894D01*
X48570Y12244D01*
Y9900D01*
X48590Y9802D01*
X48645Y9720D01*
X50445Y7920D01*
X50527Y7865D01*
X50625Y7845D01*
X50786D01*
X50858Y7671D01*
X50994Y7494D01*
X51171Y7358D01*
X51378Y7272D01*
X51600Y7243D01*
X51822Y7272D01*
X52029Y7358D01*
X52206Y7494D01*
X52342Y7671D01*
X52428Y7878D01*
X52457Y8100D01*
X52428Y8322D01*
X52342Y8529D01*
X52206Y8706D01*
X52191Y8718D01*
X52234Y8845D01*
X54544D01*
X55495Y7895D01*
X55577Y7840D01*
X55675Y7820D01*
X56071D01*
X56133Y7671D01*
X56269Y7494D01*
X56446Y7358D01*
X56653Y7272D01*
X56875Y7243D01*
X57097Y7272D01*
X57304Y7358D01*
X57481Y7494D01*
X57617Y7671D01*
X57703Y7878D01*
X57729Y8075D01*
X57775D01*
Y10100D01*
X57732D01*
X57703Y10322D01*
X57617Y10529D01*
X57481Y10706D01*
X57304Y10842D01*
X57097Y10928D01*
X56875Y10957D01*
X56653Y10928D01*
X56446Y10842D01*
X56269Y10706D01*
X56136Y10533D01*
X52339D01*
X52206Y10706D01*
X52029Y10842D01*
X51822Y10928D01*
X51600Y10957D01*
X51378Y10928D01*
X51171Y10842D01*
X50994Y10706D01*
X50858Y10529D01*
X50772Y10322D01*
X50743Y10100D01*
X50772Y9878D01*
X50779Y9861D01*
X50671Y9789D01*
X50255Y10206D01*
Y12625D01*
X50235Y12723D01*
X50180Y12805D01*
X47280Y15705D01*
X47198Y15760D01*
X47100Y15780D01*
X46256D01*
X46208Y15897D01*
X48530Y18220D01*
X48585Y18302D01*
X48605Y18400D01*
Y21919D01*
X49844Y23159D01*
X49846Y23158D01*
X50053Y23072D01*
X50275Y23043D01*
X50497Y23072D01*
X50704Y23158D01*
X50881Y23294D01*
X51017Y23471D01*
X51103Y23678D01*
X51132Y23900D01*
X51103Y24122D01*
X51017Y24329D01*
X50881Y24506D01*
X50866Y24518D01*
X50909Y24645D01*
X52494D01*
X55280Y21859D01*
Y21512D01*
X55096Y21436D01*
X54908Y21292D01*
X54764Y21104D01*
X54673Y20885D01*
X54642Y20650D01*
X54673Y20415D01*
X54764Y20196D01*
X54908Y20008D01*
X55096Y19864D01*
X55315Y19773D01*
X55550Y19742D01*
X55785Y19773D01*
X56004Y19864D01*
X56192Y20008D01*
X56336Y20196D01*
X56427Y20415D01*
X56458Y20650D01*
X56427Y20885D01*
X56336Y21104D01*
X56192Y21292D01*
X56004Y21436D01*
X55790Y21525D01*
Y21965D01*
X55770Y22063D01*
X55715Y22145D01*
X52780Y25080D01*
X52698Y25135D01*
X52600Y25155D01*
X50909D01*
X50866Y25282D01*
X50881Y25294D01*
X51017Y25471D01*
X51103Y25678D01*
X51132Y25900D01*
X51103Y26122D01*
X51017Y26329D01*
X50881Y26506D01*
X50704Y26642D01*
X50497Y26728D01*
X50275Y26757D01*
X50053Y26728D01*
X49846Y26642D01*
X49669Y26506D01*
X49533Y26329D01*
X49447Y26122D01*
X49418Y25900D01*
X49447Y25678D01*
X49533Y25471D01*
X49669Y25294D01*
X49684Y25282D01*
X49641Y25155D01*
X45576D01*
X45533Y25282D01*
X45581Y25319D01*
X45717Y25496D01*
X45803Y25703D01*
X45832Y25925D01*
X45803Y26147D01*
X45717Y26354D01*
X45581Y26531D01*
X45404Y26667D01*
X45197Y26753D01*
X44975Y26782D01*
D02*
G37*
G36*
X17925Y26125D02*
X16825D01*
Y25600D01*
Y25125D01*
X17925D01*
Y25600D01*
Y26125D01*
D02*
G37*
G36*
X15600Y25400D02*
X15175D01*
Y24875D01*
X15600D01*
Y25400D01*
D02*
G37*
G36*
X22850Y24850D02*
X22275D01*
Y24475D01*
X22850D01*
Y24850D01*
D02*
G37*
G36*
X15600Y24625D02*
X15175D01*
Y24100D01*
X15600D01*
Y24625D01*
D02*
G37*
G36*
X24375Y24500D02*
Y23975D01*
X24800D01*
Y24500D01*
X24375D01*
D02*
G37*
G36*
X22850Y24225D02*
X22275D01*
Y23850D01*
X22850D01*
Y24225D01*
D02*
G37*
G36*
X26200Y24450D02*
X25200D01*
Y23250D01*
X25553D01*
Y23217D01*
X25572Y23120D01*
X25628Y23037D01*
X25895Y22769D01*
Y22495D01*
X25856Y22456D01*
X25808Y22446D01*
X25708Y22380D01*
X24895Y21567D01*
X24829Y21468D01*
X24806Y21350D01*
X24829Y21233D01*
X24895Y21134D01*
X24994Y21068D01*
X25001Y21067D01*
X25108Y20997D01*
X25135Y20860D01*
X25142Y20851D01*
X25783Y21492D01*
X26425Y22133D01*
X26414Y22142D01*
X26376Y22277D01*
X26385Y22292D01*
X26405Y22389D01*
Y22875D01*
X26385Y22973D01*
X26330Y23055D01*
X26245Y23141D01*
X26200Y23250D01*
X26223Y23367D01*
X26333Y23419D01*
X26430Y23354D01*
X26625Y23315D01*
X26820Y23354D01*
X26985Y23465D01*
X27096Y23630D01*
X27135Y23825D01*
X27096Y24020D01*
X26985Y24185D01*
X26820Y24296D01*
X26625Y24335D01*
X26430Y24296D01*
X26327Y24227D01*
X26200Y24295D01*
Y24450D01*
D02*
G37*
G36*
X24800Y23725D02*
X24375D01*
Y23200D01*
X24800D01*
Y23725D01*
D02*
G37*
G36*
X23675Y24850D02*
X23100D01*
Y24350D01*
Y23850D01*
X23675Y23850D01*
X23700Y23733D01*
Y23200D01*
X24125D01*
Y23850D01*
Y24500D01*
X23700Y24500D01*
X23675Y24617D01*
Y24850D01*
D02*
G37*
G36*
X50275Y22757D02*
X50053Y22728D01*
X49846Y22642D01*
X49669Y22506D01*
X49533Y22329D01*
X49447Y22122D01*
X49418Y21900D01*
X49447Y21678D01*
X49533Y21471D01*
X49669Y21294D01*
X49846Y21158D01*
X50053Y21072D01*
X50275Y21043D01*
X50497Y21072D01*
X50704Y21158D01*
X50881Y21294D01*
X51017Y21471D01*
X51103Y21678D01*
X51132Y21900D01*
X51103Y22122D01*
X51017Y22329D01*
X50881Y22506D01*
X50704Y22642D01*
X50497Y22728D01*
X50275Y22757D01*
D02*
G37*
G36*
X58090Y21558D02*
X57855Y21527D01*
X57636Y21436D01*
X57448Y21292D01*
X57304Y21104D01*
X57213Y20885D01*
X57182Y20650D01*
X57213Y20415D01*
X57304Y20196D01*
X57448Y20008D01*
X57636Y19864D01*
X57855Y19773D01*
X58090Y19742D01*
X58325Y19773D01*
X58544Y19864D01*
X58732Y20008D01*
X58876Y20196D01*
X58967Y20415D01*
X58998Y20650D01*
X58967Y20885D01*
X58876Y21104D01*
X58732Y21292D01*
X58544Y21436D01*
X58325Y21527D01*
X58090Y21558D01*
D02*
G37*
G36*
X50275Y20757D02*
X50053Y20728D01*
X49846Y20642D01*
X49669Y20506D01*
X49533Y20329D01*
X49447Y20122D01*
X49418Y19900D01*
X49447Y19678D01*
X49533Y19471D01*
X49669Y19294D01*
X49846Y19158D01*
X50053Y19072D01*
X50275Y19043D01*
X50497Y19072D01*
X50704Y19158D01*
X50881Y19294D01*
X51017Y19471D01*
X51103Y19678D01*
X51132Y19900D01*
X51103Y20122D01*
X51017Y20329D01*
X50881Y20506D01*
X50704Y20642D01*
X50497Y20728D01*
X50275Y20757D01*
D02*
G37*
G36*
X58090Y19018D02*
X57855Y18987D01*
X57636Y18896D01*
X57448Y18752D01*
X57304Y18564D01*
X57213Y18345D01*
X57182Y18110D01*
X57213Y17875D01*
X57304Y17656D01*
X57448Y17468D01*
X57636Y17324D01*
X57855Y17233D01*
X58090Y17202D01*
X58325Y17233D01*
X58544Y17324D01*
X58732Y17468D01*
X58876Y17656D01*
X58967Y17875D01*
X58998Y18110D01*
X58967Y18345D01*
X58876Y18564D01*
X58732Y18752D01*
X58544Y18896D01*
X58325Y18987D01*
X58090Y19018D01*
D02*
G37*
G36*
X50275Y18757D02*
X50053Y18728D01*
X49846Y18642D01*
X49669Y18506D01*
X49533Y18329D01*
X49447Y18122D01*
X49418Y17900D01*
X49447Y17678D01*
X49533Y17471D01*
X49669Y17294D01*
X49846Y17158D01*
X50053Y17072D01*
X50275Y17043D01*
X50497Y17072D01*
X50704Y17158D01*
X50881Y17294D01*
X51017Y17471D01*
X51103Y17678D01*
X51132Y17900D01*
X51103Y18122D01*
X51017Y18329D01*
X50881Y18506D01*
X50704Y18642D01*
X50497Y18728D01*
X50275Y18757D01*
D02*
G37*
G36*
X57600Y16450D02*
X57175D01*
Y15925D01*
X57600D01*
Y16450D01*
D02*
G37*
G36*
X56925D02*
X56500D01*
Y15925D01*
X56925D01*
Y16450D01*
D02*
G37*
G36*
X56450Y19010D02*
X54650D01*
Y17210D01*
X55142D01*
Y16400D01*
X55050D01*
Y15200D01*
X56050D01*
Y16400D01*
X55958D01*
Y17210D01*
X56450D01*
Y19010D01*
D02*
G37*
G36*
X57600Y15675D02*
X57175D01*
Y15150D01*
X57600D01*
Y15675D01*
D02*
G37*
G36*
X56925D02*
X56500D01*
Y15150D01*
X56925D01*
Y15675D01*
D02*
G37*
G36*
X33175Y13625D02*
X32650D01*
Y13200D01*
X33175D01*
Y13625D01*
D02*
G37*
G36*
X37700Y13757D02*
Y12940D01*
X38517D01*
X38501Y13063D01*
X38405Y13294D01*
X38253Y13493D01*
X38054Y13645D01*
X37823Y13741D01*
X37700Y13757D01*
D02*
G37*
G36*
X37450Y13757D02*
X37327Y13741D01*
X37096Y13645D01*
X36897Y13493D01*
X36745Y13294D01*
X36649Y13063D01*
X36633Y12940D01*
X37450D01*
Y13757D01*
D02*
G37*
G36*
X35035Y13723D02*
X34800Y13692D01*
X34581Y13601D01*
X34393Y13457D01*
X34249Y13269D01*
X34158Y13050D01*
X34127Y12815D01*
X34142Y12701D01*
X34058Y12606D01*
X33125D01*
Y12800D01*
X31925D01*
Y12800D01*
X31850Y12800D01*
Y12800D01*
X30731D01*
X30625Y12850D01*
X30544Y12850D01*
X30100D01*
Y12300D01*
Y11750D01*
X30625Y11750D01*
X30731Y11800D01*
X31850D01*
Y11800D01*
X31925Y11800D01*
Y11800D01*
X33125D01*
Y11994D01*
X34450D01*
X34450Y11994D01*
X34567Y12017D01*
X34583Y12028D01*
X34800Y11938D01*
X35035Y11907D01*
X35270Y11938D01*
X35489Y12029D01*
X35677Y12173D01*
X35821Y12361D01*
X35912Y12580D01*
X35943Y12815D01*
X35912Y13050D01*
X35821Y13269D01*
X35677Y13457D01*
X35489Y13601D01*
X35270Y13692D01*
X35035Y13723D01*
D02*
G37*
G36*
X46425Y12991D02*
Y12225D01*
X47191D01*
X47177Y12335D01*
X47086Y12554D01*
X46942Y12742D01*
X46754Y12886D01*
X46535Y12977D01*
X46425Y12991D01*
D02*
G37*
G36*
X46175D02*
X46065Y12977D01*
X45846Y12886D01*
X45658Y12742D01*
X45514Y12554D01*
X45423Y12335D01*
X45409Y12225D01*
X46175D01*
Y12991D01*
D02*
G37*
G36*
X51725D02*
Y12225D01*
X52491D01*
X52477Y12335D01*
X52386Y12554D01*
X52242Y12742D01*
X52054Y12886D01*
X51835Y12977D01*
X51725Y12991D01*
D02*
G37*
G36*
X51475D02*
X51365Y12977D01*
X51146Y12886D01*
X50958Y12742D01*
X50814Y12554D01*
X50723Y12335D01*
X50709Y12225D01*
X51475D01*
Y12991D01*
D02*
G37*
G36*
X57000D02*
Y12225D01*
X57766D01*
X57752Y12335D01*
X57661Y12554D01*
X57517Y12742D01*
X57329Y12886D01*
X57110Y12977D01*
X57000Y12991D01*
D02*
G37*
G36*
X41200D02*
Y12225D01*
X41966D01*
X41952Y12335D01*
X41861Y12554D01*
X41717Y12742D01*
X41529Y12886D01*
X41310Y12977D01*
X41200Y12991D01*
D02*
G37*
G36*
X56750D02*
X56640Y12977D01*
X56421Y12886D01*
X56233Y12742D01*
X56089Y12554D01*
X55998Y12335D01*
X55984Y12225D01*
X56750D01*
Y12991D01*
D02*
G37*
G36*
X40950D02*
X40840Y12977D01*
X40621Y12886D01*
X40433Y12742D01*
X40289Y12554D01*
X40198Y12335D01*
X40184Y12225D01*
X40950D01*
Y12991D01*
D02*
G37*
G36*
X37450Y12690D02*
X36633D01*
X36649Y12567D01*
X36745Y12336D01*
X36897Y12137D01*
X37096Y11985D01*
X37327Y11889D01*
X37450Y11873D01*
Y12690D01*
D02*
G37*
G36*
X38517D02*
X37700D01*
Y11873D01*
X37823Y11889D01*
X38054Y11985D01*
X38253Y12137D01*
X38405Y12336D01*
X38501Y12567D01*
X38517Y12690D01*
D02*
G37*
G36*
X26725Y15260D02*
X26530Y15221D01*
X26365Y15110D01*
X26254Y14945D01*
X26215Y14750D01*
X26240Y14625D01*
X24720Y13105D01*
X24665Y13022D01*
X24645Y12924D01*
Y12511D01*
X24665Y12413D01*
X24720Y12331D01*
X24819Y12231D01*
X24829Y12182D01*
X24895Y12083D01*
X25708Y11270D01*
X25808Y11204D01*
X25925Y11180D01*
X26042Y11204D01*
X26051Y11210D01*
X26178Y11142D01*
Y10931D01*
X26072Y10860D01*
X25962Y10695D01*
X25947Y10624D01*
X25875Y10509D01*
X25805Y10509D01*
X25805Y10509D01*
X25795Y10509D01*
X25625D01*
Y9750D01*
X25375D01*
Y10509D01*
X25125D01*
X24940Y10472D01*
X24802Y10380D01*
X24727Y10402D01*
X24675Y10435D01*
Y11075D01*
X24250D01*
Y10425D01*
X24125D01*
Y10300D01*
X23575D01*
Y9800D01*
X23375D01*
Y9375D01*
X24025D01*
Y9250D01*
X24150D01*
Y8700D01*
X24559D01*
X24574Y8700D01*
X24598Y8698D01*
X24684Y8657D01*
X24699Y8590D01*
X24700Y8572D01*
X24700Y8548D01*
Y8396D01*
X24625Y8300D01*
X23425D01*
Y7300D01*
X24625D01*
X24700Y7250D01*
Y7250D01*
X26300D01*
Y8155D01*
X26348Y8165D01*
X26430Y8220D01*
X26780Y8570D01*
X26835Y8652D01*
X26855Y8750D01*
Y9709D01*
X26865Y9716D01*
X26992Y9648D01*
Y9475D01*
X27025Y9309D01*
X27119Y9169D01*
X27259Y9075D01*
X27425Y9042D01*
X28175D01*
X28341Y9075D01*
X28445Y9144D01*
X28650D01*
Y8925D01*
X29850D01*
Y9925D01*
X28650D01*
X28607Y10034D01*
X28575Y10191D01*
X28481Y10331D01*
X28341Y10425D01*
X28175Y10458D01*
X28100D01*
X28048Y10585D01*
X28730Y11268D01*
X28747Y11293D01*
X28880Y11204D01*
X29075Y11165D01*
X29270Y11204D01*
X29435Y11315D01*
X29546Y11480D01*
X29585Y11675D01*
X29646Y11750D01*
X29850D01*
Y12300D01*
Y12850D01*
X29325D01*
Y12850D01*
X29212Y12817D01*
X29198Y12816D01*
X28500Y13514D01*
X28506Y13533D01*
X28549Y13635D01*
X27904Y14279D01*
X27189Y14995D01*
X27161Y14997D01*
X27085Y15110D01*
X26920Y15221D01*
X26725Y15260D01*
D02*
G37*
G36*
X46175Y11975D02*
X45409D01*
X45423Y11865D01*
X45514Y11646D01*
X45658Y11458D01*
X45846Y11314D01*
X46065Y11223D01*
X46175Y11209D01*
Y11975D01*
D02*
G37*
G36*
X51475Y11975D02*
X50709D01*
X50723Y11865D01*
X50814Y11646D01*
X50958Y11458D01*
X51146Y11314D01*
X51365Y11223D01*
X51475Y11209D01*
Y11975D01*
D02*
G37*
G36*
X57766Y11975D02*
X57000D01*
Y11209D01*
X57110Y11223D01*
X57329Y11314D01*
X57517Y11458D01*
X57661Y11646D01*
X57752Y11865D01*
X57766Y11975D01*
D02*
G37*
G36*
X41966D02*
X41200D01*
Y11209D01*
X41310Y11223D01*
X41529Y11314D01*
X41717Y11458D01*
X41861Y11646D01*
X41952Y11865D01*
X41966Y11975D01*
D02*
G37*
G36*
X56750D02*
X55984D01*
X55998Y11865D01*
X56089Y11646D01*
X56233Y11458D01*
X56421Y11314D01*
X56640Y11223D01*
X56750Y11209D01*
Y11975D01*
D02*
G37*
G36*
X40950D02*
X40184D01*
X40198Y11865D01*
X40289Y11646D01*
X40433Y11458D01*
X40621Y11314D01*
X40840Y11223D01*
X40950Y11209D01*
Y11975D01*
D02*
G37*
G36*
X52491Y11975D02*
X51725D01*
Y11209D01*
X51835Y11223D01*
X52054Y11314D01*
X52242Y11458D01*
X52386Y11646D01*
X52477Y11865D01*
X52491Y11975D01*
D02*
G37*
G36*
X47191Y11975D02*
X46425D01*
Y11209D01*
X46535Y11223D01*
X46754Y11314D01*
X46942Y11458D01*
X47086Y11646D01*
X47177Y11865D01*
X47191Y11975D01*
D02*
G37*
G36*
X24000Y11075D02*
X23575D01*
Y10550D01*
X24000D01*
Y11075D01*
D02*
G37*
G36*
X37700Y11217D02*
Y10400D01*
X38517D01*
X38501Y10523D01*
X38405Y10754D01*
X38253Y10953D01*
X38054Y11105D01*
X37823Y11201D01*
X37700Y11217D01*
D02*
G37*
G36*
X37450Y11217D02*
X37327Y11201D01*
X37096Y11105D01*
X36897Y10953D01*
X36745Y10754D01*
X36649Y10523D01*
X36633Y10400D01*
X37450D01*
Y11217D01*
D02*
G37*
G36*
X32750Y11325D02*
X31750D01*
Y10702D01*
X31659Y10641D01*
X31659Y10641D01*
X31367Y10350D01*
X31250Y10399D01*
Y11325D01*
X30250D01*
Y10880D01*
X30056D01*
X29985Y10985D01*
X29820Y11096D01*
X29625Y11135D01*
X29430Y11096D01*
X29265Y10985D01*
X29154Y10820D01*
X29115Y10625D01*
X29154Y10430D01*
X29265Y10265D01*
X29430Y10154D01*
X29625Y10115D01*
X29820Y10154D01*
X29985Y10265D01*
X30056Y10370D01*
X30250D01*
Y10125D01*
X30933D01*
X30990Y10003D01*
X30938Y9929D01*
X30920Y9925D01*
X30250D01*
Y8725D01*
X30444D01*
Y8525D01*
X30250D01*
Y7325D01*
X31250D01*
Y8525D01*
X31056D01*
Y8725D01*
X31250D01*
Y9381D01*
X31291Y9409D01*
X31633Y9750D01*
X31750Y9701D01*
Y8725D01*
X32750D01*
Y8731D01*
X32862Y8791D01*
X32880Y8779D01*
X33075Y8740D01*
X33270Y8779D01*
X33435Y8890D01*
X33546Y9055D01*
X33585Y9250D01*
X33546Y9445D01*
X33435Y9610D01*
X33270Y9721D01*
X33075Y9760D01*
X32880Y9721D01*
X32862Y9709D01*
X32750Y9769D01*
Y9925D01*
X32005D01*
X31953Y10043D01*
X32014Y10119D01*
X32150D01*
X32150Y10119D01*
X32180Y10125D01*
X32750D01*
Y10269D01*
X34128D01*
X34158Y10040D01*
X34249Y9821D01*
X34393Y9633D01*
X34581Y9489D01*
X34800Y9398D01*
X35035Y9367D01*
X35270Y9398D01*
X35489Y9489D01*
X35677Y9633D01*
X35821Y9821D01*
X35912Y10040D01*
X35943Y10275D01*
X35912Y10510D01*
X35821Y10729D01*
X35677Y10917D01*
X35489Y11061D01*
X35270Y11152D01*
X35035Y11183D01*
X34800Y11152D01*
X34581Y11061D01*
X34393Y10917D01*
X34365Y10881D01*
X32750D01*
Y11325D01*
D02*
G37*
G36*
X37450Y10150D02*
X36633D01*
X36649Y10027D01*
X36745Y9796D01*
X36897Y9597D01*
X37096Y9445D01*
X37327Y9349D01*
X37450Y9333D01*
Y10150D01*
D02*
G37*
G36*
X38517D02*
X37700D01*
Y9333D01*
X37823Y9349D01*
X38054Y9445D01*
X38253Y9597D01*
X38405Y9796D01*
X38501Y10027D01*
X38517Y10150D01*
D02*
G37*
G36*
X46300Y10957D02*
X46078Y10928D01*
X45871Y10842D01*
X45694Y10706D01*
X45558Y10529D01*
X45472Y10322D01*
X45443Y10100D01*
X45472Y9878D01*
X45558Y9671D01*
X45694Y9494D01*
X45871Y9358D01*
X46078Y9272D01*
X46300Y9243D01*
X46522Y9272D01*
X46729Y9358D01*
X46906Y9494D01*
X47042Y9671D01*
X47128Y9878D01*
X47157Y10100D01*
X47128Y10322D01*
X47042Y10529D01*
X46906Y10706D01*
X46729Y10842D01*
X46522Y10928D01*
X46300Y10957D01*
D02*
G37*
G36*
X41075D02*
X40853Y10928D01*
X40646Y10842D01*
X40469Y10706D01*
X40333Y10529D01*
X40247Y10322D01*
X40218Y10100D01*
X40247Y9878D01*
X40333Y9671D01*
X40469Y9494D01*
X40646Y9358D01*
X40853Y9272D01*
X41075Y9243D01*
X41297Y9272D01*
X41504Y9358D01*
X41681Y9494D01*
X41817Y9671D01*
X41903Y9878D01*
X41932Y10100D01*
X41903Y10322D01*
X41817Y10529D01*
X41681Y10706D01*
X41504Y10842D01*
X41297Y10928D01*
X41075Y10957D01*
D02*
G37*
G36*
X23900Y9125D02*
X23375D01*
Y8700D01*
X23900D01*
Y9125D01*
D02*
G37*
G36*
X29900Y8525D02*
X29375D01*
Y8100D01*
X29900D01*
Y8525D01*
D02*
G37*
G36*
X27675Y8709D02*
X27425D01*
X27240Y8672D01*
X27083Y8567D01*
X26978Y8410D01*
X26941Y8225D01*
Y8075D01*
X27675D01*
Y8709D01*
D02*
G37*
G36*
X37700Y8677D02*
Y7860D01*
X38517D01*
X38501Y7983D01*
X38405Y8214D01*
X38253Y8413D01*
X38054Y8565D01*
X37823Y8661D01*
X37700Y8677D01*
D02*
G37*
G36*
X37450Y8677D02*
X37327Y8661D01*
X37096Y8565D01*
X36897Y8413D01*
X36745Y8214D01*
X36649Y7983D01*
X36633Y7860D01*
X37450D01*
Y8677D01*
D02*
G37*
G36*
X29900Y7850D02*
X29375D01*
Y7425D01*
X29900D01*
Y7850D01*
D02*
G37*
G36*
X32750Y8525D02*
X31750D01*
Y7325D01*
X32750D01*
Y7325D01*
X32775Y7345D01*
X32925Y7315D01*
X33120Y7354D01*
X33285Y7465D01*
X33396Y7630D01*
X33435Y7825D01*
X33396Y8020D01*
X33285Y8185D01*
X33120Y8296D01*
X32925Y8335D01*
X32848Y8320D01*
X32750Y8400D01*
Y8525D01*
D02*
G37*
G36*
X28175Y8709D02*
X27925D01*
Y7950D01*
Y7191D01*
X28175D01*
X28360Y7228D01*
X28517Y7333D01*
X28519Y7335D01*
X28600Y7425D01*
Y7425D01*
X28600Y7425D01*
X29125D01*
Y7975D01*
Y8525D01*
X28600D01*
X28496Y8582D01*
X28360Y8672D01*
X28175Y8709D01*
D02*
G37*
G36*
X27675Y7825D02*
X26941D01*
Y7675D01*
X26978Y7490D01*
X27083Y7333D01*
X27240Y7228D01*
X27425Y7191D01*
X27675D01*
Y7825D01*
D02*
G37*
G36*
X35410Y8645D02*
X34660D01*
X34455Y8605D01*
X34282Y8488D01*
X34165Y8315D01*
X34125Y8110D01*
Y7360D01*
X34165Y7155D01*
X34282Y6982D01*
X34455Y6865D01*
X34660Y6825D01*
X35410D01*
X35615Y6865D01*
X35789Y6982D01*
X35905Y7155D01*
X35945Y7360D01*
Y8110D01*
X35905Y8315D01*
X35789Y8488D01*
X35615Y8605D01*
X35410Y8645D01*
D02*
G37*
G36*
X37450Y7610D02*
X36633D01*
X36649Y7487D01*
X36745Y7256D01*
X36897Y7057D01*
X37096Y6905D01*
X37327Y6809D01*
X37450Y6793D01*
Y7610D01*
D02*
G37*
G36*
X38517D02*
X37700D01*
Y6793D01*
X37823Y6809D01*
X38054Y6905D01*
X38253Y7057D01*
X38405Y7256D01*
X38501Y7487D01*
X38517Y7610D01*
D02*
G37*
G36*
X56875Y6957D02*
X56653Y6928D01*
X56446Y6842D01*
X56269Y6706D01*
X56133Y6529D01*
X56124Y6508D01*
X52351D01*
X52342Y6529D01*
X52206Y6706D01*
X52029Y6842D01*
X51822Y6928D01*
X51600Y6957D01*
X51378Y6928D01*
X51171Y6842D01*
X50994Y6706D01*
X50858Y6529D01*
X50839Y6483D01*
X47061D01*
X47042Y6529D01*
X46906Y6706D01*
X46729Y6842D01*
X46522Y6928D01*
X46300Y6957D01*
X46078Y6928D01*
X45871Y6842D01*
X45694Y6706D01*
X45558Y6529D01*
X45539Y6483D01*
X41836D01*
X41817Y6529D01*
X41681Y6706D01*
X41504Y6842D01*
X41297Y6928D01*
X41075Y6957D01*
X40853Y6928D01*
X40646Y6842D01*
X40469Y6706D01*
X40333Y6529D01*
X40247Y6322D01*
X40218Y6100D01*
X40247Y5878D01*
X40333Y5671D01*
X40469Y5494D01*
X40646Y5358D01*
X40853Y5272D01*
X41075Y5243D01*
X41297Y5272D01*
X41504Y5358D01*
X41681Y5494D01*
X41814Y5667D01*
X45561D01*
X45694Y5494D01*
X45871Y5358D01*
X46078Y5272D01*
X46300Y5243D01*
X46522Y5272D01*
X46729Y5358D01*
X46906Y5494D01*
X47039Y5667D01*
X50861D01*
X50994Y5494D01*
X51171Y5358D01*
X51378Y5272D01*
X51600Y5243D01*
X51822Y5272D01*
X52029Y5358D01*
X52206Y5494D01*
X52342Y5671D01*
X52351Y5692D01*
X56124D01*
X56133Y5671D01*
X56269Y5494D01*
X56446Y5358D01*
X56653Y5272D01*
X56875Y5243D01*
X57097Y5272D01*
X57304Y5358D01*
X57481Y5494D01*
X57617Y5671D01*
X57703Y5878D01*
X57732Y6100D01*
X57703Y6322D01*
X57617Y6529D01*
X57481Y6706D01*
X57304Y6842D01*
X57097Y6928D01*
X56875Y6957D01*
D02*
G37*
G36*
Y4957D02*
X56653Y4928D01*
X56446Y4842D01*
X56269Y4706D01*
X56133Y4529D01*
X56103Y4458D01*
X52372D01*
X52342Y4529D01*
X52206Y4706D01*
X52029Y4842D01*
X51822Y4928D01*
X51600Y4957D01*
X51378Y4928D01*
X51171Y4842D01*
X50994Y4706D01*
X50858Y4529D01*
X50828Y4458D01*
X47072D01*
X47042Y4529D01*
X46906Y4706D01*
X46729Y4842D01*
X46522Y4928D01*
X46300Y4957D01*
X46078Y4928D01*
X45871Y4842D01*
X45694Y4706D01*
X45558Y4529D01*
X45528Y4458D01*
X41847D01*
X41817Y4529D01*
X41681Y4706D01*
X41504Y4842D01*
X41297Y4928D01*
X41075Y4957D01*
X40853Y4928D01*
X40646Y4842D01*
X40469Y4706D01*
X40333Y4529D01*
X40247Y4322D01*
X40218Y4100D01*
X40247Y3878D01*
X40333Y3671D01*
X40469Y3494D01*
X40646Y3358D01*
X40853Y3272D01*
X41075Y3243D01*
X41297Y3272D01*
X41504Y3358D01*
X41681Y3494D01*
X41795Y3642D01*
X45580D01*
X45694Y3494D01*
X45871Y3358D01*
X46078Y3272D01*
X46300Y3243D01*
X46522Y3272D01*
X46729Y3358D01*
X46906Y3494D01*
X47020Y3642D01*
X50880D01*
X50994Y3494D01*
X51171Y3358D01*
X51378Y3272D01*
X51600Y3243D01*
X51822Y3272D01*
X52029Y3358D01*
X52206Y3494D01*
X52320Y3642D01*
X56155D01*
X56269Y3494D01*
X56446Y3358D01*
X56653Y3272D01*
X56875Y3243D01*
X57097Y3272D01*
X57304Y3358D01*
X57481Y3494D01*
X57617Y3671D01*
X57703Y3878D01*
X57732Y4100D01*
X57703Y4322D01*
X57617Y4529D01*
X57481Y4706D01*
X57304Y4842D01*
X57097Y4928D01*
X56875Y4957D01*
D02*
G37*
G36*
Y2957D02*
X56653Y2928D01*
X56446Y2842D01*
X56269Y2706D01*
X56155Y2558D01*
X52320D01*
X52206Y2706D01*
X52029Y2842D01*
X51822Y2928D01*
X51600Y2957D01*
X51378Y2928D01*
X51171Y2842D01*
X50994Y2706D01*
X50880Y2558D01*
X47020D01*
X46906Y2706D01*
X46729Y2842D01*
X46522Y2928D01*
X46300Y2957D01*
X46078Y2928D01*
X45871Y2842D01*
X45694Y2706D01*
X45618Y2608D01*
X41916D01*
X41778Y2580D01*
X41681Y2706D01*
X41504Y2842D01*
X41297Y2928D01*
X41075Y2957D01*
X40853Y2928D01*
X40646Y2842D01*
X40469Y2706D01*
X40333Y2529D01*
X40247Y2322D01*
X40218Y2100D01*
X40247Y1878D01*
X40333Y1671D01*
X40469Y1494D01*
X40646Y1358D01*
X40853Y1272D01*
X41075Y1243D01*
X41297Y1272D01*
X41504Y1358D01*
X41681Y1494D01*
X41817Y1671D01*
X41871Y1801D01*
X41916Y1792D01*
X45507D01*
X45558Y1671D01*
X45694Y1494D01*
X45871Y1358D01*
X46078Y1272D01*
X46300Y1243D01*
X46522Y1272D01*
X46729Y1358D01*
X46906Y1494D01*
X47042Y1671D01*
X47072Y1742D01*
X50828D01*
X50858Y1671D01*
X50994Y1494D01*
X51171Y1358D01*
X51378Y1272D01*
X51600Y1243D01*
X51822Y1272D01*
X52029Y1358D01*
X52206Y1494D01*
X52342Y1671D01*
X52372Y1742D01*
X56103D01*
X56133Y1671D01*
X56269Y1494D01*
X56446Y1358D01*
X56653Y1272D01*
X56875Y1243D01*
X57097Y1272D01*
X57304Y1358D01*
X57481Y1494D01*
X57617Y1671D01*
X57703Y1878D01*
X57732Y2100D01*
X57703Y2322D01*
X57617Y2529D01*
X57481Y2706D01*
X57304Y2842D01*
X57097Y2928D01*
X56875Y2957D01*
D02*
G37*
G36*
X2225Y28666D02*
Y27900D01*
X2991D01*
X2977Y28010D01*
X2886Y28229D01*
X2742Y28417D01*
X2554Y28561D01*
X2335Y28652D01*
X2225Y28666D01*
D02*
G37*
G36*
X1975D02*
X1865Y28652D01*
X1646Y28561D01*
X1458Y28417D01*
X1314Y28229D01*
X1223Y28010D01*
X1209Y27900D01*
X1975D01*
Y28666D01*
D02*
G37*
G36*
X10100Y28632D02*
X9878Y28603D01*
X9671Y28517D01*
X9494Y28381D01*
X9358Y28204D01*
X9272Y27997D01*
X9243Y27775D01*
X9272Y27553D01*
X9358Y27346D01*
X9494Y27169D01*
X9671Y27033D01*
X9878Y26947D01*
X10100Y26918D01*
X10322Y26947D01*
X10529Y27033D01*
X10706Y27169D01*
X10842Y27346D01*
X10928Y27553D01*
X10957Y27775D01*
X10928Y27997D01*
X10842Y28204D01*
X10706Y28381D01*
X10529Y28517D01*
X10322Y28603D01*
X10100Y28632D01*
D02*
G37*
G36*
X8100D02*
X7878Y28603D01*
X7671Y28517D01*
X7494Y28381D01*
X7358Y28204D01*
X7272Y27997D01*
X7243Y27775D01*
X7272Y27553D01*
X7358Y27346D01*
X7494Y27169D01*
X7671Y27033D01*
X7878Y26947D01*
X8100Y26918D01*
X8322Y26947D01*
X8529Y27033D01*
X8706Y27169D01*
X8842Y27346D01*
X8928Y27553D01*
X8957Y27775D01*
X8928Y27997D01*
X8842Y28204D01*
X8706Y28381D01*
X8529Y28517D01*
X8322Y28603D01*
X8100Y28632D01*
D02*
G37*
G36*
X6100D02*
X5878Y28603D01*
X5671Y28517D01*
X5494Y28381D01*
X5358Y28204D01*
X5272Y27997D01*
X5243Y27775D01*
X5272Y27553D01*
X5358Y27346D01*
X5494Y27169D01*
X5671Y27033D01*
X5878Y26947D01*
X6100Y26918D01*
X6322Y26947D01*
X6529Y27033D01*
X6706Y27169D01*
X6842Y27346D01*
X6928Y27553D01*
X6957Y27775D01*
X6928Y27997D01*
X6842Y28204D01*
X6706Y28381D01*
X6529Y28517D01*
X6322Y28603D01*
X6100Y28632D01*
D02*
G37*
G36*
X4100D02*
X3878Y28603D01*
X3671Y28517D01*
X3494Y28381D01*
X3358Y28204D01*
X3272Y27997D01*
X3243Y27775D01*
X3272Y27553D01*
X3358Y27346D01*
X3494Y27169D01*
X3671Y27033D01*
X3878Y26947D01*
X4100Y26918D01*
X4322Y26947D01*
X4529Y27033D01*
X4706Y27169D01*
X4842Y27346D01*
X4928Y27553D01*
X4957Y27775D01*
X4928Y27997D01*
X4842Y28204D01*
X4706Y28381D01*
X4529Y28517D01*
X4322Y28603D01*
X4100Y28632D01*
D02*
G37*
G36*
X2991Y27650D02*
X2225D01*
Y26884D01*
X2335Y26898D01*
X2554Y26989D01*
X2742Y27133D01*
X2886Y27321D01*
X2977Y27540D01*
X2991Y27650D01*
D02*
G37*
G36*
X1975D02*
X1209D01*
X1223Y27540D01*
X1314Y27321D01*
X1458Y27133D01*
X1646Y26989D01*
X1865Y26898D01*
X1975Y26884D01*
Y27650D01*
D02*
G37*
G36*
X13235Y27375D02*
X12660D01*
Y26600D01*
X13235D01*
Y27375D01*
D02*
G37*
G36*
Y26350D02*
X12660D01*
Y25575D01*
X13235D01*
Y26350D01*
D02*
G37*
G36*
X13425Y25400D02*
X13000D01*
Y24875D01*
X13425D01*
Y25400D01*
D02*
G37*
G36*
Y24625D02*
X13000D01*
Y24100D01*
X13425D01*
Y24625D01*
D02*
G37*
G36*
X7200Y18217D02*
Y17400D01*
X8017D01*
X8001Y17523D01*
X7905Y17754D01*
X7753Y17953D01*
X7554Y18105D01*
X7323Y18201D01*
X7200Y18217D01*
D02*
G37*
G36*
X6950D02*
X6827Y18201D01*
X6596Y18105D01*
X6397Y17953D01*
X6245Y17754D01*
X6149Y17523D01*
X6133Y17400D01*
X6950D01*
Y18217D01*
D02*
G37*
G36*
X15275Y18481D02*
X14900D01*
Y17150D01*
X15981D01*
Y17775D01*
X15957Y17958D01*
X15886Y18128D01*
X15774Y18274D01*
X15628Y18386D01*
X15458Y18457D01*
X15275Y18481D01*
D02*
G37*
G36*
X14650D02*
X14275D01*
X14092Y18457D01*
X13922Y18386D01*
X13776Y18274D01*
X13664Y18128D01*
X13593Y17958D01*
X13569Y17775D01*
Y17150D01*
X14650D01*
Y18481D01*
D02*
G37*
G36*
X18675Y17300D02*
X18150D01*
Y16875D01*
X18675D01*
Y17300D01*
D02*
G37*
G36*
X17900D02*
X17375D01*
Y16875D01*
X17900D01*
Y17300D01*
D02*
G37*
G36*
X8017Y17150D02*
X7200D01*
Y16333D01*
X7323Y16349D01*
X7554Y16445D01*
X7753Y16597D01*
X7905Y16796D01*
X8001Y17027D01*
X8017Y17150D01*
D02*
G37*
G36*
X6950D02*
X6133D01*
X6149Y17027D01*
X6245Y16796D01*
X6397Y16597D01*
X6596Y16445D01*
X6827Y16349D01*
X6950Y16333D01*
Y17150D01*
D02*
G37*
G36*
X18675Y16625D02*
X18150D01*
Y16200D01*
X18675D01*
Y16625D01*
D02*
G37*
G36*
X17900D02*
X17375D01*
Y16200D01*
X17900D01*
Y16625D01*
D02*
G37*
G36*
X15981Y16900D02*
X14900D01*
Y15569D01*
X15275D01*
X15458Y15593D01*
X15628Y15664D01*
X15774Y15776D01*
X15886Y15922D01*
X15957Y16092D01*
X15981Y16275D01*
Y16900D01*
D02*
G37*
G36*
X14650D02*
X13569D01*
Y16275D01*
X13593Y16092D01*
X13664Y15922D01*
X13776Y15776D01*
X13922Y15664D01*
X14092Y15593D01*
X14275Y15569D01*
X14650D01*
Y16900D01*
D02*
G37*
G36*
X9075Y15683D02*
X8840Y15652D01*
X8621Y15561D01*
X8433Y15417D01*
X8289Y15229D01*
X8198Y15010D01*
X8167Y14775D01*
X8198Y14540D01*
X8289Y14321D01*
X8433Y14133D01*
X8621Y13989D01*
X8840Y13898D01*
X9075Y13867D01*
X9310Y13898D01*
X9529Y13989D01*
X9717Y14133D01*
X9861Y14321D01*
X9952Y14540D01*
X9983Y14775D01*
X9952Y15010D01*
X9861Y15229D01*
X9717Y15417D01*
X9529Y15561D01*
X9310Y15652D01*
X9075Y15683D01*
D02*
G37*
G36*
X7075D02*
X6840Y15652D01*
X6621Y15561D01*
X6433Y15417D01*
X6289Y15229D01*
X6198Y15010D01*
X6167Y14775D01*
X6198Y14540D01*
X6289Y14321D01*
X6433Y14133D01*
X6621Y13989D01*
X6840Y13898D01*
X7075Y13867D01*
X7310Y13898D01*
X7529Y13989D01*
X7717Y14133D01*
X7861Y14321D01*
X7952Y14540D01*
X7983Y14775D01*
X7952Y15010D01*
X7861Y15229D01*
X7717Y15417D01*
X7529Y15561D01*
X7310Y15652D01*
X7075Y15683D01*
D02*
G37*
%LPD*%
D10*
X9075Y17275D02*
Y18325D01*
X9650Y18900D02*
X11600D01*
X9075Y18325D02*
X9650Y18900D01*
X11600D02*
X14350Y21650D01*
X35800Y16500D02*
X37725Y18425D01*
X33625Y16500D02*
X35800D01*
X37725Y18425D02*
Y22225D01*
X39425Y23925D01*
X33450Y16175D02*
X40850D01*
X43000Y18325D02*
Y21925D01*
X40850Y16175D02*
X43000Y18325D01*
Y21925D02*
X44975Y23900D01*
X45800Y15850D02*
X48350Y18400D01*
Y22025D02*
X50375Y24050D01*
X48350Y18400D02*
Y22025D01*
X33315Y15850D02*
X45800D01*
X50000Y10100D02*
Y12625D01*
X30375Y15525D02*
X47100D01*
X50000Y12625D01*
X48825Y9900D02*
X50625Y8100D01*
X51600D02*
X51600Y8100D01*
X50625Y8100D02*
X51600D01*
X48825Y9900D02*
Y12350D01*
X46000Y15175D02*
X48825Y12350D01*
X30014Y15175D02*
X46000D01*
X40800Y14475D02*
X42625Y12650D01*
X41745Y8445D02*
X42625Y9325D01*
Y12650D01*
X41000Y8050D02*
X41350D01*
X41744Y8445D01*
X41745D01*
X44925Y9450D02*
Y12350D01*
X46275Y8100D02*
X46300D01*
X44925Y9450D02*
X46275Y8100D01*
X29327Y14475D02*
X40800D01*
X42475Y14800D02*
X44925Y12350D01*
X29682Y14800D02*
X42475D01*
X50000Y10100D02*
X51000Y9100D01*
X54650D01*
X22863Y6750D02*
X33325D01*
X33950Y6125D01*
X22594Y6100D02*
X32925D01*
X33150Y6425D02*
X33875Y5700D01*
X21975Y7638D02*
X22863Y6750D01*
X21325Y7369D02*
X22594Y6100D01*
X32925D02*
X33650Y5375D01*
X22729Y6425D02*
X33150D01*
X21650Y7504D02*
X22729Y6425D01*
X10575Y23083D02*
X10642D01*
X10675Y23050D01*
X13445D01*
X32325Y9425D02*
X32400Y9350D01*
X32300Y9325D02*
X32375Y9250D01*
X33075D01*
X27190Y12400D02*
X27700Y11890D01*
Y11800D02*
Y11890D01*
X30925Y10625D02*
X30950Y10650D01*
X29625Y10625D02*
X30925D01*
X29025Y11700D02*
Y12629D01*
X25875Y16776D02*
X26151D01*
X26173Y16754D01*
X25600Y17051D02*
X25875Y16776D01*
X25600Y17051D02*
Y20425D01*
X32150Y8125D02*
X32450Y7825D01*
X32925D01*
X26881Y11627D02*
X26958Y11550D01*
X26600Y9925D02*
X27425Y10750D01*
Y10783D01*
X28225Y11583D01*
X27750Y9450D02*
Y10648D01*
X28550Y11448D01*
X28225Y11583D02*
Y11608D01*
X28550Y11448D02*
Y12396D01*
X26433Y10500D02*
Y11667D01*
X26600Y8750D02*
Y9925D01*
X25872Y12228D02*
X26433Y11667D01*
X26250Y8400D02*
X26600Y8750D01*
X26881Y11627D02*
Y11918D01*
X26225Y12574D02*
X26881Y11918D01*
X27792Y12448D02*
X27820D01*
X28225Y12042D01*
X28225Y11608D02*
X28225Y11608D01*
Y12042D01*
X27286Y13661D02*
X28550Y12396D01*
X26932Y13307D02*
X27792Y12448D01*
X25872Y12228D02*
Y12246D01*
X27639Y14014D02*
X29025Y12629D01*
X26225Y12574D02*
Y12600D01*
X32525Y5250D02*
X33275Y4500D01*
X30533Y5250D02*
X32525D01*
X30375D02*
X30533D01*
X30383Y5450D02*
X30558Y5275D01*
X32650Y5775D02*
X33050Y5375D01*
X22460Y5775D02*
X32650D01*
X30533Y5250D02*
X30558Y5275D01*
X29725Y5125D02*
X31012Y3838D01*
X22190Y5125D02*
X29725D01*
X31012Y3838D02*
X32047D01*
X17975Y18425D02*
X18969D01*
X24900Y12924D02*
X26726Y14750D01*
X32400Y9350D02*
X32425Y9375D01*
X22325Y5450D02*
X30383D01*
X33950Y6125D02*
X37075D01*
X33875Y5700D02*
X36675D01*
X33650Y5375D02*
X35400D01*
X21000Y7235D02*
X22460Y5775D01*
X33050Y5375D02*
X34610Y3815D01*
X33050Y5375D02*
X33050D01*
X25350Y2500D02*
X25675Y2175D01*
X16067Y2500D02*
X25350D01*
X11240Y2840D02*
X26015D01*
X26990Y3815D01*
X15869Y2302D02*
X16067Y2500D01*
X27159Y12400D02*
X27190D01*
X26606Y12954D02*
X27159Y12400D01*
X29318Y13750D02*
X29975D01*
X28346Y14721D02*
X29318Y13750D01*
X28727Y15075D02*
X29327Y14475D01*
X26579Y12954D02*
X26606D01*
X21975Y7638D02*
Y9244D01*
X21200Y10019D02*
X21975Y9244D01*
X27286Y19989D02*
X29496Y22200D01*
X26500Y19204D02*
X27286Y19989D01*
X26189Y17511D02*
Y17511D01*
X25975Y17725D02*
X26189Y17511D01*
X25975Y17725D02*
Y20093D01*
X25600Y20425D02*
X26225Y21050D01*
X27050Y18375D02*
X27100Y18425D01*
Y19069D01*
X25975Y20093D02*
X26579Y20696D01*
X22056Y4800D02*
X27675D01*
X28375Y3325D02*
Y4100D01*
X27675Y4800D02*
X28375Y4100D01*
X26050Y8400D02*
X26250D01*
X25733Y7933D02*
Y8083D01*
X26050Y8400D01*
X25450Y7650D02*
X25733Y7933D01*
X20675Y7100D02*
X22325Y5450D01*
X20675Y7100D02*
Y8550D01*
X37075Y6125D02*
X38375Y4825D01*
X35400Y5375D02*
X35825Y4950D01*
X36675Y5700D02*
X37100Y5275D01*
X38375Y2500D02*
Y4825D01*
X16288Y23375D02*
X17138Y24225D01*
X18850D01*
X18825Y25000D02*
X18850Y24975D01*
Y24225D02*
Y24975D01*
Y25000D02*
Y26100D01*
Y24225D02*
X20225D01*
X18101Y22576D02*
X19077D01*
X12850Y8525D02*
X15550D01*
X16325Y9300D02*
Y13100D01*
X15550Y8525D02*
X16325Y9300D01*
X15725Y5250D02*
Y7900D01*
X17575Y9750D02*
Y13107D01*
X15725Y7900D02*
X17575Y9750D01*
X14300Y22450D02*
Y23233D01*
X11100Y21925D02*
X11125Y21950D01*
X13445D01*
X14442Y23375D02*
X16288D01*
X14300Y23233D02*
X14442Y23375D01*
X14300Y21600D02*
Y22450D01*
X14350Y21650D02*
Y22450D01*
X14400Y22500D01*
X13445Y23050D02*
X13495Y23000D01*
X4100Y27450D02*
Y27775D01*
X6125Y27725D02*
X6208Y27642D01*
X13445Y21950D02*
X13495Y22000D01*
X18825Y26125D02*
X20150D01*
X29467Y1338D02*
X29530Y1275D01*
X56850Y8075D02*
X56875Y8100D01*
X54650Y9100D02*
X55675Y8075D01*
X56850D01*
X44975Y23900D02*
Y23925D01*
X30350Y19875D02*
X34450Y23975D01*
X28586Y19875D02*
X30350D01*
X39425Y23925D02*
X39675D01*
X26932Y20343D02*
X31489Y24900D01*
X52600D02*
X55535Y21965D01*
X31489Y24900D02*
X52600D01*
X22190Y5125D02*
X22190Y5125D01*
X18525Y6575D02*
X19975Y5125D01*
X22190D01*
X22056Y4800D02*
X22056Y4800D01*
X18150Y6425D02*
X19775Y4800D01*
X22056D01*
X19825Y9400D02*
Y13236D01*
Y9400D02*
X20675Y8550D01*
X21000Y7235D02*
Y8775D01*
X20175Y9600D02*
Y12879D01*
Y9600D02*
X21000Y8775D01*
X20875Y9885D02*
Y11457D01*
X21325Y7369D02*
Y8975D01*
X20875Y9885D02*
X21650Y9110D01*
X21200Y10019D02*
Y11075D01*
X20525Y9775D02*
X21325Y8975D01*
X21650Y7504D02*
Y9110D01*
X20525Y9775D02*
Y12521D01*
X33275Y2480D02*
Y4500D01*
X29467Y1338D02*
Y2233D01*
X28375Y3325D02*
X29467Y2233D01*
X16325Y13100D02*
X20825Y17600D01*
X16975Y13214D02*
X19543Y15782D01*
X16975Y10475D02*
Y13214D01*
X17575Y13107D02*
X19896Y15428D01*
X14290Y3815D02*
X15725Y5250D01*
X18150Y12975D02*
X20250Y15075D01*
X18150Y6425D02*
Y12975D01*
X20096Y14296D02*
X20178D01*
X20604Y14721D01*
X18525Y12725D02*
X20096Y14296D01*
X20525Y12521D02*
X21664Y13661D01*
X18525Y6575D02*
Y12725D01*
X19825Y13236D02*
X20957Y14368D01*
X20175Y12879D02*
X21311Y14014D01*
X20875Y11457D02*
X22371Y12954D01*
X21200Y11075D02*
X22725Y12600D01*
X30650Y19475D02*
X33625Y16500D01*
X30475Y19150D02*
X33450Y16175D01*
X30340Y18825D02*
X33315Y15850D01*
X14490Y7490D02*
Y7550D01*
X13000Y6000D02*
X14490Y7490D01*
X9525Y5275D02*
X10250Y6000D01*
X13000D01*
X9525Y4475D02*
Y5275D01*
X27100Y19069D02*
X27639Y19609D01*
X26725Y14750D02*
X26726D01*
X24900Y12511D02*
Y12924D01*
Y12511D02*
X25518Y11893D01*
X15575Y2225D02*
X15652Y2302D01*
X15869D01*
X10475Y2075D02*
X11240Y2840D01*
X18551Y23201D02*
X18575Y23225D01*
X19136D02*
X22018Y20343D01*
X18575Y23225D02*
X19136D01*
X19077Y22576D02*
X21664Y19989D01*
X18650Y22025D02*
X18921D01*
X27639Y19636D02*
X28554Y20550D01*
X29975D01*
X29496Y22200D02*
X30025D01*
X27993Y19282D02*
X28586Y19875D01*
X9800Y2075D02*
X10475D01*
X9550Y1800D02*
Y1825D01*
X9800Y2075D01*
X24448Y19873D02*
X24525Y19950D01*
X22875Y15725D02*
X24400Y17250D01*
X24448Y19681D02*
Y19873D01*
X24400Y19633D02*
X24448Y19681D01*
X24400Y17250D02*
Y19633D01*
X23078Y21401D02*
X23650Y20830D01*
X23078Y21401D02*
Y21404D01*
X22725Y17060D02*
X23650Y17985D01*
X23975Y17567D02*
Y21187D01*
X23650Y17985D02*
Y20830D01*
X23479Y17071D02*
X23975Y17567D01*
X23432Y21730D02*
Y21757D01*
Y21730D02*
X23975Y21187D01*
X21875Y16875D02*
X23325Y18325D01*
Y20450D01*
X22371Y20669D02*
X23000Y20041D01*
X21000Y16800D02*
X23000Y18800D01*
Y20041D01*
X22725Y21050D02*
X23325Y20450D01*
X22725Y16975D02*
Y17060D01*
X22371Y20669D02*
Y20696D01*
X22875Y14164D02*
Y15725D01*
X22018Y13307D02*
X22875Y14164D01*
X55535Y20890D02*
Y21965D01*
X35825Y2490D02*
Y4950D01*
X34610Y1275D02*
X35825Y2490D01*
X32070Y1275D02*
X33275Y2480D01*
X37150Y1275D02*
X38375Y2500D01*
X37100Y3865D02*
Y5275D01*
X27639Y19609D02*
Y19636D01*
X11950Y7625D02*
X12850Y8525D01*
X11950Y7550D02*
Y7625D01*
X18921Y22025D02*
X21311Y19636D01*
X28875Y17025D02*
X30375Y15525D01*
X29407Y15782D02*
X30014Y15175D01*
X29054Y15428D02*
X29682Y14800D01*
X20825Y17600D02*
Y18000D01*
X20250Y18575D02*
X20825Y18000D01*
X25700Y23850D02*
X25808Y23742D01*
Y23217D02*
Y23742D01*
X26150Y22389D02*
Y22875D01*
X25808Y23217D02*
X26150Y22875D01*
X25518Y21757D02*
X26150Y22389D01*
X29657Y18825D02*
X30340D01*
X29302Y19150D02*
X30475D01*
X29054Y18222D02*
X29657Y18825D01*
X28700Y18575D02*
X28727D01*
X29302Y19150D01*
X28346Y18929D02*
X28373D01*
X28920Y19475D01*
X30650D01*
X28875Y17025D02*
Y17309D01*
X29407Y17841D02*
Y17868D01*
X28875Y17309D02*
X29407Y17841D01*
X28700Y15075D02*
X28727D01*
X18825Y26125D02*
X18850Y26100D01*
X15750Y21975D02*
X16225Y21500D01*
X16075Y20875D02*
X16225Y21025D01*
Y21500D01*
X17217Y20908D02*
X17225Y20900D01*
X17217Y20908D02*
Y21533D01*
X15762Y22988D02*
X17217Y21533D01*
X16700Y19950D02*
X16975D01*
X16075Y20875D02*
X16308Y20642D01*
Y20342D02*
Y20642D01*
Y20342D02*
X16700Y19950D01*
X17225Y19600D02*
Y19700D01*
X16975Y19950D02*
X17225Y19700D01*
X22675Y10425D02*
Y11136D01*
X23432Y11893D01*
X18969Y18425D02*
X19526Y17868D01*
X19543D01*
X15105Y22000D02*
X15130Y21975D01*
X15750D01*
X15105Y23000D02*
X15117Y22988D01*
X15762D01*
X18725Y19600D02*
X18925Y19800D01*
X19732D02*
X20604Y18929D01*
X18925Y19800D02*
X19732D01*
X18725Y20900D02*
X18925Y20700D01*
X19539D02*
X20957Y19282D01*
X18925Y20700D02*
X19539D01*
X14400Y22500D02*
X15105D01*
X0Y0D02*
Y30000D01*
Y0D02*
X60000D01*
Y30000D01*
X0D02*
X60000D01*
D12*
X30025Y13800D02*
X31250D01*
X29975Y13750D02*
X30025Y13800D01*
D25*
X58090Y20650D02*
D03*
X55550D02*
D03*
X58090Y18110D02*
D03*
X35035Y10275D02*
D03*
Y12815D02*
D03*
X37575D02*
D03*
Y10275D02*
D03*
Y7735D02*
D03*
X11700Y3815D02*
D03*
Y1275D02*
D03*
X14240Y3815D02*
D03*
Y1275D02*
D03*
X16780Y3815D02*
D03*
Y1275D02*
D03*
X19320Y3815D02*
D03*
Y1275D02*
D03*
X21860Y3815D02*
D03*
Y1275D02*
D03*
X24400Y3815D02*
D03*
Y1275D02*
D03*
X26940Y3815D02*
D03*
Y1275D02*
D03*
X29480Y3815D02*
D03*
Y1275D02*
D03*
X32020Y3815D02*
D03*
Y1275D02*
D03*
X34560Y3815D02*
D03*
Y1275D02*
D03*
X37100Y3815D02*
D03*
X16980Y7400D02*
D03*
X14440D02*
D03*
X11900D02*
D03*
X9360D02*
D03*
X9075Y14775D02*
D03*
X7075Y17275D02*
D03*
X9075D02*
D03*
X7075Y14775D02*
D03*
D34*
X11600Y10550D02*
D03*
Y12050D02*
D03*
X16075Y20875D02*
D03*
Y19375D02*
D03*
X25575Y27550D02*
D03*
Y26100D02*
D03*
X24300Y27550D02*
D03*
Y26100D02*
D03*
X26850Y27550D02*
D03*
Y26100D02*
D03*
X32525Y13750D02*
D03*
Y12300D02*
D03*
X29975Y12300D02*
D03*
Y13750D02*
D03*
X31250Y12300D02*
D03*
Y13800D02*
D03*
X29250Y7975D02*
D03*
Y9425D02*
D03*
X24025Y7800D02*
D03*
Y9250D02*
D03*
X18025Y16750D02*
D03*
Y18200D02*
D03*
D35*
X32250Y10725D02*
D03*
X30750D02*
D03*
Y9325D02*
D03*
X32250D02*
D03*
X32250Y7925D02*
D03*
X30750D02*
D03*
X9550Y1800D02*
D03*
X8050D02*
D03*
X25700Y23850D02*
D03*
X24250D02*
D03*
X28975Y27600D02*
D03*
X30475D02*
D03*
X18825Y25000D02*
D03*
X17375D02*
D03*
X55550Y15800D02*
D03*
X57050D02*
D03*
X15050Y24750D02*
D03*
X13550D02*
D03*
X17375Y26250D02*
D03*
X18825D02*
D03*
X9525Y4475D02*
D03*
X8075D02*
D03*
X24125Y10425D02*
D03*
X22675D02*
D03*
X18725Y19775D02*
D03*
X17225D02*
D03*
X18725Y21025D02*
D03*
X17225D02*
D03*
D36*
X13495Y23000D02*
D03*
Y22500D02*
D03*
Y22000D02*
D03*
X15105D02*
D03*
Y22500D02*
D03*
Y23000D02*
D03*
D37*
X23432Y11893D02*
D03*
X23078Y12246D02*
D03*
X22725Y12600D02*
D03*
X22371Y12954D02*
D03*
X22018Y13307D02*
D03*
X21664Y13661D02*
D03*
X21311Y14014D02*
D03*
X20957Y14368D02*
D03*
X20604Y14721D02*
D03*
X20250Y15075D02*
D03*
X19896Y15428D02*
D03*
X19543Y15782D02*
D03*
X25518Y21757D02*
D03*
X25872Y21404D02*
D03*
X26225Y21050D02*
D03*
X26579Y20696D02*
D03*
X26932Y20343D02*
D03*
X27286Y19989D02*
D03*
X27639Y19636D02*
D03*
X27993Y19282D02*
D03*
X28346Y18929D02*
D03*
X28700Y18575D02*
D03*
X29054Y18222D02*
D03*
X29407Y17868D02*
D03*
D38*
X19543D02*
D03*
X19896Y18222D02*
D03*
X20250Y18575D02*
D03*
X20604Y18929D02*
D03*
X20957Y19282D02*
D03*
X21311Y19636D02*
D03*
X21664Y19989D02*
D03*
X22018Y20343D02*
D03*
X22371Y20696D02*
D03*
X22725Y21050D02*
D03*
X23078Y21404D02*
D03*
X23432Y21757D02*
D03*
X29407Y15782D02*
D03*
X29054Y15428D02*
D03*
X28700Y15075D02*
D03*
X28346Y14721D02*
D03*
X27993Y14368D02*
D03*
X27639Y14014D02*
D03*
X27286Y13661D02*
D03*
X26932Y13307D02*
D03*
X26579Y12954D02*
D03*
X26225Y12600D02*
D03*
X25872Y12246D02*
D03*
X25518Y11893D02*
D03*
D39*
X20225Y26250D02*
D03*
Y25300D02*
D03*
Y24350D02*
D03*
X22975D02*
D03*
Y26250D02*
D03*
D40*
X30475Y26100D02*
D03*
X28975D02*
D03*
X9550Y3125D02*
D03*
X8050D02*
D03*
D41*
X15290Y26475D02*
D03*
X13360D02*
D03*
D42*
X25500Y9750D02*
D03*
X27800D02*
D03*
Y7950D02*
D03*
D43*
X25500D02*
D03*
D44*
X7175Y3400D02*
Y7450D01*
X10250Y10525D01*
X12600D01*
X34780Y10505D02*
X34850Y10575D01*
X32250Y10725D02*
X32400Y10575D01*
X34410D01*
X34481Y10505D01*
X34780D01*
X31075Y9625D02*
X31875Y10425D01*
X30950Y9625D02*
X31075D01*
X31875Y10425D02*
X32150D01*
X30750Y7925D02*
Y9325D01*
Y9425D01*
X30950Y9625D01*
X32150Y10425D02*
X32225Y10500D01*
X30750Y7925D02*
X30750Y7925D01*
X34805Y10045D02*
X35035Y10275D01*
X22975Y26125D02*
X26825D01*
X8075Y6215D02*
X9410Y7550D01*
X35035Y12815D02*
X35160D01*
X34965D02*
X35035D01*
X17025Y18425D02*
X17263D01*
X17319Y18369D01*
X32525Y12300D02*
X34450D01*
X34965Y12815D01*
X27750Y9450D02*
X29125D01*
X8075Y4475D02*
Y6215D01*
X7175Y3400D02*
X7426Y3149D01*
X8026D01*
X8050Y3125D01*
X8050Y1800D02*
Y1843D01*
X8250Y2043D01*
X8643D01*
X8800Y2200D01*
Y2650D01*
X9000Y2850D01*
X9350D01*
X9550Y3050D02*
Y3125D01*
X9350Y2850D02*
X9550Y3050D01*
X25700Y23850D02*
X26600D01*
X21925Y10425D02*
X22675D01*
X22675Y10425D01*
X24000Y7825D02*
X25275D01*
X25450Y7650D01*
X26600Y23850D02*
X26625Y23825D01*
X26825Y26125D02*
X26850Y26100D01*
X27913D01*
X28975D02*
X28975Y26100D01*
X27913Y26100D02*
X28975D01*
X16075Y19375D02*
X16150D01*
X16350Y19175D01*
Y18850D02*
Y19175D01*
Y18850D02*
X16693Y18507D01*
X31250Y12300D02*
X32525D01*
X31250Y12300D02*
X31250Y12300D01*
X17319Y18369D02*
X17681D01*
X17000Y18450D02*
X17025Y18425D01*
D45*
X57950Y18225D02*
X58075Y18350D01*
X51502Y10125D02*
X56850D01*
X34670Y8100D02*
X35035Y7735D01*
X11575Y9725D02*
X14044D01*
X14775Y10456D01*
Y10525D01*
X9410Y7560D02*
X11575Y9725D01*
X51600Y2100D02*
X51650Y2150D01*
X56825D02*
X56875Y2100D01*
X51650Y2150D02*
X56825D01*
X51550D02*
X51600Y2100D01*
Y4100D02*
X51650Y4050D01*
X56825D02*
X56875Y4100D01*
X51650Y4050D02*
X56825D01*
X51550D02*
X51600Y4100D01*
X46300D02*
X46350Y4050D01*
X51550D01*
X46250D02*
X46300Y4100D01*
Y2100D02*
X46350Y2150D01*
X51550D01*
X46200Y2200D02*
X46300Y2100D01*
X41916Y2200D02*
X46200D01*
X41762Y4050D02*
X46250D01*
X46275Y6075D02*
X46300Y6100D01*
X41782Y6075D02*
X46275D01*
X46300Y6100D02*
X46325Y6075D01*
X51575D02*
X51600Y6100D01*
X46325Y6075D02*
X51575D01*
X51600Y6100D02*
X56875D01*
X56850Y10125D02*
X56875Y10100D01*
X55550Y15800D02*
Y18335D01*
X55535Y18350D02*
X55550Y18335D01*
X9410Y7550D02*
Y7560D01*
D46*
X11600Y12050D02*
X13650D01*
X14700Y11000D01*
X30475Y26100D02*
Y27600D01*
X30475Y26100D02*
X30475Y26100D01*
D47*
X41075Y2100D02*
D03*
Y4100D02*
D03*
Y6100D02*
D03*
Y8100D02*
D03*
Y10100D02*
D03*
Y12100D02*
D03*
X34350Y27900D02*
D03*
Y25900D02*
D03*
Y23900D02*
D03*
Y21900D02*
D03*
Y19900D02*
D03*
Y17900D02*
D03*
X44975Y27925D02*
D03*
Y25925D02*
D03*
Y23925D02*
D03*
Y21925D02*
D03*
Y19925D02*
D03*
Y17925D02*
D03*
X50275Y17900D02*
D03*
Y19900D02*
D03*
Y21900D02*
D03*
Y23900D02*
D03*
Y25900D02*
D03*
Y27900D02*
D03*
X39675Y17925D02*
D03*
Y19925D02*
D03*
Y21925D02*
D03*
Y23925D02*
D03*
Y25925D02*
D03*
Y27925D02*
D03*
X46300Y12100D02*
D03*
Y10100D02*
D03*
Y8100D02*
D03*
Y6100D02*
D03*
Y4100D02*
D03*
Y2100D02*
D03*
X56875Y12100D02*
D03*
Y10100D02*
D03*
Y8100D02*
D03*
Y6100D02*
D03*
Y4100D02*
D03*
Y2100D02*
D03*
X51600D02*
D03*
Y4100D02*
D03*
Y6100D02*
D03*
Y8100D02*
D03*
Y10100D02*
D03*
Y12100D02*
D03*
X2100Y27775D02*
D03*
X4100D02*
D03*
X6100D02*
D03*
X8100D02*
D03*
X10100D02*
D03*
X57000Y27000D02*
D03*
D48*
X14775Y10525D02*
D03*
Y17025D02*
D03*
D49*
X55550Y18110D02*
D03*
D50*
X35035Y7735D02*
D03*
D51*
X37100Y1275D02*
D03*
D52*
X19520Y7400D02*
D03*
D53*
X4365Y22045D02*
D03*
Y10005D02*
D03*
D54*
X3000Y3000D02*
D03*
D55*
X53500Y18000D02*
D03*
X59000Y14500D02*
D03*
Y6500D02*
D03*
X48500Y1000D02*
D03*
X28000Y29000D02*
D03*
X59000D02*
D03*
X54500D02*
D03*
X4500Y6500D02*
D03*
X5000Y25500D02*
D03*
X1000D02*
D03*
X4500Y13500D02*
D03*
Y18500D02*
D03*
X1000Y8000D02*
D03*
Y14000D02*
D03*
Y20000D02*
D03*
X9075Y26600D02*
D03*
X6450Y12125D02*
D03*
X48950Y7350D02*
D03*
X43750Y7425D02*
D03*
X42075Y14100D02*
D03*
X10575Y23083D02*
D03*
X33075Y9250D02*
D03*
X27700Y11800D02*
D03*
X29625Y10625D02*
D03*
X29075Y11675D02*
D03*
X26173Y16754D02*
D03*
X23700Y15375D02*
D03*
X32925Y7825D02*
D03*
X26958Y11550D02*
D03*
X26433Y10500D02*
D03*
X30375Y5250D02*
D03*
X25675Y2175D02*
D03*
X22550Y7975D02*
D03*
X26189Y17511D02*
D03*
X27050Y18375D02*
D03*
X26500Y19025D02*
D03*
X12600Y10525D02*
D03*
X58800Y23700D02*
D03*
X59000Y1000D02*
D03*
X44500Y14200D02*
D03*
X48700Y15600D02*
D03*
X11725Y24100D02*
D03*
X11700Y26600D02*
D03*
X6925Y8100D02*
D03*
X11925Y14925D02*
D03*
X11100Y21925D02*
D03*
X12950Y28950D02*
D03*
X16975Y10475D02*
D03*
X28025Y17100D02*
D03*
X56600Y14500D02*
D03*
X22000Y29000D02*
D03*
X16000D02*
D03*
X53150Y23350D02*
D03*
X23850Y22475D02*
D03*
X24600Y20875D02*
D03*
X28575Y24825D02*
D03*
X27550Y21900D02*
D03*
X21575Y24675D02*
D03*
Y25750D02*
D03*
X15000Y20825D02*
D03*
X16625Y16800D02*
D03*
X26725Y14750D02*
D03*
X15575Y2225D02*
D03*
X18551Y23201D02*
D03*
X18101Y22576D02*
D03*
X18650Y22025D02*
D03*
X29975Y20550D02*
D03*
X30025Y22200D02*
D03*
X24525Y19950D02*
D03*
X23479Y17071D02*
D03*
X22725Y16975D02*
D03*
X21875Y16875D02*
D03*
X21000Y16800D02*
D03*
X21925Y10425D02*
D03*
X27913Y26100D02*
D03*
X26625Y23825D02*
D03*
X17000Y18450D02*
D03*
M02*
