M48
;Layer_Color=9474304
;FILE_FORMAT=4:3
METRIC,LZ
;TYPE=PLATED
T1F00S00C0.300
T2F00S00C0.700
T3F00S00C0.900
T4F00S00C0.920
T5F00S00C1.000
T6F00S00C2.300
%
T01
X0047875Y00086
X0010475Y0011075
X0008025Y0011175
X0004625Y0008175
X000465Y0005425
X000795Y002225
X001105Y0022875
X0012075Y002215
X00131Y0023925
X00129Y00272
X0010075Y0028325
Y0029075
Y0029825
X000785Y002985
Y00291
X00043Y002695
X0011925Y0032175
X0011575Y0034075
X001355Y0035175
X00156Y00328
Y00318
X00158Y0029625
X0015825Y00274
X0016225Y0025475
X0017525Y0024525
X0017725Y00225
X0015175Y002285
X0017375Y0017725
X0024575Y0016375
X0025425Y00232
Y002405
X0024525Y0028225
X0023475Y002855
X002295Y0027925
X0024Y0029192
X002565Y0030112
X0025409Y0031109
X0025971Y0031567
X0026098Y003235
X0026906Y0032351
X0026425Y00334
X0027475
X0028125Y0031925
X002805Y00278
X003055Y002605
X003385Y0026875
X0035075Y0030551
X0035677Y00301
X00372Y0030925
X00365Y003225
X0036425Y00349
X0033875Y0032925
X0030875Y0033875
X0022675Y0033325
X00217Y003405
X0020225Y003305
X001945Y0029725
X0020775Y002665
X0033875Y0020825
X003865Y0025025
X0039975Y003325
X0047725Y002725
T02
X0014475Y000315
X0016475
X0018475
X0020475
X0022475
X0024475
X00287
X00307
X00327
X00347
X00367
X00387
X0038675Y0008175
X0036675
X0034675
X0032675
X0030675
X0028675
X002445Y0008175
X002245
X002045
X001845
X001645
X001445
Y00132
X001645
X001845
X002045
X002245
X002445
X0028675Y00132
X0030675
X0032675
X0034675
X0036675
X0038675
X0010075Y00328
X0008075
X0006075
X0004075
X0002075
X0028675Y002325
X0030675
X0032675
X0034675
X0036675
X0038675
Y0018225
X0036675
X0034675
X0032675
X0030675
X0028675
T03
X004216Y0001485
X00447
Y0004025
X004216
Y0006565
X00447
Y0009105
X004216
Y0011645
X00447
Y0014185
X004216
Y0016725
X00447
Y0019265
X004216
Y0021805
X00447
Y0024345
X004216
Y0026885
X00447
Y0029425
X004216
Y0031965
X00447
Y0034505
X004216
T04
X000575Y001675
X000775
Y001925
X000575
T05
X00514Y001276
X001004Y00077
Y000516
X00075
Y000262
X001004
X00075Y00077
X00514Y00153
Y001784
Y002038
Y002292
T06
X000304Y001198
Y002402
M30
